G04 #@! TF.GenerationSoftware,KiCad,Pcbnew,(5.1.5)-3*
G04 #@! TF.CreationDate,2020-05-23T13:52:20-04:00*
G04 #@! TF.ProjectId,STM32_Klipper_Expander,53544d33-325f-44b6-9c69-707065725f45,B*
G04 #@! TF.SameCoordinates,Original*
G04 #@! TF.FileFunction,Legend,Bot*
G04 #@! TF.FilePolarity,Positive*
%FSLAX46Y46*%
G04 Gerber Fmt 4.6, Leading zero omitted, Abs format (unit mm)*
G04 Created by KiCad (PCBNEW (5.1.5)-3) date 2020-05-23 13:52:20*
%MOMM*%
%LPD*%
G04 APERTURE LIST*
%ADD10C,0.300000*%
%ADD11C,0.200000*%
%ADD12C,0.150000*%
%ADD13C,0.100000*%
G04 APERTURE END LIST*
D10*
X146042095Y-88002952D02*
X146042095Y-85502952D01*
X144613523Y-88002952D02*
X145684952Y-86574380D01*
X144613523Y-85502952D02*
X146042095Y-86931523D01*
X143184952Y-88002952D02*
X143423047Y-87883904D01*
X143542095Y-87645809D01*
X143542095Y-85502952D01*
X142232571Y-88002952D02*
X142232571Y-86336285D01*
X142232571Y-85502952D02*
X142351619Y-85622000D01*
X142232571Y-85741047D01*
X142113523Y-85622000D01*
X142232571Y-85502952D01*
X142232571Y-85741047D01*
X141042095Y-86336285D02*
X141042095Y-88836285D01*
X141042095Y-86455333D02*
X140804000Y-86336285D01*
X140327809Y-86336285D01*
X140089714Y-86455333D01*
X139970666Y-86574380D01*
X139851619Y-86812476D01*
X139851619Y-87526761D01*
X139970666Y-87764857D01*
X140089714Y-87883904D01*
X140327809Y-88002952D01*
X140804000Y-88002952D01*
X141042095Y-87883904D01*
X138780190Y-86336285D02*
X138780190Y-88836285D01*
X138780190Y-86455333D02*
X138542095Y-86336285D01*
X138065904Y-86336285D01*
X137827809Y-86455333D01*
X137708761Y-86574380D01*
X137589714Y-86812476D01*
X137589714Y-87526761D01*
X137708761Y-87764857D01*
X137827809Y-87883904D01*
X138065904Y-88002952D01*
X138542095Y-88002952D01*
X138780190Y-87883904D01*
X135565904Y-87883904D02*
X135804000Y-88002952D01*
X136280190Y-88002952D01*
X136518285Y-87883904D01*
X136637333Y-87645809D01*
X136637333Y-86693428D01*
X136518285Y-86455333D01*
X136280190Y-86336285D01*
X135804000Y-86336285D01*
X135565904Y-86455333D01*
X135446857Y-86693428D01*
X135446857Y-86931523D01*
X136637333Y-87169619D01*
X134375428Y-88002952D02*
X134375428Y-86336285D01*
X134375428Y-86812476D02*
X134256380Y-86574380D01*
X134137333Y-86455333D01*
X133899238Y-86336285D01*
X133661142Y-86336285D01*
X130923047Y-86693428D02*
X130089714Y-86693428D01*
X129732571Y-88002952D02*
X130923047Y-88002952D01*
X130923047Y-85502952D01*
X129732571Y-85502952D01*
X128899238Y-88002952D02*
X127589714Y-86336285D01*
X128899238Y-86336285D02*
X127589714Y-88002952D01*
X126637333Y-86336285D02*
X126637333Y-88836285D01*
X126637333Y-86455333D02*
X126399238Y-86336285D01*
X125923047Y-86336285D01*
X125684952Y-86455333D01*
X125565904Y-86574380D01*
X125446857Y-86812476D01*
X125446857Y-87526761D01*
X125565904Y-87764857D01*
X125684952Y-87883904D01*
X125923047Y-88002952D01*
X126399238Y-88002952D01*
X126637333Y-87883904D01*
X123304000Y-88002952D02*
X123304000Y-86693428D01*
X123423047Y-86455333D01*
X123661142Y-86336285D01*
X124137333Y-86336285D01*
X124375428Y-86455333D01*
X123304000Y-87883904D02*
X123542095Y-88002952D01*
X124137333Y-88002952D01*
X124375428Y-87883904D01*
X124494476Y-87645809D01*
X124494476Y-87407714D01*
X124375428Y-87169619D01*
X124137333Y-87050571D01*
X123542095Y-87050571D01*
X123304000Y-86931523D01*
X122113523Y-86336285D02*
X122113523Y-88002952D01*
X122113523Y-86574380D02*
X121994476Y-86455333D01*
X121756380Y-86336285D01*
X121399238Y-86336285D01*
X121161142Y-86455333D01*
X121042095Y-86693428D01*
X121042095Y-88002952D01*
X119970666Y-87883904D02*
X119732571Y-88002952D01*
X119256380Y-88002952D01*
X119018285Y-87883904D01*
X118899238Y-87645809D01*
X118899238Y-87526761D01*
X119018285Y-87288666D01*
X119256380Y-87169619D01*
X119613523Y-87169619D01*
X119851619Y-87050571D01*
X119970666Y-86812476D01*
X119970666Y-86693428D01*
X119851619Y-86455333D01*
X119613523Y-86336285D01*
X119256380Y-86336285D01*
X119018285Y-86455333D01*
X117827809Y-88002952D02*
X117827809Y-86336285D01*
X117827809Y-85502952D02*
X117946857Y-85622000D01*
X117827809Y-85741047D01*
X117708761Y-85622000D01*
X117827809Y-85502952D01*
X117827809Y-85741047D01*
X116280190Y-88002952D02*
X116518285Y-87883904D01*
X116637333Y-87764857D01*
X116756380Y-87526761D01*
X116756380Y-86812476D01*
X116637333Y-86574380D01*
X116518285Y-86455333D01*
X116280190Y-86336285D01*
X115923047Y-86336285D01*
X115684952Y-86455333D01*
X115565904Y-86574380D01*
X115446857Y-86812476D01*
X115446857Y-87526761D01*
X115565904Y-87764857D01*
X115684952Y-87883904D01*
X115923047Y-88002952D01*
X116280190Y-88002952D01*
X114375428Y-86336285D02*
X114375428Y-88002952D01*
X114375428Y-86574380D02*
X114256380Y-86455333D01*
X114018285Y-86336285D01*
X113661142Y-86336285D01*
X113423047Y-86455333D01*
X113304000Y-86693428D01*
X113304000Y-88002952D01*
X109375428Y-86693428D02*
X109018285Y-86812476D01*
X108899238Y-86931523D01*
X108780190Y-87169619D01*
X108780190Y-87526761D01*
X108899238Y-87764857D01*
X109018285Y-87883904D01*
X109256380Y-88002952D01*
X110208761Y-88002952D01*
X110208761Y-85502952D01*
X109375428Y-85502952D01*
X109137333Y-85622000D01*
X109018285Y-85741047D01*
X108899238Y-85979142D01*
X108899238Y-86217238D01*
X109018285Y-86455333D01*
X109137333Y-86574380D01*
X109375428Y-86693428D01*
X110208761Y-86693428D01*
X107351619Y-88002952D02*
X107589714Y-87883904D01*
X107708761Y-87764857D01*
X107827809Y-87526761D01*
X107827809Y-86812476D01*
X107708761Y-86574380D01*
X107589714Y-86455333D01*
X107351619Y-86336285D01*
X106994476Y-86336285D01*
X106756380Y-86455333D01*
X106637333Y-86574380D01*
X106518285Y-86812476D01*
X106518285Y-87526761D01*
X106637333Y-87764857D01*
X106756380Y-87883904D01*
X106994476Y-88002952D01*
X107351619Y-88002952D01*
X104375428Y-88002952D02*
X104375428Y-86693428D01*
X104494476Y-86455333D01*
X104732571Y-86336285D01*
X105208761Y-86336285D01*
X105446857Y-86455333D01*
X104375428Y-87883904D02*
X104613523Y-88002952D01*
X105208761Y-88002952D01*
X105446857Y-87883904D01*
X105565904Y-87645809D01*
X105565904Y-87407714D01*
X105446857Y-87169619D01*
X105208761Y-87050571D01*
X104613523Y-87050571D01*
X104375428Y-86931523D01*
X103184952Y-88002952D02*
X103184952Y-86336285D01*
X103184952Y-86812476D02*
X103065904Y-86574380D01*
X102946857Y-86455333D01*
X102708761Y-86336285D01*
X102470666Y-86336285D01*
X100565904Y-88002952D02*
X100565904Y-85502952D01*
X100565904Y-87883904D02*
X100804000Y-88002952D01*
X101280190Y-88002952D01*
X101518285Y-87883904D01*
X101637333Y-87764857D01*
X101756380Y-87526761D01*
X101756380Y-86812476D01*
X101637333Y-86574380D01*
X101518285Y-86455333D01*
X101280190Y-86336285D01*
X100804000Y-86336285D01*
X100565904Y-86455333D01*
X125149238Y-89552952D02*
X124315904Y-92052952D01*
X123482571Y-89552952D01*
X122768285Y-91933904D02*
X122530190Y-92052952D01*
X122054000Y-92052952D01*
X121815904Y-91933904D01*
X121696857Y-91695809D01*
X121696857Y-91576761D01*
X121815904Y-91338666D01*
X122054000Y-91219619D01*
X122411142Y-91219619D01*
X122649238Y-91100571D01*
X122768285Y-90862476D01*
X122768285Y-90743428D01*
X122649238Y-90505333D01*
X122411142Y-90386285D01*
X122054000Y-90386285D01*
X121815904Y-90505333D01*
X139196857Y-93602952D02*
X137768285Y-93602952D01*
X138482571Y-96102952D02*
X138482571Y-93602952D01*
X136934952Y-96102952D02*
X136934952Y-94436285D01*
X136934952Y-93602952D02*
X137054000Y-93722000D01*
X136934952Y-93841047D01*
X136815904Y-93722000D01*
X136934952Y-93602952D01*
X136934952Y-93841047D01*
X135744476Y-96102952D02*
X135744476Y-94436285D01*
X135744476Y-94674380D02*
X135625428Y-94555333D01*
X135387333Y-94436285D01*
X135030190Y-94436285D01*
X134792095Y-94555333D01*
X134673047Y-94793428D01*
X134673047Y-96102952D01*
X134673047Y-94793428D02*
X134554000Y-94555333D01*
X134315904Y-94436285D01*
X133958761Y-94436285D01*
X133720666Y-94555333D01*
X133601619Y-94793428D01*
X133601619Y-96102952D01*
X132054000Y-96102952D02*
X132292095Y-95983904D01*
X132411142Y-95864857D01*
X132530190Y-95626761D01*
X132530190Y-94912476D01*
X132411142Y-94674380D01*
X132292095Y-94555333D01*
X132054000Y-94436285D01*
X131696857Y-94436285D01*
X131458761Y-94555333D01*
X131339714Y-94674380D01*
X131220666Y-94912476D01*
X131220666Y-95626761D01*
X131339714Y-95864857D01*
X131458761Y-95983904D01*
X131696857Y-96102952D01*
X132054000Y-96102952D01*
X130506380Y-94436285D02*
X129554000Y-94436285D01*
X130149238Y-93602952D02*
X130149238Y-95745809D01*
X130030190Y-95983904D01*
X129792095Y-96102952D01*
X129554000Y-96102952D01*
X128720666Y-96102952D02*
X128720666Y-93602952D01*
X127649238Y-96102952D02*
X127649238Y-94793428D01*
X127768285Y-94555333D01*
X128006380Y-94436285D01*
X128363523Y-94436285D01*
X128601619Y-94555333D01*
X128720666Y-94674380D01*
X126696857Y-94436285D02*
X126101619Y-96102952D01*
X125506380Y-94436285D02*
X126101619Y-96102952D01*
X126339714Y-96698190D01*
X126458761Y-96817238D01*
X126696857Y-96936285D01*
X122768285Y-95388666D02*
X121577809Y-95388666D01*
X123006380Y-96102952D02*
X122173047Y-93602952D01*
X121339714Y-96102952D01*
X120506380Y-96102952D02*
X120506380Y-93602952D01*
X120506380Y-94555333D02*
X120268285Y-94436285D01*
X119792095Y-94436285D01*
X119554000Y-94555333D01*
X119434952Y-94674380D01*
X119315904Y-94912476D01*
X119315904Y-95626761D01*
X119434952Y-95864857D01*
X119554000Y-95983904D01*
X119792095Y-96102952D01*
X120268285Y-96102952D01*
X120506380Y-95983904D01*
X118244476Y-96102952D02*
X118244476Y-94436285D01*
X118244476Y-94912476D02*
X118125428Y-94674380D01*
X118006380Y-94555333D01*
X117768285Y-94436285D01*
X117530190Y-94436285D01*
X115625428Y-96102952D02*
X115625428Y-94793428D01*
X115744476Y-94555333D01*
X115982571Y-94436285D01*
X116458761Y-94436285D01*
X116696857Y-94555333D01*
X115625428Y-95983904D02*
X115863523Y-96102952D01*
X116458761Y-96102952D01*
X116696857Y-95983904D01*
X116815904Y-95745809D01*
X116815904Y-95507714D01*
X116696857Y-95269619D01*
X116458761Y-95150571D01*
X115863523Y-95150571D01*
X115625428Y-95031523D01*
X114434952Y-96102952D02*
X114434952Y-93602952D01*
X113363523Y-96102952D02*
X113363523Y-94793428D01*
X113482571Y-94555333D01*
X113720666Y-94436285D01*
X114077809Y-94436285D01*
X114315904Y-94555333D01*
X114434952Y-94674380D01*
X111101619Y-96102952D02*
X111101619Y-94793428D01*
X111220666Y-94555333D01*
X111458761Y-94436285D01*
X111934952Y-94436285D01*
X112173047Y-94555333D01*
X111101619Y-95983904D02*
X111339714Y-96102952D01*
X111934952Y-96102952D01*
X112173047Y-95983904D01*
X112292095Y-95745809D01*
X112292095Y-95507714D01*
X112173047Y-95269619D01*
X111934952Y-95150571D01*
X111339714Y-95150571D01*
X111101619Y-95031523D01*
X109911142Y-96102952D02*
X109911142Y-94436285D01*
X109911142Y-94674380D02*
X109792095Y-94555333D01*
X109554000Y-94436285D01*
X109196857Y-94436285D01*
X108958761Y-94555333D01*
X108839714Y-94793428D01*
X108839714Y-96102952D01*
X108839714Y-94793428D02*
X108720666Y-94555333D01*
X108482571Y-94436285D01*
X108125428Y-94436285D01*
X107887333Y-94555333D01*
X107768285Y-94793428D01*
X107768285Y-96102952D01*
D11*
X141052666Y-78746523D02*
X141052666Y-79996523D01*
X141528857Y-79996523D01*
X141647904Y-79937000D01*
X141707428Y-79877476D01*
X141766952Y-79758428D01*
X141766952Y-79579857D01*
X141707428Y-79460809D01*
X141647904Y-79401285D01*
X141528857Y-79341761D01*
X141052666Y-79341761D01*
X142243142Y-79103666D02*
X142838380Y-79103666D01*
X142124095Y-78746523D02*
X142540761Y-79996523D01*
X142957428Y-78746523D01*
X144028857Y-78746523D02*
X143314571Y-78746523D01*
X143671714Y-78746523D02*
X143671714Y-79996523D01*
X143552666Y-79817952D01*
X143433619Y-79698904D01*
X143314571Y-79639380D01*
X145338380Y-79996523D02*
X145755047Y-78746523D01*
X146171714Y-79996523D01*
X146588380Y-78746523D02*
X146588380Y-79579857D01*
X146588380Y-79996523D02*
X146528857Y-79937000D01*
X146588380Y-79877476D01*
X146647904Y-79937000D01*
X146588380Y-79996523D01*
X146588380Y-79877476D01*
X147183619Y-79579857D02*
X147183619Y-78746523D01*
X147183619Y-79460809D02*
X147243142Y-79520333D01*
X147362190Y-79579857D01*
X147540761Y-79579857D01*
X147659809Y-79520333D01*
X147719333Y-79401285D01*
X147719333Y-78746523D01*
D12*
X178275904Y-90490666D02*
X177475904Y-90490666D01*
X177475904Y-90795428D01*
X177514000Y-90871619D01*
X177552095Y-90909714D01*
X177628285Y-90947809D01*
X177742571Y-90947809D01*
X177818761Y-90909714D01*
X177856857Y-90871619D01*
X177894952Y-90795428D01*
X177894952Y-90490666D01*
X178047333Y-91252571D02*
X178047333Y-91633523D01*
X178275904Y-91176380D02*
X177475904Y-91443047D01*
X178275904Y-91709714D01*
X177475904Y-91900190D02*
X177475904Y-92433523D01*
X178275904Y-92090666D01*
X177475904Y-93271619D02*
X177475904Y-93766857D01*
X177780666Y-93500190D01*
X177780666Y-93614476D01*
X177818761Y-93690666D01*
X177856857Y-93728761D01*
X177933047Y-93766857D01*
X178123523Y-93766857D01*
X178199714Y-93728761D01*
X178237809Y-93690666D01*
X178275904Y-93614476D01*
X178275904Y-93385904D01*
X178237809Y-93309714D01*
X178199714Y-93271619D01*
X177742571Y-94033523D02*
X178275904Y-94224000D01*
X177742571Y-94414476D01*
X177475904Y-94643047D02*
X177475904Y-95138285D01*
X177780666Y-94871619D01*
X177780666Y-94985904D01*
X177818761Y-95062095D01*
X177856857Y-95100190D01*
X177933047Y-95138285D01*
X178123523Y-95138285D01*
X178199714Y-95100190D01*
X178237809Y-95062095D01*
X178275904Y-94985904D01*
X178275904Y-94757333D01*
X178237809Y-94681142D01*
X178199714Y-94643047D01*
X177514000Y-96509714D02*
X177475904Y-96433523D01*
X177475904Y-96319238D01*
X177514000Y-96204952D01*
X177590190Y-96128761D01*
X177666380Y-96090666D01*
X177818761Y-96052571D01*
X177933047Y-96052571D01*
X178085428Y-96090666D01*
X178161619Y-96128761D01*
X178237809Y-96204952D01*
X178275904Y-96319238D01*
X178275904Y-96395428D01*
X178237809Y-96509714D01*
X178199714Y-96547809D01*
X177933047Y-96547809D01*
X177933047Y-96395428D01*
X177742571Y-96890666D02*
X178275904Y-96890666D01*
X177818761Y-96890666D02*
X177780666Y-96928761D01*
X177742571Y-97004952D01*
X177742571Y-97119238D01*
X177780666Y-97195428D01*
X177856857Y-97233523D01*
X178275904Y-97233523D01*
X178275904Y-97957333D02*
X177475904Y-97957333D01*
X178237809Y-97957333D02*
X178275904Y-97881142D01*
X178275904Y-97728761D01*
X178237809Y-97652571D01*
X178199714Y-97614476D01*
X178123523Y-97576380D01*
X177894952Y-97576380D01*
X177818761Y-97614476D01*
X177780666Y-97652571D01*
X177742571Y-97728761D01*
X177742571Y-97881142D01*
X177780666Y-97957333D01*
X183942857Y-96850000D02*
X184019047Y-96811904D01*
X184133333Y-96811904D01*
X184247619Y-96850000D01*
X184323809Y-96926190D01*
X184361904Y-97002380D01*
X184400000Y-97154761D01*
X184400000Y-97269047D01*
X184361904Y-97421428D01*
X184323809Y-97497619D01*
X184247619Y-97573809D01*
X184133333Y-97611904D01*
X184057142Y-97611904D01*
X183942857Y-97573809D01*
X183904761Y-97535714D01*
X183904761Y-97269047D01*
X184057142Y-97269047D01*
X183561904Y-97078571D02*
X183561904Y-97611904D01*
X183561904Y-97154761D02*
X183523809Y-97116666D01*
X183447619Y-97078571D01*
X183333333Y-97078571D01*
X183257142Y-97116666D01*
X183219047Y-97192857D01*
X183219047Y-97611904D01*
X182495238Y-97611904D02*
X182495238Y-96811904D01*
X182495238Y-97573809D02*
X182571428Y-97611904D01*
X182723809Y-97611904D01*
X182800000Y-97573809D01*
X182838095Y-97535714D01*
X182876190Y-97459523D01*
X182876190Y-97230952D01*
X182838095Y-97154761D01*
X182800000Y-97116666D01*
X182723809Y-97078571D01*
X182571428Y-97078571D01*
X182495238Y-97116666D01*
X181504761Y-97611904D02*
X181504761Y-96811904D01*
X181200000Y-96811904D01*
X181123809Y-96850000D01*
X181085714Y-96888095D01*
X181047619Y-96964285D01*
X181047619Y-97078571D01*
X181085714Y-97154761D01*
X181123809Y-97192857D01*
X181200000Y-97230952D01*
X181504761Y-97230952D01*
X180742857Y-97383333D02*
X180361904Y-97383333D01*
X180819047Y-97611904D02*
X180552380Y-96811904D01*
X180285714Y-97611904D01*
X179638095Y-96811904D02*
X180019047Y-96811904D01*
X180057142Y-97192857D01*
X180019047Y-97154761D01*
X179942857Y-97116666D01*
X179752380Y-97116666D01*
X179676190Y-97154761D01*
X179638095Y-97192857D01*
X179600000Y-97269047D01*
X179600000Y-97459523D01*
X179638095Y-97535714D01*
X179676190Y-97573809D01*
X179752380Y-97611904D01*
X179942857Y-97611904D01*
X180019047Y-97573809D01*
X180057142Y-97535714D01*
D11*
X120732666Y-78746523D02*
X120732666Y-79996523D01*
X121208857Y-79996523D01*
X121327904Y-79937000D01*
X121387428Y-79877476D01*
X121446952Y-79758428D01*
X121446952Y-79579857D01*
X121387428Y-79460809D01*
X121327904Y-79401285D01*
X121208857Y-79341761D01*
X120732666Y-79341761D01*
X121923142Y-79103666D02*
X122518380Y-79103666D01*
X121804095Y-78746523D02*
X122220761Y-79996523D01*
X122637428Y-78746523D01*
X122935047Y-79996523D02*
X123708857Y-79996523D01*
X123292190Y-79520333D01*
X123470761Y-79520333D01*
X123589809Y-79460809D01*
X123649333Y-79401285D01*
X123708857Y-79282238D01*
X123708857Y-78984619D01*
X123649333Y-78865571D01*
X123589809Y-78806047D01*
X123470761Y-78746523D01*
X123113619Y-78746523D01*
X122994571Y-78806047D01*
X122935047Y-78865571D01*
X125018380Y-79996523D02*
X125435047Y-78746523D01*
X125851714Y-79996523D01*
X126268380Y-78746523D02*
X126268380Y-79579857D01*
X126268380Y-79996523D02*
X126208857Y-79937000D01*
X126268380Y-79877476D01*
X126327904Y-79937000D01*
X126268380Y-79996523D01*
X126268380Y-79877476D01*
X126863619Y-79579857D02*
X126863619Y-78746523D01*
X126863619Y-79460809D02*
X126923142Y-79520333D01*
X127042190Y-79579857D01*
X127220761Y-79579857D01*
X127339809Y-79520333D01*
X127399333Y-79401285D01*
X127399333Y-78746523D01*
X157535714Y-80321428D02*
X158035714Y-78821428D01*
X158535714Y-80321428D01*
X159035714Y-78821428D02*
X159035714Y-79821428D01*
X159035714Y-80321428D02*
X158964285Y-80250000D01*
X159035714Y-80178571D01*
X159107142Y-80250000D01*
X159035714Y-80321428D01*
X159035714Y-80178571D01*
X159750000Y-79821428D02*
X159750000Y-78821428D01*
X159750000Y-79678571D02*
X159821428Y-79750000D01*
X159964285Y-79821428D01*
X160178571Y-79821428D01*
X160321428Y-79750000D01*
X160392857Y-79607142D01*
X160392857Y-78821428D01*
X163035714Y-80250000D02*
X162892857Y-80321428D01*
X162678571Y-80321428D01*
X162464285Y-80250000D01*
X162321428Y-80107142D01*
X162250000Y-79964285D01*
X162178571Y-79678571D01*
X162178571Y-79464285D01*
X162250000Y-79178571D01*
X162321428Y-79035714D01*
X162464285Y-78892857D01*
X162678571Y-78821428D01*
X162821428Y-78821428D01*
X163035714Y-78892857D01*
X163107142Y-78964285D01*
X163107142Y-79464285D01*
X162821428Y-79464285D01*
X163750000Y-79821428D02*
X163750000Y-78821428D01*
X163750000Y-79678571D02*
X163821428Y-79750000D01*
X163964285Y-79821428D01*
X164178571Y-79821428D01*
X164321428Y-79750000D01*
X164392857Y-79607142D01*
X164392857Y-78821428D01*
X165750000Y-78821428D02*
X165750000Y-80321428D01*
X165750000Y-78892857D02*
X165607142Y-78821428D01*
X165321428Y-78821428D01*
X165178571Y-78892857D01*
X165107142Y-78964285D01*
X165035714Y-79107142D01*
X165035714Y-79535714D01*
X165107142Y-79678571D01*
X165178571Y-79750000D01*
X165321428Y-79821428D01*
X165607142Y-79821428D01*
X165750000Y-79750000D01*
D12*
X192442857Y-96850000D02*
X192519047Y-96811904D01*
X192633333Y-96811904D01*
X192747619Y-96850000D01*
X192823809Y-96926190D01*
X192861904Y-97002380D01*
X192900000Y-97154761D01*
X192900000Y-97269047D01*
X192861904Y-97421428D01*
X192823809Y-97497619D01*
X192747619Y-97573809D01*
X192633333Y-97611904D01*
X192557142Y-97611904D01*
X192442857Y-97573809D01*
X192404761Y-97535714D01*
X192404761Y-97269047D01*
X192557142Y-97269047D01*
X192061904Y-97078571D02*
X192061904Y-97611904D01*
X192061904Y-97154761D02*
X192023809Y-97116666D01*
X191947619Y-97078571D01*
X191833333Y-97078571D01*
X191757142Y-97116666D01*
X191719047Y-97192857D01*
X191719047Y-97611904D01*
X190995238Y-97611904D02*
X190995238Y-96811904D01*
X190995238Y-97573809D02*
X191071428Y-97611904D01*
X191223809Y-97611904D01*
X191300000Y-97573809D01*
X191338095Y-97535714D01*
X191376190Y-97459523D01*
X191376190Y-97230952D01*
X191338095Y-97154761D01*
X191300000Y-97116666D01*
X191223809Y-97078571D01*
X191071428Y-97078571D01*
X190995238Y-97116666D01*
X190004761Y-97611904D02*
X190004761Y-96811904D01*
X189700000Y-96811904D01*
X189623809Y-96850000D01*
X189585714Y-96888095D01*
X189547619Y-96964285D01*
X189547619Y-97078571D01*
X189585714Y-97154761D01*
X189623809Y-97192857D01*
X189700000Y-97230952D01*
X190004761Y-97230952D01*
X189242857Y-97383333D02*
X188861904Y-97383333D01*
X189319047Y-97611904D02*
X189052380Y-96811904D01*
X188785714Y-97611904D01*
X188176190Y-96811904D02*
X188328571Y-96811904D01*
X188404761Y-96850000D01*
X188442857Y-96888095D01*
X188519047Y-97002380D01*
X188557142Y-97154761D01*
X188557142Y-97459523D01*
X188519047Y-97535714D01*
X188480952Y-97573809D01*
X188404761Y-97611904D01*
X188252380Y-97611904D01*
X188176190Y-97573809D01*
X188138095Y-97535714D01*
X188100000Y-97459523D01*
X188100000Y-97269047D01*
X188138095Y-97192857D01*
X188176190Y-97154761D01*
X188252380Y-97116666D01*
X188404761Y-97116666D01*
X188480952Y-97154761D01*
X188519047Y-97192857D01*
X188557142Y-97269047D01*
X174226190Y-80811904D02*
X173730952Y-80811904D01*
X173997619Y-81116666D01*
X173883333Y-81116666D01*
X173807142Y-81154761D01*
X173769047Y-81192857D01*
X173730952Y-81269047D01*
X173730952Y-81459523D01*
X173769047Y-81535714D01*
X173807142Y-81573809D01*
X173883333Y-81611904D01*
X174111904Y-81611904D01*
X174188095Y-81573809D01*
X174226190Y-81535714D01*
X173502380Y-80811904D02*
X173235714Y-81611904D01*
X172969047Y-80811904D01*
X172778571Y-80811904D02*
X172283333Y-80811904D01*
X172550000Y-81116666D01*
X172435714Y-81116666D01*
X172359523Y-81154761D01*
X172321428Y-81192857D01*
X172283333Y-81269047D01*
X172283333Y-81459523D01*
X172321428Y-81535714D01*
X172359523Y-81573809D01*
X172435714Y-81611904D01*
X172664285Y-81611904D01*
X172740476Y-81573809D01*
X172778571Y-81535714D01*
X171330952Y-81611904D02*
X171330952Y-80811904D01*
X171026190Y-80811904D01*
X170950000Y-80850000D01*
X170911904Y-80888095D01*
X170873809Y-80964285D01*
X170873809Y-81078571D01*
X170911904Y-81154761D01*
X170950000Y-81192857D01*
X171026190Y-81230952D01*
X171330952Y-81230952D01*
X170264285Y-81192857D02*
X170150000Y-81230952D01*
X170111904Y-81269047D01*
X170073809Y-81345238D01*
X170073809Y-81459523D01*
X170111904Y-81535714D01*
X170150000Y-81573809D01*
X170226190Y-81611904D01*
X170530952Y-81611904D01*
X170530952Y-80811904D01*
X170264285Y-80811904D01*
X170188095Y-80850000D01*
X170150000Y-80888095D01*
X170111904Y-80964285D01*
X170111904Y-81040476D01*
X170150000Y-81116666D01*
X170188095Y-81154761D01*
X170264285Y-81192857D01*
X170530952Y-81192857D01*
X169616666Y-81154761D02*
X169692857Y-81116666D01*
X169730952Y-81078571D01*
X169769047Y-81002380D01*
X169769047Y-80964285D01*
X169730952Y-80888095D01*
X169692857Y-80850000D01*
X169616666Y-80811904D01*
X169464285Y-80811904D01*
X169388095Y-80850000D01*
X169350000Y-80888095D01*
X169311904Y-80964285D01*
X169311904Y-81002380D01*
X169350000Y-81078571D01*
X169388095Y-81116666D01*
X169464285Y-81154761D01*
X169616666Y-81154761D01*
X169692857Y-81192857D01*
X169730952Y-81230952D01*
X169769047Y-81307142D01*
X169769047Y-81459523D01*
X169730952Y-81535714D01*
X169692857Y-81573809D01*
X169616666Y-81611904D01*
X169464285Y-81611904D01*
X169388095Y-81573809D01*
X169350000Y-81535714D01*
X169311904Y-81459523D01*
X169311904Y-81307142D01*
X169350000Y-81230952D01*
X169388095Y-81192857D01*
X169464285Y-81154761D01*
D11*
X130892666Y-78746523D02*
X130892666Y-79996523D01*
X131368857Y-79996523D01*
X131487904Y-79937000D01*
X131547428Y-79877476D01*
X131606952Y-79758428D01*
X131606952Y-79579857D01*
X131547428Y-79460809D01*
X131487904Y-79401285D01*
X131368857Y-79341761D01*
X130892666Y-79341761D01*
X132083142Y-79103666D02*
X132678380Y-79103666D01*
X131964095Y-78746523D02*
X132380761Y-79996523D01*
X132797428Y-78746523D01*
X133154571Y-79877476D02*
X133214095Y-79937000D01*
X133333142Y-79996523D01*
X133630761Y-79996523D01*
X133749809Y-79937000D01*
X133809333Y-79877476D01*
X133868857Y-79758428D01*
X133868857Y-79639380D01*
X133809333Y-79460809D01*
X133095047Y-78746523D01*
X133868857Y-78746523D01*
X135178380Y-79996523D02*
X135595047Y-78746523D01*
X136011714Y-79996523D01*
X136428380Y-78746523D02*
X136428380Y-79579857D01*
X136428380Y-79996523D02*
X136368857Y-79937000D01*
X136428380Y-79877476D01*
X136487904Y-79937000D01*
X136428380Y-79996523D01*
X136428380Y-79877476D01*
X137023619Y-79579857D02*
X137023619Y-78746523D01*
X137023619Y-79460809D02*
X137083142Y-79520333D01*
X137202190Y-79579857D01*
X137380761Y-79579857D01*
X137499809Y-79520333D01*
X137559333Y-79401285D01*
X137559333Y-78746523D01*
D13*
X158767857Y-99339285D02*
X158767857Y-98589285D01*
X158482142Y-98589285D01*
X158410714Y-98625000D01*
X158375000Y-98660714D01*
X158339285Y-98732142D01*
X158339285Y-98839285D01*
X158375000Y-98910714D01*
X158410714Y-98946428D01*
X158482142Y-98982142D01*
X158767857Y-98982142D01*
X158053571Y-99125000D02*
X157696428Y-99125000D01*
X158125000Y-99339285D02*
X157875000Y-98589285D01*
X157625000Y-99339285D01*
X156982142Y-99339285D02*
X157410714Y-99339285D01*
X157196428Y-99339285D02*
X157196428Y-98589285D01*
X157267857Y-98696428D01*
X157339285Y-98767857D01*
X157410714Y-98803571D01*
X156732142Y-98589285D02*
X156267857Y-98589285D01*
X156517857Y-98875000D01*
X156410714Y-98875000D01*
X156339285Y-98910714D01*
X156303571Y-98946428D01*
X156267857Y-99017857D01*
X156267857Y-99196428D01*
X156303571Y-99267857D01*
X156339285Y-99303571D01*
X156410714Y-99339285D01*
X156625000Y-99339285D01*
X156696428Y-99303571D01*
X156732142Y-99267857D01*
X155375000Y-99339285D02*
X155375000Y-98589285D01*
X155089285Y-98589285D01*
X155017857Y-98625000D01*
X154982142Y-98660714D01*
X154946428Y-98732142D01*
X154946428Y-98839285D01*
X154982142Y-98910714D01*
X155017857Y-98946428D01*
X155089285Y-98982142D01*
X155375000Y-98982142D01*
X154660714Y-99125000D02*
X154303571Y-99125000D01*
X154732142Y-99339285D02*
X154482142Y-98589285D01*
X154232142Y-99339285D01*
X153589285Y-99339285D02*
X154017857Y-99339285D01*
X153803571Y-99339285D02*
X153803571Y-98589285D01*
X153875000Y-98696428D01*
X153946428Y-98767857D01*
X154017857Y-98803571D01*
X152946428Y-98839285D02*
X152946428Y-99339285D01*
X153125000Y-98553571D02*
X153303571Y-99089285D01*
X152839285Y-99089285D01*
X151553571Y-99339285D02*
X151803571Y-98982142D01*
X151982142Y-99339285D02*
X151982142Y-98589285D01*
X151696428Y-98589285D01*
X151625000Y-98625000D01*
X151589285Y-98660714D01*
X151553571Y-98732142D01*
X151553571Y-98839285D01*
X151589285Y-98910714D01*
X151625000Y-98946428D01*
X151696428Y-98982142D01*
X151982142Y-98982142D01*
X151267857Y-99303571D02*
X151160714Y-99339285D01*
X150982142Y-99339285D01*
X150910714Y-99303571D01*
X150875000Y-99267857D01*
X150839285Y-99196428D01*
X150839285Y-99125000D01*
X150875000Y-99053571D01*
X150910714Y-99017857D01*
X150982142Y-98982142D01*
X151125000Y-98946428D01*
X151196428Y-98910714D01*
X151232142Y-98875000D01*
X151267857Y-98803571D01*
X151267857Y-98732142D01*
X151232142Y-98660714D01*
X151196428Y-98625000D01*
X151125000Y-98589285D01*
X150946428Y-98589285D01*
X150839285Y-98625000D01*
X150625000Y-98589285D02*
X150196428Y-98589285D01*
X150410714Y-99339285D02*
X150410714Y-98589285D01*
D11*
X110572666Y-78672523D02*
X110572666Y-79922523D01*
X111048857Y-79922523D01*
X111167904Y-79863000D01*
X111227428Y-79803476D01*
X111286952Y-79684428D01*
X111286952Y-79505857D01*
X111227428Y-79386809D01*
X111167904Y-79327285D01*
X111048857Y-79267761D01*
X110572666Y-79267761D01*
X111763142Y-79029666D02*
X112358380Y-79029666D01*
X111644095Y-78672523D02*
X112060761Y-79922523D01*
X112477428Y-78672523D01*
X113429809Y-79505857D02*
X113429809Y-78672523D01*
X113132190Y-79982047D02*
X112834571Y-79089190D01*
X113608380Y-79089190D01*
X114858380Y-79922523D02*
X115275047Y-78672523D01*
X115691714Y-79922523D01*
X116108380Y-78672523D02*
X116108380Y-79505857D01*
X116108380Y-79922523D02*
X116048857Y-79863000D01*
X116108380Y-79803476D01*
X116167904Y-79863000D01*
X116108380Y-79922523D01*
X116108380Y-79803476D01*
X116703619Y-79505857D02*
X116703619Y-78672523D01*
X116703619Y-79386809D02*
X116763142Y-79446333D01*
X116882190Y-79505857D01*
X117060761Y-79505857D01*
X117179809Y-79446333D01*
X117239333Y-79327285D01*
X117239333Y-78672523D01*
D13*
X195319000Y-86053571D02*
X195283285Y-85982142D01*
X195283285Y-85875000D01*
X195319000Y-85767857D01*
X195390428Y-85696428D01*
X195461857Y-85660714D01*
X195604714Y-85625000D01*
X195711857Y-85625000D01*
X195854714Y-85660714D01*
X195926142Y-85696428D01*
X195997571Y-85767857D01*
X196033285Y-85875000D01*
X196033285Y-85946428D01*
X195997571Y-86053571D01*
X195961857Y-86089285D01*
X195711857Y-86089285D01*
X195711857Y-85946428D01*
X195533285Y-86410714D02*
X196033285Y-86410714D01*
X195604714Y-86410714D02*
X195569000Y-86446428D01*
X195533285Y-86517857D01*
X195533285Y-86625000D01*
X195569000Y-86696428D01*
X195640428Y-86732142D01*
X196033285Y-86732142D01*
X196033285Y-87410714D02*
X195283285Y-87410714D01*
X195997571Y-87410714D02*
X196033285Y-87339285D01*
X196033285Y-87196428D01*
X195997571Y-87125000D01*
X195961857Y-87089285D01*
X195890428Y-87053571D01*
X195676142Y-87053571D01*
X195604714Y-87089285D01*
X195569000Y-87125000D01*
X195533285Y-87196428D01*
X195533285Y-87339285D01*
X195569000Y-87410714D01*
X196033285Y-88339285D02*
X195283285Y-88339285D01*
X195283285Y-88625000D01*
X195319000Y-88696428D01*
X195354714Y-88732142D01*
X195426142Y-88767857D01*
X195533285Y-88767857D01*
X195604714Y-88732142D01*
X195640428Y-88696428D01*
X195676142Y-88625000D01*
X195676142Y-88339285D01*
X195640428Y-89339285D02*
X195676142Y-89446428D01*
X195711857Y-89482142D01*
X195783285Y-89517857D01*
X195890428Y-89517857D01*
X195961857Y-89482142D01*
X195997571Y-89446428D01*
X196033285Y-89375000D01*
X196033285Y-89089285D01*
X195283285Y-89089285D01*
X195283285Y-89339285D01*
X195319000Y-89410714D01*
X195354714Y-89446428D01*
X195426142Y-89482142D01*
X195497571Y-89482142D01*
X195569000Y-89446428D01*
X195604714Y-89410714D01*
X195640428Y-89339285D01*
X195640428Y-89089285D01*
X196033285Y-90232142D02*
X196033285Y-89803571D01*
X196033285Y-90017857D02*
X195283285Y-90017857D01*
X195390428Y-89946428D01*
X195461857Y-89875000D01*
X195497571Y-89803571D01*
X195283285Y-91017857D02*
X196033285Y-91267857D01*
X195283285Y-91517857D01*
X195747571Y-91767857D02*
X195747571Y-92339285D01*
X196033285Y-92053571D02*
X195461857Y-92053571D01*
X172785714Y-98339285D02*
X172321428Y-98339285D01*
X172571428Y-98625000D01*
X172464285Y-98625000D01*
X172392857Y-98660714D01*
X172357142Y-98696428D01*
X172321428Y-98767857D01*
X172321428Y-98946428D01*
X172357142Y-99017857D01*
X172392857Y-99053571D01*
X172464285Y-99089285D01*
X172678571Y-99089285D01*
X172750000Y-99053571D01*
X172785714Y-99017857D01*
X172107142Y-98339285D02*
X171857142Y-99089285D01*
X171607142Y-98339285D01*
X171428571Y-98339285D02*
X170964285Y-98339285D01*
X171214285Y-98625000D01*
X171107142Y-98625000D01*
X171035714Y-98660714D01*
X171000000Y-98696428D01*
X170964285Y-98767857D01*
X170964285Y-98946428D01*
X171000000Y-99017857D01*
X171035714Y-99053571D01*
X171107142Y-99089285D01*
X171321428Y-99089285D01*
X171392857Y-99053571D01*
X171428571Y-99017857D01*
X170071428Y-99089285D02*
X170071428Y-98339285D01*
X169785714Y-98339285D01*
X169714285Y-98375000D01*
X169678571Y-98410714D01*
X169642857Y-98482142D01*
X169642857Y-98589285D01*
X169678571Y-98660714D01*
X169714285Y-98696428D01*
X169785714Y-98732142D01*
X170071428Y-98732142D01*
X169071428Y-98696428D02*
X169321428Y-98696428D01*
X169321428Y-99089285D02*
X169321428Y-98339285D01*
X168964285Y-98339285D01*
X168535714Y-98339285D02*
X168464285Y-98339285D01*
X168392857Y-98375000D01*
X168357142Y-98410714D01*
X168321428Y-98482142D01*
X168285714Y-98625000D01*
X168285714Y-98803571D01*
X168321428Y-98946428D01*
X168357142Y-99017857D01*
X168392857Y-99053571D01*
X168464285Y-99089285D01*
X168535714Y-99089285D01*
X168607142Y-99053571D01*
X168642857Y-99017857D01*
X168678571Y-98946428D01*
X168714285Y-98803571D01*
X168714285Y-98625000D01*
X168678571Y-98482142D01*
X168642857Y-98410714D01*
X168607142Y-98375000D01*
X168535714Y-98339285D01*
X167392857Y-99089285D02*
X167392857Y-98339285D01*
X167107142Y-98339285D01*
X167035714Y-98375000D01*
X167000000Y-98410714D01*
X166964285Y-98482142D01*
X166964285Y-98589285D01*
X167000000Y-98660714D01*
X167035714Y-98696428D01*
X167107142Y-98732142D01*
X167392857Y-98732142D01*
X166392857Y-98696428D02*
X166642857Y-98696428D01*
X166642857Y-99089285D02*
X166642857Y-98339285D01*
X166285714Y-98339285D01*
X165607142Y-99089285D02*
X166035714Y-99089285D01*
X165821428Y-99089285D02*
X165821428Y-98339285D01*
X165892857Y-98446428D01*
X165964285Y-98517857D01*
X166035714Y-98553571D01*
X164321428Y-98375000D02*
X164392857Y-98339285D01*
X164500000Y-98339285D01*
X164607142Y-98375000D01*
X164678571Y-98446428D01*
X164714285Y-98517857D01*
X164750000Y-98660714D01*
X164750000Y-98767857D01*
X164714285Y-98910714D01*
X164678571Y-98982142D01*
X164607142Y-99053571D01*
X164500000Y-99089285D01*
X164428571Y-99089285D01*
X164321428Y-99053571D01*
X164285714Y-99017857D01*
X164285714Y-98767857D01*
X164428571Y-98767857D01*
X163964285Y-99089285D02*
X163964285Y-98339285D01*
X163535714Y-99089285D01*
X163535714Y-98339285D01*
X163178571Y-99089285D02*
X163178571Y-98339285D01*
X163000000Y-98339285D01*
X162892857Y-98375000D01*
X162821428Y-98446428D01*
X162785714Y-98517857D01*
X162750000Y-98660714D01*
X162750000Y-98767857D01*
X162785714Y-98910714D01*
X162821428Y-98982142D01*
X162892857Y-99053571D01*
X163000000Y-99089285D01*
X163178571Y-99089285D01*
M02*
