G04 #@! TF.GenerationSoftware,KiCad,Pcbnew,(5.1.5)-3*
G04 #@! TF.CreationDate,2020-01-15T03:57:31-05:00*
G04 #@! TF.ProjectId,STM32 Klipper Expander,53544d33-3220-44b6-9c69-707065722045,rev?*
G04 #@! TF.SameCoordinates,Original*
G04 #@! TF.FileFunction,Soldermask,Bot*
G04 #@! TF.FilePolarity,Negative*
%FSLAX46Y46*%
G04 Gerber Fmt 4.6, Leading zero omitted, Abs format (unit mm)*
G04 Created by KiCad (PCBNEW (5.1.5)-3) date 2020-01-15 03:57:31*
%MOMM*%
%LPD*%
G04 APERTURE LIST*
%ADD10C,0.100000*%
G04 APERTURE END LIST*
D10*
G36*
X108014072Y-95525918D02*
G01*
X108246664Y-95622260D01*
X108259939Y-95627759D01*
X108286556Y-95645544D01*
X108449808Y-95754626D01*
X108481212Y-95775610D01*
X108669390Y-95963788D01*
X108814654Y-96181189D01*
X108817242Y-96185063D01*
X108919082Y-96430928D01*
X108971000Y-96691937D01*
X108971000Y-96958063D01*
X108959007Y-97018354D01*
X108919082Y-97219072D01*
X108817241Y-97464939D01*
X108669390Y-97686212D01*
X108481212Y-97874390D01*
X108259939Y-98022241D01*
X108259938Y-98022242D01*
X108259937Y-98022242D01*
X108014072Y-98124082D01*
X107753063Y-98176000D01*
X107486937Y-98176000D01*
X107225928Y-98124082D01*
X106980063Y-98022242D01*
X106980062Y-98022242D01*
X106980061Y-98022241D01*
X106758788Y-97874390D01*
X106570610Y-97686212D01*
X106422759Y-97464939D01*
X106320918Y-97219072D01*
X106280993Y-97018354D01*
X106269000Y-96958063D01*
X106269000Y-96691937D01*
X106320918Y-96430928D01*
X106422758Y-96185063D01*
X106425347Y-96181189D01*
X106570610Y-95963788D01*
X106758788Y-95775610D01*
X106790193Y-95754626D01*
X106953444Y-95645544D01*
X106980061Y-95627759D01*
X106993337Y-95622260D01*
X107225928Y-95525918D01*
X107486937Y-95474000D01*
X107753063Y-95474000D01*
X108014072Y-95525918D01*
G37*
G36*
X140753512Y-95547927D02*
G01*
X140902812Y-95577624D01*
X141066784Y-95645544D01*
X141214354Y-95744147D01*
X141339853Y-95869646D01*
X141438456Y-96017216D01*
X141506376Y-96181188D01*
X141541000Y-96355259D01*
X141541000Y-96532741D01*
X141506376Y-96706812D01*
X141438456Y-96870784D01*
X141339853Y-97018354D01*
X141214354Y-97143853D01*
X141066784Y-97242456D01*
X140902812Y-97310376D01*
X140753512Y-97340073D01*
X140728742Y-97345000D01*
X140551258Y-97345000D01*
X140526488Y-97340073D01*
X140377188Y-97310376D01*
X140213216Y-97242456D01*
X140065646Y-97143853D01*
X139940147Y-97018354D01*
X139841544Y-96870784D01*
X139773624Y-96706812D01*
X139739000Y-96532741D01*
X139739000Y-96355259D01*
X139773624Y-96181188D01*
X139841544Y-96017216D01*
X139940147Y-95869646D01*
X140065646Y-95744147D01*
X140213216Y-95645544D01*
X140377188Y-95577624D01*
X140526488Y-95547927D01*
X140551258Y-95543000D01*
X140728742Y-95543000D01*
X140753512Y-95547927D01*
G37*
G36*
X146621000Y-97345000D02*
G01*
X144819000Y-97345000D01*
X144819000Y-95543000D01*
X146621000Y-95543000D01*
X146621000Y-97345000D01*
G37*
G36*
X143293512Y-95547927D02*
G01*
X143442812Y-95577624D01*
X143606784Y-95645544D01*
X143754354Y-95744147D01*
X143879853Y-95869646D01*
X143978456Y-96017216D01*
X144046376Y-96181188D01*
X144081000Y-96355259D01*
X144081000Y-96532741D01*
X144046376Y-96706812D01*
X143978456Y-96870784D01*
X143879853Y-97018354D01*
X143754354Y-97143853D01*
X143606784Y-97242456D01*
X143442812Y-97310376D01*
X143293512Y-97340073D01*
X143268742Y-97345000D01*
X143091258Y-97345000D01*
X143066488Y-97340073D01*
X142917188Y-97310376D01*
X142753216Y-97242456D01*
X142605646Y-97143853D01*
X142480147Y-97018354D01*
X142381544Y-96870784D01*
X142313624Y-96706812D01*
X142279000Y-96532741D01*
X142279000Y-96355259D01*
X142313624Y-96181188D01*
X142381544Y-96017216D01*
X142480147Y-95869646D01*
X142605646Y-95744147D01*
X142753216Y-95645544D01*
X142917188Y-95577624D01*
X143066488Y-95547927D01*
X143091258Y-95543000D01*
X143268742Y-95543000D01*
X143293512Y-95547927D01*
G37*
G36*
X124600627Y-94390037D02*
G01*
X124770466Y-94441557D01*
X124926991Y-94525222D01*
X124962729Y-94554552D01*
X125064186Y-94637814D01*
X125147448Y-94739271D01*
X125176778Y-94775009D01*
X125260443Y-94931534D01*
X125311963Y-95101374D01*
X125325000Y-95233743D01*
X125325000Y-95622258D01*
X125311963Y-95754627D01*
X125260443Y-95924466D01*
X125176778Y-96080991D01*
X125147448Y-96116729D01*
X125064186Y-96218186D01*
X124926989Y-96330779D01*
X124770467Y-96414442D01*
X124770465Y-96414443D01*
X124600626Y-96465963D01*
X124424000Y-96483359D01*
X124247373Y-96465963D01*
X124077534Y-96414443D01*
X123921009Y-96330778D01*
X123878750Y-96296097D01*
X123783814Y-96218186D01*
X123671221Y-96080989D01*
X123587558Y-95924467D01*
X123587557Y-95924465D01*
X123536037Y-95754626D01*
X123529518Y-95688441D01*
X123523000Y-95622259D01*
X123523000Y-95233740D01*
X123536037Y-95101375D01*
X123536037Y-95101373D01*
X123587557Y-94931534D01*
X123671222Y-94775009D01*
X123783815Y-94637815D01*
X123921010Y-94525222D01*
X124077535Y-94441557D01*
X124247374Y-94390037D01*
X124424000Y-94372641D01*
X124600627Y-94390037D01*
G37*
G36*
X133236627Y-94390037D02*
G01*
X133406466Y-94441557D01*
X133562991Y-94525222D01*
X133598729Y-94554552D01*
X133700186Y-94637814D01*
X133783448Y-94739271D01*
X133812778Y-94775009D01*
X133896443Y-94931534D01*
X133947963Y-95101374D01*
X133961000Y-95233743D01*
X133961000Y-95622258D01*
X133947963Y-95754627D01*
X133896443Y-95924466D01*
X133812778Y-96080991D01*
X133783448Y-96116729D01*
X133700186Y-96218186D01*
X133562989Y-96330779D01*
X133406467Y-96414442D01*
X133406465Y-96414443D01*
X133236626Y-96465963D01*
X133060000Y-96483359D01*
X132883373Y-96465963D01*
X132713534Y-96414443D01*
X132557009Y-96330778D01*
X132514750Y-96296097D01*
X132419814Y-96218186D01*
X132307221Y-96080989D01*
X132223558Y-95924467D01*
X132223557Y-95924465D01*
X132172037Y-95754626D01*
X132165518Y-95688441D01*
X132159000Y-95622259D01*
X132159000Y-95233740D01*
X132172037Y-95101375D01*
X132172037Y-95101373D01*
X132223557Y-94931534D01*
X132307222Y-94775009D01*
X132419815Y-94637815D01*
X132557010Y-94525222D01*
X132713535Y-94441557D01*
X132883374Y-94390037D01*
X133060000Y-94372641D01*
X133236627Y-94390037D01*
G37*
G36*
X136318600Y-94380989D02*
G01*
X136351652Y-94391015D01*
X136382103Y-94407292D01*
X136408799Y-94429201D01*
X136430708Y-94455897D01*
X136446985Y-94486348D01*
X136457011Y-94519400D01*
X136461000Y-94559903D01*
X136461000Y-96296097D01*
X136457011Y-96336600D01*
X136446985Y-96369652D01*
X136430708Y-96400103D01*
X136408799Y-96426799D01*
X136382103Y-96448708D01*
X136351652Y-96464985D01*
X136318600Y-96475011D01*
X136278097Y-96479000D01*
X134841903Y-96479000D01*
X134801400Y-96475011D01*
X134768348Y-96464985D01*
X134737897Y-96448708D01*
X134711201Y-96426799D01*
X134689292Y-96400103D01*
X134673015Y-96369652D01*
X134662989Y-96336600D01*
X134659000Y-96296097D01*
X134659000Y-94559903D01*
X134662989Y-94519400D01*
X134673015Y-94486348D01*
X134689292Y-94455897D01*
X134711201Y-94429201D01*
X134737897Y-94407292D01*
X134768348Y-94391015D01*
X134801400Y-94380989D01*
X134841903Y-94377000D01*
X136278097Y-94377000D01*
X136318600Y-94380989D01*
G37*
G36*
X127682600Y-94380989D02*
G01*
X127715652Y-94391015D01*
X127746103Y-94407292D01*
X127772799Y-94429201D01*
X127794708Y-94455897D01*
X127810985Y-94486348D01*
X127821011Y-94519400D01*
X127825000Y-94559903D01*
X127825000Y-96296097D01*
X127821011Y-96336600D01*
X127810985Y-96369652D01*
X127794708Y-96400103D01*
X127772799Y-96426799D01*
X127746103Y-96448708D01*
X127715652Y-96464985D01*
X127682600Y-96475011D01*
X127642097Y-96479000D01*
X126205903Y-96479000D01*
X126165400Y-96475011D01*
X126132348Y-96464985D01*
X126101897Y-96448708D01*
X126075201Y-96426799D01*
X126053292Y-96400103D01*
X126037015Y-96369652D01*
X126026989Y-96336600D01*
X126023000Y-96296097D01*
X126023000Y-94559903D01*
X126026989Y-94519400D01*
X126037015Y-94486348D01*
X126053292Y-94455897D01*
X126075201Y-94429201D01*
X126101897Y-94407292D01*
X126132348Y-94391015D01*
X126165400Y-94380989D01*
X126205903Y-94377000D01*
X127642097Y-94377000D01*
X127682600Y-94380989D01*
G37*
G36*
X146621000Y-93281000D02*
G01*
X144819000Y-93281000D01*
X144819000Y-91479000D01*
X146621000Y-91479000D01*
X146621000Y-93281000D01*
G37*
G36*
X108014072Y-90445918D02*
G01*
X108259939Y-90547759D01*
X108481212Y-90695610D01*
X108669390Y-90883788D01*
X108817241Y-91105061D01*
X108919082Y-91350928D01*
X108971000Y-91611938D01*
X108971000Y-91878062D01*
X108919082Y-92139072D01*
X108817241Y-92384939D01*
X108669390Y-92606212D01*
X108481212Y-92794390D01*
X108259939Y-92942241D01*
X108259938Y-92942242D01*
X108259937Y-92942242D01*
X108014072Y-93044082D01*
X107753063Y-93096000D01*
X107486937Y-93096000D01*
X107225928Y-93044082D01*
X106980063Y-92942242D01*
X106980062Y-92942242D01*
X106980061Y-92942241D01*
X106758788Y-92794390D01*
X106570610Y-92606212D01*
X106422759Y-92384939D01*
X106320918Y-92139072D01*
X106269000Y-91878062D01*
X106269000Y-91611938D01*
X106320918Y-91350928D01*
X106422759Y-91105061D01*
X106570610Y-90883788D01*
X106758788Y-90695610D01*
X106980061Y-90547759D01*
X107225928Y-90445918D01*
X107486937Y-90394000D01*
X107753063Y-90394000D01*
X108014072Y-90445918D01*
G37*
G36*
X108014072Y-85365918D02*
G01*
X108259939Y-85467759D01*
X108481212Y-85615610D01*
X108669390Y-85803788D01*
X108814654Y-86021189D01*
X108817242Y-86025063D01*
X108919082Y-86270928D01*
X108971000Y-86531937D01*
X108971000Y-86798063D01*
X108959007Y-86858354D01*
X108919082Y-87059072D01*
X108817241Y-87304939D01*
X108669390Y-87526212D01*
X108481212Y-87714390D01*
X108259939Y-87862241D01*
X108259938Y-87862242D01*
X108259937Y-87862242D01*
X108014072Y-87964082D01*
X107753063Y-88016000D01*
X107486937Y-88016000D01*
X107225928Y-87964082D01*
X106980063Y-87862242D01*
X106980062Y-87862242D01*
X106980061Y-87862241D01*
X106758788Y-87714390D01*
X106570610Y-87526212D01*
X106422759Y-87304939D01*
X106320918Y-87059072D01*
X106280993Y-86858354D01*
X106269000Y-86798063D01*
X106269000Y-86531937D01*
X106320918Y-86270928D01*
X106422758Y-86025063D01*
X106425347Y-86021189D01*
X106570610Y-85803788D01*
X106758788Y-85615610D01*
X106980061Y-85467759D01*
X107225928Y-85365918D01*
X107486937Y-85314000D01*
X107753063Y-85314000D01*
X108014072Y-85365918D01*
G37*
G36*
X131381000Y-87185000D02*
G01*
X129579000Y-87185000D01*
X129579000Y-85383000D01*
X131381000Y-85383000D01*
X131381000Y-87185000D01*
G37*
G36*
X128053512Y-85387927D02*
G01*
X128202812Y-85417624D01*
X128366784Y-85485544D01*
X128514354Y-85584147D01*
X128639853Y-85709646D01*
X128738456Y-85857216D01*
X128806376Y-86021188D01*
X128841000Y-86195259D01*
X128841000Y-86372741D01*
X128806376Y-86546812D01*
X128738456Y-86710784D01*
X128639853Y-86858354D01*
X128514354Y-86983853D01*
X128366784Y-87082456D01*
X128202812Y-87150376D01*
X128053512Y-87180073D01*
X128028742Y-87185000D01*
X127851258Y-87185000D01*
X127826488Y-87180073D01*
X127677188Y-87150376D01*
X127513216Y-87082456D01*
X127365646Y-86983853D01*
X127240147Y-86858354D01*
X127141544Y-86710784D01*
X127073624Y-86546812D01*
X127039000Y-86372741D01*
X127039000Y-86195259D01*
X127073624Y-86021188D01*
X127141544Y-85857216D01*
X127240147Y-85709646D01*
X127365646Y-85584147D01*
X127513216Y-85485544D01*
X127677188Y-85417624D01*
X127826488Y-85387927D01*
X127851258Y-85383000D01*
X128028742Y-85383000D01*
X128053512Y-85387927D01*
G37*
G36*
X108014072Y-80285918D02*
G01*
X108259939Y-80387759D01*
X108481212Y-80535610D01*
X108669390Y-80723788D01*
X108817241Y-80945061D01*
X108919082Y-81190928D01*
X108971000Y-81451938D01*
X108971000Y-81718062D01*
X108919082Y-81979072D01*
X108817241Y-82224939D01*
X108669390Y-82446212D01*
X108481212Y-82634390D01*
X108259939Y-82782241D01*
X108259938Y-82782242D01*
X108259937Y-82782242D01*
X108014072Y-82884082D01*
X107753063Y-82936000D01*
X107486937Y-82936000D01*
X107225928Y-82884082D01*
X106980063Y-82782242D01*
X106980062Y-82782242D01*
X106980061Y-82782241D01*
X106758788Y-82634390D01*
X106570610Y-82446212D01*
X106422759Y-82224939D01*
X106320918Y-81979072D01*
X106269000Y-81718062D01*
X106269000Y-81451938D01*
X106320918Y-81190928D01*
X106422759Y-80945061D01*
X106570610Y-80723788D01*
X106758788Y-80535610D01*
X106980061Y-80387759D01*
X107225928Y-80285918D01*
X107486937Y-80234000D01*
X107753063Y-80234000D01*
X108014072Y-80285918D01*
G37*
G36*
X108014072Y-75205918D02*
G01*
X108259939Y-75307759D01*
X108481212Y-75455610D01*
X108669390Y-75643788D01*
X108817241Y-75865061D01*
X108919082Y-76110928D01*
X108971000Y-76371938D01*
X108971000Y-76638062D01*
X108919082Y-76899072D01*
X108817241Y-77144939D01*
X108669390Y-77366212D01*
X108481212Y-77554390D01*
X108259939Y-77702241D01*
X108259938Y-77702242D01*
X108259937Y-77702242D01*
X108014072Y-77804082D01*
X107753063Y-77856000D01*
X107486937Y-77856000D01*
X107225928Y-77804082D01*
X106980063Y-77702242D01*
X106980062Y-77702242D01*
X106980061Y-77702241D01*
X106758788Y-77554390D01*
X106570610Y-77366212D01*
X106422759Y-77144939D01*
X106320918Y-76899072D01*
X106269000Y-76638062D01*
X106269000Y-76371938D01*
X106320918Y-76110928D01*
X106422759Y-75865061D01*
X106570610Y-75643788D01*
X106758788Y-75455610D01*
X106980061Y-75307759D01*
X107225928Y-75205918D01*
X107486937Y-75154000D01*
X107753063Y-75154000D01*
X108014072Y-75205918D01*
G37*
G36*
X108014072Y-70125918D02*
G01*
X108097863Y-70160625D01*
X108259939Y-70227759D01*
X108481212Y-70375610D01*
X108669390Y-70563788D01*
X108817241Y-70785061D01*
X108919082Y-71030928D01*
X108971000Y-71291938D01*
X108971000Y-71558062D01*
X108919082Y-71819072D01*
X108817241Y-72064939D01*
X108669390Y-72286212D01*
X108481212Y-72474390D01*
X108259939Y-72622241D01*
X108259938Y-72622242D01*
X108259937Y-72622242D01*
X108014072Y-72724082D01*
X107753063Y-72776000D01*
X107486937Y-72776000D01*
X107225928Y-72724082D01*
X106980063Y-72622242D01*
X106980062Y-72622242D01*
X106980061Y-72622241D01*
X106758788Y-72474390D01*
X106570610Y-72286212D01*
X106422759Y-72064939D01*
X106320918Y-71819072D01*
X106269000Y-71558062D01*
X106269000Y-71291938D01*
X106320918Y-71030928D01*
X106422759Y-70785061D01*
X106570610Y-70563788D01*
X106758788Y-70375610D01*
X106980061Y-70227759D01*
X107142138Y-70160625D01*
X107225928Y-70125918D01*
X107486937Y-70074000D01*
X107753063Y-70074000D01*
X108014072Y-70125918D01*
G37*
G36*
X136846104Y-68831585D02*
G01*
X137014626Y-68901389D01*
X137166291Y-69002728D01*
X137295272Y-69131709D01*
X137396611Y-69283374D01*
X137466415Y-69451896D01*
X137502000Y-69630797D01*
X137502000Y-69813203D01*
X137466415Y-69992104D01*
X137396611Y-70160626D01*
X137295272Y-70312291D01*
X137166291Y-70441272D01*
X137014626Y-70542611D01*
X136846104Y-70612415D01*
X136667203Y-70648000D01*
X136484797Y-70648000D01*
X136305896Y-70612415D01*
X136137374Y-70542611D01*
X135985709Y-70441272D01*
X135856728Y-70312291D01*
X135755389Y-70160626D01*
X135685585Y-69992104D01*
X135650000Y-69813203D01*
X135650000Y-69630797D01*
X135685585Y-69451896D01*
X135755389Y-69283374D01*
X135856728Y-69131709D01*
X135985709Y-69002728D01*
X136137374Y-68901389D01*
X136305896Y-68831585D01*
X136484797Y-68796000D01*
X136667203Y-68796000D01*
X136846104Y-68831585D01*
G37*
G36*
X146621000Y-69913000D02*
G01*
X144819000Y-69913000D01*
X144819000Y-68111000D01*
X146621000Y-68111000D01*
X146621000Y-69913000D01*
G37*
G36*
X143293512Y-68115927D02*
G01*
X143442812Y-68145624D01*
X143606784Y-68213544D01*
X143754354Y-68312147D01*
X143879853Y-68437646D01*
X143978456Y-68585216D01*
X144046376Y-68749188D01*
X144081000Y-68923259D01*
X144081000Y-69100741D01*
X144046376Y-69274812D01*
X143978456Y-69438784D01*
X143879853Y-69586354D01*
X143754354Y-69711853D01*
X143606784Y-69810456D01*
X143442812Y-69878376D01*
X143293512Y-69908073D01*
X143268742Y-69913000D01*
X143091258Y-69913000D01*
X143066488Y-69908073D01*
X142917188Y-69878376D01*
X142753216Y-69810456D01*
X142605646Y-69711853D01*
X142480147Y-69586354D01*
X142381544Y-69438784D01*
X142313624Y-69274812D01*
X142279000Y-69100741D01*
X142279000Y-68923259D01*
X142313624Y-68749188D01*
X142381544Y-68585216D01*
X142480147Y-68437646D01*
X142605646Y-68312147D01*
X142753216Y-68213544D01*
X142917188Y-68145624D01*
X143066488Y-68115927D01*
X143091258Y-68111000D01*
X143268742Y-68111000D01*
X143293512Y-68115927D01*
G37*
G36*
X140753512Y-68115927D02*
G01*
X140902812Y-68145624D01*
X141066784Y-68213544D01*
X141214354Y-68312147D01*
X141339853Y-68437646D01*
X141438456Y-68585216D01*
X141506376Y-68749188D01*
X141541000Y-68923259D01*
X141541000Y-69100741D01*
X141506376Y-69274812D01*
X141438456Y-69438784D01*
X141339853Y-69586354D01*
X141214354Y-69711853D01*
X141066784Y-69810456D01*
X140902812Y-69878376D01*
X140753512Y-69908073D01*
X140728742Y-69913000D01*
X140551258Y-69913000D01*
X140526488Y-69908073D01*
X140377188Y-69878376D01*
X140213216Y-69810456D01*
X140065646Y-69711853D01*
X139940147Y-69586354D01*
X139841544Y-69438784D01*
X139773624Y-69274812D01*
X139739000Y-69100741D01*
X139739000Y-68923259D01*
X139773624Y-68749188D01*
X139841544Y-68585216D01*
X139940147Y-68437646D01*
X140065646Y-68312147D01*
X140213216Y-68213544D01*
X140377188Y-68145624D01*
X140526488Y-68115927D01*
X140551258Y-68111000D01*
X140728742Y-68111000D01*
X140753512Y-68115927D01*
G37*
G36*
X128841000Y-69659000D02*
G01*
X127039000Y-69659000D01*
X127039000Y-67857000D01*
X128841000Y-67857000D01*
X128841000Y-69659000D01*
G37*
G36*
X130593512Y-67861927D02*
G01*
X130742812Y-67891624D01*
X130906784Y-67959544D01*
X131054354Y-68058147D01*
X131179853Y-68183646D01*
X131278456Y-68331216D01*
X131346376Y-68495188D01*
X131381000Y-68669259D01*
X131381000Y-68846741D01*
X131346376Y-69020812D01*
X131278456Y-69184784D01*
X131179853Y-69332354D01*
X131054354Y-69457853D01*
X130906784Y-69556456D01*
X130742812Y-69624376D01*
X130593512Y-69654073D01*
X130568742Y-69659000D01*
X130391258Y-69659000D01*
X130366488Y-69654073D01*
X130217188Y-69624376D01*
X130053216Y-69556456D01*
X129905646Y-69457853D01*
X129780147Y-69332354D01*
X129681544Y-69184784D01*
X129613624Y-69020812D01*
X129579000Y-68846741D01*
X129579000Y-68669259D01*
X129613624Y-68495188D01*
X129681544Y-68331216D01*
X129780147Y-68183646D01*
X129905646Y-68058147D01*
X130053216Y-67959544D01*
X130217188Y-67891624D01*
X130366488Y-67861927D01*
X130391258Y-67857000D01*
X130568742Y-67857000D01*
X130593512Y-67861927D01*
G37*
G36*
X108014072Y-65045918D02*
G01*
X108197730Y-65121991D01*
X108259939Y-65147759D01*
X108311618Y-65182290D01*
X108405470Y-65245000D01*
X108481212Y-65295610D01*
X108669390Y-65483788D01*
X108817241Y-65705061D01*
X108919082Y-65950928D01*
X108971000Y-66211938D01*
X108971000Y-66478062D01*
X108919082Y-66739072D01*
X108817241Y-66984939D01*
X108669390Y-67206212D01*
X108481212Y-67394390D01*
X108259939Y-67542241D01*
X108259938Y-67542242D01*
X108259937Y-67542242D01*
X108014072Y-67644082D01*
X107753063Y-67696000D01*
X107486937Y-67696000D01*
X107225928Y-67644082D01*
X106980063Y-67542242D01*
X106980062Y-67542242D01*
X106980061Y-67542241D01*
X106758788Y-67394390D01*
X106570610Y-67206212D01*
X106422759Y-66984939D01*
X106320918Y-66739072D01*
X106269000Y-66478062D01*
X106269000Y-66211938D01*
X106320918Y-65950928D01*
X106422759Y-65705061D01*
X106570610Y-65483788D01*
X106758788Y-65295610D01*
X106834531Y-65245000D01*
X106928382Y-65182290D01*
X106980061Y-65147759D01*
X107042271Y-65121991D01*
X107225928Y-65045918D01*
X107486937Y-64994000D01*
X107753063Y-64994000D01*
X108014072Y-65045918D01*
G37*
G36*
X140800721Y-62894174D02*
G01*
X140900995Y-62935709D01*
X140900996Y-62935710D01*
X140991242Y-62996010D01*
X141067990Y-63072758D01*
X141067991Y-63072760D01*
X141128291Y-63163005D01*
X141159516Y-63238389D01*
X141171067Y-63260000D01*
X141186612Y-63278941D01*
X141205554Y-63294487D01*
X141227165Y-63306038D01*
X141250614Y-63313151D01*
X141275000Y-63315553D01*
X141299386Y-63313151D01*
X141322835Y-63306038D01*
X141344446Y-63294487D01*
X141363387Y-63278942D01*
X141378933Y-63260000D01*
X141390484Y-63238389D01*
X141421709Y-63163005D01*
X141482009Y-63072760D01*
X141482010Y-63072758D01*
X141558758Y-62996010D01*
X141649004Y-62935710D01*
X141649005Y-62935709D01*
X141749279Y-62894174D01*
X141855730Y-62873000D01*
X141964270Y-62873000D01*
X142070721Y-62894174D01*
X142170995Y-62935709D01*
X142170996Y-62935710D01*
X142261242Y-62996010D01*
X142337990Y-63072758D01*
X142337991Y-63072760D01*
X142398291Y-63163005D01*
X142429516Y-63238389D01*
X142441067Y-63260000D01*
X142456612Y-63278941D01*
X142475554Y-63294487D01*
X142497165Y-63306038D01*
X142520614Y-63313151D01*
X142545000Y-63315553D01*
X142569386Y-63313151D01*
X142592835Y-63306038D01*
X142614446Y-63294487D01*
X142633387Y-63278942D01*
X142648933Y-63260000D01*
X142660484Y-63238389D01*
X142691709Y-63163005D01*
X142752009Y-63072760D01*
X142752010Y-63072758D01*
X142828758Y-62996010D01*
X142919004Y-62935710D01*
X142919005Y-62935709D01*
X143019279Y-62894174D01*
X143125730Y-62873000D01*
X143234270Y-62873000D01*
X143340721Y-62894174D01*
X143440995Y-62935709D01*
X143440996Y-62935710D01*
X143531242Y-62996010D01*
X143607990Y-63072758D01*
X143607991Y-63072760D01*
X143668291Y-63163005D01*
X143699516Y-63238389D01*
X143711067Y-63260000D01*
X143726612Y-63278941D01*
X143745554Y-63294487D01*
X143767165Y-63306038D01*
X143790614Y-63313151D01*
X143815000Y-63315553D01*
X143839386Y-63313151D01*
X143862835Y-63306038D01*
X143884446Y-63294487D01*
X143903387Y-63278942D01*
X143918933Y-63260000D01*
X143930484Y-63238389D01*
X143961709Y-63163005D01*
X144022009Y-63072760D01*
X144022010Y-63072758D01*
X144098758Y-62996010D01*
X144189004Y-62935710D01*
X144189005Y-62935709D01*
X144289279Y-62894174D01*
X144395730Y-62873000D01*
X144504270Y-62873000D01*
X144610721Y-62894174D01*
X144710995Y-62935709D01*
X144710996Y-62935710D01*
X144801242Y-62996010D01*
X144877990Y-63072758D01*
X144877991Y-63072760D01*
X144940068Y-63165664D01*
X144955614Y-63184606D01*
X144974556Y-63200151D01*
X144996167Y-63211702D01*
X145019615Y-63218815D01*
X145044002Y-63221217D01*
X145068388Y-63218815D01*
X145091837Y-63211702D01*
X145113447Y-63200151D01*
X145132389Y-63184605D01*
X145147934Y-63165663D01*
X145159485Y-63144052D01*
X145166598Y-63120604D01*
X145169000Y-63096218D01*
X145169000Y-62873000D01*
X146271000Y-62873000D01*
X146271000Y-63975000D01*
X146047782Y-63975000D01*
X146023396Y-63977402D01*
X145999947Y-63984515D01*
X145978336Y-63996066D01*
X145959394Y-64011611D01*
X145943849Y-64030553D01*
X145932298Y-64052164D01*
X145925185Y-64075613D01*
X145922783Y-64099999D01*
X145925185Y-64124385D01*
X145932298Y-64147834D01*
X145943849Y-64169445D01*
X145959394Y-64188387D01*
X145978336Y-64203932D01*
X146039816Y-64245012D01*
X146071242Y-64266010D01*
X146147990Y-64342758D01*
X146147991Y-64342760D01*
X146208291Y-64433005D01*
X146249826Y-64533279D01*
X146271000Y-64639730D01*
X146271000Y-64748270D01*
X146249826Y-64854721D01*
X146208291Y-64954995D01*
X146208290Y-64954996D01*
X146147990Y-65045242D01*
X146071242Y-65121990D01*
X146032677Y-65147758D01*
X145980995Y-65182291D01*
X145880721Y-65223826D01*
X145774270Y-65245000D01*
X145665730Y-65245000D01*
X145559279Y-65223826D01*
X145459005Y-65182291D01*
X145407323Y-65147758D01*
X145368758Y-65121990D01*
X145292010Y-65045242D01*
X145231710Y-64954996D01*
X145231709Y-64954995D01*
X145200484Y-64879611D01*
X145188933Y-64858000D01*
X145173388Y-64839059D01*
X145154446Y-64823513D01*
X145132835Y-64811962D01*
X145109386Y-64804849D01*
X145085000Y-64802447D01*
X145060614Y-64804849D01*
X145037165Y-64811962D01*
X145015554Y-64823513D01*
X144996613Y-64839058D01*
X144981067Y-64858000D01*
X144969516Y-64879611D01*
X144938291Y-64954995D01*
X144938290Y-64954996D01*
X144877990Y-65045242D01*
X144801242Y-65121990D01*
X144762677Y-65147758D01*
X144710995Y-65182291D01*
X144610721Y-65223826D01*
X144504270Y-65245000D01*
X144395730Y-65245000D01*
X144289279Y-65223826D01*
X144189005Y-65182291D01*
X144137323Y-65147758D01*
X144098758Y-65121990D01*
X144022010Y-65045242D01*
X143961710Y-64954996D01*
X143961709Y-64954995D01*
X143930484Y-64879611D01*
X143918933Y-64858000D01*
X143903388Y-64839059D01*
X143884446Y-64823513D01*
X143862835Y-64811962D01*
X143839386Y-64804849D01*
X143815000Y-64802447D01*
X143790614Y-64804849D01*
X143767165Y-64811962D01*
X143745554Y-64823513D01*
X143726613Y-64839058D01*
X143711067Y-64858000D01*
X143699516Y-64879611D01*
X143668291Y-64954995D01*
X143668290Y-64954996D01*
X143607990Y-65045242D01*
X143531242Y-65121990D01*
X143492677Y-65147758D01*
X143440995Y-65182291D01*
X143340721Y-65223826D01*
X143234270Y-65245000D01*
X143125730Y-65245000D01*
X143019279Y-65223826D01*
X142919005Y-65182291D01*
X142867323Y-65147758D01*
X142828758Y-65121990D01*
X142752010Y-65045242D01*
X142691710Y-64954996D01*
X142691709Y-64954995D01*
X142660484Y-64879611D01*
X142648933Y-64858000D01*
X142633388Y-64839059D01*
X142614446Y-64823513D01*
X142592835Y-64811962D01*
X142569386Y-64804849D01*
X142545000Y-64802447D01*
X142520614Y-64804849D01*
X142497165Y-64811962D01*
X142475554Y-64823513D01*
X142456613Y-64839058D01*
X142441067Y-64858000D01*
X142429516Y-64879611D01*
X142398291Y-64954995D01*
X142398290Y-64954996D01*
X142337990Y-65045242D01*
X142261242Y-65121990D01*
X142222677Y-65147758D01*
X142170995Y-65182291D01*
X142070721Y-65223826D01*
X141964270Y-65245000D01*
X141855730Y-65245000D01*
X141749279Y-65223826D01*
X141649005Y-65182291D01*
X141597323Y-65147758D01*
X141558758Y-65121990D01*
X141482010Y-65045242D01*
X141421710Y-64954996D01*
X141421709Y-64954995D01*
X141390484Y-64879611D01*
X141378933Y-64858000D01*
X141363388Y-64839059D01*
X141344446Y-64823513D01*
X141322835Y-64811962D01*
X141299386Y-64804849D01*
X141275000Y-64802447D01*
X141250614Y-64804849D01*
X141227165Y-64811962D01*
X141205554Y-64823513D01*
X141186613Y-64839058D01*
X141171067Y-64858000D01*
X141159516Y-64879611D01*
X141128291Y-64954995D01*
X141128290Y-64954996D01*
X141067990Y-65045242D01*
X140991242Y-65121990D01*
X140952677Y-65147758D01*
X140900995Y-65182291D01*
X140800721Y-65223826D01*
X140694270Y-65245000D01*
X140585730Y-65245000D01*
X140479279Y-65223826D01*
X140379005Y-65182291D01*
X140327323Y-65147758D01*
X140288758Y-65121990D01*
X140212010Y-65045242D01*
X140151710Y-64954996D01*
X140151709Y-64954995D01*
X140110174Y-64854721D01*
X140089000Y-64748270D01*
X140089000Y-64639730D01*
X140110174Y-64533279D01*
X140151709Y-64433005D01*
X140212009Y-64342760D01*
X140212010Y-64342758D01*
X140288758Y-64266010D01*
X140379004Y-64205710D01*
X140379005Y-64205709D01*
X140454389Y-64174484D01*
X140476000Y-64162933D01*
X140494941Y-64147388D01*
X140510487Y-64128446D01*
X140522038Y-64106835D01*
X140529151Y-64083386D01*
X140531553Y-64059000D01*
X140748447Y-64059000D01*
X140750849Y-64083386D01*
X140757962Y-64106835D01*
X140769513Y-64128446D01*
X140785058Y-64147387D01*
X140804000Y-64162933D01*
X140825611Y-64174484D01*
X140900995Y-64205709D01*
X140900996Y-64205710D01*
X140991242Y-64266010D01*
X141067990Y-64342758D01*
X141067991Y-64342760D01*
X141128291Y-64433005D01*
X141159516Y-64508389D01*
X141171067Y-64530000D01*
X141186612Y-64548941D01*
X141205554Y-64564487D01*
X141227165Y-64576038D01*
X141250614Y-64583151D01*
X141275000Y-64585553D01*
X141299386Y-64583151D01*
X141322835Y-64576038D01*
X141344446Y-64564487D01*
X141363387Y-64548942D01*
X141378933Y-64530000D01*
X141390484Y-64508389D01*
X141421709Y-64433005D01*
X141482009Y-64342760D01*
X141482010Y-64342758D01*
X141558758Y-64266010D01*
X141649004Y-64205710D01*
X141649005Y-64205709D01*
X141724389Y-64174484D01*
X141746000Y-64162933D01*
X141764941Y-64147388D01*
X141780487Y-64128446D01*
X141792038Y-64106835D01*
X141799151Y-64083386D01*
X141801553Y-64059000D01*
X142018447Y-64059000D01*
X142020849Y-64083386D01*
X142027962Y-64106835D01*
X142039513Y-64128446D01*
X142055058Y-64147387D01*
X142074000Y-64162933D01*
X142095611Y-64174484D01*
X142170995Y-64205709D01*
X142170996Y-64205710D01*
X142261242Y-64266010D01*
X142337990Y-64342758D01*
X142337991Y-64342760D01*
X142398291Y-64433005D01*
X142429516Y-64508389D01*
X142441067Y-64530000D01*
X142456612Y-64548941D01*
X142475554Y-64564487D01*
X142497165Y-64576038D01*
X142520614Y-64583151D01*
X142545000Y-64585553D01*
X142569386Y-64583151D01*
X142592835Y-64576038D01*
X142614446Y-64564487D01*
X142633387Y-64548942D01*
X142648933Y-64530000D01*
X142660484Y-64508389D01*
X142691709Y-64433005D01*
X142752009Y-64342760D01*
X142752010Y-64342758D01*
X142828758Y-64266010D01*
X142919004Y-64205710D01*
X142919005Y-64205709D01*
X142994389Y-64174484D01*
X143016000Y-64162933D01*
X143034941Y-64147388D01*
X143050487Y-64128446D01*
X143062038Y-64106835D01*
X143069151Y-64083386D01*
X143071553Y-64059000D01*
X143288447Y-64059000D01*
X143290849Y-64083386D01*
X143297962Y-64106835D01*
X143309513Y-64128446D01*
X143325058Y-64147387D01*
X143344000Y-64162933D01*
X143365611Y-64174484D01*
X143440995Y-64205709D01*
X143440996Y-64205710D01*
X143531242Y-64266010D01*
X143607990Y-64342758D01*
X143607991Y-64342760D01*
X143668291Y-64433005D01*
X143699516Y-64508389D01*
X143711067Y-64530000D01*
X143726612Y-64548941D01*
X143745554Y-64564487D01*
X143767165Y-64576038D01*
X143790614Y-64583151D01*
X143815000Y-64585553D01*
X143839386Y-64583151D01*
X143862835Y-64576038D01*
X143884446Y-64564487D01*
X143903387Y-64548942D01*
X143918933Y-64530000D01*
X143930484Y-64508389D01*
X143961709Y-64433005D01*
X144022009Y-64342760D01*
X144022010Y-64342758D01*
X144098758Y-64266010D01*
X144189004Y-64205710D01*
X144189005Y-64205709D01*
X144264389Y-64174484D01*
X144286000Y-64162933D01*
X144304941Y-64147388D01*
X144320487Y-64128446D01*
X144332038Y-64106835D01*
X144339151Y-64083386D01*
X144341553Y-64059000D01*
X144558447Y-64059000D01*
X144560849Y-64083386D01*
X144567962Y-64106835D01*
X144579513Y-64128446D01*
X144595058Y-64147387D01*
X144614000Y-64162933D01*
X144635611Y-64174484D01*
X144710995Y-64205709D01*
X144710996Y-64205710D01*
X144801242Y-64266010D01*
X144877990Y-64342758D01*
X144877991Y-64342760D01*
X144938291Y-64433005D01*
X144969516Y-64508389D01*
X144981067Y-64530000D01*
X144996612Y-64548941D01*
X145015554Y-64564487D01*
X145037165Y-64576038D01*
X145060614Y-64583151D01*
X145085000Y-64585553D01*
X145109386Y-64583151D01*
X145132835Y-64576038D01*
X145154446Y-64564487D01*
X145173387Y-64548942D01*
X145188933Y-64530000D01*
X145200484Y-64508389D01*
X145231709Y-64433005D01*
X145292009Y-64342760D01*
X145292010Y-64342758D01*
X145368758Y-64266010D01*
X145400184Y-64245012D01*
X145461664Y-64203932D01*
X145480606Y-64188386D01*
X145496151Y-64169444D01*
X145507702Y-64147833D01*
X145514815Y-64124385D01*
X145517217Y-64099998D01*
X145514815Y-64075612D01*
X145507702Y-64052163D01*
X145496151Y-64030553D01*
X145480605Y-64011611D01*
X145461663Y-63996066D01*
X145440052Y-63984515D01*
X145416604Y-63977402D01*
X145392218Y-63975000D01*
X145169000Y-63975000D01*
X145169000Y-63751782D01*
X145166598Y-63727396D01*
X145159485Y-63703947D01*
X145147934Y-63682336D01*
X145132389Y-63663394D01*
X145113447Y-63647849D01*
X145091836Y-63636298D01*
X145068387Y-63629185D01*
X145044001Y-63626783D01*
X145019615Y-63629185D01*
X144996166Y-63636298D01*
X144974555Y-63647849D01*
X144955613Y-63663394D01*
X144940068Y-63682336D01*
X144898988Y-63743816D01*
X144877990Y-63775242D01*
X144801242Y-63851990D01*
X144755812Y-63882345D01*
X144710995Y-63912291D01*
X144635611Y-63943516D01*
X144614000Y-63955067D01*
X144595059Y-63970612D01*
X144579513Y-63989554D01*
X144567962Y-64011165D01*
X144560849Y-64034614D01*
X144558447Y-64059000D01*
X144341553Y-64059000D01*
X144339151Y-64034614D01*
X144332038Y-64011165D01*
X144320487Y-63989554D01*
X144304942Y-63970613D01*
X144286000Y-63955067D01*
X144264389Y-63943516D01*
X144189005Y-63912291D01*
X144144188Y-63882345D01*
X144098758Y-63851990D01*
X144022010Y-63775242D01*
X143990041Y-63727396D01*
X143961709Y-63684995D01*
X143930484Y-63609611D01*
X143918933Y-63588000D01*
X143903388Y-63569059D01*
X143884446Y-63553513D01*
X143862835Y-63541962D01*
X143839386Y-63534849D01*
X143815000Y-63532447D01*
X143790614Y-63534849D01*
X143767165Y-63541962D01*
X143745554Y-63553513D01*
X143726613Y-63569058D01*
X143711067Y-63588000D01*
X143699516Y-63609611D01*
X143668291Y-63684995D01*
X143639959Y-63727396D01*
X143607990Y-63775242D01*
X143531242Y-63851990D01*
X143485812Y-63882345D01*
X143440995Y-63912291D01*
X143365611Y-63943516D01*
X143344000Y-63955067D01*
X143325059Y-63970612D01*
X143309513Y-63989554D01*
X143297962Y-64011165D01*
X143290849Y-64034614D01*
X143288447Y-64059000D01*
X143071553Y-64059000D01*
X143069151Y-64034614D01*
X143062038Y-64011165D01*
X143050487Y-63989554D01*
X143034942Y-63970613D01*
X143016000Y-63955067D01*
X142994389Y-63943516D01*
X142919005Y-63912291D01*
X142874188Y-63882345D01*
X142828758Y-63851990D01*
X142752010Y-63775242D01*
X142720041Y-63727396D01*
X142691709Y-63684995D01*
X142660484Y-63609611D01*
X142648933Y-63588000D01*
X142633388Y-63569059D01*
X142614446Y-63553513D01*
X142592835Y-63541962D01*
X142569386Y-63534849D01*
X142545000Y-63532447D01*
X142520614Y-63534849D01*
X142497165Y-63541962D01*
X142475554Y-63553513D01*
X142456613Y-63569058D01*
X142441067Y-63588000D01*
X142429516Y-63609611D01*
X142398291Y-63684995D01*
X142369959Y-63727396D01*
X142337990Y-63775242D01*
X142261242Y-63851990D01*
X142215812Y-63882345D01*
X142170995Y-63912291D01*
X142095611Y-63943516D01*
X142074000Y-63955067D01*
X142055059Y-63970612D01*
X142039513Y-63989554D01*
X142027962Y-64011165D01*
X142020849Y-64034614D01*
X142018447Y-64059000D01*
X141801553Y-64059000D01*
X141799151Y-64034614D01*
X141792038Y-64011165D01*
X141780487Y-63989554D01*
X141764942Y-63970613D01*
X141746000Y-63955067D01*
X141724389Y-63943516D01*
X141649005Y-63912291D01*
X141604188Y-63882345D01*
X141558758Y-63851990D01*
X141482010Y-63775242D01*
X141450041Y-63727396D01*
X141421709Y-63684995D01*
X141390484Y-63609611D01*
X141378933Y-63588000D01*
X141363388Y-63569059D01*
X141344446Y-63553513D01*
X141322835Y-63541962D01*
X141299386Y-63534849D01*
X141275000Y-63532447D01*
X141250614Y-63534849D01*
X141227165Y-63541962D01*
X141205554Y-63553513D01*
X141186613Y-63569058D01*
X141171067Y-63588000D01*
X141159516Y-63609611D01*
X141128291Y-63684995D01*
X141099959Y-63727396D01*
X141067990Y-63775242D01*
X140991242Y-63851990D01*
X140945812Y-63882345D01*
X140900995Y-63912291D01*
X140825611Y-63943516D01*
X140804000Y-63955067D01*
X140785059Y-63970612D01*
X140769513Y-63989554D01*
X140757962Y-64011165D01*
X140750849Y-64034614D01*
X140748447Y-64059000D01*
X140531553Y-64059000D01*
X140529151Y-64034614D01*
X140522038Y-64011165D01*
X140510487Y-63989554D01*
X140494942Y-63970613D01*
X140476000Y-63955067D01*
X140454389Y-63943516D01*
X140379005Y-63912291D01*
X140334188Y-63882345D01*
X140288758Y-63851990D01*
X140212010Y-63775242D01*
X140180041Y-63727396D01*
X140151709Y-63684995D01*
X140110174Y-63584721D01*
X140089000Y-63478270D01*
X140089000Y-63369730D01*
X140110174Y-63263279D01*
X140151709Y-63163005D01*
X140212009Y-63072760D01*
X140212010Y-63072758D01*
X140288758Y-62996010D01*
X140379004Y-62935710D01*
X140379005Y-62935709D01*
X140479279Y-62894174D01*
X140585730Y-62873000D01*
X140694270Y-62873000D01*
X140800721Y-62894174D01*
G37*
G36*
X136846104Y-62331585D02*
G01*
X137014626Y-62401389D01*
X137166291Y-62502728D01*
X137295272Y-62631709D01*
X137396611Y-62783374D01*
X137466415Y-62951896D01*
X137502000Y-63130797D01*
X137502000Y-63313203D01*
X137466415Y-63492104D01*
X137396611Y-63660626D01*
X137295272Y-63812291D01*
X137166291Y-63941272D01*
X137014626Y-64042611D01*
X136846104Y-64112415D01*
X136667203Y-64148000D01*
X136484797Y-64148000D01*
X136305896Y-64112415D01*
X136137374Y-64042611D01*
X135985709Y-63941272D01*
X135856728Y-63812291D01*
X135755389Y-63660626D01*
X135685585Y-63492104D01*
X135650000Y-63313203D01*
X135650000Y-63130797D01*
X135685585Y-62951896D01*
X135755389Y-62783374D01*
X135856728Y-62631709D01*
X135985709Y-62502728D01*
X136137374Y-62401389D01*
X136305896Y-62331585D01*
X136484797Y-62296000D01*
X136667203Y-62296000D01*
X136846104Y-62331585D01*
G37*
G36*
X108971000Y-62616000D02*
G01*
X106269000Y-62616000D01*
X106269000Y-59914000D01*
X108971000Y-59914000D01*
X108971000Y-62616000D01*
G37*
G36*
X131069000Y-60330000D02*
G01*
X128367000Y-60330000D01*
X128367000Y-57628000D01*
X131069000Y-57628000D01*
X131069000Y-60330000D01*
G37*
G36*
X125032072Y-57679918D02*
G01*
X125277939Y-57781759D01*
X125499212Y-57929610D01*
X125687390Y-58117788D01*
X125835241Y-58339061D01*
X125937082Y-58584928D01*
X125989000Y-58845938D01*
X125989000Y-59112062D01*
X125937082Y-59373072D01*
X125835241Y-59618939D01*
X125687390Y-59840212D01*
X125499212Y-60028390D01*
X125277939Y-60176241D01*
X125277938Y-60176242D01*
X125277937Y-60176242D01*
X125032072Y-60278082D01*
X124771063Y-60330000D01*
X124504937Y-60330000D01*
X124243928Y-60278082D01*
X123998063Y-60176242D01*
X123998062Y-60176242D01*
X123998061Y-60176241D01*
X123776788Y-60028390D01*
X123588610Y-59840212D01*
X123440759Y-59618939D01*
X123338918Y-59373072D01*
X123287000Y-59112062D01*
X123287000Y-58845938D01*
X123338918Y-58584928D01*
X123440759Y-58339061D01*
X123588610Y-58117788D01*
X123776788Y-57929610D01*
X123998061Y-57781759D01*
X124243928Y-57679918D01*
X124504937Y-57628000D01*
X124771063Y-57628000D01*
X125032072Y-57679918D01*
G37*
G36*
X114806487Y-54044996D02*
G01*
X115038260Y-54141000D01*
X115043255Y-54143069D01*
X115193627Y-54243544D01*
X115256339Y-54285447D01*
X115437553Y-54466661D01*
X115579932Y-54679747D01*
X115678004Y-54916513D01*
X115728000Y-55167861D01*
X115728000Y-55424139D01*
X115678004Y-55675487D01*
X115650514Y-55741853D01*
X115579931Y-55912255D01*
X115437553Y-56125339D01*
X115256339Y-56306553D01*
X115043255Y-56448931D01*
X115043254Y-56448932D01*
X115043253Y-56448932D01*
X114806487Y-56547004D01*
X114555139Y-56597000D01*
X114298861Y-56597000D01*
X114047513Y-56547004D01*
X113810747Y-56448932D01*
X113810746Y-56448932D01*
X113810745Y-56448931D01*
X113597661Y-56306553D01*
X113416447Y-56125339D01*
X113274069Y-55912255D01*
X113203486Y-55741853D01*
X113175996Y-55675487D01*
X113126000Y-55424139D01*
X113126000Y-55167861D01*
X113175996Y-54916513D01*
X113274068Y-54679747D01*
X113416447Y-54466661D01*
X113597661Y-54285447D01*
X113660373Y-54243544D01*
X113810745Y-54143069D01*
X113815740Y-54141000D01*
X114047513Y-54044996D01*
X114298861Y-53995000D01*
X114555139Y-53995000D01*
X114806487Y-54044996D01*
G37*
G36*
X118466487Y-54044996D02*
G01*
X118698260Y-54141000D01*
X118703255Y-54143069D01*
X118853627Y-54243544D01*
X118916339Y-54285447D01*
X119097553Y-54466661D01*
X119239932Y-54679747D01*
X119338004Y-54916513D01*
X119388000Y-55167861D01*
X119388000Y-55424139D01*
X119338004Y-55675487D01*
X119310514Y-55741853D01*
X119239931Y-55912255D01*
X119097553Y-56125339D01*
X118916339Y-56306553D01*
X118703255Y-56448931D01*
X118703254Y-56448932D01*
X118703253Y-56448932D01*
X118466487Y-56547004D01*
X118215139Y-56597000D01*
X117958861Y-56597000D01*
X117707513Y-56547004D01*
X117470747Y-56448932D01*
X117470746Y-56448932D01*
X117470745Y-56448931D01*
X117257661Y-56306553D01*
X117076447Y-56125339D01*
X116934069Y-55912255D01*
X116863486Y-55741853D01*
X116835996Y-55675487D01*
X116786000Y-55424139D01*
X116786000Y-55167861D01*
X116835996Y-54916513D01*
X116934068Y-54679747D01*
X117076447Y-54466661D01*
X117257661Y-54285447D01*
X117320373Y-54243544D01*
X117470745Y-54143069D01*
X117475740Y-54141000D01*
X117707513Y-54044996D01*
X117958861Y-53995000D01*
X118215139Y-53995000D01*
X118466487Y-54044996D01*
G37*
G36*
X106676487Y-54044996D02*
G01*
X106908260Y-54141000D01*
X106913255Y-54143069D01*
X107063627Y-54243544D01*
X107126339Y-54285447D01*
X107307553Y-54466661D01*
X107449932Y-54679747D01*
X107548004Y-54916513D01*
X107598000Y-55167861D01*
X107598000Y-55424139D01*
X107548004Y-55675487D01*
X107520514Y-55741853D01*
X107449931Y-55912255D01*
X107307553Y-56125339D01*
X107126339Y-56306553D01*
X106913255Y-56448931D01*
X106913254Y-56448932D01*
X106913253Y-56448932D01*
X106676487Y-56547004D01*
X106425139Y-56597000D01*
X106168861Y-56597000D01*
X105917513Y-56547004D01*
X105680747Y-56448932D01*
X105680746Y-56448932D01*
X105680745Y-56448931D01*
X105467661Y-56306553D01*
X105286447Y-56125339D01*
X105144069Y-55912255D01*
X105073486Y-55741853D01*
X105045996Y-55675487D01*
X104996000Y-55424139D01*
X104996000Y-55167861D01*
X105045996Y-54916513D01*
X105144068Y-54679747D01*
X105286447Y-54466661D01*
X105467661Y-54285447D01*
X105530373Y-54243544D01*
X105680745Y-54143069D01*
X105685740Y-54141000D01*
X105917513Y-54044996D01*
X106168861Y-53995000D01*
X106425139Y-53995000D01*
X106676487Y-54044996D01*
G37*
G36*
X110336487Y-54044996D02*
G01*
X110568260Y-54141000D01*
X110573255Y-54143069D01*
X110723627Y-54243544D01*
X110786339Y-54285447D01*
X110967553Y-54466661D01*
X111109932Y-54679747D01*
X111208004Y-54916513D01*
X111258000Y-55167861D01*
X111258000Y-55424139D01*
X111208004Y-55675487D01*
X111180514Y-55741853D01*
X111109931Y-55912255D01*
X110967553Y-56125339D01*
X110786339Y-56306553D01*
X110573255Y-56448931D01*
X110573254Y-56448932D01*
X110573253Y-56448932D01*
X110336487Y-56547004D01*
X110085139Y-56597000D01*
X109828861Y-56597000D01*
X109577513Y-56547004D01*
X109340747Y-56448932D01*
X109340746Y-56448932D01*
X109340745Y-56448931D01*
X109127661Y-56306553D01*
X108946447Y-56125339D01*
X108804069Y-55912255D01*
X108733486Y-55741853D01*
X108705996Y-55675487D01*
X108656000Y-55424139D01*
X108656000Y-55167861D01*
X108705996Y-54916513D01*
X108804068Y-54679747D01*
X108946447Y-54466661D01*
X109127661Y-54285447D01*
X109190373Y-54243544D01*
X109340745Y-54143069D01*
X109345740Y-54141000D01*
X109577513Y-54044996D01*
X109828861Y-53995000D01*
X110085139Y-53995000D01*
X110336487Y-54044996D01*
G37*
G36*
X136207000Y-55943000D02*
G01*
X134405000Y-55943000D01*
X134405000Y-54141000D01*
X136207000Y-54141000D01*
X136207000Y-55943000D01*
G37*
G36*
X137945138Y-54143068D02*
G01*
X138108812Y-54175624D01*
X138272784Y-54243544D01*
X138420354Y-54342147D01*
X138545853Y-54467646D01*
X138644456Y-54615216D01*
X138712376Y-54779188D01*
X138747000Y-54953259D01*
X138747000Y-55130741D01*
X138712376Y-55304812D01*
X138644456Y-55468784D01*
X138545853Y-55616354D01*
X138420354Y-55741853D01*
X138272784Y-55840456D01*
X138108812Y-55908376D01*
X137959512Y-55938073D01*
X137934742Y-55943000D01*
X137757258Y-55943000D01*
X137732488Y-55938073D01*
X137583188Y-55908376D01*
X137419216Y-55840456D01*
X137271646Y-55741853D01*
X137146147Y-55616354D01*
X137047544Y-55468784D01*
X136979624Y-55304812D01*
X136945000Y-55130741D01*
X136945000Y-54953259D01*
X136979624Y-54779188D01*
X137047544Y-54615216D01*
X137146147Y-54467646D01*
X137271646Y-54342147D01*
X137419216Y-54243544D01*
X137583188Y-54175624D01*
X137746862Y-54143068D01*
X137757258Y-54141000D01*
X137934742Y-54141000D01*
X137945138Y-54143068D01*
G37*
G36*
X140485138Y-54143068D02*
G01*
X140648812Y-54175624D01*
X140812784Y-54243544D01*
X140960354Y-54342147D01*
X141085853Y-54467646D01*
X141184456Y-54615216D01*
X141252376Y-54779188D01*
X141287000Y-54953259D01*
X141287000Y-55130741D01*
X141252376Y-55304812D01*
X141184456Y-55468784D01*
X141085853Y-55616354D01*
X140960354Y-55741853D01*
X140812784Y-55840456D01*
X140648812Y-55908376D01*
X140499512Y-55938073D01*
X140474742Y-55943000D01*
X140297258Y-55943000D01*
X140272488Y-55938073D01*
X140123188Y-55908376D01*
X139959216Y-55840456D01*
X139811646Y-55741853D01*
X139686147Y-55616354D01*
X139587544Y-55468784D01*
X139519624Y-55304812D01*
X139485000Y-55130741D01*
X139485000Y-54953259D01*
X139519624Y-54779188D01*
X139587544Y-54615216D01*
X139686147Y-54467646D01*
X139811646Y-54342147D01*
X139959216Y-54243544D01*
X140123188Y-54175624D01*
X140286862Y-54143068D01*
X140297258Y-54141000D01*
X140474742Y-54141000D01*
X140485138Y-54143068D01*
G37*
G36*
X143025138Y-54143068D02*
G01*
X143188812Y-54175624D01*
X143352784Y-54243544D01*
X143500354Y-54342147D01*
X143625853Y-54467646D01*
X143724456Y-54615216D01*
X143792376Y-54779188D01*
X143827000Y-54953259D01*
X143827000Y-55130741D01*
X143792376Y-55304812D01*
X143724456Y-55468784D01*
X143625853Y-55616354D01*
X143500354Y-55741853D01*
X143352784Y-55840456D01*
X143188812Y-55908376D01*
X143039512Y-55938073D01*
X143014742Y-55943000D01*
X142837258Y-55943000D01*
X142812488Y-55938073D01*
X142663188Y-55908376D01*
X142499216Y-55840456D01*
X142351646Y-55741853D01*
X142226147Y-55616354D01*
X142127544Y-55468784D01*
X142059624Y-55304812D01*
X142025000Y-55130741D01*
X142025000Y-54953259D01*
X142059624Y-54779188D01*
X142127544Y-54615216D01*
X142226147Y-54467646D01*
X142351646Y-54342147D01*
X142499216Y-54243544D01*
X142663188Y-54175624D01*
X142826862Y-54143068D01*
X142837258Y-54141000D01*
X143014742Y-54141000D01*
X143025138Y-54143068D01*
G37*
M02*
