G04 #@! TF.GenerationSoftware,KiCad,Pcbnew,(5.1.5)-3*
G04 #@! TF.CreationDate,2020-01-16T00:36:52-05:00*
G04 #@! TF.ProjectId,STM32_Klipper_Expander,53544d33-325f-44b6-9c69-707065725f45,rev?*
G04 #@! TF.SameCoordinates,Original*
G04 #@! TF.FileFunction,Legend,Top*
G04 #@! TF.FilePolarity,Positive*
%FSLAX46Y46*%
G04 Gerber Fmt 4.6, Leading zero omitted, Abs format (unit mm)*
G04 Created by KiCad (PCBNEW (5.1.5)-3) date 2020-01-16 00:36:52*
%MOMM*%
%LPD*%
G04 APERTURE LIST*
%ADD10C,0.100000*%
%ADD11C,0.120000*%
%ADD12C,0.150000*%
%ADD13C,0.200000*%
%ADD14C,0.010000*%
G04 APERTURE END LIST*
D10*
X174625000Y-96226785D02*
X174625000Y-95476785D01*
X174910714Y-95476785D01*
X174982142Y-95512500D01*
X175017857Y-95548214D01*
X175053571Y-95619642D01*
X175053571Y-95726785D01*
X175017857Y-95798214D01*
X174982142Y-95833928D01*
X174910714Y-95869642D01*
X174625000Y-95869642D01*
X175339285Y-96012500D02*
X175696428Y-96012500D01*
X175267857Y-96226785D02*
X175517857Y-95476785D01*
X175767857Y-96226785D01*
X175946428Y-95476785D02*
X176446428Y-95476785D01*
X176125000Y-96226785D01*
X174928571Y-96737500D02*
X174857142Y-96701785D01*
X174750000Y-96701785D01*
X174642857Y-96737500D01*
X174571428Y-96808928D01*
X174535714Y-96880357D01*
X174500000Y-97023214D01*
X174500000Y-97130357D01*
X174535714Y-97273214D01*
X174571428Y-97344642D01*
X174642857Y-97416071D01*
X174750000Y-97451785D01*
X174821428Y-97451785D01*
X174928571Y-97416071D01*
X174964285Y-97380357D01*
X174964285Y-97130357D01*
X174821428Y-97130357D01*
X175285714Y-97451785D02*
X175285714Y-96701785D01*
X175714285Y-97451785D01*
X175714285Y-96701785D01*
X176071428Y-97451785D02*
X176071428Y-96701785D01*
X176250000Y-96701785D01*
X176357142Y-96737500D01*
X176428571Y-96808928D01*
X176464285Y-96880357D01*
X176500000Y-97023214D01*
X176500000Y-97130357D01*
X176464285Y-97273214D01*
X176428571Y-97344642D01*
X176357142Y-97416071D01*
X176250000Y-97451785D01*
X176071428Y-97451785D01*
D11*
X107250000Y-80000000D02*
G75*
G03X107250000Y-80000000I-3250000J0D01*
G01*
X199250000Y-80000000D02*
G75*
G03X199250000Y-80000000I-3250000J0D01*
G01*
D12*
X180988095Y-98452380D02*
X181559523Y-98452380D01*
X181273809Y-99452380D02*
X181273809Y-98452380D01*
X182416666Y-99452380D02*
X181845238Y-99452380D01*
X182130952Y-99452380D02*
X182130952Y-98452380D01*
X182035714Y-98595238D01*
X181940476Y-98690476D01*
X181845238Y-98738095D01*
X199611904Y-97471428D02*
X198811904Y-97471428D01*
X199611904Y-97014285D01*
X198811904Y-97014285D01*
X199611904Y-96633333D02*
X198811904Y-96633333D01*
X198811904Y-96328571D01*
X198850000Y-96252380D01*
X198888095Y-96214285D01*
X198964285Y-96176190D01*
X199078571Y-96176190D01*
X199154761Y-96214285D01*
X199192857Y-96252380D01*
X199230952Y-96328571D01*
X199230952Y-96633333D01*
X198811904Y-95947619D02*
X199611904Y-95680952D01*
X198811904Y-95414285D01*
D10*
X198839285Y-92607142D02*
X199589285Y-92357142D01*
X198839285Y-92107142D01*
X199303571Y-91857142D02*
X199303571Y-91285714D01*
X199589285Y-91571428D02*
X199017857Y-91571428D01*
X199589285Y-90357142D02*
X198839285Y-90357142D01*
X198839285Y-90178571D01*
X198875000Y-90071428D01*
X198946428Y-90000000D01*
X199017857Y-89964285D01*
X199160714Y-89928571D01*
X199267857Y-89928571D01*
X199410714Y-89964285D01*
X199482142Y-90000000D01*
X199553571Y-90071428D01*
X199589285Y-90178571D01*
X199589285Y-90357142D01*
X199589285Y-89285714D02*
X199196428Y-89285714D01*
X199125000Y-89321428D01*
X199089285Y-89392857D01*
X199089285Y-89535714D01*
X199125000Y-89607142D01*
X199553571Y-89285714D02*
X199589285Y-89357142D01*
X199589285Y-89535714D01*
X199553571Y-89607142D01*
X199482142Y-89642857D01*
X199410714Y-89642857D01*
X199339285Y-89607142D01*
X199303571Y-89535714D01*
X199303571Y-89357142D01*
X199267857Y-89285714D01*
X199089285Y-89035714D02*
X199089285Y-88750000D01*
X198839285Y-88928571D02*
X199482142Y-88928571D01*
X199553571Y-88892857D01*
X199589285Y-88821428D01*
X199589285Y-88750000D01*
X199589285Y-88178571D02*
X199196428Y-88178571D01*
X199125000Y-88214285D01*
X199089285Y-88285714D01*
X199089285Y-88428571D01*
X199125000Y-88500000D01*
X199553571Y-88178571D02*
X199589285Y-88250000D01*
X199589285Y-88428571D01*
X199553571Y-88500000D01*
X199482142Y-88535714D01*
X199410714Y-88535714D01*
X199339285Y-88500000D01*
X199303571Y-88428571D01*
X199303571Y-88250000D01*
X199267857Y-88178571D01*
X198875000Y-86857142D02*
X198839285Y-86928571D01*
X198839285Y-87035714D01*
X198875000Y-87142857D01*
X198946428Y-87214285D01*
X199017857Y-87250000D01*
X199160714Y-87285714D01*
X199267857Y-87285714D01*
X199410714Y-87250000D01*
X199482142Y-87214285D01*
X199553571Y-87142857D01*
X199589285Y-87035714D01*
X199589285Y-86964285D01*
X199553571Y-86857142D01*
X199517857Y-86821428D01*
X199267857Y-86821428D01*
X199267857Y-86964285D01*
X199089285Y-86500000D02*
X199589285Y-86500000D01*
X199160714Y-86500000D02*
X199125000Y-86464285D01*
X199089285Y-86392857D01*
X199089285Y-86285714D01*
X199125000Y-86214285D01*
X199196428Y-86178571D01*
X199589285Y-86178571D01*
X199589285Y-85500000D02*
X198839285Y-85500000D01*
X199553571Y-85500000D02*
X199589285Y-85571428D01*
X199589285Y-85714285D01*
X199553571Y-85785714D01*
X199517857Y-85821428D01*
X199446428Y-85857142D01*
X199232142Y-85857142D01*
X199160714Y-85821428D01*
X199125000Y-85785714D01*
X199089285Y-85714285D01*
X199089285Y-85571428D01*
X199125000Y-85500000D01*
D12*
X140261904Y-99702380D02*
X139928571Y-99226190D01*
X139690476Y-99702380D02*
X139690476Y-98702380D01*
X140071428Y-98702380D01*
X140166666Y-98750000D01*
X140214285Y-98797619D01*
X140261904Y-98892857D01*
X140261904Y-99035714D01*
X140214285Y-99130952D01*
X140166666Y-99178571D01*
X140071428Y-99226190D01*
X139690476Y-99226190D01*
X141071428Y-99654761D02*
X140976190Y-99702380D01*
X140785714Y-99702380D01*
X140690476Y-99654761D01*
X140642857Y-99559523D01*
X140642857Y-99178571D01*
X140690476Y-99083333D01*
X140785714Y-99035714D01*
X140976190Y-99035714D01*
X141071428Y-99083333D01*
X141119047Y-99178571D01*
X141119047Y-99273809D01*
X140642857Y-99369047D01*
X141500000Y-99654761D02*
X141595238Y-99702380D01*
X141785714Y-99702380D01*
X141880952Y-99654761D01*
X141928571Y-99559523D01*
X141928571Y-99511904D01*
X141880952Y-99416666D01*
X141785714Y-99369047D01*
X141642857Y-99369047D01*
X141547619Y-99321428D01*
X141500000Y-99226190D01*
X141500000Y-99178571D01*
X141547619Y-99083333D01*
X141642857Y-99035714D01*
X141785714Y-99035714D01*
X141880952Y-99083333D01*
X142738095Y-99654761D02*
X142642857Y-99702380D01*
X142452380Y-99702380D01*
X142357142Y-99654761D01*
X142309523Y-99559523D01*
X142309523Y-99178571D01*
X142357142Y-99083333D01*
X142452380Y-99035714D01*
X142642857Y-99035714D01*
X142738095Y-99083333D01*
X142785714Y-99178571D01*
X142785714Y-99273809D01*
X142309523Y-99369047D01*
X143071428Y-99035714D02*
X143452380Y-99035714D01*
X143214285Y-98702380D02*
X143214285Y-99559523D01*
X143261904Y-99654761D01*
X143357142Y-99702380D01*
X143452380Y-99702380D01*
D10*
X151267857Y-99339285D02*
X151017857Y-98982142D01*
X150839285Y-99339285D02*
X150839285Y-98589285D01*
X151125000Y-98589285D01*
X151196428Y-98625000D01*
X151232142Y-98660714D01*
X151267857Y-98732142D01*
X151267857Y-98839285D01*
X151232142Y-98910714D01*
X151196428Y-98946428D01*
X151125000Y-98982142D01*
X150839285Y-98982142D01*
X151553571Y-99303571D02*
X151660714Y-99339285D01*
X151839285Y-99339285D01*
X151910714Y-99303571D01*
X151946428Y-99267857D01*
X151982142Y-99196428D01*
X151982142Y-99125000D01*
X151946428Y-99053571D01*
X151910714Y-99017857D01*
X151839285Y-98982142D01*
X151696428Y-98946428D01*
X151625000Y-98910714D01*
X151589285Y-98875000D01*
X151553571Y-98803571D01*
X151553571Y-98732142D01*
X151589285Y-98660714D01*
X151625000Y-98625000D01*
X151696428Y-98589285D01*
X151875000Y-98589285D01*
X151982142Y-98625000D01*
X152196428Y-98589285D02*
X152625000Y-98589285D01*
X152410714Y-99339285D02*
X152410714Y-98589285D01*
X153875000Y-99267857D02*
X153839285Y-99303571D01*
X153732142Y-99339285D01*
X153660714Y-99339285D01*
X153553571Y-99303571D01*
X153482142Y-99232142D01*
X153446428Y-99160714D01*
X153410714Y-99017857D01*
X153410714Y-98910714D01*
X153446428Y-98767857D01*
X153482142Y-98696428D01*
X153553571Y-98625000D01*
X153660714Y-98589285D01*
X153732142Y-98589285D01*
X153839285Y-98625000D01*
X153875000Y-98660714D01*
X154553571Y-99339285D02*
X154196428Y-99339285D01*
X154196428Y-98589285D01*
X154803571Y-99339285D02*
X154803571Y-98589285D01*
X155232142Y-99339285D02*
X154910714Y-98910714D01*
X155232142Y-98589285D02*
X154803571Y-99017857D01*
X156125000Y-99339285D02*
X156125000Y-98589285D01*
X156303571Y-98589285D01*
X156410714Y-98625000D01*
X156482142Y-98696428D01*
X156517857Y-98767857D01*
X156553571Y-98910714D01*
X156553571Y-99017857D01*
X156517857Y-99160714D01*
X156482142Y-99232142D01*
X156410714Y-99303571D01*
X156303571Y-99339285D01*
X156125000Y-99339285D01*
X156875000Y-99339285D02*
X156875000Y-98589285D01*
X157375000Y-98589285D02*
X157517857Y-98589285D01*
X157589285Y-98625000D01*
X157660714Y-98696428D01*
X157696428Y-98839285D01*
X157696428Y-99089285D01*
X157660714Y-99232142D01*
X157589285Y-99303571D01*
X157517857Y-99339285D01*
X157375000Y-99339285D01*
X157303571Y-99303571D01*
X157232142Y-99232142D01*
X157196428Y-99089285D01*
X157196428Y-98839285D01*
X157232142Y-98696428D01*
X157303571Y-98625000D01*
X157375000Y-98589285D01*
X163196428Y-98375000D02*
X163125000Y-98339285D01*
X163017857Y-98339285D01*
X162910714Y-98375000D01*
X162839285Y-98446428D01*
X162803571Y-98517857D01*
X162767857Y-98660714D01*
X162767857Y-98767857D01*
X162803571Y-98910714D01*
X162839285Y-98982142D01*
X162910714Y-99053571D01*
X163017857Y-99089285D01*
X163089285Y-99089285D01*
X163196428Y-99053571D01*
X163232142Y-99017857D01*
X163232142Y-98767857D01*
X163089285Y-98767857D01*
X163553571Y-99089285D02*
X163553571Y-98339285D01*
X163982142Y-99089285D01*
X163982142Y-98339285D01*
X164339285Y-99089285D02*
X164339285Y-98339285D01*
X164517857Y-98339285D01*
X164625000Y-98375000D01*
X164696428Y-98446428D01*
X164732142Y-98517857D01*
X164767857Y-98660714D01*
X164767857Y-98767857D01*
X164732142Y-98910714D01*
X164696428Y-98982142D01*
X164625000Y-99053571D01*
X164517857Y-99089285D01*
X164339285Y-99089285D01*
X165625000Y-99053571D02*
X165732142Y-99089285D01*
X165910714Y-99089285D01*
X165982142Y-99053571D01*
X166017857Y-99017857D01*
X166053571Y-98946428D01*
X166053571Y-98875000D01*
X166017857Y-98803571D01*
X165982142Y-98767857D01*
X165910714Y-98732142D01*
X165767857Y-98696428D01*
X165696428Y-98660714D01*
X165660714Y-98625000D01*
X165625000Y-98553571D01*
X165625000Y-98482142D01*
X165660714Y-98410714D01*
X165696428Y-98375000D01*
X165767857Y-98339285D01*
X165946428Y-98339285D01*
X166053571Y-98375000D01*
X166803571Y-99017857D02*
X166767857Y-99053571D01*
X166660714Y-99089285D01*
X166589285Y-99089285D01*
X166482142Y-99053571D01*
X166410714Y-98982142D01*
X166375000Y-98910714D01*
X166339285Y-98767857D01*
X166339285Y-98660714D01*
X166375000Y-98517857D01*
X166410714Y-98446428D01*
X166482142Y-98375000D01*
X166589285Y-98339285D01*
X166660714Y-98339285D01*
X166767857Y-98375000D01*
X166803571Y-98410714D01*
X167482142Y-99089285D02*
X167125000Y-99089285D01*
X167125000Y-98339285D01*
X168267857Y-99053571D02*
X168375000Y-99089285D01*
X168553571Y-99089285D01*
X168625000Y-99053571D01*
X168660714Y-99017857D01*
X168696428Y-98946428D01*
X168696428Y-98875000D01*
X168660714Y-98803571D01*
X168625000Y-98767857D01*
X168553571Y-98732142D01*
X168410714Y-98696428D01*
X168339285Y-98660714D01*
X168303571Y-98625000D01*
X168267857Y-98553571D01*
X168267857Y-98482142D01*
X168303571Y-98410714D01*
X168339285Y-98375000D01*
X168410714Y-98339285D01*
X168589285Y-98339285D01*
X168696428Y-98375000D01*
X169017857Y-99089285D02*
X169017857Y-98339285D01*
X169196428Y-98339285D01*
X169303571Y-98375000D01*
X169375000Y-98446428D01*
X169410714Y-98517857D01*
X169446428Y-98660714D01*
X169446428Y-98767857D01*
X169410714Y-98910714D01*
X169375000Y-98982142D01*
X169303571Y-99053571D01*
X169196428Y-99089285D01*
X169017857Y-99089285D01*
X169732142Y-98875000D02*
X170089285Y-98875000D01*
X169660714Y-99089285D02*
X169910714Y-98339285D01*
X170160714Y-99089285D01*
X170910714Y-98339285D02*
X171375000Y-98339285D01*
X171125000Y-98625000D01*
X171232142Y-98625000D01*
X171303571Y-98660714D01*
X171339285Y-98696428D01*
X171375000Y-98767857D01*
X171375000Y-98946428D01*
X171339285Y-99017857D01*
X171303571Y-99053571D01*
X171232142Y-99089285D01*
X171017857Y-99089285D01*
X170946428Y-99053571D01*
X170910714Y-99017857D01*
X171589285Y-98339285D02*
X171839285Y-99089285D01*
X172089285Y-98339285D01*
X172267857Y-98339285D02*
X172732142Y-98339285D01*
X172482142Y-98625000D01*
X172589285Y-98625000D01*
X172660714Y-98660714D01*
X172696428Y-98696428D01*
X172732142Y-98767857D01*
X172732142Y-98946428D01*
X172696428Y-99017857D01*
X172660714Y-99053571D01*
X172589285Y-99089285D01*
X172375000Y-99089285D01*
X172303571Y-99053571D01*
X172267857Y-99017857D01*
D13*
X148500000Y-77821428D02*
X148000000Y-76321428D01*
X147500000Y-77821428D01*
X147000000Y-76321428D02*
X147000000Y-77321428D01*
X147000000Y-77821428D02*
X147071428Y-77750000D01*
X147000000Y-77678571D01*
X146928571Y-77750000D01*
X147000000Y-77821428D01*
X147000000Y-77678571D01*
X146285714Y-77321428D02*
X146285714Y-76321428D01*
X146285714Y-77178571D02*
X146214285Y-77250000D01*
X146071428Y-77321428D01*
X145857142Y-77321428D01*
X145714285Y-77250000D01*
X145642857Y-77107142D01*
X145642857Y-76321428D01*
X142642857Y-76321428D02*
X142642857Y-77821428D01*
X142142857Y-76750000D01*
X141642857Y-77821428D01*
X141642857Y-76321428D01*
X140642857Y-77821428D02*
X140500000Y-77821428D01*
X140357142Y-77750000D01*
X140285714Y-77678571D01*
X140214285Y-77535714D01*
X140142857Y-77250000D01*
X140142857Y-76892857D01*
X140214285Y-76607142D01*
X140285714Y-76464285D01*
X140357142Y-76392857D01*
X140500000Y-76321428D01*
X140642857Y-76321428D01*
X140785714Y-76392857D01*
X140857142Y-76464285D01*
X140928571Y-76607142D01*
X141000000Y-76892857D01*
X141000000Y-77250000D01*
X140928571Y-77535714D01*
X140857142Y-77678571D01*
X140785714Y-77750000D01*
X140642857Y-77821428D01*
X128000000Y-77821428D02*
X127500000Y-76321428D01*
X127000000Y-77821428D01*
X126500000Y-76321428D02*
X126500000Y-77321428D01*
X126500000Y-77821428D02*
X126571428Y-77750000D01*
X126500000Y-77678571D01*
X126428571Y-77750000D01*
X126500000Y-77821428D01*
X126500000Y-77678571D01*
X125785714Y-77321428D02*
X125785714Y-76321428D01*
X125785714Y-77178571D02*
X125714285Y-77250000D01*
X125571428Y-77321428D01*
X125357142Y-77321428D01*
X125214285Y-77250000D01*
X125142857Y-77107142D01*
X125142857Y-76321428D01*
X122142857Y-76321428D02*
X122142857Y-77821428D01*
X121642857Y-76750000D01*
X121142857Y-77821428D01*
X121142857Y-76321428D01*
X120500000Y-77678571D02*
X120428571Y-77750000D01*
X120285714Y-77821428D01*
X119928571Y-77821428D01*
X119785714Y-77750000D01*
X119714285Y-77678571D01*
X119642857Y-77535714D01*
X119642857Y-77392857D01*
X119714285Y-77178571D01*
X120571428Y-76321428D01*
X119642857Y-76321428D01*
X138250000Y-77821428D02*
X137750000Y-76321428D01*
X137250000Y-77821428D01*
X136750000Y-76321428D02*
X136750000Y-77321428D01*
X136750000Y-77821428D02*
X136821428Y-77750000D01*
X136750000Y-77678571D01*
X136678571Y-77750000D01*
X136750000Y-77821428D01*
X136750000Y-77678571D01*
X136035714Y-77321428D02*
X136035714Y-76321428D01*
X136035714Y-77178571D02*
X135964285Y-77250000D01*
X135821428Y-77321428D01*
X135607142Y-77321428D01*
X135464285Y-77250000D01*
X135392857Y-77107142D01*
X135392857Y-76321428D01*
X132392857Y-76321428D02*
X132392857Y-77821428D01*
X131892857Y-76750000D01*
X131392857Y-77821428D01*
X131392857Y-76321428D01*
X129892857Y-76321428D02*
X130750000Y-76321428D01*
X130321428Y-76321428D02*
X130321428Y-77821428D01*
X130464285Y-77607142D01*
X130607142Y-77464285D01*
X130750000Y-77392857D01*
X165785714Y-77000000D02*
X165928571Y-77071428D01*
X166142857Y-77071428D01*
X166357142Y-77000000D01*
X166500000Y-76857142D01*
X166571428Y-76714285D01*
X166642857Y-76428571D01*
X166642857Y-76214285D01*
X166571428Y-75928571D01*
X166500000Y-75785714D01*
X166357142Y-75642857D01*
X166142857Y-75571428D01*
X166000000Y-75571428D01*
X165785714Y-75642857D01*
X165714285Y-75714285D01*
X165714285Y-76214285D01*
X166000000Y-76214285D01*
X165071428Y-76571428D02*
X165071428Y-75571428D01*
X165071428Y-76428571D02*
X165000000Y-76500000D01*
X164857142Y-76571428D01*
X164642857Y-76571428D01*
X164500000Y-76500000D01*
X164428571Y-76357142D01*
X164428571Y-75571428D01*
X163071428Y-75571428D02*
X163071428Y-77071428D01*
X163071428Y-75642857D02*
X163214285Y-75571428D01*
X163500000Y-75571428D01*
X163642857Y-75642857D01*
X163714285Y-75714285D01*
X163785714Y-75857142D01*
X163785714Y-76285714D01*
X163714285Y-76428571D01*
X163642857Y-76500000D01*
X163500000Y-76571428D01*
X163214285Y-76571428D01*
X163071428Y-76500000D01*
X160285714Y-77071428D02*
X159785714Y-75571428D01*
X159285714Y-77071428D01*
X158785714Y-75571428D02*
X158785714Y-76571428D01*
X158785714Y-77071428D02*
X158857142Y-77000000D01*
X158785714Y-76928571D01*
X158714285Y-77000000D01*
X158785714Y-77071428D01*
X158785714Y-76928571D01*
X158071428Y-76571428D02*
X158071428Y-75571428D01*
X158071428Y-76428571D02*
X158000000Y-76500000D01*
X157857142Y-76571428D01*
X157642857Y-76571428D01*
X157500000Y-76500000D01*
X157428571Y-76357142D01*
X157428571Y-75571428D01*
D12*
X170130952Y-76678571D02*
X170273809Y-76726190D01*
X170321428Y-76773809D01*
X170369047Y-76869047D01*
X170369047Y-77011904D01*
X170321428Y-77107142D01*
X170273809Y-77154761D01*
X170178571Y-77202380D01*
X169797619Y-77202380D01*
X169797619Y-76202380D01*
X170130952Y-76202380D01*
X170226190Y-76250000D01*
X170273809Y-76297619D01*
X170321428Y-76392857D01*
X170321428Y-76488095D01*
X170273809Y-76583333D01*
X170226190Y-76630952D01*
X170130952Y-76678571D01*
X169797619Y-76678571D01*
X170940476Y-77202380D02*
X170845238Y-77154761D01*
X170797619Y-77107142D01*
X170750000Y-77011904D01*
X170750000Y-76726190D01*
X170797619Y-76630952D01*
X170845238Y-76583333D01*
X170940476Y-76535714D01*
X171083333Y-76535714D01*
X171178571Y-76583333D01*
X171226190Y-76630952D01*
X171273809Y-76726190D01*
X171273809Y-77011904D01*
X171226190Y-77107142D01*
X171178571Y-77154761D01*
X171083333Y-77202380D01*
X170940476Y-77202380D01*
X171845238Y-77202380D02*
X171750000Y-77154761D01*
X171702380Y-77107142D01*
X171654761Y-77011904D01*
X171654761Y-76726190D01*
X171702380Y-76630952D01*
X171750000Y-76583333D01*
X171845238Y-76535714D01*
X171988095Y-76535714D01*
X172083333Y-76583333D01*
X172130952Y-76630952D01*
X172178571Y-76726190D01*
X172178571Y-77011904D01*
X172130952Y-77107142D01*
X172083333Y-77154761D01*
X171988095Y-77202380D01*
X171845238Y-77202380D01*
X172464285Y-76535714D02*
X172845238Y-76535714D01*
X172607142Y-76202380D02*
X172607142Y-77059523D01*
X172654761Y-77154761D01*
X172750000Y-77202380D01*
X172845238Y-77202380D01*
D13*
X118000000Y-77821428D02*
X117500000Y-76321428D01*
X117000000Y-77821428D01*
X116500000Y-76321428D02*
X116500000Y-77321428D01*
X116500000Y-77821428D02*
X116571428Y-77750000D01*
X116500000Y-77678571D01*
X116428571Y-77750000D01*
X116500000Y-77821428D01*
X116500000Y-77678571D01*
X115785714Y-77321428D02*
X115785714Y-76321428D01*
X115785714Y-77178571D02*
X115714285Y-77250000D01*
X115571428Y-77321428D01*
X115357142Y-77321428D01*
X115214285Y-77250000D01*
X115142857Y-77107142D01*
X115142857Y-76321428D01*
X112142857Y-76321428D02*
X112142857Y-77821428D01*
X111642857Y-76750000D01*
X111142857Y-77821428D01*
X111142857Y-76321428D01*
X110571428Y-77821428D02*
X109642857Y-77821428D01*
X110142857Y-77250000D01*
X109928571Y-77250000D01*
X109785714Y-77178571D01*
X109714285Y-77107142D01*
X109642857Y-76964285D01*
X109642857Y-76607142D01*
X109714285Y-76464285D01*
X109785714Y-76392857D01*
X109928571Y-76321428D01*
X110357142Y-76321428D01*
X110500000Y-76392857D01*
X110571428Y-76464285D01*
D12*
X189738095Y-98452380D02*
X190309523Y-98452380D01*
X190023809Y-99452380D02*
X190023809Y-98452380D01*
X190833333Y-98452380D02*
X190928571Y-98452380D01*
X191023809Y-98500000D01*
X191071428Y-98547619D01*
X191119047Y-98642857D01*
X191166666Y-98833333D01*
X191166666Y-99071428D01*
X191119047Y-99261904D01*
X191071428Y-99357142D01*
X191023809Y-99404761D01*
X190928571Y-99452380D01*
X190833333Y-99452380D01*
X190738095Y-99404761D01*
X190690476Y-99357142D01*
X190642857Y-99261904D01*
X190595238Y-99071428D01*
X190595238Y-98833333D01*
X190642857Y-98642857D01*
X190690476Y-98547619D01*
X190738095Y-98500000D01*
X190833333Y-98452380D01*
D11*
X168670000Y-80330000D02*
X168670000Y-79000000D01*
X170000000Y-80330000D02*
X168670000Y-80330000D01*
X171270000Y-80330000D02*
X171270000Y-77670000D01*
X171270000Y-77670000D02*
X173870000Y-77670000D01*
X171270000Y-80330000D02*
X173870000Y-80330000D01*
X173870000Y-80330000D02*
X173870000Y-77670000D01*
X183442000Y-80971500D02*
X183442000Y-80521500D01*
X183442000Y-80971500D02*
X182992000Y-80971500D01*
X177842000Y-80421500D02*
X178292000Y-80421500D01*
X177842000Y-78571500D02*
X177842000Y-80421500D01*
X185642000Y-76021500D02*
X185642000Y-76271500D01*
X177842000Y-76021500D02*
X177842000Y-76271500D01*
X185642000Y-78571500D02*
X185642000Y-80421500D01*
X185642000Y-80421500D02*
X185192000Y-80421500D01*
D14*
G36*
X107768600Y-88850150D02*
G01*
X107768600Y-92149849D01*
X106379308Y-92950524D01*
X106039339Y-93146185D01*
X105729012Y-93324267D01*
X105458882Y-93478754D01*
X105239505Y-93603630D01*
X105081439Y-93692877D01*
X104995239Y-93740478D01*
X104982308Y-93746770D01*
X104938181Y-93721166D01*
X104816791Y-93650713D01*
X104628745Y-93541566D01*
X104384649Y-93399881D01*
X104095109Y-93231815D01*
X103770731Y-93043525D01*
X103603000Y-92946162D01*
X102377648Y-92234876D01*
X103433666Y-92234876D01*
X103472441Y-92254402D01*
X103590479Y-92269187D01*
X103765467Y-92276891D01*
X103840066Y-92277479D01*
X104263400Y-92276959D01*
X104277821Y-92255076D01*
X105000000Y-92255076D01*
X105046850Y-92265563D01*
X105171616Y-92273500D01*
X105350623Y-92277596D01*
X105419100Y-92277886D01*
X105838200Y-92277772D01*
X106320800Y-91534043D01*
X106485838Y-91279678D01*
X106637963Y-91045166D01*
X106765863Y-90847951D01*
X106858223Y-90705476D01*
X106897288Y-90645156D01*
X106991177Y-90500000D01*
X106129093Y-90500000D01*
X105564546Y-91366076D01*
X105394034Y-91628735D01*
X105244186Y-91861619D01*
X105123286Y-92051683D01*
X105039618Y-92185882D01*
X105001465Y-92251172D01*
X105000000Y-92255076D01*
X104277821Y-92255076D01*
X105406400Y-90542603D01*
X105654036Y-90166432D01*
X105884037Y-89816255D01*
X106090420Y-89501238D01*
X106267202Y-89230551D01*
X106408399Y-89013361D01*
X106508029Y-88858837D01*
X106560108Y-88776148D01*
X106566333Y-88765123D01*
X106527558Y-88745597D01*
X106409520Y-88730812D01*
X106234532Y-88723108D01*
X106159933Y-88722520D01*
X105736600Y-88723040D01*
X104593600Y-90457396D01*
X104345963Y-90833567D01*
X104115962Y-91183744D01*
X103909579Y-91498761D01*
X103732797Y-91769448D01*
X103591600Y-91986638D01*
X103491970Y-92141162D01*
X103439891Y-92223851D01*
X103433666Y-92234876D01*
X102377648Y-92234876D01*
X102231400Y-92149983D01*
X102231400Y-90500000D01*
X103008822Y-90500000D01*
X103870906Y-90500000D01*
X104435453Y-89633923D01*
X104605965Y-89371264D01*
X104755813Y-89138380D01*
X104876713Y-88948316D01*
X104960381Y-88814117D01*
X104998534Y-88748827D01*
X105000000Y-88744923D01*
X104953149Y-88734436D01*
X104828383Y-88726499D01*
X104649376Y-88722403D01*
X104580900Y-88722113D01*
X104161800Y-88722227D01*
X103679200Y-89465956D01*
X103514161Y-89720321D01*
X103362036Y-89954833D01*
X103234136Y-90152048D01*
X103141776Y-90294523D01*
X103102711Y-90354843D01*
X103008822Y-90500000D01*
X102231400Y-90500000D01*
X102231400Y-88850150D01*
X105000000Y-87254552D01*
X107768600Y-88850150D01*
G37*
X107768600Y-88850150D02*
X107768600Y-92149849D01*
X106379308Y-92950524D01*
X106039339Y-93146185D01*
X105729012Y-93324267D01*
X105458882Y-93478754D01*
X105239505Y-93603630D01*
X105081439Y-93692877D01*
X104995239Y-93740478D01*
X104982308Y-93746770D01*
X104938181Y-93721166D01*
X104816791Y-93650713D01*
X104628745Y-93541566D01*
X104384649Y-93399881D01*
X104095109Y-93231815D01*
X103770731Y-93043525D01*
X103603000Y-92946162D01*
X102377648Y-92234876D01*
X103433666Y-92234876D01*
X103472441Y-92254402D01*
X103590479Y-92269187D01*
X103765467Y-92276891D01*
X103840066Y-92277479D01*
X104263400Y-92276959D01*
X104277821Y-92255076D01*
X105000000Y-92255076D01*
X105046850Y-92265563D01*
X105171616Y-92273500D01*
X105350623Y-92277596D01*
X105419100Y-92277886D01*
X105838200Y-92277772D01*
X106320800Y-91534043D01*
X106485838Y-91279678D01*
X106637963Y-91045166D01*
X106765863Y-90847951D01*
X106858223Y-90705476D01*
X106897288Y-90645156D01*
X106991177Y-90500000D01*
X106129093Y-90500000D01*
X105564546Y-91366076D01*
X105394034Y-91628735D01*
X105244186Y-91861619D01*
X105123286Y-92051683D01*
X105039618Y-92185882D01*
X105001465Y-92251172D01*
X105000000Y-92255076D01*
X104277821Y-92255076D01*
X105406400Y-90542603D01*
X105654036Y-90166432D01*
X105884037Y-89816255D01*
X106090420Y-89501238D01*
X106267202Y-89230551D01*
X106408399Y-89013361D01*
X106508029Y-88858837D01*
X106560108Y-88776148D01*
X106566333Y-88765123D01*
X106527558Y-88745597D01*
X106409520Y-88730812D01*
X106234532Y-88723108D01*
X106159933Y-88722520D01*
X105736600Y-88723040D01*
X104593600Y-90457396D01*
X104345963Y-90833567D01*
X104115962Y-91183744D01*
X103909579Y-91498761D01*
X103732797Y-91769448D01*
X103591600Y-91986638D01*
X103491970Y-92141162D01*
X103439891Y-92223851D01*
X103433666Y-92234876D01*
X102377648Y-92234876D01*
X102231400Y-92149983D01*
X102231400Y-90500000D01*
X103008822Y-90500000D01*
X103870906Y-90500000D01*
X104435453Y-89633923D01*
X104605965Y-89371264D01*
X104755813Y-89138380D01*
X104876713Y-88948316D01*
X104960381Y-88814117D01*
X104998534Y-88748827D01*
X105000000Y-88744923D01*
X104953149Y-88734436D01*
X104828383Y-88726499D01*
X104649376Y-88722403D01*
X104580900Y-88722113D01*
X104161800Y-88722227D01*
X103679200Y-89465956D01*
X103514161Y-89720321D01*
X103362036Y-89954833D01*
X103234136Y-90152048D01*
X103141776Y-90294523D01*
X103102711Y-90354843D01*
X103008822Y-90500000D01*
X102231400Y-90500000D01*
X102231400Y-88850150D01*
X105000000Y-87254552D01*
X107768600Y-88850150D01*
G36*
X128639536Y-95231511D02*
G01*
X128005291Y-95231511D01*
X128005291Y-94687872D01*
X128639536Y-94687872D01*
X128639536Y-95231511D01*
G37*
X128639536Y-95231511D02*
X128005291Y-95231511D01*
X128005291Y-94687872D01*
X128639536Y-94687872D01*
X128639536Y-95231511D01*
G36*
X134473309Y-95618948D02*
G01*
X134483650Y-95620824D01*
X134683208Y-95671782D01*
X134834322Y-95744205D01*
X134946995Y-95844315D01*
X135018859Y-95953600D01*
X135102794Y-96114270D01*
X135102794Y-98372533D01*
X134468549Y-98372533D01*
X134468104Y-97323009D01*
X134467328Y-97015706D01*
X134465189Y-96764456D01*
X134461540Y-96564922D01*
X134456236Y-96412766D01*
X134449131Y-96303648D01*
X134440078Y-96233231D01*
X134430284Y-96199632D01*
X134365124Y-96111773D01*
X134268441Y-96051981D01*
X134132268Y-96017371D01*
X133948638Y-96005055D01*
X133893557Y-96005131D01*
X133705393Y-96014355D01*
X133565489Y-96039349D01*
X133462903Y-96083890D01*
X133386695Y-96151754D01*
X133358905Y-96189665D01*
X133344570Y-96216390D01*
X133332906Y-96252631D01*
X133323566Y-96304701D01*
X133316204Y-96378914D01*
X133310472Y-96481585D01*
X133306024Y-96619028D01*
X133302514Y-96797557D01*
X133299594Y-97023485D01*
X133296918Y-97303127D01*
X133296759Y-97321616D01*
X133287752Y-98372533D01*
X132656421Y-98372533D01*
X132656421Y-95654341D01*
X132973543Y-95654341D01*
X133117008Y-95655543D01*
X133210254Y-95660188D01*
X133263439Y-95669828D01*
X133286719Y-95686020D01*
X133290666Y-95702875D01*
X133306258Y-95736191D01*
X133343519Y-95729447D01*
X133537895Y-95667572D01*
X133769312Y-95623560D01*
X134016520Y-95599436D01*
X134258269Y-95597224D01*
X134473309Y-95618948D01*
G37*
X134473309Y-95618948D02*
X134483650Y-95620824D01*
X134683208Y-95671782D01*
X134834322Y-95744205D01*
X134946995Y-95844315D01*
X135018859Y-95953600D01*
X135102794Y-96114270D01*
X135102794Y-98372533D01*
X134468549Y-98372533D01*
X134468104Y-97323009D01*
X134467328Y-97015706D01*
X134465189Y-96764456D01*
X134461540Y-96564922D01*
X134456236Y-96412766D01*
X134449131Y-96303648D01*
X134440078Y-96233231D01*
X134430284Y-96199632D01*
X134365124Y-96111773D01*
X134268441Y-96051981D01*
X134132268Y-96017371D01*
X133948638Y-96005055D01*
X133893557Y-96005131D01*
X133705393Y-96014355D01*
X133565489Y-96039349D01*
X133462903Y-96083890D01*
X133386695Y-96151754D01*
X133358905Y-96189665D01*
X133344570Y-96216390D01*
X133332906Y-96252631D01*
X133323566Y-96304701D01*
X133316204Y-96378914D01*
X133310472Y-96481585D01*
X133306024Y-96619028D01*
X133302514Y-96797557D01*
X133299594Y-97023485D01*
X133296918Y-97303127D01*
X133296759Y-97321616D01*
X133287752Y-98372533D01*
X132656421Y-98372533D01*
X132656421Y-95654341D01*
X132973543Y-95654341D01*
X133117008Y-95655543D01*
X133210254Y-95660188D01*
X133263439Y-95669828D01*
X133286719Y-95686020D01*
X133290666Y-95702875D01*
X133306258Y-95736191D01*
X133343519Y-95729447D01*
X133537895Y-95667572D01*
X133769312Y-95623560D01*
X134016520Y-95599436D01*
X134258269Y-95597224D01*
X134473309Y-95618948D01*
G36*
X128639536Y-98372533D02*
G01*
X128005291Y-98372533D01*
X128005291Y-95654341D01*
X128639536Y-95654341D01*
X128639536Y-98372533D01*
G37*
X128639536Y-98372533D02*
X128005291Y-98372533D01*
X128005291Y-95654341D01*
X128639536Y-95654341D01*
X128639536Y-98372533D01*
G36*
X119658332Y-94749299D02*
G01*
X119925125Y-94752881D01*
X120146318Y-94759793D01*
X120329297Y-94770807D01*
X120481453Y-94786695D01*
X120610174Y-94808227D01*
X120722848Y-94836176D01*
X120826864Y-94871312D01*
X120929544Y-94914376D01*
X121099183Y-95017065D01*
X121249125Y-95156536D01*
X121363990Y-95316628D01*
X121411385Y-95420691D01*
X121426790Y-95470314D01*
X121439067Y-95525961D01*
X121448563Y-95594780D01*
X121455623Y-95683919D01*
X121460593Y-95800527D01*
X121463819Y-95951752D01*
X121465647Y-96144742D01*
X121466423Y-96386647D01*
X121466528Y-96560405D01*
X121466201Y-96861322D01*
X121464423Y-97108609D01*
X121459996Y-97309042D01*
X121451723Y-97469394D01*
X121438407Y-97596440D01*
X121418850Y-97696954D01*
X121391857Y-97777710D01*
X121356229Y-97845483D01*
X121310769Y-97907048D01*
X121254280Y-97969178D01*
X121209540Y-98014622D01*
X121113146Y-98105480D01*
X121026310Y-98168992D01*
X120926547Y-98218698D01*
X120791369Y-98268136D01*
X120784882Y-98270307D01*
X120530261Y-98355368D01*
X119450535Y-98365999D01*
X118370808Y-98376630D01*
X118370808Y-97987065D01*
X119065458Y-97987065D01*
X119646849Y-97973088D01*
X119857445Y-97967250D01*
X120018242Y-97960484D01*
X120139845Y-97951672D01*
X120232859Y-97939694D01*
X120307889Y-97923432D01*
X120375539Y-97901767D01*
X120395907Y-97894076D01*
X120568016Y-97802555D01*
X120697316Y-97681035D01*
X120776471Y-97536740D01*
X120784060Y-97511772D01*
X120794286Y-97442104D01*
X120802609Y-97322273D01*
X120809026Y-97162491D01*
X120813534Y-96972969D01*
X120816130Y-96763919D01*
X120816812Y-96545552D01*
X120815575Y-96328079D01*
X120812418Y-96121713D01*
X120807337Y-95936665D01*
X120800328Y-95783147D01*
X120791389Y-95671369D01*
X120784620Y-95626293D01*
X120732148Y-95478528D01*
X120640928Y-95363578D01*
X120502781Y-95272858D01*
X120409453Y-95232319D01*
X120338578Y-95207396D01*
X120266741Y-95188609D01*
X120183080Y-95174757D01*
X120076735Y-95164637D01*
X119936844Y-95157048D01*
X119752547Y-95150789D01*
X119646849Y-95147948D01*
X119065458Y-95133089D01*
X119065458Y-97987065D01*
X118370808Y-97987065D01*
X118370808Y-94748276D01*
X119338550Y-94748276D01*
X119658332Y-94749299D01*
G37*
X119658332Y-94749299D02*
X119925125Y-94752881D01*
X120146318Y-94759793D01*
X120329297Y-94770807D01*
X120481453Y-94786695D01*
X120610174Y-94808227D01*
X120722848Y-94836176D01*
X120826864Y-94871312D01*
X120929544Y-94914376D01*
X121099183Y-95017065D01*
X121249125Y-95156536D01*
X121363990Y-95316628D01*
X121411385Y-95420691D01*
X121426790Y-95470314D01*
X121439067Y-95525961D01*
X121448563Y-95594780D01*
X121455623Y-95683919D01*
X121460593Y-95800527D01*
X121463819Y-95951752D01*
X121465647Y-96144742D01*
X121466423Y-96386647D01*
X121466528Y-96560405D01*
X121466201Y-96861322D01*
X121464423Y-97108609D01*
X121459996Y-97309042D01*
X121451723Y-97469394D01*
X121438407Y-97596440D01*
X121418850Y-97696954D01*
X121391857Y-97777710D01*
X121356229Y-97845483D01*
X121310769Y-97907048D01*
X121254280Y-97969178D01*
X121209540Y-98014622D01*
X121113146Y-98105480D01*
X121026310Y-98168992D01*
X120926547Y-98218698D01*
X120791369Y-98268136D01*
X120784882Y-98270307D01*
X120530261Y-98355368D01*
X119450535Y-98365999D01*
X118370808Y-98376630D01*
X118370808Y-97987065D01*
X119065458Y-97987065D01*
X119646849Y-97973088D01*
X119857445Y-97967250D01*
X120018242Y-97960484D01*
X120139845Y-97951672D01*
X120232859Y-97939694D01*
X120307889Y-97923432D01*
X120375539Y-97901767D01*
X120395907Y-97894076D01*
X120568016Y-97802555D01*
X120697316Y-97681035D01*
X120776471Y-97536740D01*
X120784060Y-97511772D01*
X120794286Y-97442104D01*
X120802609Y-97322273D01*
X120809026Y-97162491D01*
X120813534Y-96972969D01*
X120816130Y-96763919D01*
X120816812Y-96545552D01*
X120815575Y-96328079D01*
X120812418Y-96121713D01*
X120807337Y-95936665D01*
X120800328Y-95783147D01*
X120791389Y-95671369D01*
X120784620Y-95626293D01*
X120732148Y-95478528D01*
X120640928Y-95363578D01*
X120502781Y-95272858D01*
X120409453Y-95232319D01*
X120338578Y-95207396D01*
X120266741Y-95188609D01*
X120183080Y-95174757D01*
X120076735Y-95164637D01*
X119936844Y-95157048D01*
X119752547Y-95150789D01*
X119646849Y-95147948D01*
X119065458Y-95133089D01*
X119065458Y-97987065D01*
X118370808Y-97987065D01*
X118370808Y-94748276D01*
X119338550Y-94748276D01*
X119658332Y-94749299D01*
G36*
X115566769Y-95618948D02*
G01*
X115577110Y-95620824D01*
X115776668Y-95671782D01*
X115927782Y-95744205D01*
X116040455Y-95844315D01*
X116112319Y-95953600D01*
X116196254Y-96114270D01*
X116196254Y-98372533D01*
X115562009Y-98372533D01*
X115561564Y-97323009D01*
X115560788Y-97015706D01*
X115558649Y-96764456D01*
X115555000Y-96564922D01*
X115549696Y-96412766D01*
X115542591Y-96303648D01*
X115533538Y-96233231D01*
X115523744Y-96199632D01*
X115458584Y-96111773D01*
X115361901Y-96051981D01*
X115225728Y-96017371D01*
X115042098Y-96005055D01*
X114987017Y-96005131D01*
X114798853Y-96014355D01*
X114658949Y-96039349D01*
X114556363Y-96083890D01*
X114480156Y-96151754D01*
X114452365Y-96189665D01*
X114438030Y-96216390D01*
X114426366Y-96252631D01*
X114417027Y-96304701D01*
X114409664Y-96378914D01*
X114403932Y-96481585D01*
X114399484Y-96619028D01*
X114395974Y-96797557D01*
X114393054Y-97023485D01*
X114390379Y-97303127D01*
X114390219Y-97321616D01*
X114381212Y-98372533D01*
X113749881Y-98372533D01*
X113749881Y-95654341D01*
X114067003Y-95654341D01*
X114210468Y-95655543D01*
X114303714Y-95660188D01*
X114356899Y-95669828D01*
X114380179Y-95686020D01*
X114384126Y-95702875D01*
X114399718Y-95736191D01*
X114436980Y-95729447D01*
X114631356Y-95667572D01*
X114862773Y-95623560D01*
X115109980Y-95599436D01*
X115351729Y-95597224D01*
X115566769Y-95618948D01*
G37*
X115566769Y-95618948D02*
X115577110Y-95620824D01*
X115776668Y-95671782D01*
X115927782Y-95744205D01*
X116040455Y-95844315D01*
X116112319Y-95953600D01*
X116196254Y-96114270D01*
X116196254Y-98372533D01*
X115562009Y-98372533D01*
X115561564Y-97323009D01*
X115560788Y-97015706D01*
X115558649Y-96764456D01*
X115555000Y-96564922D01*
X115549696Y-96412766D01*
X115542591Y-96303648D01*
X115533538Y-96233231D01*
X115523744Y-96199632D01*
X115458584Y-96111773D01*
X115361901Y-96051981D01*
X115225728Y-96017371D01*
X115042098Y-96005055D01*
X114987017Y-96005131D01*
X114798853Y-96014355D01*
X114658949Y-96039349D01*
X114556363Y-96083890D01*
X114480156Y-96151754D01*
X114452365Y-96189665D01*
X114438030Y-96216390D01*
X114426366Y-96252631D01*
X114417027Y-96304701D01*
X114409664Y-96378914D01*
X114403932Y-96481585D01*
X114399484Y-96619028D01*
X114395974Y-96797557D01*
X114393054Y-97023485D01*
X114390379Y-97303127D01*
X114390219Y-97321616D01*
X114381212Y-98372533D01*
X113749881Y-98372533D01*
X113749881Y-95654341D01*
X114067003Y-95654341D01*
X114210468Y-95655543D01*
X114303714Y-95660188D01*
X114356899Y-95669828D01*
X114380179Y-95686020D01*
X114384126Y-95702875D01*
X114399718Y-95736191D01*
X114436980Y-95729447D01*
X114631356Y-95667572D01*
X114862773Y-95623560D01*
X115109980Y-95599436D01*
X115351729Y-95597224D01*
X115566769Y-95618948D01*
G36*
X110080321Y-96062069D02*
G01*
X109748097Y-96077927D01*
X109565445Y-96090523D01*
X109433176Y-96109220D01*
X109341437Y-96135610D01*
X109315338Y-96147887D01*
X109267469Y-96176018D01*
X109228572Y-96207853D01*
X109197718Y-96249581D01*
X109173980Y-96307389D01*
X109156427Y-96387467D01*
X109144133Y-96496002D01*
X109136168Y-96639183D01*
X109131603Y-96823199D01*
X109129510Y-97054238D01*
X109128960Y-97338487D01*
X109128953Y-97389994D01*
X109128953Y-98372533D01*
X108494708Y-98372533D01*
X108494708Y-95654341D01*
X109098751Y-95654341D01*
X109098751Y-95732363D01*
X109106068Y-95785940D01*
X109121403Y-95798869D01*
X109272703Y-95723019D01*
X109386352Y-95670840D01*
X109478158Y-95637883D01*
X109563931Y-95619702D01*
X109659481Y-95611850D01*
X109780616Y-95609880D01*
X109793400Y-95609839D01*
X110080321Y-95609037D01*
X110080321Y-96062069D01*
G37*
X110080321Y-96062069D02*
X109748097Y-96077927D01*
X109565445Y-96090523D01*
X109433176Y-96109220D01*
X109341437Y-96135610D01*
X109315338Y-96147887D01*
X109267469Y-96176018D01*
X109228572Y-96207853D01*
X109197718Y-96249581D01*
X109173980Y-96307389D01*
X109156427Y-96387467D01*
X109144133Y-96496002D01*
X109136168Y-96639183D01*
X109131603Y-96823199D01*
X109129510Y-97054238D01*
X109128960Y-97338487D01*
X109128953Y-97389994D01*
X109128953Y-98372533D01*
X108494708Y-98372533D01*
X108494708Y-95654341D01*
X109098751Y-95654341D01*
X109098751Y-95732363D01*
X109106068Y-95785940D01*
X109121403Y-95798869D01*
X109272703Y-95723019D01*
X109386352Y-95670840D01*
X109478158Y-95637883D01*
X109563931Y-95619702D01*
X109659481Y-95611850D01*
X109780616Y-95609880D01*
X109793400Y-95609839D01*
X110080321Y-95609037D01*
X110080321Y-96062069D01*
G36*
X102457074Y-96230730D02*
G01*
X102594351Y-96597121D01*
X102712111Y-96907519D01*
X102810769Y-97162953D01*
X102890737Y-97364454D01*
X102952431Y-97513049D01*
X102996264Y-97609769D01*
X103022650Y-97655642D01*
X103031070Y-97657781D01*
X103045579Y-97619250D01*
X103079114Y-97529775D01*
X103129566Y-97395000D01*
X103194824Y-97220566D01*
X103272777Y-97012115D01*
X103361316Y-96775291D01*
X103458330Y-96515735D01*
X103561709Y-96239090D01*
X103580521Y-96188743D01*
X103684368Y-95911276D01*
X103782018Y-95651272D01*
X103871406Y-95414169D01*
X103950467Y-95205402D01*
X104017135Y-95030405D01*
X104069345Y-94894615D01*
X104105033Y-94803467D01*
X104122131Y-94762397D01*
X104123144Y-94760665D01*
X104157398Y-94755562D01*
X104239089Y-94752851D01*
X104355290Y-94752751D01*
X104468328Y-94754800D01*
X104799070Y-94763377D01*
X104085304Y-96560405D01*
X103371538Y-98357432D01*
X102987254Y-98365894D01*
X102602970Y-98374355D01*
X102558465Y-98267839D01*
X102539320Y-98220046D01*
X102500513Y-98121494D01*
X102444213Y-97977745D01*
X102372589Y-97794361D01*
X102287811Y-97576905D01*
X102192047Y-97330937D01*
X102087467Y-97062022D01*
X101976240Y-96775720D01*
X101913213Y-96613361D01*
X101798510Y-96317865D01*
X101688691Y-96035074D01*
X101586014Y-95770790D01*
X101492734Y-95530817D01*
X101411108Y-95320955D01*
X101343393Y-95147008D01*
X101291844Y-95014778D01*
X101258719Y-94930066D01*
X101249569Y-94906838D01*
X101186672Y-94748276D01*
X101904346Y-94748276D01*
X102457074Y-96230730D01*
G37*
X102457074Y-96230730D02*
X102594351Y-96597121D01*
X102712111Y-96907519D01*
X102810769Y-97162953D01*
X102890737Y-97364454D01*
X102952431Y-97513049D01*
X102996264Y-97609769D01*
X103022650Y-97655642D01*
X103031070Y-97657781D01*
X103045579Y-97619250D01*
X103079114Y-97529775D01*
X103129566Y-97395000D01*
X103194824Y-97220566D01*
X103272777Y-97012115D01*
X103361316Y-96775291D01*
X103458330Y-96515735D01*
X103561709Y-96239090D01*
X103580521Y-96188743D01*
X103684368Y-95911276D01*
X103782018Y-95651272D01*
X103871406Y-95414169D01*
X103950467Y-95205402D01*
X104017135Y-95030405D01*
X104069345Y-94894615D01*
X104105033Y-94803467D01*
X104122131Y-94762397D01*
X104123144Y-94760665D01*
X104157398Y-94755562D01*
X104239089Y-94752851D01*
X104355290Y-94752751D01*
X104468328Y-94754800D01*
X104799070Y-94763377D01*
X104085304Y-96560405D01*
X103371538Y-98357432D01*
X102987254Y-98365894D01*
X102602970Y-98374355D01*
X102558465Y-98267839D01*
X102539320Y-98220046D01*
X102500513Y-98121494D01*
X102444213Y-97977745D01*
X102372589Y-97794361D01*
X102287811Y-97576905D01*
X102192047Y-97330937D01*
X102087467Y-97062022D01*
X101976240Y-96775720D01*
X101913213Y-96613361D01*
X101798510Y-96317865D01*
X101688691Y-96035074D01*
X101586014Y-95770790D01*
X101492734Y-95530817D01*
X101411108Y-95320955D01*
X101343393Y-95147008D01*
X101291844Y-95014778D01*
X101258719Y-94930066D01*
X101249569Y-94906838D01*
X101186672Y-94748276D01*
X101904346Y-94748276D01*
X102457074Y-96230730D01*
G36*
X126658107Y-95608117D02*
G01*
X126829753Y-95616067D01*
X126981764Y-95624610D01*
X127103235Y-95633012D01*
X127183256Y-95640542D01*
X127209296Y-95645092D01*
X127234389Y-95679440D01*
X127247516Y-95762509D01*
X127250238Y-95857777D01*
X127250238Y-96054750D01*
X127106777Y-96036019D01*
X126763189Y-95996607D01*
X126474656Y-95975650D01*
X126238650Y-95973372D01*
X126052640Y-95989992D01*
X125914097Y-96025734D01*
X125820489Y-96080819D01*
X125770141Y-96153181D01*
X125752273Y-96234106D01*
X125742398Y-96346230D01*
X125741142Y-96464453D01*
X125749129Y-96563671D01*
X125758892Y-96604355D01*
X125791942Y-96655688D01*
X125851554Y-96695495D01*
X125944824Y-96725540D01*
X126078847Y-96747585D01*
X126260718Y-96763393D01*
X126434780Y-96772300D01*
X126665143Y-96785270D01*
X126844896Y-96804675D01*
X126983726Y-96833313D01*
X127091318Y-96873985D01*
X127177357Y-96929489D01*
X127251528Y-97002624D01*
X127257991Y-97010213D01*
X127330404Y-97121102D01*
X127375568Y-97254896D01*
X127395947Y-97422963D01*
X127394004Y-97636668D01*
X127393955Y-97637623D01*
X127383417Y-97784394D01*
X127366750Y-97890011D01*
X127339584Y-97973701D01*
X127300148Y-98050274D01*
X127207431Y-98171073D01*
X127082890Y-98266741D01*
X126921574Y-98338806D01*
X126718529Y-98388798D01*
X126468805Y-98418244D01*
X126167449Y-98428673D01*
X126075073Y-98428412D01*
X125905099Y-98426151D01*
X125750043Y-98422932D01*
X125622944Y-98419111D01*
X125536840Y-98415044D01*
X125513615Y-98413076D01*
X125423105Y-98401934D01*
X125315372Y-98388236D01*
X125294649Y-98385549D01*
X125166290Y-98368832D01*
X125166290Y-98159268D01*
X125165776Y-98070633D01*
X125170244Y-98009211D01*
X125188705Y-97971629D01*
X125230170Y-97954514D01*
X125303652Y-97954495D01*
X125418163Y-97968197D01*
X125582714Y-97992249D01*
X125604221Y-97995377D01*
X125777290Y-98015739D01*
X125970457Y-98031200D01*
X126149007Y-98039148D01*
X126193163Y-98039675D01*
X126398222Y-98030980D01*
X126551238Y-98001066D01*
X126658192Y-97945507D01*
X126725065Y-97859874D01*
X126757837Y-97739742D01*
X126763548Y-97617480D01*
X126757405Y-97483551D01*
X126738801Y-97380996D01*
X126700463Y-97305119D01*
X126635121Y-97251224D01*
X126535504Y-97214618D01*
X126394341Y-97190603D01*
X126204361Y-97174485D01*
X126065559Y-97166734D01*
X125819895Y-97149734D01*
X125626086Y-97124038D01*
X125475805Y-97086142D01*
X125360727Y-97032542D01*
X125272525Y-96959735D01*
X125202873Y-96864217D01*
X125162969Y-96786921D01*
X125135843Y-96695372D01*
X125116817Y-96567173D01*
X125106456Y-96420587D01*
X125105327Y-96273875D01*
X125113996Y-96145296D01*
X125133032Y-96053113D01*
X125139712Y-96037432D01*
X125232204Y-95903387D01*
X125360916Y-95795241D01*
X125529327Y-95712013D01*
X125740914Y-95652718D01*
X125999155Y-95616373D01*
X126307530Y-95601995D01*
X126658107Y-95608117D01*
G37*
X126658107Y-95608117D02*
X126829753Y-95616067D01*
X126981764Y-95624610D01*
X127103235Y-95633012D01*
X127183256Y-95640542D01*
X127209296Y-95645092D01*
X127234389Y-95679440D01*
X127247516Y-95762509D01*
X127250238Y-95857777D01*
X127250238Y-96054750D01*
X127106777Y-96036019D01*
X126763189Y-95996607D01*
X126474656Y-95975650D01*
X126238650Y-95973372D01*
X126052640Y-95989992D01*
X125914097Y-96025734D01*
X125820489Y-96080819D01*
X125770141Y-96153181D01*
X125752273Y-96234106D01*
X125742398Y-96346230D01*
X125741142Y-96464453D01*
X125749129Y-96563671D01*
X125758892Y-96604355D01*
X125791942Y-96655688D01*
X125851554Y-96695495D01*
X125944824Y-96725540D01*
X126078847Y-96747585D01*
X126260718Y-96763393D01*
X126434780Y-96772300D01*
X126665143Y-96785270D01*
X126844896Y-96804675D01*
X126983726Y-96833313D01*
X127091318Y-96873985D01*
X127177357Y-96929489D01*
X127251528Y-97002624D01*
X127257991Y-97010213D01*
X127330404Y-97121102D01*
X127375568Y-97254896D01*
X127395947Y-97422963D01*
X127394004Y-97636668D01*
X127393955Y-97637623D01*
X127383417Y-97784394D01*
X127366750Y-97890011D01*
X127339584Y-97973701D01*
X127300148Y-98050274D01*
X127207431Y-98171073D01*
X127082890Y-98266741D01*
X126921574Y-98338806D01*
X126718529Y-98388798D01*
X126468805Y-98418244D01*
X126167449Y-98428673D01*
X126075073Y-98428412D01*
X125905099Y-98426151D01*
X125750043Y-98422932D01*
X125622944Y-98419111D01*
X125536840Y-98415044D01*
X125513615Y-98413076D01*
X125423105Y-98401934D01*
X125315372Y-98388236D01*
X125294649Y-98385549D01*
X125166290Y-98368832D01*
X125166290Y-98159268D01*
X125165776Y-98070633D01*
X125170244Y-98009211D01*
X125188705Y-97971629D01*
X125230170Y-97954514D01*
X125303652Y-97954495D01*
X125418163Y-97968197D01*
X125582714Y-97992249D01*
X125604221Y-97995377D01*
X125777290Y-98015739D01*
X125970457Y-98031200D01*
X126149007Y-98039148D01*
X126193163Y-98039675D01*
X126398222Y-98030980D01*
X126551238Y-98001066D01*
X126658192Y-97945507D01*
X126725065Y-97859874D01*
X126757837Y-97739742D01*
X126763548Y-97617480D01*
X126757405Y-97483551D01*
X126738801Y-97380996D01*
X126700463Y-97305119D01*
X126635121Y-97251224D01*
X126535504Y-97214618D01*
X126394341Y-97190603D01*
X126204361Y-97174485D01*
X126065559Y-97166734D01*
X125819895Y-97149734D01*
X125626086Y-97124038D01*
X125475805Y-97086142D01*
X125360727Y-97032542D01*
X125272525Y-96959735D01*
X125202873Y-96864217D01*
X125162969Y-96786921D01*
X125135843Y-96695372D01*
X125116817Y-96567173D01*
X125106456Y-96420587D01*
X125105327Y-96273875D01*
X125113996Y-96145296D01*
X125133032Y-96053113D01*
X125139712Y-96037432D01*
X125232204Y-95903387D01*
X125360916Y-95795241D01*
X125529327Y-95712013D01*
X125740914Y-95652718D01*
X125999155Y-95616373D01*
X126307530Y-95601995D01*
X126658107Y-95608117D01*
G36*
X123655250Y-95617708D02*
G01*
X123889491Y-95645098D01*
X124078411Y-95693799D01*
X124228438Y-95766334D01*
X124345997Y-95865228D01*
X124437515Y-95993004D01*
X124461115Y-96037878D01*
X124493878Y-96107122D01*
X124517055Y-96167902D01*
X124532304Y-96232601D01*
X124541280Y-96313604D01*
X124545639Y-96423297D01*
X124547038Y-96574063D01*
X124547146Y-96681213D01*
X124547146Y-97149346D01*
X123648632Y-97157346D01*
X122750119Y-97165346D01*
X122750782Y-97398964D01*
X122762873Y-97594585D01*
X122800484Y-97742482D01*
X122867518Y-97851336D01*
X122967875Y-97929826D01*
X122995985Y-97944450D01*
X123181592Y-98004939D01*
X123412151Y-98029549D01*
X123683865Y-98018067D01*
X123867598Y-97993348D01*
X124017436Y-97969583D01*
X124161944Y-97948367D01*
X124280240Y-97932691D01*
X124329629Y-97927217D01*
X124474538Y-97913476D01*
X124456540Y-98327230D01*
X124169619Y-98377194D01*
X123993761Y-98400530D01*
X123785552Y-98416661D01*
X123560690Y-98425463D01*
X123334870Y-98426809D01*
X123123788Y-98420573D01*
X122943140Y-98406630D01*
X122822264Y-98387985D01*
X122607942Y-98324814D01*
X122436885Y-98235025D01*
X122295078Y-98111171D01*
X122289251Y-98104779D01*
X122238557Y-98045327D01*
X122198532Y-97986709D01*
X122168035Y-97921222D01*
X122145930Y-97841165D01*
X122131077Y-97738835D01*
X122122337Y-97606530D01*
X122118573Y-97436549D01*
X122118644Y-97221189D01*
X122121222Y-96968134D01*
X122123979Y-96771820D01*
X122742914Y-96771820D01*
X123935391Y-96771820D01*
X123922578Y-96503830D01*
X123907342Y-96329684D01*
X123877534Y-96204231D01*
X123828011Y-96116499D01*
X123753628Y-96055519D01*
X123700107Y-96029345D01*
X123604290Y-96005195D01*
X123470250Y-95991106D01*
X123318712Y-95987123D01*
X123170401Y-95993296D01*
X123046041Y-96009670D01*
X122983215Y-96027699D01*
X122891052Y-96074767D01*
X122828408Y-96132079D01*
X122789043Y-96212203D01*
X122766717Y-96327710D01*
X122755388Y-96486611D01*
X122742914Y-96771820D01*
X122123979Y-96771820D01*
X122124631Y-96725437D01*
X122128494Y-96535384D01*
X122133387Y-96390214D01*
X122139885Y-96282166D01*
X122148564Y-96203479D01*
X122159999Y-96146393D01*
X122174765Y-96103147D01*
X122187276Y-96077171D01*
X122282206Y-95931066D01*
X122398410Y-95815877D01*
X122542576Y-95728955D01*
X122721389Y-95667653D01*
X122941536Y-95629322D01*
X123209703Y-95611316D01*
X123369263Y-95609105D01*
X123655250Y-95617708D01*
G37*
X123655250Y-95617708D02*
X123889491Y-95645098D01*
X124078411Y-95693799D01*
X124228438Y-95766334D01*
X124345997Y-95865228D01*
X124437515Y-95993004D01*
X124461115Y-96037878D01*
X124493878Y-96107122D01*
X124517055Y-96167902D01*
X124532304Y-96232601D01*
X124541280Y-96313604D01*
X124545639Y-96423297D01*
X124547038Y-96574063D01*
X124547146Y-96681213D01*
X124547146Y-97149346D01*
X123648632Y-97157346D01*
X122750119Y-97165346D01*
X122750782Y-97398964D01*
X122762873Y-97594585D01*
X122800484Y-97742482D01*
X122867518Y-97851336D01*
X122967875Y-97929826D01*
X122995985Y-97944450D01*
X123181592Y-98004939D01*
X123412151Y-98029549D01*
X123683865Y-98018067D01*
X123867598Y-97993348D01*
X124017436Y-97969583D01*
X124161944Y-97948367D01*
X124280240Y-97932691D01*
X124329629Y-97927217D01*
X124474538Y-97913476D01*
X124456540Y-98327230D01*
X124169619Y-98377194D01*
X123993761Y-98400530D01*
X123785552Y-98416661D01*
X123560690Y-98425463D01*
X123334870Y-98426809D01*
X123123788Y-98420573D01*
X122943140Y-98406630D01*
X122822264Y-98387985D01*
X122607942Y-98324814D01*
X122436885Y-98235025D01*
X122295078Y-98111171D01*
X122289251Y-98104779D01*
X122238557Y-98045327D01*
X122198532Y-97986709D01*
X122168035Y-97921222D01*
X122145930Y-97841165D01*
X122131077Y-97738835D01*
X122122337Y-97606530D01*
X122118573Y-97436549D01*
X122118644Y-97221189D01*
X122121222Y-96968134D01*
X122123979Y-96771820D01*
X122742914Y-96771820D01*
X123935391Y-96771820D01*
X123922578Y-96503830D01*
X123907342Y-96329684D01*
X123877534Y-96204231D01*
X123828011Y-96116499D01*
X123753628Y-96055519D01*
X123700107Y-96029345D01*
X123604290Y-96005195D01*
X123470250Y-95991106D01*
X123318712Y-95987123D01*
X123170401Y-95993296D01*
X123046041Y-96009670D01*
X122983215Y-96027699D01*
X122891052Y-96074767D01*
X122828408Y-96132079D01*
X122789043Y-96212203D01*
X122766717Y-96327710D01*
X122755388Y-96486611D01*
X122742914Y-96771820D01*
X122123979Y-96771820D01*
X122124631Y-96725437D01*
X122128494Y-96535384D01*
X122133387Y-96390214D01*
X122139885Y-96282166D01*
X122148564Y-96203479D01*
X122159999Y-96146393D01*
X122174765Y-96103147D01*
X122187276Y-96077171D01*
X122282206Y-95931066D01*
X122398410Y-95815877D01*
X122542576Y-95728955D01*
X122721389Y-95667653D01*
X122941536Y-95629322D01*
X123209703Y-95611316D01*
X123369263Y-95609105D01*
X123655250Y-95617708D01*
G36*
X111832045Y-95602736D02*
G01*
X112111533Y-95615122D01*
X112338129Y-95637462D01*
X112518960Y-95672870D01*
X112661149Y-95724459D01*
X112771822Y-95795342D01*
X112858103Y-95888633D01*
X112927116Y-96007445D01*
X112965379Y-96097963D01*
X112989726Y-96168712D01*
X113008123Y-96242729D01*
X113021766Y-96330890D01*
X113031849Y-96444072D01*
X113039569Y-96593150D01*
X113046120Y-96789001D01*
X113047736Y-96847325D01*
X113052379Y-97160735D01*
X113047366Y-97421255D01*
X113031951Y-97635740D01*
X113005390Y-97811043D01*
X112966938Y-97954020D01*
X112915849Y-98071523D01*
X112914349Y-98074294D01*
X112846387Y-98177713D01*
X112762658Y-98260252D01*
X112656394Y-98323914D01*
X112520827Y-98370704D01*
X112349189Y-98402624D01*
X112134715Y-98421679D01*
X111870635Y-98429871D01*
X111711236Y-98430503D01*
X111449450Y-98426931D01*
X111244629Y-98417731D01*
X111093582Y-98402703D01*
X111008437Y-98386112D01*
X110809784Y-98318081D01*
X110661912Y-98231319D01*
X110556299Y-98118575D01*
X110484424Y-97972598D01*
X110470154Y-97928108D01*
X110455568Y-97867150D01*
X110444631Y-97791647D01*
X110437038Y-97693714D01*
X110432485Y-97565465D01*
X110430667Y-97399017D01*
X110431281Y-97186484D01*
X110432880Y-97023327D01*
X111063148Y-97023327D01*
X111063206Y-97055312D01*
X111064863Y-97310664D01*
X111069808Y-97512782D01*
X111079948Y-97668820D01*
X111097187Y-97785931D01*
X111123431Y-97871270D01*
X111160585Y-97931991D01*
X111210554Y-97975246D01*
X111275245Y-98008192D01*
X111321720Y-98025916D01*
X111420828Y-98047621D01*
X111560324Y-98061040D01*
X111720746Y-98066068D01*
X111882633Y-98062596D01*
X112026526Y-98050518D01*
X112130857Y-98030371D01*
X112225063Y-97985194D01*
X112303332Y-97920461D01*
X112312070Y-97909689D01*
X112331498Y-97881059D01*
X112346513Y-97848503D01*
X112357680Y-97804347D01*
X112365568Y-97740918D01*
X112370743Y-97650543D01*
X112373773Y-97525548D01*
X112375224Y-97358262D01*
X112375663Y-97141010D01*
X112375683Y-97048995D01*
X112374982Y-96785716D01*
X112372080Y-96575994D01*
X112365788Y-96412992D01*
X112354911Y-96289871D01*
X112338256Y-96199792D01*
X112314632Y-96135918D01*
X112282845Y-96091411D01*
X112241703Y-96059431D01*
X112199235Y-96037336D01*
X112076258Y-95999480D01*
X111912536Y-95976046D01*
X111726303Y-95968415D01*
X111535795Y-95977968D01*
X111487655Y-95983457D01*
X111371701Y-96002618D01*
X111278746Y-96031224D01*
X111206302Y-96075554D01*
X111151883Y-96141886D01*
X111113003Y-96236499D01*
X111087176Y-96365671D01*
X111071915Y-96535681D01*
X111064735Y-96752807D01*
X111063148Y-97023327D01*
X110432880Y-97023327D01*
X110433360Y-96974478D01*
X110442746Y-96178353D01*
X110534294Y-95999473D01*
X110611630Y-95878107D01*
X110710234Y-95781249D01*
X110836093Y-95707068D01*
X110995193Y-95653734D01*
X111193517Y-95619418D01*
X111437053Y-95602290D01*
X111731785Y-95600520D01*
X111832045Y-95602736D01*
G37*
X111832045Y-95602736D02*
X112111533Y-95615122D01*
X112338129Y-95637462D01*
X112518960Y-95672870D01*
X112661149Y-95724459D01*
X112771822Y-95795342D01*
X112858103Y-95888633D01*
X112927116Y-96007445D01*
X112965379Y-96097963D01*
X112989726Y-96168712D01*
X113008123Y-96242729D01*
X113021766Y-96330890D01*
X113031849Y-96444072D01*
X113039569Y-96593150D01*
X113046120Y-96789001D01*
X113047736Y-96847325D01*
X113052379Y-97160735D01*
X113047366Y-97421255D01*
X113031951Y-97635740D01*
X113005390Y-97811043D01*
X112966938Y-97954020D01*
X112915849Y-98071523D01*
X112914349Y-98074294D01*
X112846387Y-98177713D01*
X112762658Y-98260252D01*
X112656394Y-98323914D01*
X112520827Y-98370704D01*
X112349189Y-98402624D01*
X112134715Y-98421679D01*
X111870635Y-98429871D01*
X111711236Y-98430503D01*
X111449450Y-98426931D01*
X111244629Y-98417731D01*
X111093582Y-98402703D01*
X111008437Y-98386112D01*
X110809784Y-98318081D01*
X110661912Y-98231319D01*
X110556299Y-98118575D01*
X110484424Y-97972598D01*
X110470154Y-97928108D01*
X110455568Y-97867150D01*
X110444631Y-97791647D01*
X110437038Y-97693714D01*
X110432485Y-97565465D01*
X110430667Y-97399017D01*
X110431281Y-97186484D01*
X110432880Y-97023327D01*
X111063148Y-97023327D01*
X111063206Y-97055312D01*
X111064863Y-97310664D01*
X111069808Y-97512782D01*
X111079948Y-97668820D01*
X111097187Y-97785931D01*
X111123431Y-97871270D01*
X111160585Y-97931991D01*
X111210554Y-97975246D01*
X111275245Y-98008192D01*
X111321720Y-98025916D01*
X111420828Y-98047621D01*
X111560324Y-98061040D01*
X111720746Y-98066068D01*
X111882633Y-98062596D01*
X112026526Y-98050518D01*
X112130857Y-98030371D01*
X112225063Y-97985194D01*
X112303332Y-97920461D01*
X112312070Y-97909689D01*
X112331498Y-97881059D01*
X112346513Y-97848503D01*
X112357680Y-97804347D01*
X112365568Y-97740918D01*
X112370743Y-97650543D01*
X112373773Y-97525548D01*
X112375224Y-97358262D01*
X112375663Y-97141010D01*
X112375683Y-97048995D01*
X112374982Y-96785716D01*
X112372080Y-96575994D01*
X112365788Y-96412992D01*
X112354911Y-96289871D01*
X112338256Y-96199792D01*
X112314632Y-96135918D01*
X112282845Y-96091411D01*
X112241703Y-96059431D01*
X112199235Y-96037336D01*
X112076258Y-95999480D01*
X111912536Y-95976046D01*
X111726303Y-95968415D01*
X111535795Y-95977968D01*
X111487655Y-95983457D01*
X111371701Y-96002618D01*
X111278746Y-96031224D01*
X111206302Y-96075554D01*
X111151883Y-96141886D01*
X111113003Y-96236499D01*
X111087176Y-96365671D01*
X111071915Y-96535681D01*
X111064735Y-96752807D01*
X111063148Y-97023327D01*
X110432880Y-97023327D01*
X110433360Y-96974478D01*
X110442746Y-96178353D01*
X110534294Y-95999473D01*
X110611630Y-95878107D01*
X110710234Y-95781249D01*
X110836093Y-95707068D01*
X110995193Y-95653734D01*
X111193517Y-95619418D01*
X111437053Y-95602290D01*
X111731785Y-95600520D01*
X111832045Y-95602736D01*
G36*
X106576873Y-95602736D02*
G01*
X106856360Y-95615122D01*
X107082957Y-95637462D01*
X107263788Y-95672870D01*
X107405977Y-95724459D01*
X107516649Y-95795342D01*
X107602930Y-95888633D01*
X107671944Y-96007445D01*
X107710207Y-96097963D01*
X107734554Y-96168712D01*
X107752951Y-96242729D01*
X107766593Y-96330890D01*
X107776677Y-96444072D01*
X107784396Y-96593150D01*
X107790947Y-96789001D01*
X107792564Y-96847325D01*
X107797206Y-97160735D01*
X107792193Y-97421255D01*
X107776779Y-97635740D01*
X107750218Y-97811043D01*
X107711765Y-97954020D01*
X107660676Y-98071523D01*
X107659176Y-98074294D01*
X107591215Y-98177713D01*
X107507485Y-98260252D01*
X107401221Y-98323914D01*
X107265654Y-98370704D01*
X107094017Y-98402624D01*
X106879542Y-98421679D01*
X106615462Y-98429871D01*
X106456064Y-98430503D01*
X106194277Y-98426931D01*
X105989457Y-98417731D01*
X105838409Y-98402703D01*
X105753265Y-98386112D01*
X105554611Y-98318081D01*
X105406739Y-98231319D01*
X105301127Y-98118575D01*
X105229252Y-97972598D01*
X105214981Y-97928108D01*
X105200396Y-97867150D01*
X105189458Y-97791647D01*
X105181865Y-97693714D01*
X105177312Y-97565465D01*
X105175495Y-97399017D01*
X105176109Y-97186484D01*
X105177708Y-97023327D01*
X105807976Y-97023327D01*
X105808033Y-97055312D01*
X105809690Y-97310664D01*
X105814636Y-97512782D01*
X105824775Y-97668820D01*
X105842014Y-97785931D01*
X105868258Y-97871270D01*
X105905412Y-97931991D01*
X105955382Y-97975246D01*
X106020073Y-98008192D01*
X106066548Y-98025916D01*
X106165656Y-98047621D01*
X106305151Y-98061040D01*
X106465573Y-98066068D01*
X106627461Y-98062596D01*
X106771354Y-98050518D01*
X106875685Y-98030371D01*
X106969891Y-97985194D01*
X107048160Y-97920461D01*
X107056898Y-97909689D01*
X107076326Y-97881059D01*
X107091340Y-97848503D01*
X107102508Y-97804347D01*
X107110396Y-97740918D01*
X107115571Y-97650543D01*
X107118600Y-97525548D01*
X107120051Y-97358262D01*
X107120491Y-97141010D01*
X107120511Y-97048995D01*
X107119809Y-96785716D01*
X107116908Y-96575994D01*
X107110615Y-96412992D01*
X107099738Y-96289871D01*
X107083084Y-96199792D01*
X107059460Y-96135918D01*
X107027673Y-96091411D01*
X106986531Y-96059431D01*
X106944062Y-96037336D01*
X106821085Y-95999480D01*
X106657363Y-95976046D01*
X106471131Y-95968415D01*
X106280622Y-95977968D01*
X106232483Y-95983457D01*
X106116529Y-96002618D01*
X106023573Y-96031224D01*
X105951129Y-96075554D01*
X105896710Y-96141886D01*
X105857831Y-96236499D01*
X105832004Y-96365671D01*
X105816743Y-96535681D01*
X105809563Y-96752807D01*
X105807976Y-97023327D01*
X105177708Y-97023327D01*
X105178188Y-96974478D01*
X105187574Y-96178353D01*
X105279122Y-95999473D01*
X105356457Y-95878107D01*
X105455062Y-95781249D01*
X105580921Y-95707068D01*
X105740020Y-95653734D01*
X105938345Y-95619418D01*
X106181881Y-95602290D01*
X106476613Y-95600520D01*
X106576873Y-95602736D01*
G37*
X106576873Y-95602736D02*
X106856360Y-95615122D01*
X107082957Y-95637462D01*
X107263788Y-95672870D01*
X107405977Y-95724459D01*
X107516649Y-95795342D01*
X107602930Y-95888633D01*
X107671944Y-96007445D01*
X107710207Y-96097963D01*
X107734554Y-96168712D01*
X107752951Y-96242729D01*
X107766593Y-96330890D01*
X107776677Y-96444072D01*
X107784396Y-96593150D01*
X107790947Y-96789001D01*
X107792564Y-96847325D01*
X107797206Y-97160735D01*
X107792193Y-97421255D01*
X107776779Y-97635740D01*
X107750218Y-97811043D01*
X107711765Y-97954020D01*
X107660676Y-98071523D01*
X107659176Y-98074294D01*
X107591215Y-98177713D01*
X107507485Y-98260252D01*
X107401221Y-98323914D01*
X107265654Y-98370704D01*
X107094017Y-98402624D01*
X106879542Y-98421679D01*
X106615462Y-98429871D01*
X106456064Y-98430503D01*
X106194277Y-98426931D01*
X105989457Y-98417731D01*
X105838409Y-98402703D01*
X105753265Y-98386112D01*
X105554611Y-98318081D01*
X105406739Y-98231319D01*
X105301127Y-98118575D01*
X105229252Y-97972598D01*
X105214981Y-97928108D01*
X105200396Y-97867150D01*
X105189458Y-97791647D01*
X105181865Y-97693714D01*
X105177312Y-97565465D01*
X105175495Y-97399017D01*
X105176109Y-97186484D01*
X105177708Y-97023327D01*
X105807976Y-97023327D01*
X105808033Y-97055312D01*
X105809690Y-97310664D01*
X105814636Y-97512782D01*
X105824775Y-97668820D01*
X105842014Y-97785931D01*
X105868258Y-97871270D01*
X105905412Y-97931991D01*
X105955382Y-97975246D01*
X106020073Y-98008192D01*
X106066548Y-98025916D01*
X106165656Y-98047621D01*
X106305151Y-98061040D01*
X106465573Y-98066068D01*
X106627461Y-98062596D01*
X106771354Y-98050518D01*
X106875685Y-98030371D01*
X106969891Y-97985194D01*
X107048160Y-97920461D01*
X107056898Y-97909689D01*
X107076326Y-97881059D01*
X107091340Y-97848503D01*
X107102508Y-97804347D01*
X107110396Y-97740918D01*
X107115571Y-97650543D01*
X107118600Y-97525548D01*
X107120051Y-97358262D01*
X107120491Y-97141010D01*
X107120511Y-97048995D01*
X107119809Y-96785716D01*
X107116908Y-96575994D01*
X107110615Y-96412992D01*
X107099738Y-96289871D01*
X107083084Y-96199792D01*
X107059460Y-96135918D01*
X107027673Y-96091411D01*
X106986531Y-96059431D01*
X106944062Y-96037336D01*
X106821085Y-95999480D01*
X106657363Y-95976046D01*
X106471131Y-95968415D01*
X106280622Y-95977968D01*
X106232483Y-95983457D01*
X106116529Y-96002618D01*
X106023573Y-96031224D01*
X105951129Y-96075554D01*
X105896710Y-96141886D01*
X105857831Y-96236499D01*
X105832004Y-96365671D01*
X105816743Y-96535681D01*
X105809563Y-96752807D01*
X105807976Y-97023327D01*
X105177708Y-97023327D01*
X105178188Y-96974478D01*
X105187574Y-96178353D01*
X105279122Y-95999473D01*
X105356457Y-95878107D01*
X105455062Y-95781249D01*
X105580921Y-95707068D01*
X105740020Y-95653734D01*
X105938345Y-95619418D01*
X106181881Y-95602290D01*
X106476613Y-95600520D01*
X106576873Y-95602736D01*
G36*
X130784699Y-95618819D02*
G01*
X130949995Y-95636758D01*
X131070808Y-95663506D01*
X131164047Y-95688575D01*
X131220830Y-95691641D01*
X131231886Y-95683926D01*
X131264779Y-95671264D01*
X131346239Y-95661451D01*
X131464455Y-95655560D01*
X131558008Y-95654341D01*
X131874062Y-95654341D01*
X131864232Y-97292807D01*
X131861925Y-97653126D01*
X131859560Y-97958147D01*
X131856954Y-98212976D01*
X131853929Y-98422719D01*
X131850301Y-98592481D01*
X131845892Y-98727369D01*
X131840518Y-98832488D01*
X131834000Y-98912945D01*
X131826157Y-98973846D01*
X131816807Y-99020296D01*
X131805770Y-99057401D01*
X131801254Y-99069702D01*
X131708424Y-99236382D01*
X131569203Y-99370970D01*
X131381551Y-99474724D01*
X131143425Y-99548902D01*
X130973330Y-99580047D01*
X130861417Y-99590908D01*
X130706736Y-99598882D01*
X130526864Y-99603783D01*
X130339375Y-99605427D01*
X130161846Y-99603630D01*
X130011852Y-99598205D01*
X129923127Y-99591087D01*
X129838783Y-99581440D01*
X129728085Y-99569141D01*
X129673959Y-99563237D01*
X129515398Y-99546070D01*
X129515398Y-99150007D01*
X129824970Y-99176550D01*
X129987965Y-99187580D01*
X130183216Y-99196368D01*
X130382582Y-99201829D01*
X130512069Y-99203090D01*
X130709575Y-99199323D01*
X130857603Y-99185746D01*
X130966740Y-99158936D01*
X131047575Y-99115473D01*
X131110695Y-99051936D01*
X131147536Y-98997761D01*
X131176708Y-98937733D01*
X131194727Y-98863942D01*
X131203917Y-98761058D01*
X131206601Y-98613749D01*
X131206605Y-98607939D01*
X131206718Y-98314808D01*
X131078359Y-98363165D01*
X130964413Y-98391925D01*
X130805994Y-98412779D01*
X130618553Y-98425413D01*
X130417543Y-98429513D01*
X130218416Y-98424767D01*
X130036622Y-98410861D01*
X129887615Y-98387480D01*
X129886957Y-98387334D01*
X129757746Y-98355008D01*
X129667316Y-98320287D01*
X129594573Y-98272794D01*
X129526006Y-98209769D01*
X129472535Y-98153249D01*
X129429801Y-98097180D01*
X129396702Y-98034327D01*
X129372136Y-97957456D01*
X129355001Y-97859335D01*
X129344195Y-97732730D01*
X129338617Y-97570407D01*
X129337165Y-97365133D01*
X129338736Y-97109674D01*
X129339640Y-97023061D01*
X129968430Y-97023061D01*
X129969387Y-97283510D01*
X129972875Y-97490360D01*
X129979821Y-97650396D01*
X129991151Y-97770402D01*
X130007791Y-97857163D01*
X130030668Y-97917462D01*
X130060707Y-97958086D01*
X130098836Y-97985817D01*
X130099966Y-97986439D01*
X130210914Y-98025445D01*
X130362028Y-98049671D01*
X130534895Y-98059069D01*
X130711102Y-98053594D01*
X130872235Y-98033199D01*
X130999882Y-97997838D01*
X131020214Y-97988750D01*
X131073784Y-97960303D01*
X131115922Y-97928727D01*
X131148003Y-97886861D01*
X131171400Y-97827542D01*
X131187491Y-97743607D01*
X131197648Y-97627893D01*
X131203248Y-97473239D01*
X131205664Y-97272480D01*
X131206273Y-97019488D01*
X131205820Y-96762280D01*
X131203237Y-96558489D01*
X131197186Y-96401132D01*
X131186329Y-96283226D01*
X131169330Y-96197788D01*
X131144851Y-96137836D01*
X131111554Y-96096386D01*
X131068103Y-96066458D01*
X131019379Y-96043672D01*
X130931594Y-96021870D01*
X130801635Y-96007731D01*
X130647240Y-96001237D01*
X130486148Y-96002369D01*
X130336099Y-96011106D01*
X130214830Y-96027429D01*
X130153479Y-96044621D01*
X130100380Y-96070847D01*
X130058480Y-96104282D01*
X130026465Y-96151864D01*
X130003024Y-96220533D01*
X129986844Y-96317229D01*
X129976612Y-96448889D01*
X129971017Y-96622454D01*
X129968746Y-96844863D01*
X129968430Y-97023061D01*
X129339640Y-97023061D01*
X129340000Y-96988661D01*
X129342964Y-96740944D01*
X129346116Y-96545947D01*
X129350067Y-96395987D01*
X129355428Y-96283381D01*
X129362807Y-96200445D01*
X129372817Y-96139499D01*
X129386066Y-96092857D01*
X129403165Y-96052838D01*
X129416365Y-96027238D01*
X129536246Y-95865924D01*
X129702129Y-95742695D01*
X129888487Y-95665879D01*
X130021778Y-95638344D01*
X130194619Y-95619837D01*
X130390436Y-95610392D01*
X130592654Y-95610041D01*
X130784699Y-95618819D01*
G37*
X130784699Y-95618819D02*
X130949995Y-95636758D01*
X131070808Y-95663506D01*
X131164047Y-95688575D01*
X131220830Y-95691641D01*
X131231886Y-95683926D01*
X131264779Y-95671264D01*
X131346239Y-95661451D01*
X131464455Y-95655560D01*
X131558008Y-95654341D01*
X131874062Y-95654341D01*
X131864232Y-97292807D01*
X131861925Y-97653126D01*
X131859560Y-97958147D01*
X131856954Y-98212976D01*
X131853929Y-98422719D01*
X131850301Y-98592481D01*
X131845892Y-98727369D01*
X131840518Y-98832488D01*
X131834000Y-98912945D01*
X131826157Y-98973846D01*
X131816807Y-99020296D01*
X131805770Y-99057401D01*
X131801254Y-99069702D01*
X131708424Y-99236382D01*
X131569203Y-99370970D01*
X131381551Y-99474724D01*
X131143425Y-99548902D01*
X130973330Y-99580047D01*
X130861417Y-99590908D01*
X130706736Y-99598882D01*
X130526864Y-99603783D01*
X130339375Y-99605427D01*
X130161846Y-99603630D01*
X130011852Y-99598205D01*
X129923127Y-99591087D01*
X129838783Y-99581440D01*
X129728085Y-99569141D01*
X129673959Y-99563237D01*
X129515398Y-99546070D01*
X129515398Y-99150007D01*
X129824970Y-99176550D01*
X129987965Y-99187580D01*
X130183216Y-99196368D01*
X130382582Y-99201829D01*
X130512069Y-99203090D01*
X130709575Y-99199323D01*
X130857603Y-99185746D01*
X130966740Y-99158936D01*
X131047575Y-99115473D01*
X131110695Y-99051936D01*
X131147536Y-98997761D01*
X131176708Y-98937733D01*
X131194727Y-98863942D01*
X131203917Y-98761058D01*
X131206601Y-98613749D01*
X131206605Y-98607939D01*
X131206718Y-98314808D01*
X131078359Y-98363165D01*
X130964413Y-98391925D01*
X130805994Y-98412779D01*
X130618553Y-98425413D01*
X130417543Y-98429513D01*
X130218416Y-98424767D01*
X130036622Y-98410861D01*
X129887615Y-98387480D01*
X129886957Y-98387334D01*
X129757746Y-98355008D01*
X129667316Y-98320287D01*
X129594573Y-98272794D01*
X129526006Y-98209769D01*
X129472535Y-98153249D01*
X129429801Y-98097180D01*
X129396702Y-98034327D01*
X129372136Y-97957456D01*
X129355001Y-97859335D01*
X129344195Y-97732730D01*
X129338617Y-97570407D01*
X129337165Y-97365133D01*
X129338736Y-97109674D01*
X129339640Y-97023061D01*
X129968430Y-97023061D01*
X129969387Y-97283510D01*
X129972875Y-97490360D01*
X129979821Y-97650396D01*
X129991151Y-97770402D01*
X130007791Y-97857163D01*
X130030668Y-97917462D01*
X130060707Y-97958086D01*
X130098836Y-97985817D01*
X130099966Y-97986439D01*
X130210914Y-98025445D01*
X130362028Y-98049671D01*
X130534895Y-98059069D01*
X130711102Y-98053594D01*
X130872235Y-98033199D01*
X130999882Y-97997838D01*
X131020214Y-97988750D01*
X131073784Y-97960303D01*
X131115922Y-97928727D01*
X131148003Y-97886861D01*
X131171400Y-97827542D01*
X131187491Y-97743607D01*
X131197648Y-97627893D01*
X131203248Y-97473239D01*
X131205664Y-97272480D01*
X131206273Y-97019488D01*
X131205820Y-96762280D01*
X131203237Y-96558489D01*
X131197186Y-96401132D01*
X131186329Y-96283226D01*
X131169330Y-96197788D01*
X131144851Y-96137836D01*
X131111554Y-96096386D01*
X131068103Y-96066458D01*
X131019379Y-96043672D01*
X130931594Y-96021870D01*
X130801635Y-96007731D01*
X130647240Y-96001237D01*
X130486148Y-96002369D01*
X130336099Y-96011106D01*
X130214830Y-96027429D01*
X130153479Y-96044621D01*
X130100380Y-96070847D01*
X130058480Y-96104282D01*
X130026465Y-96151864D01*
X130003024Y-96220533D01*
X129986844Y-96317229D01*
X129976612Y-96448889D01*
X129971017Y-96622454D01*
X129968746Y-96844863D01*
X129968430Y-97023061D01*
X129339640Y-97023061D01*
X129340000Y-96988661D01*
X129342964Y-96740944D01*
X129346116Y-96545947D01*
X129350067Y-96395987D01*
X129355428Y-96283381D01*
X129362807Y-96200445D01*
X129372817Y-96139499D01*
X129386066Y-96092857D01*
X129403165Y-96052838D01*
X129416365Y-96027238D01*
X129536246Y-95865924D01*
X129702129Y-95742695D01*
X129888487Y-95665879D01*
X130021778Y-95638344D01*
X130194619Y-95619837D01*
X130390436Y-95610392D01*
X130592654Y-95610041D01*
X130784699Y-95618819D01*
D11*
X195920000Y-95170000D02*
X197250000Y-95170000D01*
X195920000Y-96500000D02*
X195920000Y-95170000D01*
X195920000Y-97770000D02*
X198580000Y-97770000D01*
X198580000Y-97770000D02*
X198580000Y-97830000D01*
X195920000Y-97770000D02*
X195920000Y-97830000D01*
X195920000Y-97830000D02*
X198580000Y-97830000D01*
X179491422Y-91210000D02*
X180008578Y-91210000D01*
X179491422Y-89790000D02*
X180008578Y-89790000D01*
X184008578Y-89790000D02*
X183491422Y-89790000D01*
X184008578Y-91210000D02*
X183491422Y-91210000D01*
X185850000Y-98250000D02*
X185850000Y-97000000D01*
X184600000Y-98250000D02*
X185850000Y-98250000D01*
X178700000Y-92750000D02*
X181750000Y-92750000D01*
X178700000Y-95700000D02*
X178700000Y-92750000D01*
X177950000Y-95700000D02*
X178700000Y-95700000D01*
X184800000Y-92750000D02*
X181750000Y-92750000D01*
X184800000Y-95700000D02*
X184800000Y-92750000D01*
X185550000Y-95700000D02*
X184800000Y-95700000D01*
X177950000Y-97950000D02*
X179750000Y-97950000D01*
X177950000Y-97200000D02*
X177950000Y-97950000D01*
X179750000Y-97200000D02*
X177950000Y-97200000D01*
X179750000Y-97950000D02*
X179750000Y-97200000D01*
X183750000Y-97950000D02*
X185550000Y-97950000D01*
X183750000Y-97200000D02*
X183750000Y-97950000D01*
X185550000Y-97200000D02*
X183750000Y-97200000D01*
X185550000Y-97950000D02*
X185550000Y-97200000D01*
X181250000Y-97950000D02*
X182250000Y-97950000D01*
X181250000Y-97200000D02*
X181250000Y-97950000D01*
X182250000Y-97200000D02*
X181250000Y-97200000D01*
X182250000Y-97950000D02*
X182250000Y-97200000D01*
X177940000Y-97960000D02*
X185560000Y-97960000D01*
X177940000Y-91990000D02*
X177940000Y-97960000D01*
X185560000Y-91990000D02*
X177940000Y-91990000D01*
X185560000Y-97960000D02*
X185560000Y-91990000D01*
X146221422Y-89790000D02*
X146738578Y-89790000D01*
X146221422Y-91210000D02*
X146738578Y-91210000D01*
X146738578Y-93210000D02*
X146221422Y-93210000D01*
X146738578Y-91790000D02*
X146221422Y-91790000D01*
X136061422Y-89790000D02*
X136578578Y-89790000D01*
X136061422Y-91210000D02*
X136578578Y-91210000D01*
X136578578Y-93210000D02*
X136061422Y-93210000D01*
X136578578Y-91790000D02*
X136061422Y-91790000D01*
X125901422Y-89790000D02*
X126418578Y-89790000D01*
X125901422Y-91210000D02*
X126418578Y-91210000D01*
X126418578Y-93210000D02*
X125901422Y-93210000D01*
X126418578Y-91790000D02*
X125901422Y-91790000D01*
X147710000Y-97008578D02*
X147710000Y-96491422D01*
X146290000Y-97008578D02*
X146290000Y-96491422D01*
X169741422Y-90460000D02*
X170258578Y-90460000D01*
X169741422Y-89040000D02*
X170258578Y-89040000D01*
X189250422Y-84124000D02*
X189767578Y-84124000D01*
X189250422Y-82704000D02*
X189767578Y-82704000D01*
D12*
X155500000Y-77240000D02*
X150500000Y-77240000D01*
X150500000Y-77240000D02*
X150500000Y-92240000D01*
X150500000Y-92240000D02*
X155500000Y-92240000D01*
X155500000Y-92240000D02*
X155500000Y-77240000D01*
D11*
X116258578Y-91790000D02*
X115741422Y-91790000D01*
X116258578Y-93210000D02*
X115741422Y-93210000D01*
X163666682Y-80965244D02*
G75*
G02X164350000Y-80820000I683318J-1534756D01*
G01*
X162814574Y-83183042D02*
G75*
G02X162815000Y-81816000I1535426J683042D01*
G01*
X165033042Y-84035426D02*
G75*
G02X163666000Y-84035000I-683042J1535426D01*
G01*
X165885426Y-81816958D02*
G75*
G02X165885000Y-83184000I-1535426J-683042D01*
G01*
X164321195Y-80819747D02*
G75*
G02X165034000Y-80965000I28805J-1680253D01*
G01*
X160950000Y-82500000D02*
G75*
G03X160950000Y-82500000I-1680000J0D01*
G01*
X166950000Y-78400000D02*
X156670000Y-78400000D01*
X166950000Y-79900000D02*
X156670000Y-79900000D01*
X166950000Y-84801000D02*
X156670000Y-84801000D01*
X166950000Y-87761000D02*
X156670000Y-87761000D01*
X166950000Y-77840000D02*
X156670000Y-77840000D01*
X166950000Y-87761000D02*
X166950000Y-77840000D01*
X156670000Y-87761000D02*
X156670000Y-77840000D01*
X157995000Y-83569000D02*
X158042000Y-83523000D01*
X160304000Y-81261000D02*
X160339000Y-81226000D01*
X158200000Y-83775000D02*
X158235000Y-83739000D01*
X160497000Y-81477000D02*
X160544000Y-81431000D01*
X167190000Y-78340000D02*
X167190000Y-77600000D01*
X167190000Y-77600000D02*
X166690000Y-77600000D01*
X160250000Y-91460000D02*
X162935000Y-91460000D01*
X162935000Y-91460000D02*
X162935000Y-89540000D01*
X162935000Y-89540000D02*
X160250000Y-89540000D01*
X176460000Y-79241422D02*
X176460000Y-79758578D01*
X175040000Y-79241422D02*
X175040000Y-79758578D01*
X159540000Y-96491422D02*
X159540000Y-97008578D01*
X160960000Y-96491422D02*
X160960000Y-97008578D01*
X194310000Y-97960000D02*
X194310000Y-91990000D01*
X194310000Y-91990000D02*
X186690000Y-91990000D01*
X186690000Y-91990000D02*
X186690000Y-97960000D01*
X186690000Y-97960000D02*
X194310000Y-97960000D01*
X191000000Y-97950000D02*
X191000000Y-97200000D01*
X191000000Y-97200000D02*
X190000000Y-97200000D01*
X190000000Y-97200000D02*
X190000000Y-97950000D01*
X190000000Y-97950000D02*
X191000000Y-97950000D01*
X194300000Y-97950000D02*
X194300000Y-97200000D01*
X194300000Y-97200000D02*
X192500000Y-97200000D01*
X192500000Y-97200000D02*
X192500000Y-97950000D01*
X192500000Y-97950000D02*
X194300000Y-97950000D01*
X188500000Y-97950000D02*
X188500000Y-97200000D01*
X188500000Y-97200000D02*
X186700000Y-97200000D01*
X186700000Y-97200000D02*
X186700000Y-97950000D01*
X186700000Y-97950000D02*
X188500000Y-97950000D01*
X194300000Y-95700000D02*
X193550000Y-95700000D01*
X193550000Y-95700000D02*
X193550000Y-92750000D01*
X193550000Y-92750000D02*
X190500000Y-92750000D01*
X186700000Y-95700000D02*
X187450000Y-95700000D01*
X187450000Y-95700000D02*
X187450000Y-92750000D01*
X187450000Y-92750000D02*
X190500000Y-92750000D01*
X193350000Y-98250000D02*
X194600000Y-98250000D01*
X194600000Y-98250000D02*
X194600000Y-97000000D01*
X194450000Y-85340000D02*
X192550000Y-85340000D01*
X193050000Y-87660000D02*
X194450000Y-87660000D01*
X121850000Y-89670000D02*
X123310000Y-89670000D01*
X121850000Y-92830000D02*
X124010000Y-92830000D01*
X121850000Y-92830000D02*
X121850000Y-91900000D01*
X121850000Y-89670000D02*
X121850000Y-90600000D01*
X132010000Y-89670000D02*
X133470000Y-89670000D01*
X132010000Y-92830000D02*
X134170000Y-92830000D01*
X132010000Y-92830000D02*
X132010000Y-91900000D01*
X132010000Y-89670000D02*
X132010000Y-90600000D01*
X165918578Y-94286000D02*
X165401422Y-94286000D01*
X165918578Y-92866000D02*
X165401422Y-92866000D01*
D12*
X169525000Y-88450000D02*
X173975000Y-88450000D01*
X168000000Y-81550000D02*
X173975000Y-81550000D01*
D11*
X142170000Y-89670000D02*
X142170000Y-90600000D01*
X142170000Y-92830000D02*
X142170000Y-91900000D01*
X142170000Y-92830000D02*
X144330000Y-92830000D01*
X142170000Y-89670000D02*
X143630000Y-89670000D01*
X174170000Y-94620000D02*
X176830000Y-94620000D01*
X174170000Y-92020000D02*
X174170000Y-94620000D01*
X176830000Y-92020000D02*
X176830000Y-94620000D01*
X174170000Y-92020000D02*
X176830000Y-92020000D01*
X174170000Y-90750000D02*
X174170000Y-89420000D01*
X174170000Y-89420000D02*
X175500000Y-89420000D01*
X159210000Y-91991422D02*
X159210000Y-92508578D01*
X157790000Y-91991422D02*
X157790000Y-92508578D01*
X179758578Y-85710000D02*
X179241422Y-85710000D01*
X179758578Y-84290000D02*
X179241422Y-84290000D01*
X191119000Y-81139000D02*
X191119000Y-78689000D01*
X187899000Y-79339000D02*
X187899000Y-81139000D01*
X192758578Y-91210000D02*
X192241422Y-91210000D01*
X192758578Y-89790000D02*
X192241422Y-89790000D01*
X198580000Y-85090000D02*
X195920000Y-85090000D01*
X198580000Y-90230000D02*
X198580000Y-85090000D01*
X195920000Y-90230000D02*
X195920000Y-85090000D01*
X198580000Y-90230000D02*
X195920000Y-90230000D01*
X198580000Y-91500000D02*
X198580000Y-92830000D01*
X198580000Y-92830000D02*
X197250000Y-92830000D01*
X188241422Y-89790000D02*
X188758578Y-89790000D01*
X188241422Y-91210000D02*
X188758578Y-91210000D01*
X111690000Y-89670000D02*
X113150000Y-89670000D01*
X111690000Y-92830000D02*
X113850000Y-92830000D01*
X111690000Y-92830000D02*
X111690000Y-91900000D01*
X111690000Y-89670000D02*
X111690000Y-90600000D01*
X169465422Y-92866000D02*
X169982578Y-92866000D01*
X169465422Y-94286000D02*
X169982578Y-94286000D01*
X189759578Y-76530000D02*
X189242422Y-76530000D01*
X189759578Y-77950000D02*
X189242422Y-77950000D01*
X172824000Y-95448000D02*
X172824000Y-96778000D01*
X171494000Y-95448000D02*
X172824000Y-95448000D01*
X170224000Y-95448000D02*
X170224000Y-98108000D01*
X170224000Y-98108000D02*
X162544000Y-98108000D01*
X170224000Y-95448000D02*
X162544000Y-95448000D01*
X162544000Y-95448000D02*
X162544000Y-98108000D01*
X158080000Y-95420000D02*
X158080000Y-96750000D01*
X156750000Y-95420000D02*
X158080000Y-95420000D01*
X155480000Y-95420000D02*
X155480000Y-98080000D01*
X155480000Y-98080000D02*
X150340000Y-98080000D01*
X155480000Y-95420000D02*
X150340000Y-95420000D01*
X150340000Y-95420000D02*
X150340000Y-98080000D01*
D12*
X145500000Y-95750000D02*
X145500000Y-97750000D01*
X144250000Y-95750000D02*
X145500000Y-95750000D01*
X145500000Y-97750000D02*
X144250000Y-97750000D01*
X137000000Y-95750000D02*
X138250000Y-95750000D01*
X137000000Y-97750000D02*
X137000000Y-95750000D01*
X138250000Y-97750000D02*
X137000000Y-97750000D01*
X138250000Y-95000000D02*
X138250000Y-98500000D01*
X144250000Y-98500000D02*
X144250000Y-95000000D01*
X144250000Y-98500000D02*
X138250000Y-98500000D01*
X138250000Y-95000000D02*
X144250000Y-95000000D01*
D11*
X149590000Y-77600000D02*
X149090000Y-77600000D01*
X149590000Y-78340000D02*
X149590000Y-77600000D01*
X112417000Y-81477000D02*
X112464000Y-81431000D01*
X110120000Y-83775000D02*
X110155000Y-83739000D01*
X112224000Y-81261000D02*
X112259000Y-81226000D01*
X109915000Y-83569000D02*
X109962000Y-83523000D01*
X117497000Y-81477000D02*
X117544000Y-81431000D01*
X115200000Y-83775000D02*
X115235000Y-83739000D01*
X117304000Y-81261000D02*
X117339000Y-81226000D01*
X114995000Y-83569000D02*
X115042000Y-83523000D01*
X122577000Y-81477000D02*
X122624000Y-81431000D01*
X120280000Y-83775000D02*
X120315000Y-83739000D01*
X122384000Y-81261000D02*
X122419000Y-81226000D01*
X120075000Y-83569000D02*
X120122000Y-83523000D01*
X127657000Y-81477000D02*
X127704000Y-81431000D01*
X125360000Y-83775000D02*
X125395000Y-83739000D01*
X127464000Y-81261000D02*
X127499000Y-81226000D01*
X125155000Y-83569000D02*
X125202000Y-83523000D01*
X132737000Y-81477000D02*
X132784000Y-81431000D01*
X130440000Y-83775000D02*
X130475000Y-83739000D01*
X132544000Y-81261000D02*
X132579000Y-81226000D01*
X130235000Y-83569000D02*
X130282000Y-83523000D01*
X137817000Y-81477000D02*
X137864000Y-81431000D01*
X135520000Y-83775000D02*
X135555000Y-83739000D01*
X137624000Y-81261000D02*
X137659000Y-81226000D01*
X135315000Y-83569000D02*
X135362000Y-83523000D01*
X142897000Y-81477000D02*
X142944000Y-81431000D01*
X140600000Y-83775000D02*
X140635000Y-83739000D01*
X142704000Y-81261000D02*
X142739000Y-81226000D01*
X140395000Y-83569000D02*
X140442000Y-83523000D01*
X108590000Y-87761000D02*
X108590000Y-77840000D01*
X149350000Y-87761000D02*
X149350000Y-77840000D01*
X149350000Y-77840000D02*
X108590000Y-77840000D01*
X149350000Y-87761000D02*
X108590000Y-87761000D01*
X149350000Y-84801000D02*
X108590000Y-84801000D01*
X149350000Y-79900000D02*
X108590000Y-79900000D01*
X149350000Y-78400000D02*
X108590000Y-78400000D01*
X112870000Y-82500000D02*
G75*
G03X112870000Y-82500000I-1680000J0D01*
G01*
X117950000Y-82500000D02*
G75*
G03X117950000Y-82500000I-1680000J0D01*
G01*
X123030000Y-82500000D02*
G75*
G03X123030000Y-82500000I-1680000J0D01*
G01*
X128110000Y-82500000D02*
G75*
G03X128110000Y-82500000I-1680000J0D01*
G01*
X133190000Y-82500000D02*
G75*
G03X133190000Y-82500000I-1680000J0D01*
G01*
X138270000Y-82500000D02*
G75*
G03X138270000Y-82500000I-1680000J0D01*
G01*
X143350000Y-82500000D02*
G75*
G03X143350000Y-82500000I-1680000J0D01*
G01*
X146721195Y-80819747D02*
G75*
G02X147434000Y-80965000I28805J-1680253D01*
G01*
X148285426Y-81816958D02*
G75*
G02X148285000Y-83184000I-1535426J-683042D01*
G01*
X147433042Y-84035426D02*
G75*
G02X146066000Y-84035000I-683042J1535426D01*
G01*
X145214574Y-83183042D02*
G75*
G02X145215000Y-81816000I1535426J683042D01*
G01*
X146066682Y-80965244D02*
G75*
G02X146750000Y-80820000I683318J-1534756D01*
G01*
X115741422Y-91210000D02*
X116258578Y-91210000D01*
X115741422Y-89790000D02*
X116258578Y-89790000D01*
D12*
X168166666Y-76452380D02*
X168166666Y-77166666D01*
X168119047Y-77309523D01*
X168023809Y-77404761D01*
X167880952Y-77452380D01*
X167785714Y-77452380D01*
X168547619Y-76452380D02*
X169214285Y-76452380D01*
X168785714Y-77452380D01*
X181408666Y-81223880D02*
X181408666Y-81938166D01*
X181361047Y-82081023D01*
X181265809Y-82176261D01*
X181122952Y-82223880D01*
X181027714Y-82223880D01*
X182408666Y-82223880D02*
X181837238Y-82223880D01*
X182122952Y-82223880D02*
X182122952Y-81223880D01*
X182027714Y-81366738D01*
X181932476Y-81461976D01*
X181837238Y-81509595D01*
X179107142Y-89301380D02*
X178773809Y-88825190D01*
X178535714Y-89301380D02*
X178535714Y-88301380D01*
X178916666Y-88301380D01*
X179011904Y-88349000D01*
X179059523Y-88396619D01*
X179107142Y-88491857D01*
X179107142Y-88634714D01*
X179059523Y-88729952D01*
X179011904Y-88777571D01*
X178916666Y-88825190D01*
X178535714Y-88825190D01*
X180059523Y-89301380D02*
X179488095Y-89301380D01*
X179773809Y-89301380D02*
X179773809Y-88301380D01*
X179678571Y-88444238D01*
X179583333Y-88539476D01*
X179488095Y-88587095D01*
X180392857Y-88301380D02*
X181059523Y-88301380D01*
X180630952Y-89301380D01*
X183583333Y-89107142D02*
X183535714Y-89154761D01*
X183392857Y-89202380D01*
X183297619Y-89202380D01*
X183154761Y-89154761D01*
X183059523Y-89059523D01*
X183011904Y-88964285D01*
X182964285Y-88773809D01*
X182964285Y-88630952D01*
X183011904Y-88440476D01*
X183059523Y-88345238D01*
X183154761Y-88250000D01*
X183297619Y-88202380D01*
X183392857Y-88202380D01*
X183535714Y-88250000D01*
X183583333Y-88297619D01*
X184440476Y-88202380D02*
X184250000Y-88202380D01*
X184154761Y-88250000D01*
X184107142Y-88297619D01*
X184011904Y-88440476D01*
X183964285Y-88630952D01*
X183964285Y-89011904D01*
X184011904Y-89107142D01*
X184059523Y-89154761D01*
X184154761Y-89202380D01*
X184345238Y-89202380D01*
X184440476Y-89154761D01*
X184488095Y-89107142D01*
X184535714Y-89011904D01*
X184535714Y-88773809D01*
X184488095Y-88678571D01*
X184440476Y-88630952D01*
X184345238Y-88583333D01*
X184154761Y-88583333D01*
X184059523Y-88630952D01*
X184011904Y-88678571D01*
X183964285Y-88773809D01*
X181142666Y-92920380D02*
X181142666Y-93634666D01*
X181095047Y-93777523D01*
X180999809Y-93872761D01*
X180856952Y-93920380D01*
X180761714Y-93920380D01*
X181666476Y-93920380D02*
X181856952Y-93920380D01*
X181952190Y-93872761D01*
X181999809Y-93825142D01*
X182095047Y-93682285D01*
X182142666Y-93491809D01*
X182142666Y-93110857D01*
X182095047Y-93015619D01*
X182047428Y-92968000D01*
X181952190Y-92920380D01*
X181761714Y-92920380D01*
X181666476Y-92968000D01*
X181618857Y-93015619D01*
X181571238Y-93110857D01*
X181571238Y-93348952D01*
X181618857Y-93444190D01*
X181666476Y-93491809D01*
X181761714Y-93539428D01*
X181952190Y-93539428D01*
X182047428Y-93491809D01*
X182095047Y-93444190D01*
X182142666Y-93348952D01*
X149432380Y-90142857D02*
X148956190Y-90476190D01*
X149432380Y-90714285D02*
X148432380Y-90714285D01*
X148432380Y-90333333D01*
X148480000Y-90238095D01*
X148527619Y-90190476D01*
X148622857Y-90142857D01*
X148765714Y-90142857D01*
X148860952Y-90190476D01*
X148908571Y-90238095D01*
X148956190Y-90333333D01*
X148956190Y-90714285D01*
X149432380Y-89190476D02*
X149432380Y-89761904D01*
X149432380Y-89476190D02*
X148432380Y-89476190D01*
X148575238Y-89571428D01*
X148670476Y-89666666D01*
X148718095Y-89761904D01*
X149432380Y-88238095D02*
X149432380Y-88809523D01*
X149432380Y-88523809D02*
X148432380Y-88523809D01*
X148575238Y-88619047D01*
X148670476Y-88714285D01*
X148718095Y-88809523D01*
X149432380Y-93166666D02*
X148956190Y-93500000D01*
X149432380Y-93738095D02*
X148432380Y-93738095D01*
X148432380Y-93357142D01*
X148480000Y-93261904D01*
X148527619Y-93214285D01*
X148622857Y-93166666D01*
X148765714Y-93166666D01*
X148860952Y-93214285D01*
X148908571Y-93261904D01*
X148956190Y-93357142D01*
X148956190Y-93738095D01*
X148432380Y-92833333D02*
X148432380Y-92166666D01*
X149432380Y-92595238D01*
X139272380Y-90142857D02*
X138796190Y-90476190D01*
X139272380Y-90714285D02*
X138272380Y-90714285D01*
X138272380Y-90333333D01*
X138320000Y-90238095D01*
X138367619Y-90190476D01*
X138462857Y-90142857D01*
X138605714Y-90142857D01*
X138700952Y-90190476D01*
X138748571Y-90238095D01*
X138796190Y-90333333D01*
X138796190Y-90714285D01*
X139272380Y-89190476D02*
X139272380Y-89761904D01*
X139272380Y-89476190D02*
X138272380Y-89476190D01*
X138415238Y-89571428D01*
X138510476Y-89666666D01*
X138558095Y-89761904D01*
X138367619Y-88809523D02*
X138320000Y-88761904D01*
X138272380Y-88666666D01*
X138272380Y-88428571D01*
X138320000Y-88333333D01*
X138367619Y-88285714D01*
X138462857Y-88238095D01*
X138558095Y-88238095D01*
X138700952Y-88285714D01*
X139272380Y-88857142D01*
X139272380Y-88238095D01*
X139272380Y-93166666D02*
X138796190Y-93500000D01*
X139272380Y-93738095D02*
X138272380Y-93738095D01*
X138272380Y-93357142D01*
X138320000Y-93261904D01*
X138367619Y-93214285D01*
X138462857Y-93166666D01*
X138605714Y-93166666D01*
X138700952Y-93214285D01*
X138748571Y-93261904D01*
X138796190Y-93357142D01*
X138796190Y-93738095D01*
X138700952Y-92595238D02*
X138653333Y-92690476D01*
X138605714Y-92738095D01*
X138510476Y-92785714D01*
X138462857Y-92785714D01*
X138367619Y-92738095D01*
X138320000Y-92690476D01*
X138272380Y-92595238D01*
X138272380Y-92404761D01*
X138320000Y-92309523D01*
X138367619Y-92261904D01*
X138462857Y-92214285D01*
X138510476Y-92214285D01*
X138605714Y-92261904D01*
X138653333Y-92309523D01*
X138700952Y-92404761D01*
X138700952Y-92595238D01*
X138748571Y-92690476D01*
X138796190Y-92738095D01*
X138891428Y-92785714D01*
X139081904Y-92785714D01*
X139177142Y-92738095D01*
X139224761Y-92690476D01*
X139272380Y-92595238D01*
X139272380Y-92404761D01*
X139224761Y-92309523D01*
X139177142Y-92261904D01*
X139081904Y-92214285D01*
X138891428Y-92214285D01*
X138796190Y-92261904D01*
X138748571Y-92309523D01*
X138700952Y-92404761D01*
X129112380Y-90142857D02*
X128636190Y-90476190D01*
X129112380Y-90714285D02*
X128112380Y-90714285D01*
X128112380Y-90333333D01*
X128160000Y-90238095D01*
X128207619Y-90190476D01*
X128302857Y-90142857D01*
X128445714Y-90142857D01*
X128540952Y-90190476D01*
X128588571Y-90238095D01*
X128636190Y-90333333D01*
X128636190Y-90714285D01*
X129112380Y-89190476D02*
X129112380Y-89761904D01*
X129112380Y-89476190D02*
X128112380Y-89476190D01*
X128255238Y-89571428D01*
X128350476Y-89666666D01*
X128398095Y-89761904D01*
X128112380Y-88857142D02*
X128112380Y-88238095D01*
X128493333Y-88571428D01*
X128493333Y-88428571D01*
X128540952Y-88333333D01*
X128588571Y-88285714D01*
X128683809Y-88238095D01*
X128921904Y-88238095D01*
X129017142Y-88285714D01*
X129064761Y-88333333D01*
X129112380Y-88428571D01*
X129112380Y-88714285D01*
X129064761Y-88809523D01*
X129017142Y-88857142D01*
X129112380Y-93166666D02*
X128636190Y-93500000D01*
X129112380Y-93738095D02*
X128112380Y-93738095D01*
X128112380Y-93357142D01*
X128160000Y-93261904D01*
X128207619Y-93214285D01*
X128302857Y-93166666D01*
X128445714Y-93166666D01*
X128540952Y-93214285D01*
X128588571Y-93261904D01*
X128636190Y-93357142D01*
X128636190Y-93738095D01*
X129112380Y-92690476D02*
X129112380Y-92500000D01*
X129064761Y-92404761D01*
X129017142Y-92357142D01*
X128874285Y-92261904D01*
X128683809Y-92214285D01*
X128302857Y-92214285D01*
X128207619Y-92261904D01*
X128160000Y-92309523D01*
X128112380Y-92404761D01*
X128112380Y-92595238D01*
X128160000Y-92690476D01*
X128207619Y-92738095D01*
X128302857Y-92785714D01*
X128540952Y-92785714D01*
X128636190Y-92738095D01*
X128683809Y-92690476D01*
X128731428Y-92595238D01*
X128731428Y-92404761D01*
X128683809Y-92309523D01*
X128636190Y-92261904D01*
X128540952Y-92214285D01*
X148833333Y-98452380D02*
X148500000Y-97976190D01*
X148261904Y-98452380D02*
X148261904Y-97452380D01*
X148642857Y-97452380D01*
X148738095Y-97500000D01*
X148785714Y-97547619D01*
X148833333Y-97642857D01*
X148833333Y-97785714D01*
X148785714Y-97880952D01*
X148738095Y-97928571D01*
X148642857Y-97976190D01*
X148261904Y-97976190D01*
X149214285Y-97547619D02*
X149261904Y-97500000D01*
X149357142Y-97452380D01*
X149595238Y-97452380D01*
X149690476Y-97500000D01*
X149738095Y-97547619D01*
X149785714Y-97642857D01*
X149785714Y-97738095D01*
X149738095Y-97880952D01*
X149166666Y-98452380D01*
X149785714Y-98452380D01*
X195238095Y-80452380D02*
X195238095Y-79452380D01*
X195238095Y-79928571D02*
X195809523Y-79928571D01*
X195809523Y-80452380D02*
X195809523Y-79452380D01*
X196809523Y-80452380D02*
X196238095Y-80452380D01*
X196523809Y-80452380D02*
X196523809Y-79452380D01*
X196428571Y-79595238D01*
X196333333Y-79690476D01*
X196238095Y-79738095D01*
X103238095Y-80452380D02*
X103238095Y-79452380D01*
X103238095Y-79928571D02*
X103809523Y-79928571D01*
X103809523Y-80452380D02*
X103809523Y-79452380D01*
X104238095Y-79547619D02*
X104285714Y-79500000D01*
X104380952Y-79452380D01*
X104619047Y-79452380D01*
X104714285Y-79500000D01*
X104761904Y-79547619D01*
X104809523Y-79642857D01*
X104809523Y-79738095D01*
X104761904Y-79880952D01*
X104190476Y-80452380D01*
X104809523Y-80452380D01*
X169833333Y-91857142D02*
X169785714Y-91904761D01*
X169642857Y-91952380D01*
X169547619Y-91952380D01*
X169404761Y-91904761D01*
X169309523Y-91809523D01*
X169261904Y-91714285D01*
X169214285Y-91523809D01*
X169214285Y-91380952D01*
X169261904Y-91190476D01*
X169309523Y-91095238D01*
X169404761Y-91000000D01*
X169547619Y-90952380D01*
X169642857Y-90952380D01*
X169785714Y-91000000D01*
X169833333Y-91047619D01*
X170166666Y-90952380D02*
X170785714Y-90952380D01*
X170452380Y-91333333D01*
X170595238Y-91333333D01*
X170690476Y-91380952D01*
X170738095Y-91428571D01*
X170785714Y-91523809D01*
X170785714Y-91761904D01*
X170738095Y-91857142D01*
X170690476Y-91904761D01*
X170595238Y-91952380D01*
X170309523Y-91952380D01*
X170214285Y-91904761D01*
X170166666Y-91857142D01*
X186730857Y-83169333D02*
X186683238Y-83121714D01*
X186635619Y-82978857D01*
X186635619Y-82883619D01*
X186683238Y-82740761D01*
X186778476Y-82645523D01*
X186873714Y-82597904D01*
X187064190Y-82550285D01*
X187207047Y-82550285D01*
X187397523Y-82597904D01*
X187492761Y-82645523D01*
X187588000Y-82740761D01*
X187635619Y-82883619D01*
X187635619Y-82978857D01*
X187588000Y-83121714D01*
X187540380Y-83169333D01*
X187302285Y-84026476D02*
X186635619Y-84026476D01*
X187683238Y-83788380D02*
X186968952Y-83550285D01*
X186968952Y-84169333D01*
X152666666Y-93178571D02*
X152333333Y-93178571D01*
X152333333Y-93702380D02*
X152333333Y-92702380D01*
X152809523Y-92702380D01*
X153714285Y-93702380D02*
X153142857Y-93702380D01*
X153428571Y-93702380D02*
X153428571Y-92702380D01*
X153333333Y-92845238D01*
X153238095Y-92940476D01*
X153142857Y-92988095D01*
X118952380Y-93642857D02*
X118476190Y-93976190D01*
X118952380Y-94214285D02*
X117952380Y-94214285D01*
X117952380Y-93833333D01*
X118000000Y-93738095D01*
X118047619Y-93690476D01*
X118142857Y-93642857D01*
X118285714Y-93642857D01*
X118380952Y-93690476D01*
X118428571Y-93738095D01*
X118476190Y-93833333D01*
X118476190Y-94214285D01*
X118952380Y-92690476D02*
X118952380Y-93261904D01*
X118952380Y-92976190D02*
X117952380Y-92976190D01*
X118095238Y-93071428D01*
X118190476Y-93166666D01*
X118238095Y-93261904D01*
X117952380Y-92071428D02*
X117952380Y-91976190D01*
X118000000Y-91880952D01*
X118047619Y-91833333D01*
X118142857Y-91785714D01*
X118333333Y-91738095D01*
X118571428Y-91738095D01*
X118761904Y-91785714D01*
X118857142Y-91833333D01*
X118904761Y-91880952D01*
X118952380Y-91976190D01*
X118952380Y-92071428D01*
X118904761Y-92166666D01*
X118857142Y-92214285D01*
X118761904Y-92261904D01*
X118571428Y-92309523D01*
X118333333Y-92309523D01*
X118142857Y-92261904D01*
X118047619Y-92214285D01*
X118000000Y-92166666D01*
X117952380Y-92071428D01*
X161166666Y-85462380D02*
X161166666Y-86176666D01*
X161119047Y-86319523D01*
X161023809Y-86414761D01*
X160880952Y-86462380D01*
X160785714Y-86462380D01*
X162119047Y-85462380D02*
X161642857Y-85462380D01*
X161595238Y-85938571D01*
X161642857Y-85890952D01*
X161738095Y-85843333D01*
X161976190Y-85843333D01*
X162071428Y-85890952D01*
X162119047Y-85938571D01*
X162166666Y-86033809D01*
X162166666Y-86271904D01*
X162119047Y-86367142D01*
X162071428Y-86414761D01*
X161976190Y-86462380D01*
X161738095Y-86462380D01*
X161642857Y-86414761D01*
X161595238Y-86367142D01*
X160511904Y-89202380D02*
X160511904Y-88202380D01*
X160750000Y-88202380D01*
X160892857Y-88250000D01*
X160988095Y-88345238D01*
X161035714Y-88440476D01*
X161083333Y-88630952D01*
X161083333Y-88773809D01*
X161035714Y-88964285D01*
X160988095Y-89059523D01*
X160892857Y-89154761D01*
X160750000Y-89202380D01*
X160511904Y-89202380D01*
X162035714Y-89202380D02*
X161464285Y-89202380D01*
X161750000Y-89202380D02*
X161750000Y-88202380D01*
X161654761Y-88345238D01*
X161559523Y-88440476D01*
X161464285Y-88488095D01*
X175583333Y-77412380D02*
X175250000Y-76936190D01*
X175011904Y-77412380D02*
X175011904Y-76412380D01*
X175392857Y-76412380D01*
X175488095Y-76460000D01*
X175535714Y-76507619D01*
X175583333Y-76602857D01*
X175583333Y-76745714D01*
X175535714Y-76840952D01*
X175488095Y-76888571D01*
X175392857Y-76936190D01*
X175011904Y-76936190D01*
X176535714Y-77412380D02*
X175964285Y-77412380D01*
X176250000Y-77412380D02*
X176250000Y-76412380D01*
X176154761Y-76555238D01*
X176059523Y-76650476D01*
X175964285Y-76698095D01*
X160083333Y-94702380D02*
X159750000Y-94226190D01*
X159511904Y-94702380D02*
X159511904Y-93702380D01*
X159892857Y-93702380D01*
X159988095Y-93750000D01*
X160035714Y-93797619D01*
X160083333Y-93892857D01*
X160083333Y-94035714D01*
X160035714Y-94130952D01*
X159988095Y-94178571D01*
X159892857Y-94226190D01*
X159511904Y-94226190D01*
X160940476Y-93702380D02*
X160750000Y-93702380D01*
X160654761Y-93750000D01*
X160607142Y-93797619D01*
X160511904Y-93940476D01*
X160464285Y-94130952D01*
X160464285Y-94511904D01*
X160511904Y-94607142D01*
X160559523Y-94654761D01*
X160654761Y-94702380D01*
X160845238Y-94702380D01*
X160940476Y-94654761D01*
X160988095Y-94607142D01*
X161035714Y-94511904D01*
X161035714Y-94273809D01*
X160988095Y-94178571D01*
X160940476Y-94130952D01*
X160845238Y-94083333D01*
X160654761Y-94083333D01*
X160559523Y-94130952D01*
X160511904Y-94178571D01*
X160464285Y-94273809D01*
X189892666Y-92920380D02*
X189892666Y-93634666D01*
X189845047Y-93777523D01*
X189749809Y-93872761D01*
X189606952Y-93920380D01*
X189511714Y-93920380D01*
X190511714Y-93348952D02*
X190416476Y-93301333D01*
X190368857Y-93253714D01*
X190321238Y-93158476D01*
X190321238Y-93110857D01*
X190368857Y-93015619D01*
X190416476Y-92968000D01*
X190511714Y-92920380D01*
X190702190Y-92920380D01*
X190797428Y-92968000D01*
X190845047Y-93015619D01*
X190892666Y-93110857D01*
X190892666Y-93158476D01*
X190845047Y-93253714D01*
X190797428Y-93301333D01*
X190702190Y-93348952D01*
X190511714Y-93348952D01*
X190416476Y-93396571D01*
X190368857Y-93444190D01*
X190321238Y-93539428D01*
X190321238Y-93729904D01*
X190368857Y-93825142D01*
X190416476Y-93872761D01*
X190511714Y-93920380D01*
X190702190Y-93920380D01*
X190797428Y-93872761D01*
X190845047Y-93825142D01*
X190892666Y-93729904D01*
X190892666Y-93539428D01*
X190845047Y-93444190D01*
X190797428Y-93396571D01*
X190702190Y-93348952D01*
X192988095Y-83666380D02*
X192988095Y-84475904D01*
X193035714Y-84571142D01*
X193083333Y-84618761D01*
X193178571Y-84666380D01*
X193369047Y-84666380D01*
X193464285Y-84618761D01*
X193511904Y-84571142D01*
X193559523Y-84475904D01*
X193559523Y-83666380D01*
X193940476Y-83666380D02*
X194559523Y-83666380D01*
X194226190Y-84047333D01*
X194369047Y-84047333D01*
X194464285Y-84094952D01*
X194511904Y-84142571D01*
X194559523Y-84237809D01*
X194559523Y-84475904D01*
X194511904Y-84571142D01*
X194464285Y-84618761D01*
X194369047Y-84666380D01*
X194083333Y-84666380D01*
X193988095Y-84618761D01*
X193940476Y-84571142D01*
X121345619Y-93631238D02*
X121298000Y-93726476D01*
X121202761Y-93821714D01*
X121059904Y-93964571D01*
X121012285Y-94059809D01*
X121012285Y-94155047D01*
X121250380Y-94107428D02*
X121202761Y-94202666D01*
X121107523Y-94297904D01*
X120917047Y-94345523D01*
X120583714Y-94345523D01*
X120393238Y-94297904D01*
X120298000Y-94202666D01*
X120250380Y-94107428D01*
X120250380Y-93916952D01*
X120298000Y-93821714D01*
X120393238Y-93726476D01*
X120583714Y-93678857D01*
X120917047Y-93678857D01*
X121107523Y-93726476D01*
X121202761Y-93821714D01*
X121250380Y-93916952D01*
X121250380Y-94107428D01*
X120250380Y-93345523D02*
X120250380Y-92726476D01*
X120631333Y-93059809D01*
X120631333Y-92916952D01*
X120678952Y-92821714D01*
X120726571Y-92774095D01*
X120821809Y-92726476D01*
X121059904Y-92726476D01*
X121155142Y-92774095D01*
X121202761Y-92821714D01*
X121250380Y-92916952D01*
X121250380Y-93202666D01*
X121202761Y-93297904D01*
X121155142Y-93345523D01*
X131505619Y-93631238D02*
X131458000Y-93726476D01*
X131362761Y-93821714D01*
X131219904Y-93964571D01*
X131172285Y-94059809D01*
X131172285Y-94155047D01*
X131410380Y-94107428D02*
X131362761Y-94202666D01*
X131267523Y-94297904D01*
X131077047Y-94345523D01*
X130743714Y-94345523D01*
X130553238Y-94297904D01*
X130458000Y-94202666D01*
X130410380Y-94107428D01*
X130410380Y-93916952D01*
X130458000Y-93821714D01*
X130553238Y-93726476D01*
X130743714Y-93678857D01*
X131077047Y-93678857D01*
X131267523Y-93726476D01*
X131362761Y-93821714D01*
X131410380Y-93916952D01*
X131410380Y-94107428D01*
X130505619Y-93297904D02*
X130458000Y-93250285D01*
X130410380Y-93155047D01*
X130410380Y-92916952D01*
X130458000Y-92821714D01*
X130505619Y-92774095D01*
X130600857Y-92726476D01*
X130696095Y-92726476D01*
X130838952Y-92774095D01*
X131410380Y-93345523D01*
X131410380Y-92726476D01*
X162993333Y-94702380D02*
X162660000Y-94226190D01*
X162421904Y-94702380D02*
X162421904Y-93702380D01*
X162802857Y-93702380D01*
X162898095Y-93750000D01*
X162945714Y-93797619D01*
X162993333Y-93892857D01*
X162993333Y-94035714D01*
X162945714Y-94130952D01*
X162898095Y-94178571D01*
X162802857Y-94226190D01*
X162421904Y-94226190D01*
X163850476Y-94035714D02*
X163850476Y-94702380D01*
X163612380Y-93654761D02*
X163374285Y-94369047D01*
X163993333Y-94369047D01*
X170988095Y-88952380D02*
X170988095Y-89761904D01*
X171035714Y-89857142D01*
X171083333Y-89904761D01*
X171178571Y-89952380D01*
X171369047Y-89952380D01*
X171464285Y-89904761D01*
X171511904Y-89857142D01*
X171559523Y-89761904D01*
X171559523Y-88952380D01*
X172559523Y-89952380D02*
X171988095Y-89952380D01*
X172273809Y-89952380D02*
X172273809Y-88952380D01*
X172178571Y-89095238D01*
X172083333Y-89190476D01*
X171988095Y-89238095D01*
X141665619Y-93631238D02*
X141618000Y-93726476D01*
X141522761Y-93821714D01*
X141379904Y-93964571D01*
X141332285Y-94059809D01*
X141332285Y-94155047D01*
X141570380Y-94107428D02*
X141522761Y-94202666D01*
X141427523Y-94297904D01*
X141237047Y-94345523D01*
X140903714Y-94345523D01*
X140713238Y-94297904D01*
X140618000Y-94202666D01*
X140570380Y-94107428D01*
X140570380Y-93916952D01*
X140618000Y-93821714D01*
X140713238Y-93726476D01*
X140903714Y-93678857D01*
X141237047Y-93678857D01*
X141427523Y-93726476D01*
X141522761Y-93821714D01*
X141570380Y-93916952D01*
X141570380Y-94107428D01*
X141570380Y-92726476D02*
X141570380Y-93297904D01*
X141570380Y-93012190D02*
X140570380Y-93012190D01*
X140713238Y-93107428D01*
X140808476Y-93202666D01*
X140856095Y-93297904D01*
X172452380Y-92309523D02*
X173166666Y-92309523D01*
X173309523Y-92357142D01*
X173404761Y-92452380D01*
X173452380Y-92595238D01*
X173452380Y-92690476D01*
X173452380Y-91309523D02*
X173452380Y-91880952D01*
X173452380Y-91595238D02*
X172452380Y-91595238D01*
X172595238Y-91690476D01*
X172690476Y-91785714D01*
X172738095Y-91880952D01*
X172547619Y-90928571D02*
X172500000Y-90880952D01*
X172452380Y-90785714D01*
X172452380Y-90547619D01*
X172500000Y-90452380D01*
X172547619Y-90404761D01*
X172642857Y-90357142D01*
X172738095Y-90357142D01*
X172880952Y-90404761D01*
X173452380Y-90976190D01*
X173452380Y-90357142D01*
X156333333Y-92702380D02*
X156000000Y-92226190D01*
X155761904Y-92702380D02*
X155761904Y-91702380D01*
X156142857Y-91702380D01*
X156238095Y-91750000D01*
X156285714Y-91797619D01*
X156333333Y-91892857D01*
X156333333Y-92035714D01*
X156285714Y-92130952D01*
X156238095Y-92178571D01*
X156142857Y-92226190D01*
X155761904Y-92226190D01*
X156666666Y-91702380D02*
X157285714Y-91702380D01*
X156952380Y-92083333D01*
X157095238Y-92083333D01*
X157190476Y-92130952D01*
X157238095Y-92178571D01*
X157285714Y-92273809D01*
X157285714Y-92511904D01*
X157238095Y-92607142D01*
X157190476Y-92654761D01*
X157095238Y-92702380D01*
X156809523Y-92702380D01*
X156714285Y-92654761D01*
X156666666Y-92607142D01*
X176793333Y-85357142D02*
X176745714Y-85404761D01*
X176602857Y-85452380D01*
X176507619Y-85452380D01*
X176364761Y-85404761D01*
X176269523Y-85309523D01*
X176221904Y-85214285D01*
X176174285Y-85023809D01*
X176174285Y-84880952D01*
X176221904Y-84690476D01*
X176269523Y-84595238D01*
X176364761Y-84500000D01*
X176507619Y-84452380D01*
X176602857Y-84452380D01*
X176745714Y-84500000D01*
X176793333Y-84547619D01*
X177745714Y-85452380D02*
X177174285Y-85452380D01*
X177460000Y-85452380D02*
X177460000Y-84452380D01*
X177364761Y-84595238D01*
X177269523Y-84690476D01*
X177174285Y-84738095D01*
X186413380Y-80922904D02*
X187222904Y-80922904D01*
X187318142Y-80875285D01*
X187365761Y-80827666D01*
X187413380Y-80732428D01*
X187413380Y-80541952D01*
X187365761Y-80446714D01*
X187318142Y-80399095D01*
X187222904Y-80351476D01*
X186413380Y-80351476D01*
X186508619Y-79922904D02*
X186461000Y-79875285D01*
X186413380Y-79780047D01*
X186413380Y-79541952D01*
X186461000Y-79446714D01*
X186508619Y-79399095D01*
X186603857Y-79351476D01*
X186699095Y-79351476D01*
X186841952Y-79399095D01*
X187413380Y-79970523D01*
X187413380Y-79351476D01*
X192333333Y-89357142D02*
X192285714Y-89404761D01*
X192142857Y-89452380D01*
X192047619Y-89452380D01*
X191904761Y-89404761D01*
X191809523Y-89309523D01*
X191761904Y-89214285D01*
X191714285Y-89023809D01*
X191714285Y-88880952D01*
X191761904Y-88690476D01*
X191809523Y-88595238D01*
X191904761Y-88500000D01*
X192047619Y-88452380D01*
X192142857Y-88452380D01*
X192285714Y-88500000D01*
X192333333Y-88547619D01*
X193238095Y-88452380D02*
X192761904Y-88452380D01*
X192714285Y-88928571D01*
X192761904Y-88880952D01*
X192857142Y-88833333D01*
X193095238Y-88833333D01*
X193190476Y-88880952D01*
X193238095Y-88928571D01*
X193285714Y-89023809D01*
X193285714Y-89261904D01*
X193238095Y-89357142D01*
X193190476Y-89404761D01*
X193095238Y-89452380D01*
X192857142Y-89452380D01*
X192761904Y-89404761D01*
X192714285Y-89357142D01*
X187857142Y-89301380D02*
X187523809Y-88825190D01*
X187285714Y-89301380D02*
X187285714Y-88301380D01*
X187666666Y-88301380D01*
X187761904Y-88349000D01*
X187809523Y-88396619D01*
X187857142Y-88491857D01*
X187857142Y-88634714D01*
X187809523Y-88729952D01*
X187761904Y-88777571D01*
X187666666Y-88825190D01*
X187285714Y-88825190D01*
X188809523Y-89301380D02*
X188238095Y-89301380D01*
X188523809Y-89301380D02*
X188523809Y-88301380D01*
X188428571Y-88444238D01*
X188333333Y-88539476D01*
X188238095Y-88587095D01*
X189666666Y-88301380D02*
X189476190Y-88301380D01*
X189380952Y-88349000D01*
X189333333Y-88396619D01*
X189238095Y-88539476D01*
X189190476Y-88729952D01*
X189190476Y-89110904D01*
X189238095Y-89206142D01*
X189285714Y-89253761D01*
X189380952Y-89301380D01*
X189571428Y-89301380D01*
X189666666Y-89253761D01*
X189714285Y-89206142D01*
X189761904Y-89110904D01*
X189761904Y-88872809D01*
X189714285Y-88777571D01*
X189666666Y-88729952D01*
X189571428Y-88682333D01*
X189380952Y-88682333D01*
X189285714Y-88729952D01*
X189238095Y-88777571D01*
X189190476Y-88872809D01*
X111185619Y-93631238D02*
X111138000Y-93726476D01*
X111042761Y-93821714D01*
X110899904Y-93964571D01*
X110852285Y-94059809D01*
X110852285Y-94155047D01*
X111090380Y-94107428D02*
X111042761Y-94202666D01*
X110947523Y-94297904D01*
X110757047Y-94345523D01*
X110423714Y-94345523D01*
X110233238Y-94297904D01*
X110138000Y-94202666D01*
X110090380Y-94107428D01*
X110090380Y-93916952D01*
X110138000Y-93821714D01*
X110233238Y-93726476D01*
X110423714Y-93678857D01*
X110757047Y-93678857D01*
X110947523Y-93726476D01*
X111042761Y-93821714D01*
X111090380Y-93916952D01*
X111090380Y-94107428D01*
X110423714Y-92821714D02*
X111090380Y-92821714D01*
X110042761Y-93059809D02*
X110757047Y-93297904D01*
X110757047Y-92678857D01*
X172676380Y-93742666D02*
X172200190Y-94076000D01*
X172676380Y-94314095D02*
X171676380Y-94314095D01*
X171676380Y-93933142D01*
X171724000Y-93837904D01*
X171771619Y-93790285D01*
X171866857Y-93742666D01*
X172009714Y-93742666D01*
X172104952Y-93790285D01*
X172152571Y-93837904D01*
X172200190Y-93933142D01*
X172200190Y-94314095D01*
X171676380Y-92837904D02*
X171676380Y-93314095D01*
X172152571Y-93361714D01*
X172104952Y-93314095D01*
X172057333Y-93218857D01*
X172057333Y-92980761D01*
X172104952Y-92885523D01*
X172152571Y-92837904D01*
X172247809Y-92790285D01*
X172485904Y-92790285D01*
X172581142Y-92837904D01*
X172628761Y-92885523D01*
X172676380Y-92980761D01*
X172676380Y-93218857D01*
X172628761Y-93314095D01*
X172581142Y-93361714D01*
X187445142Y-77406666D02*
X187492761Y-77454285D01*
X187540380Y-77597142D01*
X187540380Y-77692380D01*
X187492761Y-77835238D01*
X187397523Y-77930476D01*
X187302285Y-77978095D01*
X187111809Y-78025714D01*
X186968952Y-78025714D01*
X186778476Y-77978095D01*
X186683238Y-77930476D01*
X186588000Y-77835238D01*
X186540380Y-77692380D01*
X186540380Y-77597142D01*
X186588000Y-77454285D01*
X186635619Y-77406666D01*
X186635619Y-77025714D02*
X186588000Y-76978095D01*
X186540380Y-76882857D01*
X186540380Y-76644761D01*
X186588000Y-76549523D01*
X186635619Y-76501904D01*
X186730857Y-76454285D01*
X186826095Y-76454285D01*
X186968952Y-76501904D01*
X187540380Y-77073333D01*
X187540380Y-76454285D01*
X148916666Y-94702380D02*
X148916666Y-95416666D01*
X148869047Y-95559523D01*
X148773809Y-95654761D01*
X148630952Y-95702380D01*
X148535714Y-95702380D01*
X149821428Y-95035714D02*
X149821428Y-95702380D01*
X149583333Y-94654761D02*
X149345238Y-95369047D01*
X149964285Y-95369047D01*
X139916666Y-97154761D02*
X140059523Y-97202380D01*
X140297619Y-97202380D01*
X140392857Y-97154761D01*
X140440476Y-97107142D01*
X140488095Y-97011904D01*
X140488095Y-96916666D01*
X140440476Y-96821428D01*
X140392857Y-96773809D01*
X140297619Y-96726190D01*
X140107142Y-96678571D01*
X140011904Y-96630952D01*
X139964285Y-96583333D01*
X139916666Y-96488095D01*
X139916666Y-96392857D01*
X139964285Y-96297619D01*
X140011904Y-96250000D01*
X140107142Y-96202380D01*
X140345238Y-96202380D01*
X140488095Y-96250000D01*
X140821428Y-96202380D02*
X141059523Y-97202380D01*
X141250000Y-96488095D01*
X141440476Y-97202380D01*
X141678571Y-96202380D01*
X142011904Y-96297619D02*
X142059523Y-96250000D01*
X142154761Y-96202380D01*
X142392857Y-96202380D01*
X142488095Y-96250000D01*
X142535714Y-96297619D01*
X142583333Y-96392857D01*
X142583333Y-96488095D01*
X142535714Y-96630952D01*
X141964285Y-97202380D01*
X142583333Y-97202380D01*
X106916666Y-81952380D02*
X106916666Y-82666666D01*
X106869047Y-82809523D01*
X106773809Y-82904761D01*
X106630952Y-82952380D01*
X106535714Y-82952380D01*
X107821428Y-81952380D02*
X107630952Y-81952380D01*
X107535714Y-82000000D01*
X107488095Y-82047619D01*
X107392857Y-82190476D01*
X107345238Y-82380952D01*
X107345238Y-82761904D01*
X107392857Y-82857142D01*
X107440476Y-82904761D01*
X107535714Y-82952380D01*
X107726190Y-82952380D01*
X107821428Y-82904761D01*
X107869047Y-82857142D01*
X107916666Y-82761904D01*
X107916666Y-82523809D01*
X107869047Y-82428571D01*
X107821428Y-82380952D01*
X107726190Y-82333333D01*
X107535714Y-82333333D01*
X107440476Y-82380952D01*
X107392857Y-82428571D01*
X107345238Y-82523809D01*
X118952380Y-90142857D02*
X118476190Y-90476190D01*
X118952380Y-90714285D02*
X117952380Y-90714285D01*
X117952380Y-90333333D01*
X118000000Y-90238095D01*
X118047619Y-90190476D01*
X118142857Y-90142857D01*
X118285714Y-90142857D01*
X118380952Y-90190476D01*
X118428571Y-90238095D01*
X118476190Y-90333333D01*
X118476190Y-90714285D01*
X118952380Y-89190476D02*
X118952380Y-89761904D01*
X118952380Y-89476190D02*
X117952380Y-89476190D01*
X118095238Y-89571428D01*
X118190476Y-89666666D01*
X118238095Y-89761904D01*
X118285714Y-88333333D02*
X118952380Y-88333333D01*
X117904761Y-88571428D02*
X118619047Y-88809523D01*
X118619047Y-88190476D01*
M02*
