%TF.GenerationSoftware,KiCad,Pcbnew,(5.1.5)-3*%
%TF.CreationDate,2020-01-15T03:57:36-05:00*%
%TF.ProjectId,STM32 Klipper Expander,53544d33-3220-44b6-9c69-707065722045,rev?*%
%TF.SameCoordinates,Original*%
%TF.FileFunction,Plated,1,2,PTH,Drill*%
%TF.FilePolarity,Positive*%
%FSLAX46Y46*%
G04 Gerber Fmt 4.6, Leading zero omitted, Abs format (unit mm)*
G04 Created by KiCad (PCBNEW (5.1.5)-3) date 2020-01-15 03:57:36*
%MOMM*%
%LPD*%
G04 APERTURE LIST*
%TA.AperFunction,ViaDrill*%
%ADD10C,0.400000*%
%TD*%
%TA.AperFunction,ComponentDrill*%
%ADD11C,0.650000*%
%TD*%
%TA.AperFunction,ComponentDrill*%
%ADD12C,1.000000*%
%TD*%
%TA.AperFunction,ComponentDrill*%
%ADD13C,1.250000*%
%TD*%
%TA.AperFunction,ComponentDrill*%
%ADD14C,1.300000*%
%TD*%
%TA.AperFunction,ComponentDrill*%
%ADD15C,1.700000*%
%TD*%
G04 APERTURE END LIST*
D10*
X111430000Y-59995000D03*
X111430000Y-61265000D03*
X111430000Y-62535000D03*
X111430000Y-63805000D03*
X111430000Y-70155000D03*
X111430000Y-71425000D03*
X111430000Y-72695000D03*
X111430000Y-73965000D03*
X111430000Y-80315000D03*
X111430000Y-81585000D03*
X111430000Y-82855000D03*
X111430000Y-84125000D03*
X111430000Y-90475000D03*
X111430000Y-91745000D03*
X111430000Y-93015000D03*
X111430000Y-94285000D03*
X112700000Y-59995000D03*
X112700000Y-61265000D03*
X112700000Y-62535000D03*
X112700000Y-63805000D03*
X112700000Y-70155000D03*
X112700000Y-71425000D03*
X112700000Y-72695000D03*
X112700000Y-73965000D03*
X112700000Y-80315000D03*
X112700000Y-81585000D03*
X112700000Y-82855000D03*
X112700000Y-84125000D03*
X112700000Y-90475000D03*
X112700000Y-91745000D03*
X112700000Y-93015000D03*
X112700000Y-94285000D03*
X113970000Y-59995000D03*
X113970000Y-61265000D03*
X113970000Y-62535000D03*
X113970000Y-63805000D03*
X113970000Y-70155000D03*
X113970000Y-71425000D03*
X113970000Y-72695000D03*
X113970000Y-73965000D03*
X113970000Y-80315000D03*
X113970000Y-81585000D03*
X113970000Y-82855000D03*
X113970000Y-84125000D03*
X113970000Y-90475000D03*
X113970000Y-91745000D03*
X113970000Y-93015000D03*
X113970000Y-94285000D03*
X120320000Y-85014000D03*
X121336000Y-81966000D03*
X122352000Y-80950000D03*
X123368000Y-79934000D03*
X124130000Y-78918000D03*
X125908000Y-88824000D03*
X126670000Y-78918000D03*
X126924000Y-65964000D03*
X126924000Y-79934000D03*
X126924000Y-80950000D03*
X126924000Y-81966000D03*
X126924000Y-82982000D03*
X127305000Y-74092000D03*
X130480000Y-74092000D03*
X130565500Y-84337500D03*
X132004000Y-75108000D03*
X132090000Y-77562000D03*
X133020000Y-75108000D03*
X133105500Y-81797500D03*
X134036000Y-82220000D03*
X134544000Y-88824000D03*
X135052000Y-60376000D03*
X135052000Y-83236000D03*
X135560000Y-61392000D03*
X137084000Y-80696000D03*
X137338000Y-83490000D03*
X137846000Y-56566000D03*
X138608000Y-74600000D03*
X139116000Y-76032000D03*
X139624000Y-90856000D03*
X140132000Y-79680000D03*
X140386000Y-56566000D03*
X144437500Y-85153500D03*
X146661000Y-71552000D03*
X146661000Y-81712000D03*
D11*
%TO.C,J3*%
X140640000Y-63424000D03*
X140640000Y-64694000D03*
X141910000Y-63424000D03*
X141910000Y-64694000D03*
X143180000Y-63424000D03*
X143180000Y-64694000D03*
X144450000Y-63424000D03*
X144450000Y-64694000D03*
X145720000Y-63424000D03*
X145720000Y-64694000D03*
D12*
%TO.C,J4*%
X140640000Y-69012000D03*
X143180000Y-69012000D03*
X145720000Y-69012000D03*
%TO.C,J10*%
X145720000Y-92380000D03*
%TO.C,J7*%
X127940000Y-68758000D03*
X130480000Y-68758000D03*
%TO.C,J12*%
X127940000Y-86284000D03*
X130480000Y-86284000D03*
%TO.C,J2*%
X135306000Y-55042000D03*
X137846000Y-55042000D03*
X140386000Y-55042000D03*
X142926000Y-55042000D03*
%TO.C,J8*%
X124424000Y-95428000D03*
X126924000Y-95428000D03*
%TO.C,J11*%
X140640000Y-96444000D03*
X143180000Y-96444000D03*
X145720000Y-96444000D03*
%TO.C,J9*%
X133060000Y-95428000D03*
X135560000Y-95428000D03*
D13*
%TO.C,SW2*%
X136576000Y-63222000D03*
X136576000Y-69722000D03*
D14*
%TO.C,J6*%
X107620000Y-61265000D03*
X107620000Y-66345000D03*
X107620000Y-71425000D03*
X107620000Y-76505000D03*
X107620000Y-81585000D03*
X107620000Y-86665000D03*
X107620000Y-91745000D03*
X107620000Y-96825000D03*
%TO.C,J5*%
X124638000Y-58979000D03*
X129718000Y-58979000D03*
D15*
%TO.C,F1*%
X106297000Y-55296000D03*
X109957000Y-55296000D03*
X114427000Y-55296000D03*
X118087000Y-55296000D03*
M02*
