G04 #@! TF.GenerationSoftware,KiCad,Pcbnew,(5.1.5)-3*
G04 #@! TF.CreationDate,2020-01-15T00:30:51-05:00*
G04 #@! TF.ProjectId,STM32 Klipper Expander,53544d33-3220-44b6-9c69-707065722045,rev?*
G04 #@! TF.SameCoordinates,Original*
G04 #@! TF.FileFunction,Legend,Top*
G04 #@! TF.FilePolarity,Positive*
%FSLAX46Y46*%
G04 Gerber Fmt 4.6, Leading zero omitted, Abs format (unit mm)*
G04 Created by KiCad (PCBNEW (5.1.5)-3) date 2020-01-15 00:30:51*
%MOMM*%
%LPD*%
G04 APERTURE LIST*
%ADD10C,0.200000*%
%ADD11C,0.100000*%
%ADD12C,0.120000*%
%ADD13C,0.150000*%
G04 APERTURE END LIST*
D10*
X119835952Y-77703571D02*
X119978809Y-77751190D01*
X120026428Y-77798809D01*
X120074047Y-77894047D01*
X120074047Y-78036904D01*
X120026428Y-78132142D01*
X119978809Y-78179761D01*
X119883571Y-78227380D01*
X119502619Y-78227380D01*
X119502619Y-77227380D01*
X119835952Y-77227380D01*
X119931190Y-77275000D01*
X119978809Y-77322619D01*
X120026428Y-77417857D01*
X120026428Y-77513095D01*
X119978809Y-77608333D01*
X119931190Y-77655952D01*
X119835952Y-77703571D01*
X119502619Y-77703571D01*
X120645476Y-78227380D02*
X120550238Y-78179761D01*
X120502619Y-78132142D01*
X120455000Y-78036904D01*
X120455000Y-77751190D01*
X120502619Y-77655952D01*
X120550238Y-77608333D01*
X120645476Y-77560714D01*
X120788333Y-77560714D01*
X120883571Y-77608333D01*
X120931190Y-77655952D01*
X120978809Y-77751190D01*
X120978809Y-78036904D01*
X120931190Y-78132142D01*
X120883571Y-78179761D01*
X120788333Y-78227380D01*
X120645476Y-78227380D01*
X121550238Y-78227380D02*
X121455000Y-78179761D01*
X121407380Y-78132142D01*
X121359761Y-78036904D01*
X121359761Y-77751190D01*
X121407380Y-77655952D01*
X121455000Y-77608333D01*
X121550238Y-77560714D01*
X121693095Y-77560714D01*
X121788333Y-77608333D01*
X121835952Y-77655952D01*
X121883571Y-77751190D01*
X121883571Y-78036904D01*
X121835952Y-78132142D01*
X121788333Y-78179761D01*
X121693095Y-78227380D01*
X121550238Y-78227380D01*
X122169285Y-77560714D02*
X122550238Y-77560714D01*
X122312142Y-77227380D02*
X122312142Y-78084523D01*
X122359761Y-78179761D01*
X122455000Y-78227380D01*
X122550238Y-78227380D01*
X142811000Y-74067714D02*
X142739571Y-74210571D01*
X142739571Y-74424857D01*
X142811000Y-74639142D01*
X142953857Y-74782000D01*
X143096714Y-74853428D01*
X143382428Y-74924857D01*
X143596714Y-74924857D01*
X143882428Y-74853428D01*
X144025285Y-74782000D01*
X144168142Y-74639142D01*
X144239571Y-74424857D01*
X144239571Y-74282000D01*
X144168142Y-74067714D01*
X144096714Y-73996285D01*
X143596714Y-73996285D01*
X143596714Y-74282000D01*
X143239571Y-73353428D02*
X144239571Y-73353428D01*
X143382428Y-73353428D02*
X143311000Y-73282000D01*
X143239571Y-73139142D01*
X143239571Y-72924857D01*
X143311000Y-72782000D01*
X143453857Y-72710571D01*
X144239571Y-72710571D01*
X144239571Y-71353428D02*
X142739571Y-71353428D01*
X144168142Y-71353428D02*
X144239571Y-71496285D01*
X144239571Y-71782000D01*
X144168142Y-71924857D01*
X144096714Y-71996285D01*
X143953857Y-72067714D01*
X143525285Y-72067714D01*
X143382428Y-71996285D01*
X143311000Y-71924857D01*
X143239571Y-71782000D01*
X143239571Y-71496285D01*
X143311000Y-71353428D01*
X142739571Y-68567714D02*
X144239571Y-68067714D01*
X142739571Y-67567714D01*
X144239571Y-67067714D02*
X143239571Y-67067714D01*
X142739571Y-67067714D02*
X142811000Y-67139142D01*
X142882428Y-67067714D01*
X142811000Y-66996285D01*
X142739571Y-67067714D01*
X142882428Y-67067714D01*
X143239571Y-66353428D02*
X144239571Y-66353428D01*
X143382428Y-66353428D02*
X143311000Y-66282000D01*
X143239571Y-66139142D01*
X143239571Y-65924857D01*
X143311000Y-65782000D01*
X143453857Y-65710571D01*
X144239571Y-65710571D01*
X102091428Y-90035000D02*
X100591428Y-90535000D01*
X102091428Y-91035000D01*
X100591428Y-91535000D02*
X101591428Y-91535000D01*
X102091428Y-91535000D02*
X102020000Y-91463571D01*
X101948571Y-91535000D01*
X102020000Y-91606428D01*
X102091428Y-91535000D01*
X101948571Y-91535000D01*
X101591428Y-92249285D02*
X100591428Y-92249285D01*
X101448571Y-92249285D02*
X101520000Y-92320714D01*
X101591428Y-92463571D01*
X101591428Y-92677857D01*
X101520000Y-92820714D01*
X101377142Y-92892142D01*
X100591428Y-92892142D01*
X100591428Y-95892142D02*
X102091428Y-95892142D01*
X101020000Y-96392142D01*
X102091428Y-96892142D01*
X100591428Y-96892142D01*
X102091428Y-97463571D02*
X102091428Y-98392142D01*
X101520000Y-97892142D01*
X101520000Y-98106428D01*
X101448571Y-98249285D01*
X101377142Y-98320714D01*
X101234285Y-98392142D01*
X100877142Y-98392142D01*
X100734285Y-98320714D01*
X100662857Y-98249285D01*
X100591428Y-98106428D01*
X100591428Y-97677857D01*
X100662857Y-97535000D01*
X100734285Y-97463571D01*
X102091428Y-79875000D02*
X100591428Y-80375000D01*
X102091428Y-80875000D01*
X100591428Y-81375000D02*
X101591428Y-81375000D01*
X102091428Y-81375000D02*
X102020000Y-81303571D01*
X101948571Y-81375000D01*
X102020000Y-81446428D01*
X102091428Y-81375000D01*
X101948571Y-81375000D01*
X101591428Y-82089285D02*
X100591428Y-82089285D01*
X101448571Y-82089285D02*
X101520000Y-82160714D01*
X101591428Y-82303571D01*
X101591428Y-82517857D01*
X101520000Y-82660714D01*
X101377142Y-82732142D01*
X100591428Y-82732142D01*
X100591428Y-85732142D02*
X102091428Y-85732142D01*
X101020000Y-86232142D01*
X102091428Y-86732142D01*
X100591428Y-86732142D01*
X101948571Y-87375000D02*
X102020000Y-87446428D01*
X102091428Y-87589285D01*
X102091428Y-87946428D01*
X102020000Y-88089285D01*
X101948571Y-88160714D01*
X101805714Y-88232142D01*
X101662857Y-88232142D01*
X101448571Y-88160714D01*
X100591428Y-87303571D01*
X100591428Y-88232142D01*
X102091428Y-69715000D02*
X100591428Y-70215000D01*
X102091428Y-70715000D01*
X100591428Y-71215000D02*
X101591428Y-71215000D01*
X102091428Y-71215000D02*
X102020000Y-71143571D01*
X101948571Y-71215000D01*
X102020000Y-71286428D01*
X102091428Y-71215000D01*
X101948571Y-71215000D01*
X101591428Y-71929285D02*
X100591428Y-71929285D01*
X101448571Y-71929285D02*
X101520000Y-72000714D01*
X101591428Y-72143571D01*
X101591428Y-72357857D01*
X101520000Y-72500714D01*
X101377142Y-72572142D01*
X100591428Y-72572142D01*
X100591428Y-75572142D02*
X102091428Y-75572142D01*
X101020000Y-76072142D01*
X102091428Y-76572142D01*
X100591428Y-76572142D01*
X100591428Y-78072142D02*
X100591428Y-77215000D01*
X100591428Y-77643571D02*
X102091428Y-77643571D01*
X101877142Y-77500714D01*
X101734285Y-77357857D01*
X101662857Y-77215000D01*
X102091428Y-58920000D02*
X100591428Y-59420000D01*
X102091428Y-59920000D01*
X100591428Y-60420000D02*
X101591428Y-60420000D01*
X102091428Y-60420000D02*
X102020000Y-60348571D01*
X101948571Y-60420000D01*
X102020000Y-60491428D01*
X102091428Y-60420000D01*
X101948571Y-60420000D01*
X101591428Y-61134285D02*
X100591428Y-61134285D01*
X101448571Y-61134285D02*
X101520000Y-61205714D01*
X101591428Y-61348571D01*
X101591428Y-61562857D01*
X101520000Y-61705714D01*
X101377142Y-61777142D01*
X100591428Y-61777142D01*
X100591428Y-64777142D02*
X102091428Y-64777142D01*
X101020000Y-65277142D01*
X102091428Y-65777142D01*
X100591428Y-65777142D01*
X102091428Y-66777142D02*
X102091428Y-66920000D01*
X102020000Y-67062857D01*
X101948571Y-67134285D01*
X101805714Y-67205714D01*
X101520000Y-67277142D01*
X101162857Y-67277142D01*
X100877142Y-67205714D01*
X100734285Y-67134285D01*
X100662857Y-67062857D01*
X100591428Y-66920000D01*
X100591428Y-66777142D01*
X100662857Y-66634285D01*
X100734285Y-66562857D01*
X100877142Y-66491428D01*
X101162857Y-66420000D01*
X101520000Y-66420000D01*
X101805714Y-66491428D01*
X101948571Y-66562857D01*
X102020000Y-66634285D01*
X102091428Y-66777142D01*
D11*
X122840714Y-95180000D02*
X122769285Y-95144285D01*
X122662142Y-95144285D01*
X122555000Y-95180000D01*
X122483571Y-95251428D01*
X122447857Y-95322857D01*
X122412142Y-95465714D01*
X122412142Y-95572857D01*
X122447857Y-95715714D01*
X122483571Y-95787142D01*
X122555000Y-95858571D01*
X122662142Y-95894285D01*
X122733571Y-95894285D01*
X122840714Y-95858571D01*
X122876428Y-95822857D01*
X122876428Y-95572857D01*
X122733571Y-95572857D01*
X123197857Y-95394285D02*
X123197857Y-95894285D01*
X123197857Y-95465714D02*
X123233571Y-95430000D01*
X123305000Y-95394285D01*
X123412142Y-95394285D01*
X123483571Y-95430000D01*
X123519285Y-95501428D01*
X123519285Y-95894285D01*
X124197857Y-95894285D02*
X124197857Y-95144285D01*
X124197857Y-95858571D02*
X124126428Y-95894285D01*
X123983571Y-95894285D01*
X123912142Y-95858571D01*
X123876428Y-95822857D01*
X123840714Y-95751428D01*
X123840714Y-95537142D01*
X123876428Y-95465714D01*
X123912142Y-95430000D01*
X123983571Y-95394285D01*
X124126428Y-95394285D01*
X124197857Y-95430000D01*
X125090714Y-95858571D02*
X125197857Y-95894285D01*
X125376428Y-95894285D01*
X125447857Y-95858571D01*
X125483571Y-95822857D01*
X125519285Y-95751428D01*
X125519285Y-95680000D01*
X125483571Y-95608571D01*
X125447857Y-95572857D01*
X125376428Y-95537142D01*
X125233571Y-95501428D01*
X125162142Y-95465714D01*
X125126428Y-95430000D01*
X125090714Y-95358571D01*
X125090714Y-95287142D01*
X125126428Y-95215714D01*
X125162142Y-95180000D01*
X125233571Y-95144285D01*
X125412142Y-95144285D01*
X125519285Y-95180000D01*
X126269285Y-95822857D02*
X126233571Y-95858571D01*
X126126428Y-95894285D01*
X126055000Y-95894285D01*
X125947857Y-95858571D01*
X125876428Y-95787142D01*
X125840714Y-95715714D01*
X125805000Y-95572857D01*
X125805000Y-95465714D01*
X125840714Y-95322857D01*
X125876428Y-95251428D01*
X125947857Y-95180000D01*
X126055000Y-95144285D01*
X126126428Y-95144285D01*
X126233571Y-95180000D01*
X126269285Y-95215714D01*
X126947857Y-95894285D02*
X126590714Y-95894285D01*
X126590714Y-95144285D01*
X127733571Y-95858571D02*
X127840714Y-95894285D01*
X128019285Y-95894285D01*
X128090714Y-95858571D01*
X128126428Y-95822857D01*
X128162142Y-95751428D01*
X128162142Y-95680000D01*
X128126428Y-95608571D01*
X128090714Y-95572857D01*
X128019285Y-95537142D01*
X127876428Y-95501428D01*
X127805000Y-95465714D01*
X127769285Y-95430000D01*
X127733571Y-95358571D01*
X127733571Y-95287142D01*
X127769285Y-95215714D01*
X127805000Y-95180000D01*
X127876428Y-95144285D01*
X128055000Y-95144285D01*
X128162142Y-95180000D01*
X128483571Y-95894285D02*
X128483571Y-95144285D01*
X128662142Y-95144285D01*
X128769285Y-95180000D01*
X128840714Y-95251428D01*
X128876428Y-95322857D01*
X128912142Y-95465714D01*
X128912142Y-95572857D01*
X128876428Y-95715714D01*
X128840714Y-95787142D01*
X128769285Y-95858571D01*
X128662142Y-95894285D01*
X128483571Y-95894285D01*
X129197857Y-95680000D02*
X129555000Y-95680000D01*
X129126428Y-95894285D02*
X129376428Y-95144285D01*
X129626428Y-95894285D01*
X130376428Y-95144285D02*
X130840714Y-95144285D01*
X130590714Y-95430000D01*
X130697857Y-95430000D01*
X130769285Y-95465714D01*
X130805000Y-95501428D01*
X130840714Y-95572857D01*
X130840714Y-95751428D01*
X130805000Y-95822857D01*
X130769285Y-95858571D01*
X130697857Y-95894285D01*
X130483571Y-95894285D01*
X130412142Y-95858571D01*
X130376428Y-95822857D01*
X131055000Y-95144285D02*
X131305000Y-95894285D01*
X131555000Y-95144285D01*
X131733571Y-95144285D02*
X132197857Y-95144285D01*
X131947857Y-95430000D01*
X132055000Y-95430000D01*
X132126428Y-95465714D01*
X132162142Y-95501428D01*
X132197857Y-95572857D01*
X132197857Y-95751428D01*
X132162142Y-95822857D01*
X132126428Y-95858571D01*
X132055000Y-95894285D01*
X131840714Y-95894285D01*
X131769285Y-95858571D01*
X131733571Y-95822857D01*
D12*
X123435000Y-79105000D02*
X123435000Y-77775000D01*
X124765000Y-79105000D02*
X123435000Y-79105000D01*
X126035000Y-79105000D02*
X126035000Y-76445000D01*
X126035000Y-76445000D02*
X128635000Y-76445000D01*
X126035000Y-79105000D02*
X128635000Y-79105000D01*
X128635000Y-79105000D02*
X128635000Y-76445000D01*
X142365000Y-75662000D02*
X142365000Y-75162000D01*
X141625000Y-75662000D02*
X142365000Y-75662000D01*
X138488000Y-68969000D02*
X138534000Y-69016000D01*
X136190000Y-66672000D02*
X136226000Y-66707000D01*
X138704000Y-68776000D02*
X138739000Y-68811000D01*
X136396000Y-66467000D02*
X136442000Y-66514000D01*
X132204000Y-65142000D02*
X142125000Y-65142000D01*
X132204000Y-75422000D02*
X142125000Y-75422000D01*
X142125000Y-75422000D02*
X142125000Y-65142000D01*
X132204000Y-75422000D02*
X132204000Y-65142000D01*
X135164000Y-75422000D02*
X135164000Y-65142000D01*
X140065000Y-75422000D02*
X140065000Y-65142000D01*
X141565000Y-75422000D02*
X141565000Y-65142000D01*
X139145000Y-67742000D02*
G75*
G03X139145000Y-67742000I-1680000J0D01*
G01*
X139145253Y-72793195D02*
G75*
G02X139000000Y-73506000I-1680253J-28805D01*
G01*
X138148042Y-74357426D02*
G75*
G02X136781000Y-74357000I-683042J1535426D01*
G01*
X135929574Y-73505042D02*
G75*
G02X135930000Y-72138000I1535426J683042D01*
G01*
X136781958Y-71286574D02*
G75*
G02X138149000Y-71287000I683042J-1535426D01*
G01*
X138999756Y-72138682D02*
G75*
G02X139145000Y-72822000I-1534756J-683318D01*
G01*
X106085244Y-61948318D02*
G75*
G02X105940000Y-61265000I1534756J683318D01*
G01*
X108303042Y-62800426D02*
G75*
G02X106936000Y-62800000I-683042J1535426D01*
G01*
X109155426Y-60581958D02*
G75*
G02X109155000Y-61949000I-1535426J-683042D01*
G01*
X106936958Y-59729574D02*
G75*
G02X108304000Y-59730000I683042J-1535426D01*
G01*
X105939747Y-61293805D02*
G75*
G02X106085000Y-60581000I1680253J28805D01*
G01*
X109300000Y-66345000D02*
G75*
G03X109300000Y-66345000I-1680000J0D01*
G01*
X109300000Y-71425000D02*
G75*
G03X109300000Y-71425000I-1680000J0D01*
G01*
X109300000Y-76505000D02*
G75*
G03X109300000Y-76505000I-1680000J0D01*
G01*
X109300000Y-81585000D02*
G75*
G03X109300000Y-81585000I-1680000J0D01*
G01*
X109300000Y-86665000D02*
G75*
G03X109300000Y-86665000I-1680000J0D01*
G01*
X109300000Y-91745000D02*
G75*
G03X109300000Y-91745000I-1680000J0D01*
G01*
X109300000Y-96825000D02*
G75*
G03X109300000Y-96825000I-1680000J0D01*
G01*
X103520000Y-58665000D02*
X103520000Y-99425000D01*
X105020000Y-58665000D02*
X105020000Y-99425000D01*
X109921000Y-58665000D02*
X109921000Y-99425000D01*
X112881000Y-58665000D02*
X112881000Y-99425000D01*
X102960000Y-58665000D02*
X102960000Y-99425000D01*
X112881000Y-58665000D02*
X102960000Y-58665000D01*
X112881000Y-99425000D02*
X102960000Y-99425000D01*
X108689000Y-67620000D02*
X108643000Y-67573000D01*
X106381000Y-65311000D02*
X106346000Y-65276000D01*
X108895000Y-67415000D02*
X108859000Y-67380000D01*
X106597000Y-65118000D02*
X106551000Y-65071000D01*
X108689000Y-72700000D02*
X108643000Y-72653000D01*
X106381000Y-70391000D02*
X106346000Y-70356000D01*
X108895000Y-72495000D02*
X108859000Y-72460000D01*
X106597000Y-70198000D02*
X106551000Y-70151000D01*
X108689000Y-77780000D02*
X108643000Y-77733000D01*
X106381000Y-75471000D02*
X106346000Y-75436000D01*
X108895000Y-77575000D02*
X108859000Y-77540000D01*
X106597000Y-75278000D02*
X106551000Y-75231000D01*
X108689000Y-82860000D02*
X108643000Y-82813000D01*
X106381000Y-80551000D02*
X106346000Y-80516000D01*
X108895000Y-82655000D02*
X108859000Y-82620000D01*
X106597000Y-80358000D02*
X106551000Y-80311000D01*
X108689000Y-87940000D02*
X108643000Y-87893000D01*
X106381000Y-85631000D02*
X106346000Y-85596000D01*
X108895000Y-87735000D02*
X108859000Y-87700000D01*
X106597000Y-85438000D02*
X106551000Y-85391000D01*
X108689000Y-93020000D02*
X108643000Y-92973000D01*
X106381000Y-90711000D02*
X106346000Y-90676000D01*
X108895000Y-92815000D02*
X108859000Y-92780000D01*
X106597000Y-90518000D02*
X106551000Y-90471000D01*
X108689000Y-98100000D02*
X108643000Y-98053000D01*
X106381000Y-95791000D02*
X106346000Y-95756000D01*
X108895000Y-97895000D02*
X108859000Y-97860000D01*
X106597000Y-95598000D02*
X106551000Y-95551000D01*
X103460000Y-58425000D02*
X102720000Y-58425000D01*
X102720000Y-58425000D02*
X102720000Y-58925000D01*
D13*
X123909000Y-56122000D02*
X123909000Y-64122000D01*
X143909000Y-56122000D02*
X123909000Y-56122000D01*
X143909000Y-64122000D02*
X143909000Y-56122000D01*
X123909000Y-64122000D02*
X143909000Y-64122000D01*
D12*
X120395000Y-81961422D02*
X120395000Y-82478578D01*
X118975000Y-81961422D02*
X118975000Y-82478578D01*
X120395000Y-92121422D02*
X120395000Y-92638578D01*
X118975000Y-92121422D02*
X118975000Y-92638578D01*
X120395000Y-71801422D02*
X120395000Y-72318578D01*
X118975000Y-71801422D02*
X118975000Y-72318578D01*
X118975000Y-61641422D02*
X118975000Y-62158578D01*
X120395000Y-61641422D02*
X120395000Y-62158578D01*
X129253922Y-94360000D02*
X129771078Y-94360000D01*
X129253922Y-92940000D02*
X129771078Y-92940000D01*
X125356078Y-92940000D02*
X124838922Y-92940000D01*
X125356078Y-94360000D02*
X124838922Y-94360000D01*
X116251422Y-90400000D02*
X116768578Y-90400000D01*
X116251422Y-91820000D02*
X116768578Y-91820000D01*
D11*
X118160000Y-94965000D02*
X118160000Y-94690000D01*
X118160000Y-94690000D02*
X117885000Y-94315000D01*
X117885000Y-94315000D02*
X117835000Y-94315000D01*
X117835000Y-94315000D02*
X117835000Y-93540000D01*
X114860000Y-94790000D02*
X114860000Y-94315000D01*
X114860000Y-94315000D02*
X115210000Y-94315000D01*
X115085000Y-95965000D02*
X115210000Y-95965000D01*
X115160000Y-95965000D02*
X114860000Y-95965000D01*
X114860000Y-95965000D02*
X114860000Y-95515000D01*
X118160000Y-95590000D02*
X118160000Y-95965000D01*
X118160000Y-95965000D02*
X117860000Y-95965000D01*
D12*
X116251422Y-80240000D02*
X116768578Y-80240000D01*
X116251422Y-81660000D02*
X116768578Y-81660000D01*
D11*
X118160000Y-84805000D02*
X118160000Y-84530000D01*
X118160000Y-84530000D02*
X117885000Y-84155000D01*
X117885000Y-84155000D02*
X117835000Y-84155000D01*
X117835000Y-84155000D02*
X117835000Y-83380000D01*
X114860000Y-84630000D02*
X114860000Y-84155000D01*
X114860000Y-84155000D02*
X115210000Y-84155000D01*
X115085000Y-85805000D02*
X115210000Y-85805000D01*
X115160000Y-85805000D02*
X114860000Y-85805000D01*
X114860000Y-85805000D02*
X114860000Y-85355000D01*
X118160000Y-85430000D02*
X118160000Y-85805000D01*
X118160000Y-85805000D02*
X117860000Y-85805000D01*
D12*
X116251422Y-70080000D02*
X116768578Y-70080000D01*
X116251422Y-71500000D02*
X116768578Y-71500000D01*
D11*
X118160000Y-74645000D02*
X118160000Y-74370000D01*
X118160000Y-74370000D02*
X117885000Y-73995000D01*
X117885000Y-73995000D02*
X117835000Y-73995000D01*
X117835000Y-73995000D02*
X117835000Y-73220000D01*
X114860000Y-74470000D02*
X114860000Y-73995000D01*
X114860000Y-73995000D02*
X115210000Y-73995000D01*
X115085000Y-75645000D02*
X115210000Y-75645000D01*
X115160000Y-75645000D02*
X114860000Y-75645000D01*
X114860000Y-75645000D02*
X114860000Y-75195000D01*
X118160000Y-75270000D02*
X118160000Y-75645000D01*
X118160000Y-75645000D02*
X117860000Y-75645000D01*
D12*
X116251422Y-61340000D02*
X116768578Y-61340000D01*
X116251422Y-59920000D02*
X116768578Y-59920000D01*
D11*
X118160000Y-65485000D02*
X117860000Y-65485000D01*
X118160000Y-65110000D02*
X118160000Y-65485000D01*
X114860000Y-65485000D02*
X114860000Y-65035000D01*
X115160000Y-65485000D02*
X114860000Y-65485000D01*
X115085000Y-65485000D02*
X115210000Y-65485000D01*
X114860000Y-63835000D02*
X115210000Y-63835000D01*
X114860000Y-64310000D02*
X114860000Y-63835000D01*
X117835000Y-63835000D02*
X117835000Y-63060000D01*
X117885000Y-63835000D02*
X117835000Y-63835000D01*
X118160000Y-64210000D02*
X117885000Y-63835000D01*
X118160000Y-64485000D02*
X118160000Y-64210000D01*
D12*
X135855000Y-92750000D02*
X135855000Y-95200000D01*
X139075000Y-94550000D02*
X139075000Y-92750000D01*
D13*
X125460000Y-81945000D02*
X131435000Y-81945000D01*
X126985000Y-88845000D02*
X131435000Y-88845000D01*
D12*
X135301422Y-82930000D02*
X135818578Y-82930000D01*
X135301422Y-81510000D02*
X135818578Y-81510000D01*
X132079000Y-76627422D02*
X132079000Y-77144578D01*
X130659000Y-76627422D02*
X130659000Y-77144578D01*
X143875000Y-87300000D02*
X143615000Y-87300000D01*
X141335000Y-87300000D02*
X139565000Y-87300000D01*
X139565000Y-87300000D02*
X139565000Y-86920000D01*
X139565000Y-79680000D02*
X141335000Y-79680000D01*
X143615000Y-79680000D02*
X143875000Y-79680000D01*
X139565000Y-79680000D02*
X139565000Y-80060000D01*
X132445000Y-96765000D02*
X132445000Y-98095000D01*
X131115000Y-96765000D02*
X132445000Y-96765000D01*
X129845000Y-96765000D02*
X129845000Y-99425000D01*
X129845000Y-99425000D02*
X122165000Y-99425000D01*
X129845000Y-96765000D02*
X122165000Y-96765000D01*
X122165000Y-96765000D02*
X122165000Y-99425000D01*
X137723578Y-89765000D02*
X137206422Y-89765000D01*
X137723578Y-91185000D02*
X137206422Y-91185000D01*
X123420000Y-83866422D02*
X123420000Y-84383578D01*
X124840000Y-83866422D02*
X124840000Y-84383578D01*
X137206422Y-98170000D02*
X137723578Y-98170000D01*
X137206422Y-96750000D02*
X137723578Y-96750000D01*
X135762000Y-86796578D02*
X135762000Y-86279422D01*
X134342000Y-86796578D02*
X134342000Y-86279422D01*
D13*
X121891666Y-75830380D02*
X121891666Y-76544666D01*
X121844047Y-76687523D01*
X121748809Y-76782761D01*
X121605952Y-76830380D01*
X121510714Y-76830380D01*
X122272619Y-75830380D02*
X122939285Y-75830380D01*
X122510714Y-76830380D01*
X130657380Y-70615333D02*
X131371666Y-70615333D01*
X131514523Y-70662952D01*
X131609761Y-70758190D01*
X131657380Y-70901047D01*
X131657380Y-70996285D01*
X130657380Y-69662952D02*
X130657380Y-70139142D01*
X131133571Y-70186761D01*
X131085952Y-70139142D01*
X131038333Y-70043904D01*
X131038333Y-69805809D01*
X131085952Y-69710571D01*
X131133571Y-69662952D01*
X131228809Y-69615333D01*
X131466904Y-69615333D01*
X131562142Y-69662952D01*
X131609761Y-69710571D01*
X131657380Y-69805809D01*
X131657380Y-70043904D01*
X131609761Y-70139142D01*
X131562142Y-70186761D01*
X107286666Y-56907380D02*
X107286666Y-57621666D01*
X107239047Y-57764523D01*
X107143809Y-57859761D01*
X107000952Y-57907380D01*
X106905714Y-57907380D01*
X108191428Y-56907380D02*
X108000952Y-56907380D01*
X107905714Y-56955000D01*
X107858095Y-57002619D01*
X107762857Y-57145476D01*
X107715238Y-57335952D01*
X107715238Y-57716904D01*
X107762857Y-57812142D01*
X107810476Y-57859761D01*
X107905714Y-57907380D01*
X108096190Y-57907380D01*
X108191428Y-57859761D01*
X108239047Y-57812142D01*
X108286666Y-57716904D01*
X108286666Y-57478809D01*
X108239047Y-57383571D01*
X108191428Y-57335952D01*
X108096190Y-57288333D01*
X107905714Y-57288333D01*
X107810476Y-57335952D01*
X107762857Y-57383571D01*
X107715238Y-57478809D01*
X133575666Y-59550571D02*
X133242333Y-59550571D01*
X133242333Y-60074380D02*
X133242333Y-59074380D01*
X133718523Y-59074380D01*
X134623285Y-60074380D02*
X134051857Y-60074380D01*
X134337571Y-60074380D02*
X134337571Y-59074380D01*
X134242333Y-59217238D01*
X134147095Y-59312476D01*
X134051857Y-59360095D01*
X119518333Y-85212380D02*
X119185000Y-84736190D01*
X118946904Y-85212380D02*
X118946904Y-84212380D01*
X119327857Y-84212380D01*
X119423095Y-84260000D01*
X119470714Y-84307619D01*
X119518333Y-84402857D01*
X119518333Y-84545714D01*
X119470714Y-84640952D01*
X119423095Y-84688571D01*
X119327857Y-84736190D01*
X118946904Y-84736190D01*
X119994523Y-85212380D02*
X120185000Y-85212380D01*
X120280238Y-85164761D01*
X120327857Y-85117142D01*
X120423095Y-84974285D01*
X120470714Y-84783809D01*
X120470714Y-84402857D01*
X120423095Y-84307619D01*
X120375476Y-84260000D01*
X120280238Y-84212380D01*
X120089761Y-84212380D01*
X119994523Y-84260000D01*
X119946904Y-84307619D01*
X119899285Y-84402857D01*
X119899285Y-84640952D01*
X119946904Y-84736190D01*
X119994523Y-84783809D01*
X120089761Y-84831428D01*
X120280238Y-84831428D01*
X120375476Y-84783809D01*
X120423095Y-84736190D01*
X120470714Y-84640952D01*
X119042142Y-95372380D02*
X118708809Y-94896190D01*
X118470714Y-95372380D02*
X118470714Y-94372380D01*
X118851666Y-94372380D01*
X118946904Y-94420000D01*
X118994523Y-94467619D01*
X119042142Y-94562857D01*
X119042142Y-94705714D01*
X118994523Y-94800952D01*
X118946904Y-94848571D01*
X118851666Y-94896190D01*
X118470714Y-94896190D01*
X119994523Y-95372380D02*
X119423095Y-95372380D01*
X119708809Y-95372380D02*
X119708809Y-94372380D01*
X119613571Y-94515238D01*
X119518333Y-94610476D01*
X119423095Y-94658095D01*
X120613571Y-94372380D02*
X120708809Y-94372380D01*
X120804047Y-94420000D01*
X120851666Y-94467619D01*
X120899285Y-94562857D01*
X120946904Y-94753333D01*
X120946904Y-94991428D01*
X120899285Y-95181904D01*
X120851666Y-95277142D01*
X120804047Y-95324761D01*
X120708809Y-95372380D01*
X120613571Y-95372380D01*
X120518333Y-95324761D01*
X120470714Y-95277142D01*
X120423095Y-95181904D01*
X120375476Y-94991428D01*
X120375476Y-94753333D01*
X120423095Y-94562857D01*
X120470714Y-94467619D01*
X120518333Y-94420000D01*
X120613571Y-94372380D01*
X119518333Y-75052380D02*
X119185000Y-74576190D01*
X118946904Y-75052380D02*
X118946904Y-74052380D01*
X119327857Y-74052380D01*
X119423095Y-74100000D01*
X119470714Y-74147619D01*
X119518333Y-74242857D01*
X119518333Y-74385714D01*
X119470714Y-74480952D01*
X119423095Y-74528571D01*
X119327857Y-74576190D01*
X118946904Y-74576190D01*
X120089761Y-74480952D02*
X119994523Y-74433333D01*
X119946904Y-74385714D01*
X119899285Y-74290476D01*
X119899285Y-74242857D01*
X119946904Y-74147619D01*
X119994523Y-74100000D01*
X120089761Y-74052380D01*
X120280238Y-74052380D01*
X120375476Y-74100000D01*
X120423095Y-74147619D01*
X120470714Y-74242857D01*
X120470714Y-74290476D01*
X120423095Y-74385714D01*
X120375476Y-74433333D01*
X120280238Y-74480952D01*
X120089761Y-74480952D01*
X119994523Y-74528571D01*
X119946904Y-74576190D01*
X119899285Y-74671428D01*
X119899285Y-74861904D01*
X119946904Y-74957142D01*
X119994523Y-75004761D01*
X120089761Y-75052380D01*
X120280238Y-75052380D01*
X120375476Y-75004761D01*
X120423095Y-74957142D01*
X120470714Y-74861904D01*
X120470714Y-74671428D01*
X120423095Y-74576190D01*
X120375476Y-74528571D01*
X120280238Y-74480952D01*
X119518333Y-64892380D02*
X119185000Y-64416190D01*
X118946904Y-64892380D02*
X118946904Y-63892380D01*
X119327857Y-63892380D01*
X119423095Y-63940000D01*
X119470714Y-63987619D01*
X119518333Y-64082857D01*
X119518333Y-64225714D01*
X119470714Y-64320952D01*
X119423095Y-64368571D01*
X119327857Y-64416190D01*
X118946904Y-64416190D01*
X119851666Y-63892380D02*
X120518333Y-63892380D01*
X120089761Y-64892380D01*
X129345833Y-92452380D02*
X129012500Y-91976190D01*
X128774404Y-92452380D02*
X128774404Y-91452380D01*
X129155357Y-91452380D01*
X129250595Y-91500000D01*
X129298214Y-91547619D01*
X129345833Y-91642857D01*
X129345833Y-91785714D01*
X129298214Y-91880952D01*
X129250595Y-91928571D01*
X129155357Y-91976190D01*
X128774404Y-91976190D01*
X130250595Y-91452380D02*
X129774404Y-91452380D01*
X129726785Y-91928571D01*
X129774404Y-91880952D01*
X129869642Y-91833333D01*
X130107738Y-91833333D01*
X130202976Y-91880952D01*
X130250595Y-91928571D01*
X130298214Y-92023809D01*
X130298214Y-92261904D01*
X130250595Y-92357142D01*
X130202976Y-92404761D01*
X130107738Y-92452380D01*
X129869642Y-92452380D01*
X129774404Y-92404761D01*
X129726785Y-92357142D01*
X124930833Y-92197380D02*
X124597500Y-91721190D01*
X124359404Y-92197380D02*
X124359404Y-91197380D01*
X124740357Y-91197380D01*
X124835595Y-91245000D01*
X124883214Y-91292619D01*
X124930833Y-91387857D01*
X124930833Y-91530714D01*
X124883214Y-91625952D01*
X124835595Y-91673571D01*
X124740357Y-91721190D01*
X124359404Y-91721190D01*
X125787976Y-91530714D02*
X125787976Y-92197380D01*
X125549880Y-91149761D02*
X125311785Y-91864047D01*
X125930833Y-91864047D01*
X115867142Y-90292380D02*
X115533809Y-89816190D01*
X115295714Y-90292380D02*
X115295714Y-89292380D01*
X115676666Y-89292380D01*
X115771904Y-89340000D01*
X115819523Y-89387619D01*
X115867142Y-89482857D01*
X115867142Y-89625714D01*
X115819523Y-89720952D01*
X115771904Y-89768571D01*
X115676666Y-89816190D01*
X115295714Y-89816190D01*
X116819523Y-90292380D02*
X116248095Y-90292380D01*
X116533809Y-90292380D02*
X116533809Y-89292380D01*
X116438571Y-89435238D01*
X116343333Y-89530476D01*
X116248095Y-89578095D01*
X117676666Y-89625714D02*
X117676666Y-90292380D01*
X117438571Y-89244761D02*
X117200476Y-89959047D01*
X117819523Y-89959047D01*
X116414761Y-98642619D02*
X116319523Y-98595000D01*
X116224285Y-98499761D01*
X116081428Y-98356904D01*
X115986190Y-98309285D01*
X115890952Y-98309285D01*
X115938571Y-98547380D02*
X115843333Y-98499761D01*
X115748095Y-98404523D01*
X115700476Y-98214047D01*
X115700476Y-97880714D01*
X115748095Y-97690238D01*
X115843333Y-97595000D01*
X115938571Y-97547380D01*
X116129047Y-97547380D01*
X116224285Y-97595000D01*
X116319523Y-97690238D01*
X116367142Y-97880714D01*
X116367142Y-98214047D01*
X116319523Y-98404523D01*
X116224285Y-98499761D01*
X116129047Y-98547380D01*
X115938571Y-98547380D01*
X117224285Y-97880714D02*
X117224285Y-98547380D01*
X116986190Y-97499761D02*
X116748095Y-98214047D01*
X117367142Y-98214047D01*
X118407142Y-81402380D02*
X118073809Y-80926190D01*
X117835714Y-81402380D02*
X117835714Y-80402380D01*
X118216666Y-80402380D01*
X118311904Y-80450000D01*
X118359523Y-80497619D01*
X118407142Y-80592857D01*
X118407142Y-80735714D01*
X118359523Y-80830952D01*
X118311904Y-80878571D01*
X118216666Y-80926190D01*
X117835714Y-80926190D01*
X119359523Y-81402380D02*
X118788095Y-81402380D01*
X119073809Y-81402380D02*
X119073809Y-80402380D01*
X118978571Y-80545238D01*
X118883333Y-80640476D01*
X118788095Y-80688095D01*
X119692857Y-80402380D02*
X120311904Y-80402380D01*
X119978571Y-80783333D01*
X120121428Y-80783333D01*
X120216666Y-80830952D01*
X120264285Y-80878571D01*
X120311904Y-80973809D01*
X120311904Y-81211904D01*
X120264285Y-81307142D01*
X120216666Y-81354761D01*
X120121428Y-81402380D01*
X119835714Y-81402380D01*
X119740476Y-81354761D01*
X119692857Y-81307142D01*
X116414761Y-88482619D02*
X116319523Y-88435000D01*
X116224285Y-88339761D01*
X116081428Y-88196904D01*
X115986190Y-88149285D01*
X115890952Y-88149285D01*
X115938571Y-88387380D02*
X115843333Y-88339761D01*
X115748095Y-88244523D01*
X115700476Y-88054047D01*
X115700476Y-87720714D01*
X115748095Y-87530238D01*
X115843333Y-87435000D01*
X115938571Y-87387380D01*
X116129047Y-87387380D01*
X116224285Y-87435000D01*
X116319523Y-87530238D01*
X116367142Y-87720714D01*
X116367142Y-88054047D01*
X116319523Y-88244523D01*
X116224285Y-88339761D01*
X116129047Y-88387380D01*
X115938571Y-88387380D01*
X116700476Y-87387380D02*
X117319523Y-87387380D01*
X116986190Y-87768333D01*
X117129047Y-87768333D01*
X117224285Y-87815952D01*
X117271904Y-87863571D01*
X117319523Y-87958809D01*
X117319523Y-88196904D01*
X117271904Y-88292142D01*
X117224285Y-88339761D01*
X117129047Y-88387380D01*
X116843333Y-88387380D01*
X116748095Y-88339761D01*
X116700476Y-88292142D01*
X118407142Y-71242380D02*
X118073809Y-70766190D01*
X117835714Y-71242380D02*
X117835714Y-70242380D01*
X118216666Y-70242380D01*
X118311904Y-70290000D01*
X118359523Y-70337619D01*
X118407142Y-70432857D01*
X118407142Y-70575714D01*
X118359523Y-70670952D01*
X118311904Y-70718571D01*
X118216666Y-70766190D01*
X117835714Y-70766190D01*
X119359523Y-71242380D02*
X118788095Y-71242380D01*
X119073809Y-71242380D02*
X119073809Y-70242380D01*
X118978571Y-70385238D01*
X118883333Y-70480476D01*
X118788095Y-70528095D01*
X119740476Y-70337619D02*
X119788095Y-70290000D01*
X119883333Y-70242380D01*
X120121428Y-70242380D01*
X120216666Y-70290000D01*
X120264285Y-70337619D01*
X120311904Y-70432857D01*
X120311904Y-70528095D01*
X120264285Y-70670952D01*
X119692857Y-71242380D01*
X120311904Y-71242380D01*
X116414761Y-78322619D02*
X116319523Y-78275000D01*
X116224285Y-78179761D01*
X116081428Y-78036904D01*
X115986190Y-77989285D01*
X115890952Y-77989285D01*
X115938571Y-78227380D02*
X115843333Y-78179761D01*
X115748095Y-78084523D01*
X115700476Y-77894047D01*
X115700476Y-77560714D01*
X115748095Y-77370238D01*
X115843333Y-77275000D01*
X115938571Y-77227380D01*
X116129047Y-77227380D01*
X116224285Y-77275000D01*
X116319523Y-77370238D01*
X116367142Y-77560714D01*
X116367142Y-77894047D01*
X116319523Y-78084523D01*
X116224285Y-78179761D01*
X116129047Y-78227380D01*
X115938571Y-78227380D01*
X116748095Y-77322619D02*
X116795714Y-77275000D01*
X116890952Y-77227380D01*
X117129047Y-77227380D01*
X117224285Y-77275000D01*
X117271904Y-77322619D01*
X117319523Y-77417857D01*
X117319523Y-77513095D01*
X117271904Y-77655952D01*
X116700476Y-78227380D01*
X117319523Y-78227380D01*
X118407142Y-61082380D02*
X118073809Y-60606190D01*
X117835714Y-61082380D02*
X117835714Y-60082380D01*
X118216666Y-60082380D01*
X118311904Y-60130000D01*
X118359523Y-60177619D01*
X118407142Y-60272857D01*
X118407142Y-60415714D01*
X118359523Y-60510952D01*
X118311904Y-60558571D01*
X118216666Y-60606190D01*
X117835714Y-60606190D01*
X119359523Y-61082380D02*
X118788095Y-61082380D01*
X119073809Y-61082380D02*
X119073809Y-60082380D01*
X118978571Y-60225238D01*
X118883333Y-60320476D01*
X118788095Y-60368095D01*
X120311904Y-61082380D02*
X119740476Y-61082380D01*
X120026190Y-61082380D02*
X120026190Y-60082380D01*
X119930952Y-60225238D01*
X119835714Y-60320476D01*
X119740476Y-60368095D01*
X116414761Y-68162619D02*
X116319523Y-68115000D01*
X116224285Y-68019761D01*
X116081428Y-67876904D01*
X115986190Y-67829285D01*
X115890952Y-67829285D01*
X115938571Y-68067380D02*
X115843333Y-68019761D01*
X115748095Y-67924523D01*
X115700476Y-67734047D01*
X115700476Y-67400714D01*
X115748095Y-67210238D01*
X115843333Y-67115000D01*
X115938571Y-67067380D01*
X116129047Y-67067380D01*
X116224285Y-67115000D01*
X116319523Y-67210238D01*
X116367142Y-67400714D01*
X116367142Y-67734047D01*
X116319523Y-67924523D01*
X116224285Y-68019761D01*
X116129047Y-68067380D01*
X115938571Y-68067380D01*
X117319523Y-68067380D02*
X116748095Y-68067380D01*
X117033809Y-68067380D02*
X117033809Y-67067380D01*
X116938571Y-67210238D01*
X116843333Y-67305476D01*
X116748095Y-67353095D01*
X134017380Y-94411904D02*
X134826904Y-94411904D01*
X134922142Y-94364285D01*
X134969761Y-94316666D01*
X135017380Y-94221428D01*
X135017380Y-94030952D01*
X134969761Y-93935714D01*
X134922142Y-93888095D01*
X134826904Y-93840476D01*
X134017380Y-93840476D01*
X134112619Y-93411904D02*
X134065000Y-93364285D01*
X134017380Y-93269047D01*
X134017380Y-93030952D01*
X134065000Y-92935714D01*
X134112619Y-92888095D01*
X134207857Y-92840476D01*
X134303095Y-92840476D01*
X134445952Y-92888095D01*
X135017380Y-93459523D01*
X135017380Y-92840476D01*
X128448095Y-80547380D02*
X128448095Y-81356904D01*
X128495714Y-81452142D01*
X128543333Y-81499761D01*
X128638571Y-81547380D01*
X128829047Y-81547380D01*
X128924285Y-81499761D01*
X128971904Y-81452142D01*
X129019523Y-81356904D01*
X129019523Y-80547380D01*
X130019523Y-81547380D02*
X129448095Y-81547380D01*
X129733809Y-81547380D02*
X129733809Y-80547380D01*
X129638571Y-80690238D01*
X129543333Y-80785476D01*
X129448095Y-80833095D01*
X135393333Y-81022380D02*
X135060000Y-80546190D01*
X134821904Y-81022380D02*
X134821904Y-80022380D01*
X135202857Y-80022380D01*
X135298095Y-80070000D01*
X135345714Y-80117619D01*
X135393333Y-80212857D01*
X135393333Y-80355714D01*
X135345714Y-80450952D01*
X135298095Y-80498571D01*
X135202857Y-80546190D01*
X134821904Y-80546190D01*
X136250476Y-80022380D02*
X136060000Y-80022380D01*
X135964761Y-80070000D01*
X135917142Y-80117619D01*
X135821904Y-80260476D01*
X135774285Y-80450952D01*
X135774285Y-80831904D01*
X135821904Y-80927142D01*
X135869523Y-80974761D01*
X135964761Y-81022380D01*
X136155238Y-81022380D01*
X136250476Y-80974761D01*
X136298095Y-80927142D01*
X136345714Y-80831904D01*
X136345714Y-80593809D01*
X136298095Y-80498571D01*
X136250476Y-80450952D01*
X136155238Y-80403333D01*
X135964761Y-80403333D01*
X135869523Y-80450952D01*
X135821904Y-80498571D01*
X135774285Y-80593809D01*
X131202333Y-74798380D02*
X130869000Y-74322190D01*
X130630904Y-74798380D02*
X130630904Y-73798380D01*
X131011857Y-73798380D01*
X131107095Y-73846000D01*
X131154714Y-73893619D01*
X131202333Y-73988857D01*
X131202333Y-74131714D01*
X131154714Y-74226952D01*
X131107095Y-74274571D01*
X131011857Y-74322190D01*
X130630904Y-74322190D01*
X132154714Y-74798380D02*
X131583285Y-74798380D01*
X131869000Y-74798380D02*
X131869000Y-73798380D01*
X131773761Y-73941238D01*
X131678523Y-74036476D01*
X131583285Y-74084095D01*
X137427380Y-83823333D02*
X138141666Y-83823333D01*
X138284523Y-83870952D01*
X138379761Y-83966190D01*
X138427380Y-84109047D01*
X138427380Y-84204285D01*
X138427380Y-82823333D02*
X138427380Y-83394761D01*
X138427380Y-83109047D02*
X137427380Y-83109047D01*
X137570238Y-83204285D01*
X137665476Y-83299523D01*
X137713095Y-83394761D01*
X132897380Y-98428333D02*
X133611666Y-98428333D01*
X133754523Y-98475952D01*
X133849761Y-98571190D01*
X133897380Y-98714047D01*
X133897380Y-98809285D01*
X132992619Y-97999761D02*
X132945000Y-97952142D01*
X132897380Y-97856904D01*
X132897380Y-97618809D01*
X132945000Y-97523571D01*
X132992619Y-97475952D01*
X133087857Y-97428333D01*
X133183095Y-97428333D01*
X133325952Y-97475952D01*
X133897380Y-98047380D01*
X133897380Y-97428333D01*
X137298333Y-88927142D02*
X137250714Y-88974761D01*
X137107857Y-89022380D01*
X137012619Y-89022380D01*
X136869761Y-88974761D01*
X136774523Y-88879523D01*
X136726904Y-88784285D01*
X136679285Y-88593809D01*
X136679285Y-88450952D01*
X136726904Y-88260476D01*
X136774523Y-88165238D01*
X136869761Y-88070000D01*
X137012619Y-88022380D01*
X137107857Y-88022380D01*
X137250714Y-88070000D01*
X137298333Y-88117619D01*
X138155476Y-88355714D02*
X138155476Y-89022380D01*
X137917380Y-87974761D02*
X137679285Y-88689047D01*
X138298333Y-88689047D01*
X122582142Y-84291666D02*
X122629761Y-84339285D01*
X122677380Y-84482142D01*
X122677380Y-84577380D01*
X122629761Y-84720238D01*
X122534523Y-84815476D01*
X122439285Y-84863095D01*
X122248809Y-84910714D01*
X122105952Y-84910714D01*
X121915476Y-84863095D01*
X121820238Y-84815476D01*
X121725000Y-84720238D01*
X121677380Y-84577380D01*
X121677380Y-84482142D01*
X121725000Y-84339285D01*
X121772619Y-84291666D01*
X121677380Y-83958333D02*
X121677380Y-83339285D01*
X122058333Y-83672619D01*
X122058333Y-83529761D01*
X122105952Y-83434523D01*
X122153571Y-83386904D01*
X122248809Y-83339285D01*
X122486904Y-83339285D01*
X122582142Y-83386904D01*
X122629761Y-83434523D01*
X122677380Y-83529761D01*
X122677380Y-83815476D01*
X122629761Y-83910714D01*
X122582142Y-83958333D01*
X137298333Y-99722142D02*
X137250714Y-99769761D01*
X137107857Y-99817380D01*
X137012619Y-99817380D01*
X136869761Y-99769761D01*
X136774523Y-99674523D01*
X136726904Y-99579285D01*
X136679285Y-99388809D01*
X136679285Y-99245952D01*
X136726904Y-99055476D01*
X136774523Y-98960238D01*
X136869761Y-98865000D01*
X137012619Y-98817380D01*
X137107857Y-98817380D01*
X137250714Y-98865000D01*
X137298333Y-98912619D01*
X137679285Y-98912619D02*
X137726904Y-98865000D01*
X137822142Y-98817380D01*
X138060238Y-98817380D01*
X138155476Y-98865000D01*
X138203095Y-98912619D01*
X138250714Y-99007857D01*
X138250714Y-99103095D01*
X138203095Y-99245952D01*
X137631666Y-99817380D01*
X138250714Y-99817380D01*
X137314142Y-86704666D02*
X137361761Y-86752285D01*
X137409380Y-86895142D01*
X137409380Y-86990380D01*
X137361761Y-87133238D01*
X137266523Y-87228476D01*
X137171285Y-87276095D01*
X136980809Y-87323714D01*
X136837952Y-87323714D01*
X136647476Y-87276095D01*
X136552238Y-87228476D01*
X136457000Y-87133238D01*
X136409380Y-86990380D01*
X136409380Y-86895142D01*
X136457000Y-86752285D01*
X136504619Y-86704666D01*
X137409380Y-85752285D02*
X137409380Y-86323714D01*
X137409380Y-86038000D02*
X136409380Y-86038000D01*
X136552238Y-86133238D01*
X136647476Y-86228476D01*
X136695095Y-86323714D01*
M02*
