G04 #@! TF.GenerationSoftware,KiCad,Pcbnew,(5.1.5)-3*
G04 #@! TF.CreationDate,2020-01-15T00:30:51-05:00*
G04 #@! TF.ProjectId,STM32 Klipper Expander,53544d33-3220-44b6-9c69-707065722045,rev?*
G04 #@! TF.SameCoordinates,Original*
G04 #@! TF.FileFunction,Paste,Top*
G04 #@! TF.FilePolarity,Positive*
%FSLAX46Y46*%
G04 Gerber Fmt 4.6, Leading zero omitted, Abs format (unit mm)*
G04 Created by KiCad (PCBNEW (5.1.5)-3) date 2020-01-15 00:30:51*
%MOMM*%
%LPD*%
G04 APERTURE LIST*
%ADD10C,0.100000*%
%ADD11R,0.600000X1.300000*%
%ADD12R,0.650000X1.060000*%
%ADD13R,1.450000X0.450000*%
%ADD14R,1.900000X1.000000*%
%ADD15R,1.900000X1.800000*%
%ADD16R,1.300000X1.650000*%
%ADD17R,1.550000X1.425000*%
%ADD18R,1.380000X0.450000*%
G04 APERTURE END LIST*
D10*
G36*
X120165142Y-80796174D02*
G01*
X120188803Y-80799684D01*
X120212007Y-80805496D01*
X120234529Y-80813554D01*
X120256153Y-80823782D01*
X120276670Y-80836079D01*
X120295883Y-80850329D01*
X120313607Y-80866393D01*
X120329671Y-80884117D01*
X120343921Y-80903330D01*
X120356218Y-80923847D01*
X120366446Y-80945471D01*
X120374504Y-80967993D01*
X120380316Y-80991197D01*
X120383826Y-81014858D01*
X120385000Y-81038750D01*
X120385000Y-81526250D01*
X120383826Y-81550142D01*
X120380316Y-81573803D01*
X120374504Y-81597007D01*
X120366446Y-81619529D01*
X120356218Y-81641153D01*
X120343921Y-81661670D01*
X120329671Y-81680883D01*
X120313607Y-81698607D01*
X120295883Y-81714671D01*
X120276670Y-81728921D01*
X120256153Y-81741218D01*
X120234529Y-81751446D01*
X120212007Y-81759504D01*
X120188803Y-81765316D01*
X120165142Y-81768826D01*
X120141250Y-81770000D01*
X119228750Y-81770000D01*
X119204858Y-81768826D01*
X119181197Y-81765316D01*
X119157993Y-81759504D01*
X119135471Y-81751446D01*
X119113847Y-81741218D01*
X119093330Y-81728921D01*
X119074117Y-81714671D01*
X119056393Y-81698607D01*
X119040329Y-81680883D01*
X119026079Y-81661670D01*
X119013782Y-81641153D01*
X119003554Y-81619529D01*
X118995496Y-81597007D01*
X118989684Y-81573803D01*
X118986174Y-81550142D01*
X118985000Y-81526250D01*
X118985000Y-81038750D01*
X118986174Y-81014858D01*
X118989684Y-80991197D01*
X118995496Y-80967993D01*
X119003554Y-80945471D01*
X119013782Y-80923847D01*
X119026079Y-80903330D01*
X119040329Y-80884117D01*
X119056393Y-80866393D01*
X119074117Y-80850329D01*
X119093330Y-80836079D01*
X119113847Y-80823782D01*
X119135471Y-80813554D01*
X119157993Y-80805496D01*
X119181197Y-80799684D01*
X119204858Y-80796174D01*
X119228750Y-80795000D01*
X120141250Y-80795000D01*
X120165142Y-80796174D01*
G37*
G36*
X120165142Y-82671174D02*
G01*
X120188803Y-82674684D01*
X120212007Y-82680496D01*
X120234529Y-82688554D01*
X120256153Y-82698782D01*
X120276670Y-82711079D01*
X120295883Y-82725329D01*
X120313607Y-82741393D01*
X120329671Y-82759117D01*
X120343921Y-82778330D01*
X120356218Y-82798847D01*
X120366446Y-82820471D01*
X120374504Y-82842993D01*
X120380316Y-82866197D01*
X120383826Y-82889858D01*
X120385000Y-82913750D01*
X120385000Y-83401250D01*
X120383826Y-83425142D01*
X120380316Y-83448803D01*
X120374504Y-83472007D01*
X120366446Y-83494529D01*
X120356218Y-83516153D01*
X120343921Y-83536670D01*
X120329671Y-83555883D01*
X120313607Y-83573607D01*
X120295883Y-83589671D01*
X120276670Y-83603921D01*
X120256153Y-83616218D01*
X120234529Y-83626446D01*
X120212007Y-83634504D01*
X120188803Y-83640316D01*
X120165142Y-83643826D01*
X120141250Y-83645000D01*
X119228750Y-83645000D01*
X119204858Y-83643826D01*
X119181197Y-83640316D01*
X119157993Y-83634504D01*
X119135471Y-83626446D01*
X119113847Y-83616218D01*
X119093330Y-83603921D01*
X119074117Y-83589671D01*
X119056393Y-83573607D01*
X119040329Y-83555883D01*
X119026079Y-83536670D01*
X119013782Y-83516153D01*
X119003554Y-83494529D01*
X118995496Y-83472007D01*
X118989684Y-83448803D01*
X118986174Y-83425142D01*
X118985000Y-83401250D01*
X118985000Y-82913750D01*
X118986174Y-82889858D01*
X118989684Y-82866197D01*
X118995496Y-82842993D01*
X119003554Y-82820471D01*
X119013782Y-82798847D01*
X119026079Y-82778330D01*
X119040329Y-82759117D01*
X119056393Y-82741393D01*
X119074117Y-82725329D01*
X119093330Y-82711079D01*
X119113847Y-82698782D01*
X119135471Y-82688554D01*
X119157993Y-82680496D01*
X119181197Y-82674684D01*
X119204858Y-82671174D01*
X119228750Y-82670000D01*
X120141250Y-82670000D01*
X120165142Y-82671174D01*
G37*
G36*
X120165142Y-90956174D02*
G01*
X120188803Y-90959684D01*
X120212007Y-90965496D01*
X120234529Y-90973554D01*
X120256153Y-90983782D01*
X120276670Y-90996079D01*
X120295883Y-91010329D01*
X120313607Y-91026393D01*
X120329671Y-91044117D01*
X120343921Y-91063330D01*
X120356218Y-91083847D01*
X120366446Y-91105471D01*
X120374504Y-91127993D01*
X120380316Y-91151197D01*
X120383826Y-91174858D01*
X120385000Y-91198750D01*
X120385000Y-91686250D01*
X120383826Y-91710142D01*
X120380316Y-91733803D01*
X120374504Y-91757007D01*
X120366446Y-91779529D01*
X120356218Y-91801153D01*
X120343921Y-91821670D01*
X120329671Y-91840883D01*
X120313607Y-91858607D01*
X120295883Y-91874671D01*
X120276670Y-91888921D01*
X120256153Y-91901218D01*
X120234529Y-91911446D01*
X120212007Y-91919504D01*
X120188803Y-91925316D01*
X120165142Y-91928826D01*
X120141250Y-91930000D01*
X119228750Y-91930000D01*
X119204858Y-91928826D01*
X119181197Y-91925316D01*
X119157993Y-91919504D01*
X119135471Y-91911446D01*
X119113847Y-91901218D01*
X119093330Y-91888921D01*
X119074117Y-91874671D01*
X119056393Y-91858607D01*
X119040329Y-91840883D01*
X119026079Y-91821670D01*
X119013782Y-91801153D01*
X119003554Y-91779529D01*
X118995496Y-91757007D01*
X118989684Y-91733803D01*
X118986174Y-91710142D01*
X118985000Y-91686250D01*
X118985000Y-91198750D01*
X118986174Y-91174858D01*
X118989684Y-91151197D01*
X118995496Y-91127993D01*
X119003554Y-91105471D01*
X119013782Y-91083847D01*
X119026079Y-91063330D01*
X119040329Y-91044117D01*
X119056393Y-91026393D01*
X119074117Y-91010329D01*
X119093330Y-90996079D01*
X119113847Y-90983782D01*
X119135471Y-90973554D01*
X119157993Y-90965496D01*
X119181197Y-90959684D01*
X119204858Y-90956174D01*
X119228750Y-90955000D01*
X120141250Y-90955000D01*
X120165142Y-90956174D01*
G37*
G36*
X120165142Y-92831174D02*
G01*
X120188803Y-92834684D01*
X120212007Y-92840496D01*
X120234529Y-92848554D01*
X120256153Y-92858782D01*
X120276670Y-92871079D01*
X120295883Y-92885329D01*
X120313607Y-92901393D01*
X120329671Y-92919117D01*
X120343921Y-92938330D01*
X120356218Y-92958847D01*
X120366446Y-92980471D01*
X120374504Y-93002993D01*
X120380316Y-93026197D01*
X120383826Y-93049858D01*
X120385000Y-93073750D01*
X120385000Y-93561250D01*
X120383826Y-93585142D01*
X120380316Y-93608803D01*
X120374504Y-93632007D01*
X120366446Y-93654529D01*
X120356218Y-93676153D01*
X120343921Y-93696670D01*
X120329671Y-93715883D01*
X120313607Y-93733607D01*
X120295883Y-93749671D01*
X120276670Y-93763921D01*
X120256153Y-93776218D01*
X120234529Y-93786446D01*
X120212007Y-93794504D01*
X120188803Y-93800316D01*
X120165142Y-93803826D01*
X120141250Y-93805000D01*
X119228750Y-93805000D01*
X119204858Y-93803826D01*
X119181197Y-93800316D01*
X119157993Y-93794504D01*
X119135471Y-93786446D01*
X119113847Y-93776218D01*
X119093330Y-93763921D01*
X119074117Y-93749671D01*
X119056393Y-93733607D01*
X119040329Y-93715883D01*
X119026079Y-93696670D01*
X119013782Y-93676153D01*
X119003554Y-93654529D01*
X118995496Y-93632007D01*
X118989684Y-93608803D01*
X118986174Y-93585142D01*
X118985000Y-93561250D01*
X118985000Y-93073750D01*
X118986174Y-93049858D01*
X118989684Y-93026197D01*
X118995496Y-93002993D01*
X119003554Y-92980471D01*
X119013782Y-92958847D01*
X119026079Y-92938330D01*
X119040329Y-92919117D01*
X119056393Y-92901393D01*
X119074117Y-92885329D01*
X119093330Y-92871079D01*
X119113847Y-92858782D01*
X119135471Y-92848554D01*
X119157993Y-92840496D01*
X119181197Y-92834684D01*
X119204858Y-92831174D01*
X119228750Y-92830000D01*
X120141250Y-92830000D01*
X120165142Y-92831174D01*
G37*
G36*
X120165142Y-70636174D02*
G01*
X120188803Y-70639684D01*
X120212007Y-70645496D01*
X120234529Y-70653554D01*
X120256153Y-70663782D01*
X120276670Y-70676079D01*
X120295883Y-70690329D01*
X120313607Y-70706393D01*
X120329671Y-70724117D01*
X120343921Y-70743330D01*
X120356218Y-70763847D01*
X120366446Y-70785471D01*
X120374504Y-70807993D01*
X120380316Y-70831197D01*
X120383826Y-70854858D01*
X120385000Y-70878750D01*
X120385000Y-71366250D01*
X120383826Y-71390142D01*
X120380316Y-71413803D01*
X120374504Y-71437007D01*
X120366446Y-71459529D01*
X120356218Y-71481153D01*
X120343921Y-71501670D01*
X120329671Y-71520883D01*
X120313607Y-71538607D01*
X120295883Y-71554671D01*
X120276670Y-71568921D01*
X120256153Y-71581218D01*
X120234529Y-71591446D01*
X120212007Y-71599504D01*
X120188803Y-71605316D01*
X120165142Y-71608826D01*
X120141250Y-71610000D01*
X119228750Y-71610000D01*
X119204858Y-71608826D01*
X119181197Y-71605316D01*
X119157993Y-71599504D01*
X119135471Y-71591446D01*
X119113847Y-71581218D01*
X119093330Y-71568921D01*
X119074117Y-71554671D01*
X119056393Y-71538607D01*
X119040329Y-71520883D01*
X119026079Y-71501670D01*
X119013782Y-71481153D01*
X119003554Y-71459529D01*
X118995496Y-71437007D01*
X118989684Y-71413803D01*
X118986174Y-71390142D01*
X118985000Y-71366250D01*
X118985000Y-70878750D01*
X118986174Y-70854858D01*
X118989684Y-70831197D01*
X118995496Y-70807993D01*
X119003554Y-70785471D01*
X119013782Y-70763847D01*
X119026079Y-70743330D01*
X119040329Y-70724117D01*
X119056393Y-70706393D01*
X119074117Y-70690329D01*
X119093330Y-70676079D01*
X119113847Y-70663782D01*
X119135471Y-70653554D01*
X119157993Y-70645496D01*
X119181197Y-70639684D01*
X119204858Y-70636174D01*
X119228750Y-70635000D01*
X120141250Y-70635000D01*
X120165142Y-70636174D01*
G37*
G36*
X120165142Y-72511174D02*
G01*
X120188803Y-72514684D01*
X120212007Y-72520496D01*
X120234529Y-72528554D01*
X120256153Y-72538782D01*
X120276670Y-72551079D01*
X120295883Y-72565329D01*
X120313607Y-72581393D01*
X120329671Y-72599117D01*
X120343921Y-72618330D01*
X120356218Y-72638847D01*
X120366446Y-72660471D01*
X120374504Y-72682993D01*
X120380316Y-72706197D01*
X120383826Y-72729858D01*
X120385000Y-72753750D01*
X120385000Y-73241250D01*
X120383826Y-73265142D01*
X120380316Y-73288803D01*
X120374504Y-73312007D01*
X120366446Y-73334529D01*
X120356218Y-73356153D01*
X120343921Y-73376670D01*
X120329671Y-73395883D01*
X120313607Y-73413607D01*
X120295883Y-73429671D01*
X120276670Y-73443921D01*
X120256153Y-73456218D01*
X120234529Y-73466446D01*
X120212007Y-73474504D01*
X120188803Y-73480316D01*
X120165142Y-73483826D01*
X120141250Y-73485000D01*
X119228750Y-73485000D01*
X119204858Y-73483826D01*
X119181197Y-73480316D01*
X119157993Y-73474504D01*
X119135471Y-73466446D01*
X119113847Y-73456218D01*
X119093330Y-73443921D01*
X119074117Y-73429671D01*
X119056393Y-73413607D01*
X119040329Y-73395883D01*
X119026079Y-73376670D01*
X119013782Y-73356153D01*
X119003554Y-73334529D01*
X118995496Y-73312007D01*
X118989684Y-73288803D01*
X118986174Y-73265142D01*
X118985000Y-73241250D01*
X118985000Y-72753750D01*
X118986174Y-72729858D01*
X118989684Y-72706197D01*
X118995496Y-72682993D01*
X119003554Y-72660471D01*
X119013782Y-72638847D01*
X119026079Y-72618330D01*
X119040329Y-72599117D01*
X119056393Y-72581393D01*
X119074117Y-72565329D01*
X119093330Y-72551079D01*
X119113847Y-72538782D01*
X119135471Y-72528554D01*
X119157993Y-72520496D01*
X119181197Y-72514684D01*
X119204858Y-72511174D01*
X119228750Y-72510000D01*
X120141250Y-72510000D01*
X120165142Y-72511174D01*
G37*
G36*
X120165142Y-62351174D02*
G01*
X120188803Y-62354684D01*
X120212007Y-62360496D01*
X120234529Y-62368554D01*
X120256153Y-62378782D01*
X120276670Y-62391079D01*
X120295883Y-62405329D01*
X120313607Y-62421393D01*
X120329671Y-62439117D01*
X120343921Y-62458330D01*
X120356218Y-62478847D01*
X120366446Y-62500471D01*
X120374504Y-62522993D01*
X120380316Y-62546197D01*
X120383826Y-62569858D01*
X120385000Y-62593750D01*
X120385000Y-63081250D01*
X120383826Y-63105142D01*
X120380316Y-63128803D01*
X120374504Y-63152007D01*
X120366446Y-63174529D01*
X120356218Y-63196153D01*
X120343921Y-63216670D01*
X120329671Y-63235883D01*
X120313607Y-63253607D01*
X120295883Y-63269671D01*
X120276670Y-63283921D01*
X120256153Y-63296218D01*
X120234529Y-63306446D01*
X120212007Y-63314504D01*
X120188803Y-63320316D01*
X120165142Y-63323826D01*
X120141250Y-63325000D01*
X119228750Y-63325000D01*
X119204858Y-63323826D01*
X119181197Y-63320316D01*
X119157993Y-63314504D01*
X119135471Y-63306446D01*
X119113847Y-63296218D01*
X119093330Y-63283921D01*
X119074117Y-63269671D01*
X119056393Y-63253607D01*
X119040329Y-63235883D01*
X119026079Y-63216670D01*
X119013782Y-63196153D01*
X119003554Y-63174529D01*
X118995496Y-63152007D01*
X118989684Y-63128803D01*
X118986174Y-63105142D01*
X118985000Y-63081250D01*
X118985000Y-62593750D01*
X118986174Y-62569858D01*
X118989684Y-62546197D01*
X118995496Y-62522993D01*
X119003554Y-62500471D01*
X119013782Y-62478847D01*
X119026079Y-62458330D01*
X119040329Y-62439117D01*
X119056393Y-62421393D01*
X119074117Y-62405329D01*
X119093330Y-62391079D01*
X119113847Y-62378782D01*
X119135471Y-62368554D01*
X119157993Y-62360496D01*
X119181197Y-62354684D01*
X119204858Y-62351174D01*
X119228750Y-62350000D01*
X120141250Y-62350000D01*
X120165142Y-62351174D01*
G37*
G36*
X120165142Y-60476174D02*
G01*
X120188803Y-60479684D01*
X120212007Y-60485496D01*
X120234529Y-60493554D01*
X120256153Y-60503782D01*
X120276670Y-60516079D01*
X120295883Y-60530329D01*
X120313607Y-60546393D01*
X120329671Y-60564117D01*
X120343921Y-60583330D01*
X120356218Y-60603847D01*
X120366446Y-60625471D01*
X120374504Y-60647993D01*
X120380316Y-60671197D01*
X120383826Y-60694858D01*
X120385000Y-60718750D01*
X120385000Y-61206250D01*
X120383826Y-61230142D01*
X120380316Y-61253803D01*
X120374504Y-61277007D01*
X120366446Y-61299529D01*
X120356218Y-61321153D01*
X120343921Y-61341670D01*
X120329671Y-61360883D01*
X120313607Y-61378607D01*
X120295883Y-61394671D01*
X120276670Y-61408921D01*
X120256153Y-61421218D01*
X120234529Y-61431446D01*
X120212007Y-61439504D01*
X120188803Y-61445316D01*
X120165142Y-61448826D01*
X120141250Y-61450000D01*
X119228750Y-61450000D01*
X119204858Y-61448826D01*
X119181197Y-61445316D01*
X119157993Y-61439504D01*
X119135471Y-61431446D01*
X119113847Y-61421218D01*
X119093330Y-61408921D01*
X119074117Y-61394671D01*
X119056393Y-61378607D01*
X119040329Y-61360883D01*
X119026079Y-61341670D01*
X119013782Y-61321153D01*
X119003554Y-61299529D01*
X118995496Y-61277007D01*
X118989684Y-61253803D01*
X118986174Y-61230142D01*
X118985000Y-61206250D01*
X118985000Y-60718750D01*
X118986174Y-60694858D01*
X118989684Y-60671197D01*
X118995496Y-60647993D01*
X119003554Y-60625471D01*
X119013782Y-60603847D01*
X119026079Y-60583330D01*
X119040329Y-60564117D01*
X119056393Y-60546393D01*
X119074117Y-60530329D01*
X119093330Y-60516079D01*
X119113847Y-60503782D01*
X119135471Y-60493554D01*
X119157993Y-60485496D01*
X119181197Y-60479684D01*
X119204858Y-60476174D01*
X119228750Y-60475000D01*
X120141250Y-60475000D01*
X120165142Y-60476174D01*
G37*
G36*
X130717642Y-92951174D02*
G01*
X130741303Y-92954684D01*
X130764507Y-92960496D01*
X130787029Y-92968554D01*
X130808653Y-92978782D01*
X130829170Y-92991079D01*
X130848383Y-93005329D01*
X130866107Y-93021393D01*
X130882171Y-93039117D01*
X130896421Y-93058330D01*
X130908718Y-93078847D01*
X130918946Y-93100471D01*
X130927004Y-93122993D01*
X130932816Y-93146197D01*
X130936326Y-93169858D01*
X130937500Y-93193750D01*
X130937500Y-94106250D01*
X130936326Y-94130142D01*
X130932816Y-94153803D01*
X130927004Y-94177007D01*
X130918946Y-94199529D01*
X130908718Y-94221153D01*
X130896421Y-94241670D01*
X130882171Y-94260883D01*
X130866107Y-94278607D01*
X130848383Y-94294671D01*
X130829170Y-94308921D01*
X130808653Y-94321218D01*
X130787029Y-94331446D01*
X130764507Y-94339504D01*
X130741303Y-94345316D01*
X130717642Y-94348826D01*
X130693750Y-94350000D01*
X130206250Y-94350000D01*
X130182358Y-94348826D01*
X130158697Y-94345316D01*
X130135493Y-94339504D01*
X130112971Y-94331446D01*
X130091347Y-94321218D01*
X130070830Y-94308921D01*
X130051617Y-94294671D01*
X130033893Y-94278607D01*
X130017829Y-94260883D01*
X130003579Y-94241670D01*
X129991282Y-94221153D01*
X129981054Y-94199529D01*
X129972996Y-94177007D01*
X129967184Y-94153803D01*
X129963674Y-94130142D01*
X129962500Y-94106250D01*
X129962500Y-93193750D01*
X129963674Y-93169858D01*
X129967184Y-93146197D01*
X129972996Y-93122993D01*
X129981054Y-93100471D01*
X129991282Y-93078847D01*
X130003579Y-93058330D01*
X130017829Y-93039117D01*
X130033893Y-93021393D01*
X130051617Y-93005329D01*
X130070830Y-92991079D01*
X130091347Y-92978782D01*
X130112971Y-92968554D01*
X130135493Y-92960496D01*
X130158697Y-92954684D01*
X130182358Y-92951174D01*
X130206250Y-92950000D01*
X130693750Y-92950000D01*
X130717642Y-92951174D01*
G37*
G36*
X128842642Y-92951174D02*
G01*
X128866303Y-92954684D01*
X128889507Y-92960496D01*
X128912029Y-92968554D01*
X128933653Y-92978782D01*
X128954170Y-92991079D01*
X128973383Y-93005329D01*
X128991107Y-93021393D01*
X129007171Y-93039117D01*
X129021421Y-93058330D01*
X129033718Y-93078847D01*
X129043946Y-93100471D01*
X129052004Y-93122993D01*
X129057816Y-93146197D01*
X129061326Y-93169858D01*
X129062500Y-93193750D01*
X129062500Y-94106250D01*
X129061326Y-94130142D01*
X129057816Y-94153803D01*
X129052004Y-94177007D01*
X129043946Y-94199529D01*
X129033718Y-94221153D01*
X129021421Y-94241670D01*
X129007171Y-94260883D01*
X128991107Y-94278607D01*
X128973383Y-94294671D01*
X128954170Y-94308921D01*
X128933653Y-94321218D01*
X128912029Y-94331446D01*
X128889507Y-94339504D01*
X128866303Y-94345316D01*
X128842642Y-94348826D01*
X128818750Y-94350000D01*
X128331250Y-94350000D01*
X128307358Y-94348826D01*
X128283697Y-94345316D01*
X128260493Y-94339504D01*
X128237971Y-94331446D01*
X128216347Y-94321218D01*
X128195830Y-94308921D01*
X128176617Y-94294671D01*
X128158893Y-94278607D01*
X128142829Y-94260883D01*
X128128579Y-94241670D01*
X128116282Y-94221153D01*
X128106054Y-94199529D01*
X128097996Y-94177007D01*
X128092184Y-94153803D01*
X128088674Y-94130142D01*
X128087500Y-94106250D01*
X128087500Y-93193750D01*
X128088674Y-93169858D01*
X128092184Y-93146197D01*
X128097996Y-93122993D01*
X128106054Y-93100471D01*
X128116282Y-93078847D01*
X128128579Y-93058330D01*
X128142829Y-93039117D01*
X128158893Y-93021393D01*
X128176617Y-93005329D01*
X128195830Y-92991079D01*
X128216347Y-92978782D01*
X128237971Y-92968554D01*
X128260493Y-92960496D01*
X128283697Y-92954684D01*
X128307358Y-92951174D01*
X128331250Y-92950000D01*
X128818750Y-92950000D01*
X128842642Y-92951174D01*
G37*
G36*
X124427642Y-92951174D02*
G01*
X124451303Y-92954684D01*
X124474507Y-92960496D01*
X124497029Y-92968554D01*
X124518653Y-92978782D01*
X124539170Y-92991079D01*
X124558383Y-93005329D01*
X124576107Y-93021393D01*
X124592171Y-93039117D01*
X124606421Y-93058330D01*
X124618718Y-93078847D01*
X124628946Y-93100471D01*
X124637004Y-93122993D01*
X124642816Y-93146197D01*
X124646326Y-93169858D01*
X124647500Y-93193750D01*
X124647500Y-94106250D01*
X124646326Y-94130142D01*
X124642816Y-94153803D01*
X124637004Y-94177007D01*
X124628946Y-94199529D01*
X124618718Y-94221153D01*
X124606421Y-94241670D01*
X124592171Y-94260883D01*
X124576107Y-94278607D01*
X124558383Y-94294671D01*
X124539170Y-94308921D01*
X124518653Y-94321218D01*
X124497029Y-94331446D01*
X124474507Y-94339504D01*
X124451303Y-94345316D01*
X124427642Y-94348826D01*
X124403750Y-94350000D01*
X123916250Y-94350000D01*
X123892358Y-94348826D01*
X123868697Y-94345316D01*
X123845493Y-94339504D01*
X123822971Y-94331446D01*
X123801347Y-94321218D01*
X123780830Y-94308921D01*
X123761617Y-94294671D01*
X123743893Y-94278607D01*
X123727829Y-94260883D01*
X123713579Y-94241670D01*
X123701282Y-94221153D01*
X123691054Y-94199529D01*
X123682996Y-94177007D01*
X123677184Y-94153803D01*
X123673674Y-94130142D01*
X123672500Y-94106250D01*
X123672500Y-93193750D01*
X123673674Y-93169858D01*
X123677184Y-93146197D01*
X123682996Y-93122993D01*
X123691054Y-93100471D01*
X123701282Y-93078847D01*
X123713579Y-93058330D01*
X123727829Y-93039117D01*
X123743893Y-93021393D01*
X123761617Y-93005329D01*
X123780830Y-92991079D01*
X123801347Y-92978782D01*
X123822971Y-92968554D01*
X123845493Y-92960496D01*
X123868697Y-92954684D01*
X123892358Y-92951174D01*
X123916250Y-92950000D01*
X124403750Y-92950000D01*
X124427642Y-92951174D01*
G37*
G36*
X126302642Y-92951174D02*
G01*
X126326303Y-92954684D01*
X126349507Y-92960496D01*
X126372029Y-92968554D01*
X126393653Y-92978782D01*
X126414170Y-92991079D01*
X126433383Y-93005329D01*
X126451107Y-93021393D01*
X126467171Y-93039117D01*
X126481421Y-93058330D01*
X126493718Y-93078847D01*
X126503946Y-93100471D01*
X126512004Y-93122993D01*
X126517816Y-93146197D01*
X126521326Y-93169858D01*
X126522500Y-93193750D01*
X126522500Y-94106250D01*
X126521326Y-94130142D01*
X126517816Y-94153803D01*
X126512004Y-94177007D01*
X126503946Y-94199529D01*
X126493718Y-94221153D01*
X126481421Y-94241670D01*
X126467171Y-94260883D01*
X126451107Y-94278607D01*
X126433383Y-94294671D01*
X126414170Y-94308921D01*
X126393653Y-94321218D01*
X126372029Y-94331446D01*
X126349507Y-94339504D01*
X126326303Y-94345316D01*
X126302642Y-94348826D01*
X126278750Y-94350000D01*
X125791250Y-94350000D01*
X125767358Y-94348826D01*
X125743697Y-94345316D01*
X125720493Y-94339504D01*
X125697971Y-94331446D01*
X125676347Y-94321218D01*
X125655830Y-94308921D01*
X125636617Y-94294671D01*
X125618893Y-94278607D01*
X125602829Y-94260883D01*
X125588579Y-94241670D01*
X125576282Y-94221153D01*
X125566054Y-94199529D01*
X125557996Y-94177007D01*
X125552184Y-94153803D01*
X125548674Y-94130142D01*
X125547500Y-94106250D01*
X125547500Y-93193750D01*
X125548674Y-93169858D01*
X125552184Y-93146197D01*
X125557996Y-93122993D01*
X125566054Y-93100471D01*
X125576282Y-93078847D01*
X125588579Y-93058330D01*
X125602829Y-93039117D01*
X125618893Y-93021393D01*
X125636617Y-93005329D01*
X125655830Y-92991079D01*
X125676347Y-92978782D01*
X125697971Y-92968554D01*
X125720493Y-92960496D01*
X125743697Y-92954684D01*
X125767358Y-92951174D01*
X125791250Y-92950000D01*
X126278750Y-92950000D01*
X126302642Y-92951174D01*
G37*
G36*
X115840142Y-90411174D02*
G01*
X115863803Y-90414684D01*
X115887007Y-90420496D01*
X115909529Y-90428554D01*
X115931153Y-90438782D01*
X115951670Y-90451079D01*
X115970883Y-90465329D01*
X115988607Y-90481393D01*
X116004671Y-90499117D01*
X116018921Y-90518330D01*
X116031218Y-90538847D01*
X116041446Y-90560471D01*
X116049504Y-90582993D01*
X116055316Y-90606197D01*
X116058826Y-90629858D01*
X116060000Y-90653750D01*
X116060000Y-91566250D01*
X116058826Y-91590142D01*
X116055316Y-91613803D01*
X116049504Y-91637007D01*
X116041446Y-91659529D01*
X116031218Y-91681153D01*
X116018921Y-91701670D01*
X116004671Y-91720883D01*
X115988607Y-91738607D01*
X115970883Y-91754671D01*
X115951670Y-91768921D01*
X115931153Y-91781218D01*
X115909529Y-91791446D01*
X115887007Y-91799504D01*
X115863803Y-91805316D01*
X115840142Y-91808826D01*
X115816250Y-91810000D01*
X115328750Y-91810000D01*
X115304858Y-91808826D01*
X115281197Y-91805316D01*
X115257993Y-91799504D01*
X115235471Y-91791446D01*
X115213847Y-91781218D01*
X115193330Y-91768921D01*
X115174117Y-91754671D01*
X115156393Y-91738607D01*
X115140329Y-91720883D01*
X115126079Y-91701670D01*
X115113782Y-91681153D01*
X115103554Y-91659529D01*
X115095496Y-91637007D01*
X115089684Y-91613803D01*
X115086174Y-91590142D01*
X115085000Y-91566250D01*
X115085000Y-90653750D01*
X115086174Y-90629858D01*
X115089684Y-90606197D01*
X115095496Y-90582993D01*
X115103554Y-90560471D01*
X115113782Y-90538847D01*
X115126079Y-90518330D01*
X115140329Y-90499117D01*
X115156393Y-90481393D01*
X115174117Y-90465329D01*
X115193330Y-90451079D01*
X115213847Y-90438782D01*
X115235471Y-90428554D01*
X115257993Y-90420496D01*
X115281197Y-90414684D01*
X115304858Y-90411174D01*
X115328750Y-90410000D01*
X115816250Y-90410000D01*
X115840142Y-90411174D01*
G37*
G36*
X117715142Y-90411174D02*
G01*
X117738803Y-90414684D01*
X117762007Y-90420496D01*
X117784529Y-90428554D01*
X117806153Y-90438782D01*
X117826670Y-90451079D01*
X117845883Y-90465329D01*
X117863607Y-90481393D01*
X117879671Y-90499117D01*
X117893921Y-90518330D01*
X117906218Y-90538847D01*
X117916446Y-90560471D01*
X117924504Y-90582993D01*
X117930316Y-90606197D01*
X117933826Y-90629858D01*
X117935000Y-90653750D01*
X117935000Y-91566250D01*
X117933826Y-91590142D01*
X117930316Y-91613803D01*
X117924504Y-91637007D01*
X117916446Y-91659529D01*
X117906218Y-91681153D01*
X117893921Y-91701670D01*
X117879671Y-91720883D01*
X117863607Y-91738607D01*
X117845883Y-91754671D01*
X117826670Y-91768921D01*
X117806153Y-91781218D01*
X117784529Y-91791446D01*
X117762007Y-91799504D01*
X117738803Y-91805316D01*
X117715142Y-91808826D01*
X117691250Y-91810000D01*
X117203750Y-91810000D01*
X117179858Y-91808826D01*
X117156197Y-91805316D01*
X117132993Y-91799504D01*
X117110471Y-91791446D01*
X117088847Y-91781218D01*
X117068330Y-91768921D01*
X117049117Y-91754671D01*
X117031393Y-91738607D01*
X117015329Y-91720883D01*
X117001079Y-91701670D01*
X116988782Y-91681153D01*
X116978554Y-91659529D01*
X116970496Y-91637007D01*
X116964684Y-91613803D01*
X116961174Y-91590142D01*
X116960000Y-91566250D01*
X116960000Y-90653750D01*
X116961174Y-90629858D01*
X116964684Y-90606197D01*
X116970496Y-90582993D01*
X116978554Y-90560471D01*
X116988782Y-90538847D01*
X117001079Y-90518330D01*
X117015329Y-90499117D01*
X117031393Y-90481393D01*
X117049117Y-90465329D01*
X117068330Y-90451079D01*
X117088847Y-90438782D01*
X117110471Y-90428554D01*
X117132993Y-90420496D01*
X117156197Y-90414684D01*
X117179858Y-90411174D01*
X117203750Y-90410000D01*
X117691250Y-90410000D01*
X117715142Y-90411174D01*
G37*
D11*
X116510000Y-96190000D03*
X115560000Y-94090000D03*
X117460000Y-94090000D03*
D10*
G36*
X115840142Y-80251174D02*
G01*
X115863803Y-80254684D01*
X115887007Y-80260496D01*
X115909529Y-80268554D01*
X115931153Y-80278782D01*
X115951670Y-80291079D01*
X115970883Y-80305329D01*
X115988607Y-80321393D01*
X116004671Y-80339117D01*
X116018921Y-80358330D01*
X116031218Y-80378847D01*
X116041446Y-80400471D01*
X116049504Y-80422993D01*
X116055316Y-80446197D01*
X116058826Y-80469858D01*
X116060000Y-80493750D01*
X116060000Y-81406250D01*
X116058826Y-81430142D01*
X116055316Y-81453803D01*
X116049504Y-81477007D01*
X116041446Y-81499529D01*
X116031218Y-81521153D01*
X116018921Y-81541670D01*
X116004671Y-81560883D01*
X115988607Y-81578607D01*
X115970883Y-81594671D01*
X115951670Y-81608921D01*
X115931153Y-81621218D01*
X115909529Y-81631446D01*
X115887007Y-81639504D01*
X115863803Y-81645316D01*
X115840142Y-81648826D01*
X115816250Y-81650000D01*
X115328750Y-81650000D01*
X115304858Y-81648826D01*
X115281197Y-81645316D01*
X115257993Y-81639504D01*
X115235471Y-81631446D01*
X115213847Y-81621218D01*
X115193330Y-81608921D01*
X115174117Y-81594671D01*
X115156393Y-81578607D01*
X115140329Y-81560883D01*
X115126079Y-81541670D01*
X115113782Y-81521153D01*
X115103554Y-81499529D01*
X115095496Y-81477007D01*
X115089684Y-81453803D01*
X115086174Y-81430142D01*
X115085000Y-81406250D01*
X115085000Y-80493750D01*
X115086174Y-80469858D01*
X115089684Y-80446197D01*
X115095496Y-80422993D01*
X115103554Y-80400471D01*
X115113782Y-80378847D01*
X115126079Y-80358330D01*
X115140329Y-80339117D01*
X115156393Y-80321393D01*
X115174117Y-80305329D01*
X115193330Y-80291079D01*
X115213847Y-80278782D01*
X115235471Y-80268554D01*
X115257993Y-80260496D01*
X115281197Y-80254684D01*
X115304858Y-80251174D01*
X115328750Y-80250000D01*
X115816250Y-80250000D01*
X115840142Y-80251174D01*
G37*
G36*
X117715142Y-80251174D02*
G01*
X117738803Y-80254684D01*
X117762007Y-80260496D01*
X117784529Y-80268554D01*
X117806153Y-80278782D01*
X117826670Y-80291079D01*
X117845883Y-80305329D01*
X117863607Y-80321393D01*
X117879671Y-80339117D01*
X117893921Y-80358330D01*
X117906218Y-80378847D01*
X117916446Y-80400471D01*
X117924504Y-80422993D01*
X117930316Y-80446197D01*
X117933826Y-80469858D01*
X117935000Y-80493750D01*
X117935000Y-81406250D01*
X117933826Y-81430142D01*
X117930316Y-81453803D01*
X117924504Y-81477007D01*
X117916446Y-81499529D01*
X117906218Y-81521153D01*
X117893921Y-81541670D01*
X117879671Y-81560883D01*
X117863607Y-81578607D01*
X117845883Y-81594671D01*
X117826670Y-81608921D01*
X117806153Y-81621218D01*
X117784529Y-81631446D01*
X117762007Y-81639504D01*
X117738803Y-81645316D01*
X117715142Y-81648826D01*
X117691250Y-81650000D01*
X117203750Y-81650000D01*
X117179858Y-81648826D01*
X117156197Y-81645316D01*
X117132993Y-81639504D01*
X117110471Y-81631446D01*
X117088847Y-81621218D01*
X117068330Y-81608921D01*
X117049117Y-81594671D01*
X117031393Y-81578607D01*
X117015329Y-81560883D01*
X117001079Y-81541670D01*
X116988782Y-81521153D01*
X116978554Y-81499529D01*
X116970496Y-81477007D01*
X116964684Y-81453803D01*
X116961174Y-81430142D01*
X116960000Y-81406250D01*
X116960000Y-80493750D01*
X116961174Y-80469858D01*
X116964684Y-80446197D01*
X116970496Y-80422993D01*
X116978554Y-80400471D01*
X116988782Y-80378847D01*
X117001079Y-80358330D01*
X117015329Y-80339117D01*
X117031393Y-80321393D01*
X117049117Y-80305329D01*
X117068330Y-80291079D01*
X117088847Y-80278782D01*
X117110471Y-80268554D01*
X117132993Y-80260496D01*
X117156197Y-80254684D01*
X117179858Y-80251174D01*
X117203750Y-80250000D01*
X117691250Y-80250000D01*
X117715142Y-80251174D01*
G37*
D11*
X116510000Y-86030000D03*
X115560000Y-83930000D03*
X117460000Y-83930000D03*
D10*
G36*
X115840142Y-70091174D02*
G01*
X115863803Y-70094684D01*
X115887007Y-70100496D01*
X115909529Y-70108554D01*
X115931153Y-70118782D01*
X115951670Y-70131079D01*
X115970883Y-70145329D01*
X115988607Y-70161393D01*
X116004671Y-70179117D01*
X116018921Y-70198330D01*
X116031218Y-70218847D01*
X116041446Y-70240471D01*
X116049504Y-70262993D01*
X116055316Y-70286197D01*
X116058826Y-70309858D01*
X116060000Y-70333750D01*
X116060000Y-71246250D01*
X116058826Y-71270142D01*
X116055316Y-71293803D01*
X116049504Y-71317007D01*
X116041446Y-71339529D01*
X116031218Y-71361153D01*
X116018921Y-71381670D01*
X116004671Y-71400883D01*
X115988607Y-71418607D01*
X115970883Y-71434671D01*
X115951670Y-71448921D01*
X115931153Y-71461218D01*
X115909529Y-71471446D01*
X115887007Y-71479504D01*
X115863803Y-71485316D01*
X115840142Y-71488826D01*
X115816250Y-71490000D01*
X115328750Y-71490000D01*
X115304858Y-71488826D01*
X115281197Y-71485316D01*
X115257993Y-71479504D01*
X115235471Y-71471446D01*
X115213847Y-71461218D01*
X115193330Y-71448921D01*
X115174117Y-71434671D01*
X115156393Y-71418607D01*
X115140329Y-71400883D01*
X115126079Y-71381670D01*
X115113782Y-71361153D01*
X115103554Y-71339529D01*
X115095496Y-71317007D01*
X115089684Y-71293803D01*
X115086174Y-71270142D01*
X115085000Y-71246250D01*
X115085000Y-70333750D01*
X115086174Y-70309858D01*
X115089684Y-70286197D01*
X115095496Y-70262993D01*
X115103554Y-70240471D01*
X115113782Y-70218847D01*
X115126079Y-70198330D01*
X115140329Y-70179117D01*
X115156393Y-70161393D01*
X115174117Y-70145329D01*
X115193330Y-70131079D01*
X115213847Y-70118782D01*
X115235471Y-70108554D01*
X115257993Y-70100496D01*
X115281197Y-70094684D01*
X115304858Y-70091174D01*
X115328750Y-70090000D01*
X115816250Y-70090000D01*
X115840142Y-70091174D01*
G37*
G36*
X117715142Y-70091174D02*
G01*
X117738803Y-70094684D01*
X117762007Y-70100496D01*
X117784529Y-70108554D01*
X117806153Y-70118782D01*
X117826670Y-70131079D01*
X117845883Y-70145329D01*
X117863607Y-70161393D01*
X117879671Y-70179117D01*
X117893921Y-70198330D01*
X117906218Y-70218847D01*
X117916446Y-70240471D01*
X117924504Y-70262993D01*
X117930316Y-70286197D01*
X117933826Y-70309858D01*
X117935000Y-70333750D01*
X117935000Y-71246250D01*
X117933826Y-71270142D01*
X117930316Y-71293803D01*
X117924504Y-71317007D01*
X117916446Y-71339529D01*
X117906218Y-71361153D01*
X117893921Y-71381670D01*
X117879671Y-71400883D01*
X117863607Y-71418607D01*
X117845883Y-71434671D01*
X117826670Y-71448921D01*
X117806153Y-71461218D01*
X117784529Y-71471446D01*
X117762007Y-71479504D01*
X117738803Y-71485316D01*
X117715142Y-71488826D01*
X117691250Y-71490000D01*
X117203750Y-71490000D01*
X117179858Y-71488826D01*
X117156197Y-71485316D01*
X117132993Y-71479504D01*
X117110471Y-71471446D01*
X117088847Y-71461218D01*
X117068330Y-71448921D01*
X117049117Y-71434671D01*
X117031393Y-71418607D01*
X117015329Y-71400883D01*
X117001079Y-71381670D01*
X116988782Y-71361153D01*
X116978554Y-71339529D01*
X116970496Y-71317007D01*
X116964684Y-71293803D01*
X116961174Y-71270142D01*
X116960000Y-71246250D01*
X116960000Y-70333750D01*
X116961174Y-70309858D01*
X116964684Y-70286197D01*
X116970496Y-70262993D01*
X116978554Y-70240471D01*
X116988782Y-70218847D01*
X117001079Y-70198330D01*
X117015329Y-70179117D01*
X117031393Y-70161393D01*
X117049117Y-70145329D01*
X117068330Y-70131079D01*
X117088847Y-70118782D01*
X117110471Y-70108554D01*
X117132993Y-70100496D01*
X117156197Y-70094684D01*
X117179858Y-70091174D01*
X117203750Y-70090000D01*
X117691250Y-70090000D01*
X117715142Y-70091174D01*
G37*
D11*
X116510000Y-75870000D03*
X115560000Y-73770000D03*
X117460000Y-73770000D03*
D10*
G36*
X117715142Y-59931174D02*
G01*
X117738803Y-59934684D01*
X117762007Y-59940496D01*
X117784529Y-59948554D01*
X117806153Y-59958782D01*
X117826670Y-59971079D01*
X117845883Y-59985329D01*
X117863607Y-60001393D01*
X117879671Y-60019117D01*
X117893921Y-60038330D01*
X117906218Y-60058847D01*
X117916446Y-60080471D01*
X117924504Y-60102993D01*
X117930316Y-60126197D01*
X117933826Y-60149858D01*
X117935000Y-60173750D01*
X117935000Y-61086250D01*
X117933826Y-61110142D01*
X117930316Y-61133803D01*
X117924504Y-61157007D01*
X117916446Y-61179529D01*
X117906218Y-61201153D01*
X117893921Y-61221670D01*
X117879671Y-61240883D01*
X117863607Y-61258607D01*
X117845883Y-61274671D01*
X117826670Y-61288921D01*
X117806153Y-61301218D01*
X117784529Y-61311446D01*
X117762007Y-61319504D01*
X117738803Y-61325316D01*
X117715142Y-61328826D01*
X117691250Y-61330000D01*
X117203750Y-61330000D01*
X117179858Y-61328826D01*
X117156197Y-61325316D01*
X117132993Y-61319504D01*
X117110471Y-61311446D01*
X117088847Y-61301218D01*
X117068330Y-61288921D01*
X117049117Y-61274671D01*
X117031393Y-61258607D01*
X117015329Y-61240883D01*
X117001079Y-61221670D01*
X116988782Y-61201153D01*
X116978554Y-61179529D01*
X116970496Y-61157007D01*
X116964684Y-61133803D01*
X116961174Y-61110142D01*
X116960000Y-61086250D01*
X116960000Y-60173750D01*
X116961174Y-60149858D01*
X116964684Y-60126197D01*
X116970496Y-60102993D01*
X116978554Y-60080471D01*
X116988782Y-60058847D01*
X117001079Y-60038330D01*
X117015329Y-60019117D01*
X117031393Y-60001393D01*
X117049117Y-59985329D01*
X117068330Y-59971079D01*
X117088847Y-59958782D01*
X117110471Y-59948554D01*
X117132993Y-59940496D01*
X117156197Y-59934684D01*
X117179858Y-59931174D01*
X117203750Y-59930000D01*
X117691250Y-59930000D01*
X117715142Y-59931174D01*
G37*
G36*
X115840142Y-59931174D02*
G01*
X115863803Y-59934684D01*
X115887007Y-59940496D01*
X115909529Y-59948554D01*
X115931153Y-59958782D01*
X115951670Y-59971079D01*
X115970883Y-59985329D01*
X115988607Y-60001393D01*
X116004671Y-60019117D01*
X116018921Y-60038330D01*
X116031218Y-60058847D01*
X116041446Y-60080471D01*
X116049504Y-60102993D01*
X116055316Y-60126197D01*
X116058826Y-60149858D01*
X116060000Y-60173750D01*
X116060000Y-61086250D01*
X116058826Y-61110142D01*
X116055316Y-61133803D01*
X116049504Y-61157007D01*
X116041446Y-61179529D01*
X116031218Y-61201153D01*
X116018921Y-61221670D01*
X116004671Y-61240883D01*
X115988607Y-61258607D01*
X115970883Y-61274671D01*
X115951670Y-61288921D01*
X115931153Y-61301218D01*
X115909529Y-61311446D01*
X115887007Y-61319504D01*
X115863803Y-61325316D01*
X115840142Y-61328826D01*
X115816250Y-61330000D01*
X115328750Y-61330000D01*
X115304858Y-61328826D01*
X115281197Y-61325316D01*
X115257993Y-61319504D01*
X115235471Y-61311446D01*
X115213847Y-61301218D01*
X115193330Y-61288921D01*
X115174117Y-61274671D01*
X115156393Y-61258607D01*
X115140329Y-61240883D01*
X115126079Y-61221670D01*
X115113782Y-61201153D01*
X115103554Y-61179529D01*
X115095496Y-61157007D01*
X115089684Y-61133803D01*
X115086174Y-61110142D01*
X115085000Y-61086250D01*
X115085000Y-60173750D01*
X115086174Y-60149858D01*
X115089684Y-60126197D01*
X115095496Y-60102993D01*
X115103554Y-60080471D01*
X115113782Y-60058847D01*
X115126079Y-60038330D01*
X115140329Y-60019117D01*
X115156393Y-60001393D01*
X115174117Y-59985329D01*
X115193330Y-59971079D01*
X115213847Y-59958782D01*
X115235471Y-59948554D01*
X115257993Y-59940496D01*
X115281197Y-59934684D01*
X115304858Y-59931174D01*
X115328750Y-59930000D01*
X115816250Y-59930000D01*
X115840142Y-59931174D01*
G37*
D11*
X117460000Y-63610000D03*
X115560000Y-63610000D03*
X116510000Y-65710000D03*
D12*
X136515000Y-92550000D03*
X138415000Y-92550000D03*
X138415000Y-94750000D03*
X137465000Y-94750000D03*
X136515000Y-94750000D03*
D13*
X132160000Y-82470000D03*
X132160000Y-83120000D03*
X132160000Y-83770000D03*
X132160000Y-84420000D03*
X132160000Y-85070000D03*
X132160000Y-85720000D03*
X132160000Y-86370000D03*
X132160000Y-87020000D03*
X132160000Y-87670000D03*
X132160000Y-88320000D03*
X126260000Y-88320000D03*
X126260000Y-87670000D03*
X126260000Y-87020000D03*
X126260000Y-86370000D03*
X126260000Y-85720000D03*
X126260000Y-85070000D03*
X126260000Y-84420000D03*
X126260000Y-83770000D03*
X126260000Y-83120000D03*
X126260000Y-82470000D03*
D10*
G36*
X136765142Y-81521174D02*
G01*
X136788803Y-81524684D01*
X136812007Y-81530496D01*
X136834529Y-81538554D01*
X136856153Y-81548782D01*
X136876670Y-81561079D01*
X136895883Y-81575329D01*
X136913607Y-81591393D01*
X136929671Y-81609117D01*
X136943921Y-81628330D01*
X136956218Y-81648847D01*
X136966446Y-81670471D01*
X136974504Y-81692993D01*
X136980316Y-81716197D01*
X136983826Y-81739858D01*
X136985000Y-81763750D01*
X136985000Y-82676250D01*
X136983826Y-82700142D01*
X136980316Y-82723803D01*
X136974504Y-82747007D01*
X136966446Y-82769529D01*
X136956218Y-82791153D01*
X136943921Y-82811670D01*
X136929671Y-82830883D01*
X136913607Y-82848607D01*
X136895883Y-82864671D01*
X136876670Y-82878921D01*
X136856153Y-82891218D01*
X136834529Y-82901446D01*
X136812007Y-82909504D01*
X136788803Y-82915316D01*
X136765142Y-82918826D01*
X136741250Y-82920000D01*
X136253750Y-82920000D01*
X136229858Y-82918826D01*
X136206197Y-82915316D01*
X136182993Y-82909504D01*
X136160471Y-82901446D01*
X136138847Y-82891218D01*
X136118330Y-82878921D01*
X136099117Y-82864671D01*
X136081393Y-82848607D01*
X136065329Y-82830883D01*
X136051079Y-82811670D01*
X136038782Y-82791153D01*
X136028554Y-82769529D01*
X136020496Y-82747007D01*
X136014684Y-82723803D01*
X136011174Y-82700142D01*
X136010000Y-82676250D01*
X136010000Y-81763750D01*
X136011174Y-81739858D01*
X136014684Y-81716197D01*
X136020496Y-81692993D01*
X136028554Y-81670471D01*
X136038782Y-81648847D01*
X136051079Y-81628330D01*
X136065329Y-81609117D01*
X136081393Y-81591393D01*
X136099117Y-81575329D01*
X136118330Y-81561079D01*
X136138847Y-81548782D01*
X136160471Y-81538554D01*
X136182993Y-81530496D01*
X136206197Y-81524684D01*
X136229858Y-81521174D01*
X136253750Y-81520000D01*
X136741250Y-81520000D01*
X136765142Y-81521174D01*
G37*
G36*
X134890142Y-81521174D02*
G01*
X134913803Y-81524684D01*
X134937007Y-81530496D01*
X134959529Y-81538554D01*
X134981153Y-81548782D01*
X135001670Y-81561079D01*
X135020883Y-81575329D01*
X135038607Y-81591393D01*
X135054671Y-81609117D01*
X135068921Y-81628330D01*
X135081218Y-81648847D01*
X135091446Y-81670471D01*
X135099504Y-81692993D01*
X135105316Y-81716197D01*
X135108826Y-81739858D01*
X135110000Y-81763750D01*
X135110000Y-82676250D01*
X135108826Y-82700142D01*
X135105316Y-82723803D01*
X135099504Y-82747007D01*
X135091446Y-82769529D01*
X135081218Y-82791153D01*
X135068921Y-82811670D01*
X135054671Y-82830883D01*
X135038607Y-82848607D01*
X135020883Y-82864671D01*
X135001670Y-82878921D01*
X134981153Y-82891218D01*
X134959529Y-82901446D01*
X134937007Y-82909504D01*
X134913803Y-82915316D01*
X134890142Y-82918826D01*
X134866250Y-82920000D01*
X134378750Y-82920000D01*
X134354858Y-82918826D01*
X134331197Y-82915316D01*
X134307993Y-82909504D01*
X134285471Y-82901446D01*
X134263847Y-82891218D01*
X134243330Y-82878921D01*
X134224117Y-82864671D01*
X134206393Y-82848607D01*
X134190329Y-82830883D01*
X134176079Y-82811670D01*
X134163782Y-82791153D01*
X134153554Y-82769529D01*
X134145496Y-82747007D01*
X134139684Y-82723803D01*
X134136174Y-82700142D01*
X134135000Y-82676250D01*
X134135000Y-81763750D01*
X134136174Y-81739858D01*
X134139684Y-81716197D01*
X134145496Y-81692993D01*
X134153554Y-81670471D01*
X134163782Y-81648847D01*
X134176079Y-81628330D01*
X134190329Y-81609117D01*
X134206393Y-81591393D01*
X134224117Y-81575329D01*
X134243330Y-81561079D01*
X134263847Y-81548782D01*
X134285471Y-81538554D01*
X134307993Y-81530496D01*
X134331197Y-81524684D01*
X134354858Y-81521174D01*
X134378750Y-81520000D01*
X134866250Y-81520000D01*
X134890142Y-81521174D01*
G37*
G36*
X131849142Y-75462174D02*
G01*
X131872803Y-75465684D01*
X131896007Y-75471496D01*
X131918529Y-75479554D01*
X131940153Y-75489782D01*
X131960670Y-75502079D01*
X131979883Y-75516329D01*
X131997607Y-75532393D01*
X132013671Y-75550117D01*
X132027921Y-75569330D01*
X132040218Y-75589847D01*
X132050446Y-75611471D01*
X132058504Y-75633993D01*
X132064316Y-75657197D01*
X132067826Y-75680858D01*
X132069000Y-75704750D01*
X132069000Y-76192250D01*
X132067826Y-76216142D01*
X132064316Y-76239803D01*
X132058504Y-76263007D01*
X132050446Y-76285529D01*
X132040218Y-76307153D01*
X132027921Y-76327670D01*
X132013671Y-76346883D01*
X131997607Y-76364607D01*
X131979883Y-76380671D01*
X131960670Y-76394921D01*
X131940153Y-76407218D01*
X131918529Y-76417446D01*
X131896007Y-76425504D01*
X131872803Y-76431316D01*
X131849142Y-76434826D01*
X131825250Y-76436000D01*
X130912750Y-76436000D01*
X130888858Y-76434826D01*
X130865197Y-76431316D01*
X130841993Y-76425504D01*
X130819471Y-76417446D01*
X130797847Y-76407218D01*
X130777330Y-76394921D01*
X130758117Y-76380671D01*
X130740393Y-76364607D01*
X130724329Y-76346883D01*
X130710079Y-76327670D01*
X130697782Y-76307153D01*
X130687554Y-76285529D01*
X130679496Y-76263007D01*
X130673684Y-76239803D01*
X130670174Y-76216142D01*
X130669000Y-76192250D01*
X130669000Y-75704750D01*
X130670174Y-75680858D01*
X130673684Y-75657197D01*
X130679496Y-75633993D01*
X130687554Y-75611471D01*
X130697782Y-75589847D01*
X130710079Y-75569330D01*
X130724329Y-75550117D01*
X130740393Y-75532393D01*
X130758117Y-75516329D01*
X130777330Y-75502079D01*
X130797847Y-75489782D01*
X130819471Y-75479554D01*
X130841993Y-75471496D01*
X130865197Y-75465684D01*
X130888858Y-75462174D01*
X130912750Y-75461000D01*
X131825250Y-75461000D01*
X131849142Y-75462174D01*
G37*
G36*
X131849142Y-77337174D02*
G01*
X131872803Y-77340684D01*
X131896007Y-77346496D01*
X131918529Y-77354554D01*
X131940153Y-77364782D01*
X131960670Y-77377079D01*
X131979883Y-77391329D01*
X131997607Y-77407393D01*
X132013671Y-77425117D01*
X132027921Y-77444330D01*
X132040218Y-77464847D01*
X132050446Y-77486471D01*
X132058504Y-77508993D01*
X132064316Y-77532197D01*
X132067826Y-77555858D01*
X132069000Y-77579750D01*
X132069000Y-78067250D01*
X132067826Y-78091142D01*
X132064316Y-78114803D01*
X132058504Y-78138007D01*
X132050446Y-78160529D01*
X132040218Y-78182153D01*
X132027921Y-78202670D01*
X132013671Y-78221883D01*
X131997607Y-78239607D01*
X131979883Y-78255671D01*
X131960670Y-78269921D01*
X131940153Y-78282218D01*
X131918529Y-78292446D01*
X131896007Y-78300504D01*
X131872803Y-78306316D01*
X131849142Y-78309826D01*
X131825250Y-78311000D01*
X130912750Y-78311000D01*
X130888858Y-78309826D01*
X130865197Y-78306316D01*
X130841993Y-78300504D01*
X130819471Y-78292446D01*
X130797847Y-78282218D01*
X130777330Y-78269921D01*
X130758117Y-78255671D01*
X130740393Y-78239607D01*
X130724329Y-78221883D01*
X130710079Y-78202670D01*
X130697782Y-78182153D01*
X130687554Y-78160529D01*
X130679496Y-78138007D01*
X130673684Y-78114803D01*
X130670174Y-78091142D01*
X130669000Y-78067250D01*
X130669000Y-77579750D01*
X130670174Y-77555858D01*
X130673684Y-77532197D01*
X130679496Y-77508993D01*
X130687554Y-77486471D01*
X130697782Y-77464847D01*
X130710079Y-77444330D01*
X130724329Y-77425117D01*
X130740393Y-77407393D01*
X130758117Y-77391329D01*
X130777330Y-77377079D01*
X130797847Y-77364782D01*
X130819471Y-77354554D01*
X130841993Y-77346496D01*
X130865197Y-77340684D01*
X130888858Y-77337174D01*
X130912750Y-77336000D01*
X131825250Y-77336000D01*
X131849142Y-77337174D01*
G37*
D14*
X142475000Y-81940000D03*
D15*
X142475000Y-84640000D03*
D16*
X142475000Y-80115000D03*
X142475000Y-86865000D03*
D17*
X139900000Y-81002500D03*
X139900000Y-85977500D03*
D18*
X139815000Y-82190000D03*
X139815000Y-82840000D03*
X139815000Y-83490000D03*
X139815000Y-84140000D03*
X139815000Y-84790000D03*
D10*
G36*
X136795142Y-89776174D02*
G01*
X136818803Y-89779684D01*
X136842007Y-89785496D01*
X136864529Y-89793554D01*
X136886153Y-89803782D01*
X136906670Y-89816079D01*
X136925883Y-89830329D01*
X136943607Y-89846393D01*
X136959671Y-89864117D01*
X136973921Y-89883330D01*
X136986218Y-89903847D01*
X136996446Y-89925471D01*
X137004504Y-89947993D01*
X137010316Y-89971197D01*
X137013826Y-89994858D01*
X137015000Y-90018750D01*
X137015000Y-90931250D01*
X137013826Y-90955142D01*
X137010316Y-90978803D01*
X137004504Y-91002007D01*
X136996446Y-91024529D01*
X136986218Y-91046153D01*
X136973921Y-91066670D01*
X136959671Y-91085883D01*
X136943607Y-91103607D01*
X136925883Y-91119671D01*
X136906670Y-91133921D01*
X136886153Y-91146218D01*
X136864529Y-91156446D01*
X136842007Y-91164504D01*
X136818803Y-91170316D01*
X136795142Y-91173826D01*
X136771250Y-91175000D01*
X136283750Y-91175000D01*
X136259858Y-91173826D01*
X136236197Y-91170316D01*
X136212993Y-91164504D01*
X136190471Y-91156446D01*
X136168847Y-91146218D01*
X136148330Y-91133921D01*
X136129117Y-91119671D01*
X136111393Y-91103607D01*
X136095329Y-91085883D01*
X136081079Y-91066670D01*
X136068782Y-91046153D01*
X136058554Y-91024529D01*
X136050496Y-91002007D01*
X136044684Y-90978803D01*
X136041174Y-90955142D01*
X136040000Y-90931250D01*
X136040000Y-90018750D01*
X136041174Y-89994858D01*
X136044684Y-89971197D01*
X136050496Y-89947993D01*
X136058554Y-89925471D01*
X136068782Y-89903847D01*
X136081079Y-89883330D01*
X136095329Y-89864117D01*
X136111393Y-89846393D01*
X136129117Y-89830329D01*
X136148330Y-89816079D01*
X136168847Y-89803782D01*
X136190471Y-89793554D01*
X136212993Y-89785496D01*
X136236197Y-89779684D01*
X136259858Y-89776174D01*
X136283750Y-89775000D01*
X136771250Y-89775000D01*
X136795142Y-89776174D01*
G37*
G36*
X138670142Y-89776174D02*
G01*
X138693803Y-89779684D01*
X138717007Y-89785496D01*
X138739529Y-89793554D01*
X138761153Y-89803782D01*
X138781670Y-89816079D01*
X138800883Y-89830329D01*
X138818607Y-89846393D01*
X138834671Y-89864117D01*
X138848921Y-89883330D01*
X138861218Y-89903847D01*
X138871446Y-89925471D01*
X138879504Y-89947993D01*
X138885316Y-89971197D01*
X138888826Y-89994858D01*
X138890000Y-90018750D01*
X138890000Y-90931250D01*
X138888826Y-90955142D01*
X138885316Y-90978803D01*
X138879504Y-91002007D01*
X138871446Y-91024529D01*
X138861218Y-91046153D01*
X138848921Y-91066670D01*
X138834671Y-91085883D01*
X138818607Y-91103607D01*
X138800883Y-91119671D01*
X138781670Y-91133921D01*
X138761153Y-91146218D01*
X138739529Y-91156446D01*
X138717007Y-91164504D01*
X138693803Y-91170316D01*
X138670142Y-91173826D01*
X138646250Y-91175000D01*
X138158750Y-91175000D01*
X138134858Y-91173826D01*
X138111197Y-91170316D01*
X138087993Y-91164504D01*
X138065471Y-91156446D01*
X138043847Y-91146218D01*
X138023330Y-91133921D01*
X138004117Y-91119671D01*
X137986393Y-91103607D01*
X137970329Y-91085883D01*
X137956079Y-91066670D01*
X137943782Y-91046153D01*
X137933554Y-91024529D01*
X137925496Y-91002007D01*
X137919684Y-90978803D01*
X137916174Y-90955142D01*
X137915000Y-90931250D01*
X137915000Y-90018750D01*
X137916174Y-89994858D01*
X137919684Y-89971197D01*
X137925496Y-89947993D01*
X137933554Y-89925471D01*
X137943782Y-89903847D01*
X137956079Y-89883330D01*
X137970329Y-89864117D01*
X137986393Y-89846393D01*
X138004117Y-89830329D01*
X138023330Y-89816079D01*
X138043847Y-89803782D01*
X138065471Y-89793554D01*
X138087993Y-89785496D01*
X138111197Y-89779684D01*
X138134858Y-89776174D01*
X138158750Y-89775000D01*
X138646250Y-89775000D01*
X138670142Y-89776174D01*
G37*
G36*
X124610142Y-84576174D02*
G01*
X124633803Y-84579684D01*
X124657007Y-84585496D01*
X124679529Y-84593554D01*
X124701153Y-84603782D01*
X124721670Y-84616079D01*
X124740883Y-84630329D01*
X124758607Y-84646393D01*
X124774671Y-84664117D01*
X124788921Y-84683330D01*
X124801218Y-84703847D01*
X124811446Y-84725471D01*
X124819504Y-84747993D01*
X124825316Y-84771197D01*
X124828826Y-84794858D01*
X124830000Y-84818750D01*
X124830000Y-85306250D01*
X124828826Y-85330142D01*
X124825316Y-85353803D01*
X124819504Y-85377007D01*
X124811446Y-85399529D01*
X124801218Y-85421153D01*
X124788921Y-85441670D01*
X124774671Y-85460883D01*
X124758607Y-85478607D01*
X124740883Y-85494671D01*
X124721670Y-85508921D01*
X124701153Y-85521218D01*
X124679529Y-85531446D01*
X124657007Y-85539504D01*
X124633803Y-85545316D01*
X124610142Y-85548826D01*
X124586250Y-85550000D01*
X123673750Y-85550000D01*
X123649858Y-85548826D01*
X123626197Y-85545316D01*
X123602993Y-85539504D01*
X123580471Y-85531446D01*
X123558847Y-85521218D01*
X123538330Y-85508921D01*
X123519117Y-85494671D01*
X123501393Y-85478607D01*
X123485329Y-85460883D01*
X123471079Y-85441670D01*
X123458782Y-85421153D01*
X123448554Y-85399529D01*
X123440496Y-85377007D01*
X123434684Y-85353803D01*
X123431174Y-85330142D01*
X123430000Y-85306250D01*
X123430000Y-84818750D01*
X123431174Y-84794858D01*
X123434684Y-84771197D01*
X123440496Y-84747993D01*
X123448554Y-84725471D01*
X123458782Y-84703847D01*
X123471079Y-84683330D01*
X123485329Y-84664117D01*
X123501393Y-84646393D01*
X123519117Y-84630329D01*
X123538330Y-84616079D01*
X123558847Y-84603782D01*
X123580471Y-84593554D01*
X123602993Y-84585496D01*
X123626197Y-84579684D01*
X123649858Y-84576174D01*
X123673750Y-84575000D01*
X124586250Y-84575000D01*
X124610142Y-84576174D01*
G37*
G36*
X124610142Y-82701174D02*
G01*
X124633803Y-82704684D01*
X124657007Y-82710496D01*
X124679529Y-82718554D01*
X124701153Y-82728782D01*
X124721670Y-82741079D01*
X124740883Y-82755329D01*
X124758607Y-82771393D01*
X124774671Y-82789117D01*
X124788921Y-82808330D01*
X124801218Y-82828847D01*
X124811446Y-82850471D01*
X124819504Y-82872993D01*
X124825316Y-82896197D01*
X124828826Y-82919858D01*
X124830000Y-82943750D01*
X124830000Y-83431250D01*
X124828826Y-83455142D01*
X124825316Y-83478803D01*
X124819504Y-83502007D01*
X124811446Y-83524529D01*
X124801218Y-83546153D01*
X124788921Y-83566670D01*
X124774671Y-83585883D01*
X124758607Y-83603607D01*
X124740883Y-83619671D01*
X124721670Y-83633921D01*
X124701153Y-83646218D01*
X124679529Y-83656446D01*
X124657007Y-83664504D01*
X124633803Y-83670316D01*
X124610142Y-83673826D01*
X124586250Y-83675000D01*
X123673750Y-83675000D01*
X123649858Y-83673826D01*
X123626197Y-83670316D01*
X123602993Y-83664504D01*
X123580471Y-83656446D01*
X123558847Y-83646218D01*
X123538330Y-83633921D01*
X123519117Y-83619671D01*
X123501393Y-83603607D01*
X123485329Y-83585883D01*
X123471079Y-83566670D01*
X123458782Y-83546153D01*
X123448554Y-83524529D01*
X123440496Y-83502007D01*
X123434684Y-83478803D01*
X123431174Y-83455142D01*
X123430000Y-83431250D01*
X123430000Y-82943750D01*
X123431174Y-82919858D01*
X123434684Y-82896197D01*
X123440496Y-82872993D01*
X123448554Y-82850471D01*
X123458782Y-82828847D01*
X123471079Y-82808330D01*
X123485329Y-82789117D01*
X123501393Y-82771393D01*
X123519117Y-82755329D01*
X123538330Y-82741079D01*
X123558847Y-82728782D01*
X123580471Y-82718554D01*
X123602993Y-82710496D01*
X123626197Y-82704684D01*
X123649858Y-82701174D01*
X123673750Y-82700000D01*
X124586250Y-82700000D01*
X124610142Y-82701174D01*
G37*
G36*
X138670142Y-96761174D02*
G01*
X138693803Y-96764684D01*
X138717007Y-96770496D01*
X138739529Y-96778554D01*
X138761153Y-96788782D01*
X138781670Y-96801079D01*
X138800883Y-96815329D01*
X138818607Y-96831393D01*
X138834671Y-96849117D01*
X138848921Y-96868330D01*
X138861218Y-96888847D01*
X138871446Y-96910471D01*
X138879504Y-96932993D01*
X138885316Y-96956197D01*
X138888826Y-96979858D01*
X138890000Y-97003750D01*
X138890000Y-97916250D01*
X138888826Y-97940142D01*
X138885316Y-97963803D01*
X138879504Y-97987007D01*
X138871446Y-98009529D01*
X138861218Y-98031153D01*
X138848921Y-98051670D01*
X138834671Y-98070883D01*
X138818607Y-98088607D01*
X138800883Y-98104671D01*
X138781670Y-98118921D01*
X138761153Y-98131218D01*
X138739529Y-98141446D01*
X138717007Y-98149504D01*
X138693803Y-98155316D01*
X138670142Y-98158826D01*
X138646250Y-98160000D01*
X138158750Y-98160000D01*
X138134858Y-98158826D01*
X138111197Y-98155316D01*
X138087993Y-98149504D01*
X138065471Y-98141446D01*
X138043847Y-98131218D01*
X138023330Y-98118921D01*
X138004117Y-98104671D01*
X137986393Y-98088607D01*
X137970329Y-98070883D01*
X137956079Y-98051670D01*
X137943782Y-98031153D01*
X137933554Y-98009529D01*
X137925496Y-97987007D01*
X137919684Y-97963803D01*
X137916174Y-97940142D01*
X137915000Y-97916250D01*
X137915000Y-97003750D01*
X137916174Y-96979858D01*
X137919684Y-96956197D01*
X137925496Y-96932993D01*
X137933554Y-96910471D01*
X137943782Y-96888847D01*
X137956079Y-96868330D01*
X137970329Y-96849117D01*
X137986393Y-96831393D01*
X138004117Y-96815329D01*
X138023330Y-96801079D01*
X138043847Y-96788782D01*
X138065471Y-96778554D01*
X138087993Y-96770496D01*
X138111197Y-96764684D01*
X138134858Y-96761174D01*
X138158750Y-96760000D01*
X138646250Y-96760000D01*
X138670142Y-96761174D01*
G37*
G36*
X136795142Y-96761174D02*
G01*
X136818803Y-96764684D01*
X136842007Y-96770496D01*
X136864529Y-96778554D01*
X136886153Y-96788782D01*
X136906670Y-96801079D01*
X136925883Y-96815329D01*
X136943607Y-96831393D01*
X136959671Y-96849117D01*
X136973921Y-96868330D01*
X136986218Y-96888847D01*
X136996446Y-96910471D01*
X137004504Y-96932993D01*
X137010316Y-96956197D01*
X137013826Y-96979858D01*
X137015000Y-97003750D01*
X137015000Y-97916250D01*
X137013826Y-97940142D01*
X137010316Y-97963803D01*
X137004504Y-97987007D01*
X136996446Y-98009529D01*
X136986218Y-98031153D01*
X136973921Y-98051670D01*
X136959671Y-98070883D01*
X136943607Y-98088607D01*
X136925883Y-98104671D01*
X136906670Y-98118921D01*
X136886153Y-98131218D01*
X136864529Y-98141446D01*
X136842007Y-98149504D01*
X136818803Y-98155316D01*
X136795142Y-98158826D01*
X136771250Y-98160000D01*
X136283750Y-98160000D01*
X136259858Y-98158826D01*
X136236197Y-98155316D01*
X136212993Y-98149504D01*
X136190471Y-98141446D01*
X136168847Y-98131218D01*
X136148330Y-98118921D01*
X136129117Y-98104671D01*
X136111393Y-98088607D01*
X136095329Y-98070883D01*
X136081079Y-98051670D01*
X136068782Y-98031153D01*
X136058554Y-98009529D01*
X136050496Y-97987007D01*
X136044684Y-97963803D01*
X136041174Y-97940142D01*
X136040000Y-97916250D01*
X136040000Y-97003750D01*
X136041174Y-96979858D01*
X136044684Y-96956197D01*
X136050496Y-96932993D01*
X136058554Y-96910471D01*
X136068782Y-96888847D01*
X136081079Y-96868330D01*
X136095329Y-96849117D01*
X136111393Y-96831393D01*
X136129117Y-96815329D01*
X136148330Y-96801079D01*
X136168847Y-96788782D01*
X136190471Y-96778554D01*
X136212993Y-96770496D01*
X136236197Y-96764684D01*
X136259858Y-96761174D01*
X136283750Y-96760000D01*
X136771250Y-96760000D01*
X136795142Y-96761174D01*
G37*
G36*
X135532142Y-85114174D02*
G01*
X135555803Y-85117684D01*
X135579007Y-85123496D01*
X135601529Y-85131554D01*
X135623153Y-85141782D01*
X135643670Y-85154079D01*
X135662883Y-85168329D01*
X135680607Y-85184393D01*
X135696671Y-85202117D01*
X135710921Y-85221330D01*
X135723218Y-85241847D01*
X135733446Y-85263471D01*
X135741504Y-85285993D01*
X135747316Y-85309197D01*
X135750826Y-85332858D01*
X135752000Y-85356750D01*
X135752000Y-85844250D01*
X135750826Y-85868142D01*
X135747316Y-85891803D01*
X135741504Y-85915007D01*
X135733446Y-85937529D01*
X135723218Y-85959153D01*
X135710921Y-85979670D01*
X135696671Y-85998883D01*
X135680607Y-86016607D01*
X135662883Y-86032671D01*
X135643670Y-86046921D01*
X135623153Y-86059218D01*
X135601529Y-86069446D01*
X135579007Y-86077504D01*
X135555803Y-86083316D01*
X135532142Y-86086826D01*
X135508250Y-86088000D01*
X134595750Y-86088000D01*
X134571858Y-86086826D01*
X134548197Y-86083316D01*
X134524993Y-86077504D01*
X134502471Y-86069446D01*
X134480847Y-86059218D01*
X134460330Y-86046921D01*
X134441117Y-86032671D01*
X134423393Y-86016607D01*
X134407329Y-85998883D01*
X134393079Y-85979670D01*
X134380782Y-85959153D01*
X134370554Y-85937529D01*
X134362496Y-85915007D01*
X134356684Y-85891803D01*
X134353174Y-85868142D01*
X134352000Y-85844250D01*
X134352000Y-85356750D01*
X134353174Y-85332858D01*
X134356684Y-85309197D01*
X134362496Y-85285993D01*
X134370554Y-85263471D01*
X134380782Y-85241847D01*
X134393079Y-85221330D01*
X134407329Y-85202117D01*
X134423393Y-85184393D01*
X134441117Y-85168329D01*
X134460330Y-85154079D01*
X134480847Y-85141782D01*
X134502471Y-85131554D01*
X134524993Y-85123496D01*
X134548197Y-85117684D01*
X134571858Y-85114174D01*
X134595750Y-85113000D01*
X135508250Y-85113000D01*
X135532142Y-85114174D01*
G37*
G36*
X135532142Y-86989174D02*
G01*
X135555803Y-86992684D01*
X135579007Y-86998496D01*
X135601529Y-87006554D01*
X135623153Y-87016782D01*
X135643670Y-87029079D01*
X135662883Y-87043329D01*
X135680607Y-87059393D01*
X135696671Y-87077117D01*
X135710921Y-87096330D01*
X135723218Y-87116847D01*
X135733446Y-87138471D01*
X135741504Y-87160993D01*
X135747316Y-87184197D01*
X135750826Y-87207858D01*
X135752000Y-87231750D01*
X135752000Y-87719250D01*
X135750826Y-87743142D01*
X135747316Y-87766803D01*
X135741504Y-87790007D01*
X135733446Y-87812529D01*
X135723218Y-87834153D01*
X135710921Y-87854670D01*
X135696671Y-87873883D01*
X135680607Y-87891607D01*
X135662883Y-87907671D01*
X135643670Y-87921921D01*
X135623153Y-87934218D01*
X135601529Y-87944446D01*
X135579007Y-87952504D01*
X135555803Y-87958316D01*
X135532142Y-87961826D01*
X135508250Y-87963000D01*
X134595750Y-87963000D01*
X134571858Y-87961826D01*
X134548197Y-87958316D01*
X134524993Y-87952504D01*
X134502471Y-87944446D01*
X134480847Y-87934218D01*
X134460330Y-87921921D01*
X134441117Y-87907671D01*
X134423393Y-87891607D01*
X134407329Y-87873883D01*
X134393079Y-87854670D01*
X134380782Y-87834153D01*
X134370554Y-87812529D01*
X134362496Y-87790007D01*
X134356684Y-87766803D01*
X134353174Y-87743142D01*
X134352000Y-87719250D01*
X134352000Y-87231750D01*
X134353174Y-87207858D01*
X134356684Y-87184197D01*
X134362496Y-87160993D01*
X134370554Y-87138471D01*
X134380782Y-87116847D01*
X134393079Y-87096330D01*
X134407329Y-87077117D01*
X134423393Y-87059393D01*
X134441117Y-87043329D01*
X134460330Y-87029079D01*
X134480847Y-87016782D01*
X134502471Y-87006554D01*
X134524993Y-86998496D01*
X134548197Y-86992684D01*
X134571858Y-86989174D01*
X134595750Y-86988000D01*
X135508250Y-86988000D01*
X135532142Y-86989174D01*
G37*
M02*
