G04 #@! TF.GenerationSoftware,KiCad,Pcbnew,(5.1.5)-3*
G04 #@! TF.CreationDate,2020-01-15T00:30:51-05:00*
G04 #@! TF.ProjectId,STM32 Klipper Expander,53544d33-3220-44b6-9c69-707065722045,rev?*
G04 #@! TF.SameCoordinates,Original*
G04 #@! TF.FileFunction,Soldermask,Top*
G04 #@! TF.FilePolarity,Negative*
%FSLAX46Y46*%
G04 Gerber Fmt 4.6, Leading zero omitted, Abs format (unit mm)*
G04 Created by KiCad (PCBNEW (5.1.5)-3) date 2020-01-15 00:30:51*
%MOMM*%
%LPD*%
G04 APERTURE LIST*
%ADD10C,0.100000*%
G04 APERTURE END LIST*
D10*
G36*
X126148512Y-97198927D02*
G01*
X126297812Y-97228624D01*
X126461784Y-97296544D01*
X126609354Y-97395147D01*
X126734853Y-97520646D01*
X126833456Y-97668216D01*
X126901376Y-97832188D01*
X126936000Y-98006259D01*
X126936000Y-98183741D01*
X126901376Y-98357812D01*
X126833456Y-98521784D01*
X126734853Y-98669354D01*
X126609354Y-98794853D01*
X126461784Y-98893456D01*
X126297812Y-98961376D01*
X126148512Y-98991073D01*
X126123742Y-98996000D01*
X125946258Y-98996000D01*
X125921488Y-98991073D01*
X125772188Y-98961376D01*
X125608216Y-98893456D01*
X125460646Y-98794853D01*
X125335147Y-98669354D01*
X125236544Y-98521784D01*
X125168624Y-98357812D01*
X125134000Y-98183741D01*
X125134000Y-98006259D01*
X125168624Y-97832188D01*
X125236544Y-97668216D01*
X125335147Y-97520646D01*
X125460646Y-97395147D01*
X125608216Y-97296544D01*
X125772188Y-97228624D01*
X125921488Y-97198927D01*
X125946258Y-97194000D01*
X126123742Y-97194000D01*
X126148512Y-97198927D01*
G37*
G36*
X128688512Y-97198927D02*
G01*
X128837812Y-97228624D01*
X129001784Y-97296544D01*
X129149354Y-97395147D01*
X129274853Y-97520646D01*
X129373456Y-97668216D01*
X129441376Y-97832188D01*
X129476000Y-98006259D01*
X129476000Y-98183741D01*
X129441376Y-98357812D01*
X129373456Y-98521784D01*
X129274853Y-98669354D01*
X129149354Y-98794853D01*
X129001784Y-98893456D01*
X128837812Y-98961376D01*
X128688512Y-98991073D01*
X128663742Y-98996000D01*
X128486258Y-98996000D01*
X128461488Y-98991073D01*
X128312188Y-98961376D01*
X128148216Y-98893456D01*
X128000646Y-98794853D01*
X127875147Y-98669354D01*
X127776544Y-98521784D01*
X127708624Y-98357812D01*
X127674000Y-98183741D01*
X127674000Y-98006259D01*
X127708624Y-97832188D01*
X127776544Y-97668216D01*
X127875147Y-97520646D01*
X128000646Y-97395147D01*
X128148216Y-97296544D01*
X128312188Y-97228624D01*
X128461488Y-97198927D01*
X128486258Y-97194000D01*
X128663742Y-97194000D01*
X128688512Y-97198927D01*
G37*
G36*
X132016000Y-98996000D02*
G01*
X130214000Y-98996000D01*
X130214000Y-97194000D01*
X132016000Y-97194000D01*
X132016000Y-98996000D01*
G37*
G36*
X123608512Y-97198927D02*
G01*
X123757812Y-97228624D01*
X123921784Y-97296544D01*
X124069354Y-97395147D01*
X124194853Y-97520646D01*
X124293456Y-97668216D01*
X124361376Y-97832188D01*
X124396000Y-98006259D01*
X124396000Y-98183741D01*
X124361376Y-98357812D01*
X124293456Y-98521784D01*
X124194853Y-98669354D01*
X124069354Y-98794853D01*
X123921784Y-98893456D01*
X123757812Y-98961376D01*
X123608512Y-98991073D01*
X123583742Y-98996000D01*
X123406258Y-98996000D01*
X123381488Y-98991073D01*
X123232188Y-98961376D01*
X123068216Y-98893456D01*
X122920646Y-98794853D01*
X122795147Y-98669354D01*
X122696544Y-98521784D01*
X122628624Y-98357812D01*
X122594000Y-98183741D01*
X122594000Y-98006259D01*
X122628624Y-97832188D01*
X122696544Y-97668216D01*
X122795147Y-97520646D01*
X122920646Y-97395147D01*
X123068216Y-97296544D01*
X123232188Y-97228624D01*
X123381488Y-97198927D01*
X123406258Y-97194000D01*
X123583742Y-97194000D01*
X123608512Y-97198927D01*
G37*
G36*
X136899468Y-96713565D02*
G01*
X136938138Y-96725296D01*
X136973777Y-96744346D01*
X137005017Y-96769983D01*
X137030654Y-96801223D01*
X137049704Y-96836862D01*
X137061435Y-96875532D01*
X137066000Y-96921888D01*
X137066000Y-97998112D01*
X137061435Y-98044468D01*
X137049704Y-98083138D01*
X137030654Y-98118777D01*
X137005017Y-98150017D01*
X136973777Y-98175654D01*
X136938138Y-98194704D01*
X136899468Y-98206435D01*
X136853112Y-98211000D01*
X136201888Y-98211000D01*
X136155532Y-98206435D01*
X136116862Y-98194704D01*
X136081223Y-98175654D01*
X136049983Y-98150017D01*
X136024346Y-98118777D01*
X136005296Y-98083138D01*
X135993565Y-98044468D01*
X135989000Y-97998112D01*
X135989000Y-96921888D01*
X135993565Y-96875532D01*
X136005296Y-96836862D01*
X136024346Y-96801223D01*
X136049983Y-96769983D01*
X136081223Y-96744346D01*
X136116862Y-96725296D01*
X136155532Y-96713565D01*
X136201888Y-96709000D01*
X136853112Y-96709000D01*
X136899468Y-96713565D01*
G37*
G36*
X138774468Y-96713565D02*
G01*
X138813138Y-96725296D01*
X138848777Y-96744346D01*
X138880017Y-96769983D01*
X138905654Y-96801223D01*
X138924704Y-96836862D01*
X138936435Y-96875532D01*
X138941000Y-96921888D01*
X138941000Y-97998112D01*
X138936435Y-98044468D01*
X138924704Y-98083138D01*
X138905654Y-98118777D01*
X138880017Y-98150017D01*
X138848777Y-98175654D01*
X138813138Y-98194704D01*
X138774468Y-98206435D01*
X138728112Y-98211000D01*
X138076888Y-98211000D01*
X138030532Y-98206435D01*
X137991862Y-98194704D01*
X137956223Y-98175654D01*
X137924983Y-98150017D01*
X137899346Y-98118777D01*
X137880296Y-98083138D01*
X137868565Y-98044468D01*
X137864000Y-97998112D01*
X137864000Y-96921888D01*
X137868565Y-96875532D01*
X137880296Y-96836862D01*
X137899346Y-96801223D01*
X137924983Y-96769983D01*
X137956223Y-96744346D01*
X137991862Y-96725296D01*
X138030532Y-96713565D01*
X138076888Y-96709000D01*
X138728112Y-96709000D01*
X138774468Y-96713565D01*
G37*
G36*
X108014072Y-95525918D02*
G01*
X108259939Y-95627759D01*
X108371328Y-95702187D01*
X108481211Y-95775609D01*
X108669391Y-95963789D01*
X108817242Y-96185063D01*
X108919082Y-96430928D01*
X108971000Y-96691937D01*
X108971000Y-96958063D01*
X108919082Y-97219072D01*
X108817242Y-97464937D01*
X108681414Y-97668218D01*
X108669390Y-97686212D01*
X108481212Y-97874390D01*
X108259939Y-98022241D01*
X108259938Y-98022242D01*
X108259937Y-98022242D01*
X108014072Y-98124082D01*
X107753063Y-98176000D01*
X107486937Y-98176000D01*
X107225928Y-98124082D01*
X106980063Y-98022242D01*
X106980062Y-98022242D01*
X106980061Y-98022241D01*
X106758788Y-97874390D01*
X106570610Y-97686212D01*
X106558587Y-97668218D01*
X106422758Y-97464937D01*
X106320918Y-97219072D01*
X106269000Y-96958063D01*
X106269000Y-96691937D01*
X106320918Y-96430928D01*
X106422758Y-96185063D01*
X106570609Y-95963789D01*
X106758789Y-95775609D01*
X106868672Y-95702187D01*
X106980061Y-95627759D01*
X107225928Y-95525918D01*
X107486937Y-95474000D01*
X107753063Y-95474000D01*
X108014072Y-95525918D01*
G37*
G36*
X116880000Y-96910000D02*
G01*
X116140000Y-96910000D01*
X116140000Y-95470000D01*
X116880000Y-95470000D01*
X116880000Y-96910000D01*
G37*
G36*
X138791000Y-95331000D02*
G01*
X136139000Y-95331000D01*
X136139000Y-94169000D01*
X138791000Y-94169000D01*
X138791000Y-95331000D01*
G37*
G36*
X117830000Y-94810000D02*
G01*
X117090000Y-94810000D01*
X117090000Y-93370000D01*
X117830000Y-93370000D01*
X117830000Y-94810000D01*
G37*
G36*
X115930000Y-94810000D02*
G01*
X115190000Y-94810000D01*
X115190000Y-93370000D01*
X115930000Y-93370000D01*
X115930000Y-94810000D01*
G37*
G36*
X130821968Y-92903565D02*
G01*
X130860638Y-92915296D01*
X130896277Y-92934346D01*
X130927517Y-92959983D01*
X130953154Y-92991223D01*
X130972204Y-93026862D01*
X130983935Y-93065532D01*
X130988500Y-93111888D01*
X130988500Y-94188112D01*
X130983935Y-94234468D01*
X130972204Y-94273138D01*
X130953154Y-94308777D01*
X130927517Y-94340017D01*
X130896277Y-94365654D01*
X130860638Y-94384704D01*
X130821968Y-94396435D01*
X130775612Y-94401000D01*
X130124388Y-94401000D01*
X130078032Y-94396435D01*
X130039362Y-94384704D01*
X130003723Y-94365654D01*
X129972483Y-94340017D01*
X129946846Y-94308777D01*
X129927796Y-94273138D01*
X129916065Y-94234468D01*
X129911500Y-94188112D01*
X129911500Y-93111888D01*
X129916065Y-93065532D01*
X129927796Y-93026862D01*
X129946846Y-92991223D01*
X129972483Y-92959983D01*
X130003723Y-92934346D01*
X130039362Y-92915296D01*
X130078032Y-92903565D01*
X130124388Y-92899000D01*
X130775612Y-92899000D01*
X130821968Y-92903565D01*
G37*
G36*
X126406968Y-92903565D02*
G01*
X126445638Y-92915296D01*
X126481277Y-92934346D01*
X126512517Y-92959983D01*
X126538154Y-92991223D01*
X126557204Y-93026862D01*
X126568935Y-93065532D01*
X126573500Y-93111888D01*
X126573500Y-94188112D01*
X126568935Y-94234468D01*
X126557204Y-94273138D01*
X126538154Y-94308777D01*
X126512517Y-94340017D01*
X126481277Y-94365654D01*
X126445638Y-94384704D01*
X126406968Y-94396435D01*
X126360612Y-94401000D01*
X125709388Y-94401000D01*
X125663032Y-94396435D01*
X125624362Y-94384704D01*
X125588723Y-94365654D01*
X125557483Y-94340017D01*
X125531846Y-94308777D01*
X125512796Y-94273138D01*
X125501065Y-94234468D01*
X125496500Y-94188112D01*
X125496500Y-93111888D01*
X125501065Y-93065532D01*
X125512796Y-93026862D01*
X125531846Y-92991223D01*
X125557483Y-92959983D01*
X125588723Y-92934346D01*
X125624362Y-92915296D01*
X125663032Y-92903565D01*
X125709388Y-92899000D01*
X126360612Y-92899000D01*
X126406968Y-92903565D01*
G37*
G36*
X124531968Y-92903565D02*
G01*
X124570638Y-92915296D01*
X124606277Y-92934346D01*
X124637517Y-92959983D01*
X124663154Y-92991223D01*
X124682204Y-93026862D01*
X124693935Y-93065532D01*
X124698500Y-93111888D01*
X124698500Y-94188112D01*
X124693935Y-94234468D01*
X124682204Y-94273138D01*
X124663154Y-94308777D01*
X124637517Y-94340017D01*
X124606277Y-94365654D01*
X124570638Y-94384704D01*
X124531968Y-94396435D01*
X124485612Y-94401000D01*
X123834388Y-94401000D01*
X123788032Y-94396435D01*
X123749362Y-94384704D01*
X123713723Y-94365654D01*
X123682483Y-94340017D01*
X123656846Y-94308777D01*
X123637796Y-94273138D01*
X123626065Y-94234468D01*
X123621500Y-94188112D01*
X123621500Y-93111888D01*
X123626065Y-93065532D01*
X123637796Y-93026862D01*
X123656846Y-92991223D01*
X123682483Y-92959983D01*
X123713723Y-92934346D01*
X123749362Y-92915296D01*
X123788032Y-92903565D01*
X123834388Y-92899000D01*
X124485612Y-92899000D01*
X124531968Y-92903565D01*
G37*
G36*
X128946968Y-92903565D02*
G01*
X128985638Y-92915296D01*
X129021277Y-92934346D01*
X129052517Y-92959983D01*
X129078154Y-92991223D01*
X129097204Y-93026862D01*
X129108935Y-93065532D01*
X129113500Y-93111888D01*
X129113500Y-94188112D01*
X129108935Y-94234468D01*
X129097204Y-94273138D01*
X129078154Y-94308777D01*
X129052517Y-94340017D01*
X129021277Y-94365654D01*
X128985638Y-94384704D01*
X128946968Y-94396435D01*
X128900612Y-94401000D01*
X128249388Y-94401000D01*
X128203032Y-94396435D01*
X128164362Y-94384704D01*
X128128723Y-94365654D01*
X128097483Y-94340017D01*
X128071846Y-94308777D01*
X128052796Y-94273138D01*
X128041065Y-94234468D01*
X128036500Y-94188112D01*
X128036500Y-93111888D01*
X128041065Y-93065532D01*
X128052796Y-93026862D01*
X128071846Y-92991223D01*
X128097483Y-92959983D01*
X128128723Y-92934346D01*
X128164362Y-92915296D01*
X128203032Y-92903565D01*
X128249388Y-92899000D01*
X128900612Y-92899000D01*
X128946968Y-92903565D01*
G37*
G36*
X120269468Y-92783565D02*
G01*
X120308138Y-92795296D01*
X120343777Y-92814346D01*
X120375017Y-92839983D01*
X120400654Y-92871223D01*
X120419704Y-92906862D01*
X120431435Y-92945532D01*
X120436000Y-92991888D01*
X120436000Y-93643112D01*
X120431435Y-93689468D01*
X120419704Y-93728138D01*
X120400654Y-93763777D01*
X120375017Y-93795017D01*
X120343777Y-93820654D01*
X120308138Y-93839704D01*
X120269468Y-93851435D01*
X120223112Y-93856000D01*
X119146888Y-93856000D01*
X119100532Y-93851435D01*
X119061862Y-93839704D01*
X119026223Y-93820654D01*
X118994983Y-93795017D01*
X118969346Y-93763777D01*
X118950296Y-93728138D01*
X118938565Y-93689468D01*
X118934000Y-93643112D01*
X118934000Y-92991888D01*
X118938565Y-92945532D01*
X118950296Y-92906862D01*
X118969346Y-92871223D01*
X118994983Y-92839983D01*
X119026223Y-92814346D01*
X119061862Y-92795296D01*
X119100532Y-92783565D01*
X119146888Y-92779000D01*
X120223112Y-92779000D01*
X120269468Y-92783565D01*
G37*
G36*
X138791000Y-93131000D02*
G01*
X138039000Y-93131000D01*
X138039000Y-91969000D01*
X138791000Y-91969000D01*
X138791000Y-93131000D01*
G37*
G36*
X136891000Y-93131000D02*
G01*
X136139000Y-93131000D01*
X136139000Y-91969000D01*
X136891000Y-91969000D01*
X136891000Y-93131000D01*
G37*
G36*
X108014072Y-90445918D02*
G01*
X108205506Y-90525212D01*
X108259939Y-90547759D01*
X108296050Y-90571888D01*
X108481211Y-90695609D01*
X108669391Y-90883789D01*
X108718142Y-90956750D01*
X108786777Y-91059468D01*
X108817242Y-91105063D01*
X108919082Y-91350928D01*
X108971000Y-91611937D01*
X108971000Y-91878063D01*
X108919082Y-92139072D01*
X108817242Y-92384937D01*
X108669391Y-92606211D01*
X108481211Y-92794391D01*
X108473572Y-92799495D01*
X108259939Y-92942241D01*
X108259938Y-92942242D01*
X108259937Y-92942242D01*
X108014072Y-93044082D01*
X107753063Y-93096000D01*
X107486937Y-93096000D01*
X107225928Y-93044082D01*
X106980063Y-92942242D01*
X106980062Y-92942242D01*
X106980061Y-92942241D01*
X106766428Y-92799495D01*
X106758789Y-92794391D01*
X106570609Y-92606211D01*
X106422758Y-92384937D01*
X106320918Y-92139072D01*
X106269000Y-91878063D01*
X106269000Y-91611937D01*
X106320918Y-91350928D01*
X106422758Y-91105063D01*
X106453224Y-91059468D01*
X106521858Y-90956750D01*
X106570609Y-90883789D01*
X106758789Y-90695609D01*
X106943950Y-90571888D01*
X106980061Y-90547759D01*
X107034495Y-90525212D01*
X107225928Y-90445918D01*
X107486937Y-90394000D01*
X107753063Y-90394000D01*
X108014072Y-90445918D01*
G37*
G36*
X120269468Y-90908565D02*
G01*
X120308138Y-90920296D01*
X120343777Y-90939346D01*
X120375017Y-90964983D01*
X120400654Y-90996223D01*
X120419704Y-91031862D01*
X120431435Y-91070532D01*
X120436000Y-91116888D01*
X120436000Y-91768112D01*
X120431435Y-91814468D01*
X120419704Y-91853138D01*
X120400654Y-91888777D01*
X120375017Y-91920017D01*
X120343777Y-91945654D01*
X120308138Y-91964704D01*
X120269468Y-91976435D01*
X120223112Y-91981000D01*
X119146888Y-91981000D01*
X119100532Y-91976435D01*
X119061862Y-91964704D01*
X119026223Y-91945654D01*
X118994983Y-91920017D01*
X118969346Y-91888777D01*
X118950296Y-91853138D01*
X118938565Y-91814468D01*
X118934000Y-91768112D01*
X118934000Y-91116888D01*
X118938565Y-91070532D01*
X118950296Y-91031862D01*
X118969346Y-90996223D01*
X118994983Y-90964983D01*
X119026223Y-90939346D01*
X119061862Y-90920296D01*
X119100532Y-90908565D01*
X119146888Y-90904000D01*
X120223112Y-90904000D01*
X120269468Y-90908565D01*
G37*
G36*
X117819468Y-90363565D02*
G01*
X117858138Y-90375296D01*
X117893777Y-90394346D01*
X117925017Y-90419983D01*
X117950654Y-90451223D01*
X117969704Y-90486862D01*
X117981435Y-90525532D01*
X117986000Y-90571888D01*
X117986000Y-91648112D01*
X117981435Y-91694468D01*
X117969704Y-91733138D01*
X117950654Y-91768777D01*
X117925017Y-91800017D01*
X117893777Y-91825654D01*
X117858138Y-91844704D01*
X117819468Y-91856435D01*
X117773112Y-91861000D01*
X117121888Y-91861000D01*
X117075532Y-91856435D01*
X117036862Y-91844704D01*
X117001223Y-91825654D01*
X116969983Y-91800017D01*
X116944346Y-91768777D01*
X116925296Y-91733138D01*
X116913565Y-91694468D01*
X116909000Y-91648112D01*
X116909000Y-90571888D01*
X116913565Y-90525532D01*
X116925296Y-90486862D01*
X116944346Y-90451223D01*
X116969983Y-90419983D01*
X117001223Y-90394346D01*
X117036862Y-90375296D01*
X117075532Y-90363565D01*
X117121888Y-90359000D01*
X117773112Y-90359000D01*
X117819468Y-90363565D01*
G37*
G36*
X115944468Y-90363565D02*
G01*
X115983138Y-90375296D01*
X116018777Y-90394346D01*
X116050017Y-90419983D01*
X116075654Y-90451223D01*
X116094704Y-90486862D01*
X116106435Y-90525532D01*
X116111000Y-90571888D01*
X116111000Y-91648112D01*
X116106435Y-91694468D01*
X116094704Y-91733138D01*
X116075654Y-91768777D01*
X116050017Y-91800017D01*
X116018777Y-91825654D01*
X115983138Y-91844704D01*
X115944468Y-91856435D01*
X115898112Y-91861000D01*
X115246888Y-91861000D01*
X115200532Y-91856435D01*
X115161862Y-91844704D01*
X115126223Y-91825654D01*
X115094983Y-91800017D01*
X115069346Y-91768777D01*
X115050296Y-91733138D01*
X115038565Y-91694468D01*
X115034000Y-91648112D01*
X115034000Y-90571888D01*
X115038565Y-90525532D01*
X115050296Y-90486862D01*
X115069346Y-90451223D01*
X115094983Y-90419983D01*
X115126223Y-90394346D01*
X115161862Y-90375296D01*
X115200532Y-90363565D01*
X115246888Y-90359000D01*
X115898112Y-90359000D01*
X115944468Y-90363565D01*
G37*
G36*
X138774468Y-89728565D02*
G01*
X138813138Y-89740296D01*
X138848777Y-89759346D01*
X138880017Y-89784983D01*
X138905654Y-89816223D01*
X138924704Y-89851862D01*
X138936435Y-89890532D01*
X138941000Y-89936888D01*
X138941000Y-91013112D01*
X138936435Y-91059468D01*
X138924704Y-91098138D01*
X138905654Y-91133777D01*
X138880017Y-91165017D01*
X138848777Y-91190654D01*
X138813138Y-91209704D01*
X138774468Y-91221435D01*
X138728112Y-91226000D01*
X138076888Y-91226000D01*
X138030532Y-91221435D01*
X137991862Y-91209704D01*
X137956223Y-91190654D01*
X137924983Y-91165017D01*
X137899346Y-91133777D01*
X137880296Y-91098138D01*
X137868565Y-91059468D01*
X137864000Y-91013112D01*
X137864000Y-89936888D01*
X137868565Y-89890532D01*
X137880296Y-89851862D01*
X137899346Y-89816223D01*
X137924983Y-89784983D01*
X137956223Y-89759346D01*
X137991862Y-89740296D01*
X138030532Y-89728565D01*
X138076888Y-89724000D01*
X138728112Y-89724000D01*
X138774468Y-89728565D01*
G37*
G36*
X136899468Y-89728565D02*
G01*
X136938138Y-89740296D01*
X136973777Y-89759346D01*
X137005017Y-89784983D01*
X137030654Y-89816223D01*
X137049704Y-89851862D01*
X137061435Y-89890532D01*
X137066000Y-89936888D01*
X137066000Y-91013112D01*
X137061435Y-91059468D01*
X137049704Y-91098138D01*
X137030654Y-91133777D01*
X137005017Y-91165017D01*
X136973777Y-91190654D01*
X136938138Y-91209704D01*
X136899468Y-91221435D01*
X136853112Y-91226000D01*
X136201888Y-91226000D01*
X136155532Y-91221435D01*
X136116862Y-91209704D01*
X136081223Y-91190654D01*
X136049983Y-91165017D01*
X136024346Y-91133777D01*
X136005296Y-91098138D01*
X135993565Y-91059468D01*
X135989000Y-91013112D01*
X135989000Y-89936888D01*
X135993565Y-89890532D01*
X136005296Y-89851862D01*
X136024346Y-89816223D01*
X136049983Y-89784983D01*
X136081223Y-89759346D01*
X136116862Y-89740296D01*
X136155532Y-89728565D01*
X136201888Y-89724000D01*
X136853112Y-89724000D01*
X136899468Y-89728565D01*
G37*
G36*
X132936000Y-88596000D02*
G01*
X131384000Y-88596000D01*
X131384000Y-82194000D01*
X132936000Y-82194000D01*
X132936000Y-88596000D01*
G37*
G36*
X127036000Y-88596000D02*
G01*
X125484000Y-88596000D01*
X125484000Y-82194000D01*
X127036000Y-82194000D01*
X127036000Y-88596000D01*
G37*
G36*
X108014072Y-85365918D02*
G01*
X108202580Y-85444000D01*
X108259939Y-85467759D01*
X108321326Y-85508777D01*
X108451604Y-85595826D01*
X108481212Y-85615610D01*
X108669390Y-85803788D01*
X108793146Y-85989000D01*
X108817242Y-86025063D01*
X108919082Y-86270928D01*
X108971000Y-86531937D01*
X108971000Y-86798063D01*
X108919082Y-87059072D01*
X108817242Y-87304937D01*
X108669391Y-87526211D01*
X108481211Y-87714391D01*
X108371328Y-87787813D01*
X108259939Y-87862241D01*
X108259938Y-87862242D01*
X108259937Y-87862242D01*
X108014072Y-87964082D01*
X107753063Y-88016000D01*
X107486937Y-88016000D01*
X107225928Y-87964082D01*
X106980063Y-87862242D01*
X106980062Y-87862242D01*
X106980061Y-87862241D01*
X106868672Y-87787813D01*
X106758789Y-87714391D01*
X106570609Y-87526211D01*
X106422758Y-87304937D01*
X106320918Y-87059072D01*
X106269000Y-86798063D01*
X106269000Y-86531937D01*
X106320918Y-86270928D01*
X106422758Y-86025063D01*
X106446855Y-85989000D01*
X106570610Y-85803788D01*
X106758788Y-85615610D01*
X106788397Y-85595826D01*
X106918674Y-85508777D01*
X106980061Y-85467759D01*
X107037421Y-85444000D01*
X107225928Y-85365918D01*
X107486937Y-85314000D01*
X107753063Y-85314000D01*
X108014072Y-85365918D01*
G37*
G36*
X135636468Y-86941565D02*
G01*
X135675138Y-86953296D01*
X135710777Y-86972346D01*
X135742017Y-86997983D01*
X135767654Y-87029223D01*
X135786704Y-87064862D01*
X135798435Y-87103532D01*
X135803000Y-87149888D01*
X135803000Y-87801112D01*
X135798435Y-87847468D01*
X135786704Y-87886138D01*
X135767654Y-87921777D01*
X135742017Y-87953017D01*
X135710777Y-87978654D01*
X135675138Y-87997704D01*
X135636468Y-88009435D01*
X135590112Y-88014000D01*
X134513888Y-88014000D01*
X134467532Y-88009435D01*
X134428862Y-87997704D01*
X134393223Y-87978654D01*
X134361983Y-87953017D01*
X134336346Y-87921777D01*
X134317296Y-87886138D01*
X134305565Y-87847468D01*
X134301000Y-87801112D01*
X134301000Y-87149888D01*
X134305565Y-87103532D01*
X134317296Y-87064862D01*
X134336346Y-87029223D01*
X134361983Y-86997983D01*
X134393223Y-86972346D01*
X134428862Y-86953296D01*
X134467532Y-86941565D01*
X134513888Y-86937000D01*
X135590112Y-86937000D01*
X135636468Y-86941565D01*
G37*
G36*
X143176000Y-87741000D02*
G01*
X141774000Y-87741000D01*
X141774000Y-85989000D01*
X143176000Y-85989000D01*
X143176000Y-87741000D01*
G37*
G36*
X116880000Y-86750000D02*
G01*
X116140000Y-86750000D01*
X116140000Y-85310000D01*
X116880000Y-85310000D01*
X116880000Y-86750000D01*
G37*
G36*
X140726000Y-81766000D02*
G01*
X140680999Y-81766000D01*
X140656613Y-81768402D01*
X140633164Y-81775515D01*
X140611553Y-81787066D01*
X140592611Y-81802611D01*
X140577066Y-81821553D01*
X140565515Y-81843164D01*
X140558402Y-81866613D01*
X140556000Y-81890999D01*
X140556000Y-85089001D01*
X140558402Y-85113387D01*
X140565515Y-85136836D01*
X140577066Y-85158447D01*
X140592611Y-85177389D01*
X140611553Y-85192934D01*
X140633164Y-85204485D01*
X140656613Y-85211598D01*
X140680999Y-85214000D01*
X140726000Y-85214000D01*
X140726000Y-86741000D01*
X139074000Y-86741000D01*
X139074000Y-80239000D01*
X140726000Y-80239000D01*
X140726000Y-81766000D01*
G37*
G36*
X135636468Y-85066565D02*
G01*
X135675138Y-85078296D01*
X135710777Y-85097346D01*
X135742017Y-85122983D01*
X135767654Y-85154223D01*
X135786704Y-85189862D01*
X135798435Y-85228532D01*
X135803000Y-85274888D01*
X135803000Y-85926112D01*
X135798435Y-85972468D01*
X135786704Y-86011138D01*
X135767654Y-86046777D01*
X135742017Y-86078017D01*
X135710777Y-86103654D01*
X135675138Y-86122704D01*
X135636468Y-86134435D01*
X135590112Y-86139000D01*
X134513888Y-86139000D01*
X134467532Y-86134435D01*
X134428862Y-86122704D01*
X134393223Y-86103654D01*
X134361983Y-86078017D01*
X134336346Y-86046777D01*
X134317296Y-86011138D01*
X134305565Y-85972468D01*
X134301000Y-85926112D01*
X134301000Y-85274888D01*
X134305565Y-85228532D01*
X134317296Y-85189862D01*
X134336346Y-85154223D01*
X134361983Y-85122983D01*
X134393223Y-85097346D01*
X134428862Y-85078296D01*
X134467532Y-85066565D01*
X134513888Y-85062000D01*
X135590112Y-85062000D01*
X135636468Y-85066565D01*
G37*
G36*
X124714468Y-84528565D02*
G01*
X124753138Y-84540296D01*
X124788777Y-84559346D01*
X124820017Y-84584983D01*
X124845654Y-84616223D01*
X124864704Y-84651862D01*
X124876435Y-84690532D01*
X124881000Y-84736888D01*
X124881000Y-85388112D01*
X124876435Y-85434468D01*
X124864704Y-85473138D01*
X124845654Y-85508777D01*
X124820017Y-85540017D01*
X124788777Y-85565654D01*
X124753138Y-85584704D01*
X124714468Y-85596435D01*
X124668112Y-85601000D01*
X123591888Y-85601000D01*
X123545532Y-85596435D01*
X123506862Y-85584704D01*
X123471223Y-85565654D01*
X123439983Y-85540017D01*
X123414346Y-85508777D01*
X123395296Y-85473138D01*
X123383565Y-85434468D01*
X123379000Y-85388112D01*
X123379000Y-84736888D01*
X123383565Y-84690532D01*
X123395296Y-84651862D01*
X123414346Y-84616223D01*
X123439983Y-84584983D01*
X123471223Y-84559346D01*
X123506862Y-84540296D01*
X123545532Y-84528565D01*
X123591888Y-84524000D01*
X124668112Y-84524000D01*
X124714468Y-84528565D01*
G37*
G36*
X143476000Y-85591000D02*
G01*
X141474000Y-85591000D01*
X141474000Y-83689000D01*
X143476000Y-83689000D01*
X143476000Y-85591000D01*
G37*
G36*
X117830000Y-84650000D02*
G01*
X117090000Y-84650000D01*
X117090000Y-83210000D01*
X117830000Y-83210000D01*
X117830000Y-84650000D01*
G37*
G36*
X115930000Y-84650000D02*
G01*
X115190000Y-84650000D01*
X115190000Y-83210000D01*
X115930000Y-83210000D01*
X115930000Y-84650000D01*
G37*
G36*
X124714468Y-82653565D02*
G01*
X124753138Y-82665296D01*
X124788777Y-82684346D01*
X124820017Y-82709983D01*
X124845654Y-82741223D01*
X124864704Y-82776862D01*
X124876435Y-82815532D01*
X124881000Y-82861888D01*
X124881000Y-83513112D01*
X124876435Y-83559468D01*
X124864704Y-83598138D01*
X124845654Y-83633777D01*
X124820017Y-83665017D01*
X124788777Y-83690654D01*
X124753138Y-83709704D01*
X124714468Y-83721435D01*
X124668112Y-83726000D01*
X123591888Y-83726000D01*
X123545532Y-83721435D01*
X123506862Y-83709704D01*
X123471223Y-83690654D01*
X123439983Y-83665017D01*
X123414346Y-83633777D01*
X123395296Y-83598138D01*
X123383565Y-83559468D01*
X123379000Y-83513112D01*
X123379000Y-82861888D01*
X123383565Y-82815532D01*
X123395296Y-82776862D01*
X123414346Y-82741223D01*
X123439983Y-82709983D01*
X123471223Y-82684346D01*
X123506862Y-82665296D01*
X123545532Y-82653565D01*
X123591888Y-82649000D01*
X124668112Y-82649000D01*
X124714468Y-82653565D01*
G37*
G36*
X120269468Y-82623565D02*
G01*
X120308138Y-82635296D01*
X120343777Y-82654346D01*
X120375017Y-82679983D01*
X120400654Y-82711223D01*
X120419704Y-82746862D01*
X120431435Y-82785532D01*
X120436000Y-82831888D01*
X120436000Y-83483112D01*
X120431435Y-83529468D01*
X120419704Y-83568138D01*
X120400654Y-83603777D01*
X120375017Y-83635017D01*
X120343777Y-83660654D01*
X120308138Y-83679704D01*
X120269468Y-83691435D01*
X120223112Y-83696000D01*
X119146888Y-83696000D01*
X119100532Y-83691435D01*
X119061862Y-83679704D01*
X119026223Y-83660654D01*
X118994983Y-83635017D01*
X118969346Y-83603777D01*
X118950296Y-83568138D01*
X118938565Y-83529468D01*
X118934000Y-83483112D01*
X118934000Y-82831888D01*
X118938565Y-82785532D01*
X118950296Y-82746862D01*
X118969346Y-82711223D01*
X118994983Y-82679983D01*
X119026223Y-82654346D01*
X119061862Y-82635296D01*
X119100532Y-82623565D01*
X119146888Y-82619000D01*
X120223112Y-82619000D01*
X120269468Y-82623565D01*
G37*
G36*
X136869468Y-81473565D02*
G01*
X136908138Y-81485296D01*
X136943777Y-81504346D01*
X136975017Y-81529983D01*
X137000654Y-81561223D01*
X137019704Y-81596862D01*
X137031435Y-81635532D01*
X137036000Y-81681888D01*
X137036000Y-82758112D01*
X137031435Y-82804468D01*
X137019704Y-82843138D01*
X137000654Y-82878777D01*
X136975017Y-82910017D01*
X136943777Y-82935654D01*
X136908138Y-82954704D01*
X136869468Y-82966435D01*
X136823112Y-82971000D01*
X136171888Y-82971000D01*
X136125532Y-82966435D01*
X136086862Y-82954704D01*
X136051223Y-82935654D01*
X136019983Y-82910017D01*
X135994346Y-82878777D01*
X135975296Y-82843138D01*
X135963565Y-82804468D01*
X135959000Y-82758112D01*
X135959000Y-81681888D01*
X135963565Y-81635532D01*
X135975296Y-81596862D01*
X135994346Y-81561223D01*
X136019983Y-81529983D01*
X136051223Y-81504346D01*
X136086862Y-81485296D01*
X136125532Y-81473565D01*
X136171888Y-81469000D01*
X136823112Y-81469000D01*
X136869468Y-81473565D01*
G37*
G36*
X134994468Y-81473565D02*
G01*
X135033138Y-81485296D01*
X135068777Y-81504346D01*
X135100017Y-81529983D01*
X135125654Y-81561223D01*
X135144704Y-81596862D01*
X135156435Y-81635532D01*
X135161000Y-81681888D01*
X135161000Y-82758112D01*
X135156435Y-82804468D01*
X135144704Y-82843138D01*
X135125654Y-82878777D01*
X135100017Y-82910017D01*
X135068777Y-82935654D01*
X135033138Y-82954704D01*
X134994468Y-82966435D01*
X134948112Y-82971000D01*
X134296888Y-82971000D01*
X134250532Y-82966435D01*
X134211862Y-82954704D01*
X134176223Y-82935654D01*
X134144983Y-82910017D01*
X134119346Y-82878777D01*
X134100296Y-82843138D01*
X134088565Y-82804468D01*
X134084000Y-82758112D01*
X134084000Y-81681888D01*
X134088565Y-81635532D01*
X134100296Y-81596862D01*
X134119346Y-81561223D01*
X134144983Y-81529983D01*
X134176223Y-81504346D01*
X134211862Y-81485296D01*
X134250532Y-81473565D01*
X134296888Y-81469000D01*
X134948112Y-81469000D01*
X134994468Y-81473565D01*
G37*
G36*
X108014072Y-80285918D02*
G01*
X108205506Y-80365212D01*
X108259939Y-80387759D01*
X108296050Y-80411888D01*
X108481211Y-80535609D01*
X108669391Y-80723789D01*
X108817242Y-80945063D01*
X108919082Y-81190928D01*
X108971000Y-81451937D01*
X108971000Y-81718063D01*
X108919082Y-81979072D01*
X108817242Y-82224937D01*
X108669391Y-82446211D01*
X108481211Y-82634391D01*
X108428674Y-82669495D01*
X108259939Y-82782241D01*
X108259938Y-82782242D01*
X108259937Y-82782242D01*
X108014072Y-82884082D01*
X107753063Y-82936000D01*
X107486937Y-82936000D01*
X107225928Y-82884082D01*
X106980063Y-82782242D01*
X106980062Y-82782242D01*
X106980061Y-82782241D01*
X106811326Y-82669495D01*
X106758789Y-82634391D01*
X106570609Y-82446211D01*
X106422758Y-82224937D01*
X106320918Y-81979072D01*
X106269000Y-81718063D01*
X106269000Y-81451937D01*
X106320918Y-81190928D01*
X106422758Y-80945063D01*
X106570609Y-80723789D01*
X106758789Y-80535609D01*
X106943950Y-80411888D01*
X106980061Y-80387759D01*
X107034495Y-80365212D01*
X107225928Y-80285918D01*
X107486937Y-80234000D01*
X107753063Y-80234000D01*
X108014072Y-80285918D01*
G37*
G36*
X143476000Y-82491000D02*
G01*
X141474000Y-82491000D01*
X141474000Y-81389000D01*
X143476000Y-81389000D01*
X143476000Y-82491000D01*
G37*
G36*
X120269468Y-80748565D02*
G01*
X120308138Y-80760296D01*
X120343777Y-80779346D01*
X120375017Y-80804983D01*
X120400654Y-80836223D01*
X120419704Y-80871862D01*
X120431435Y-80910532D01*
X120436000Y-80956888D01*
X120436000Y-81608112D01*
X120431435Y-81654468D01*
X120419704Y-81693138D01*
X120400654Y-81728777D01*
X120375017Y-81760017D01*
X120343777Y-81785654D01*
X120308138Y-81804704D01*
X120269468Y-81816435D01*
X120223112Y-81821000D01*
X119146888Y-81821000D01*
X119100532Y-81816435D01*
X119061862Y-81804704D01*
X119026223Y-81785654D01*
X118994983Y-81760017D01*
X118969346Y-81728777D01*
X118950296Y-81693138D01*
X118938565Y-81654468D01*
X118934000Y-81608112D01*
X118934000Y-80956888D01*
X118938565Y-80910532D01*
X118950296Y-80871862D01*
X118969346Y-80836223D01*
X118994983Y-80804983D01*
X119026223Y-80779346D01*
X119061862Y-80760296D01*
X119100532Y-80748565D01*
X119146888Y-80744000D01*
X120223112Y-80744000D01*
X120269468Y-80748565D01*
G37*
G36*
X115944468Y-80203565D02*
G01*
X115983138Y-80215296D01*
X116018777Y-80234346D01*
X116050017Y-80259983D01*
X116075654Y-80291223D01*
X116094704Y-80326862D01*
X116106435Y-80365532D01*
X116111000Y-80411888D01*
X116111000Y-81488112D01*
X116106435Y-81534468D01*
X116094704Y-81573138D01*
X116075654Y-81608777D01*
X116050017Y-81640017D01*
X116018777Y-81665654D01*
X115983138Y-81684704D01*
X115944468Y-81696435D01*
X115898112Y-81701000D01*
X115246888Y-81701000D01*
X115200532Y-81696435D01*
X115161862Y-81684704D01*
X115126223Y-81665654D01*
X115094983Y-81640017D01*
X115069346Y-81608777D01*
X115050296Y-81573138D01*
X115038565Y-81534468D01*
X115034000Y-81488112D01*
X115034000Y-80411888D01*
X115038565Y-80365532D01*
X115050296Y-80326862D01*
X115069346Y-80291223D01*
X115094983Y-80259983D01*
X115126223Y-80234346D01*
X115161862Y-80215296D01*
X115200532Y-80203565D01*
X115246888Y-80199000D01*
X115898112Y-80199000D01*
X115944468Y-80203565D01*
G37*
G36*
X117819468Y-80203565D02*
G01*
X117858138Y-80215296D01*
X117893777Y-80234346D01*
X117925017Y-80259983D01*
X117950654Y-80291223D01*
X117969704Y-80326862D01*
X117981435Y-80365532D01*
X117986000Y-80411888D01*
X117986000Y-81488112D01*
X117981435Y-81534468D01*
X117969704Y-81573138D01*
X117950654Y-81608777D01*
X117925017Y-81640017D01*
X117893777Y-81665654D01*
X117858138Y-81684704D01*
X117819468Y-81696435D01*
X117773112Y-81701000D01*
X117121888Y-81701000D01*
X117075532Y-81696435D01*
X117036862Y-81684704D01*
X117001223Y-81665654D01*
X116969983Y-81640017D01*
X116944346Y-81608777D01*
X116925296Y-81573138D01*
X116913565Y-81534468D01*
X116909000Y-81488112D01*
X116909000Y-80411888D01*
X116913565Y-80365532D01*
X116925296Y-80326862D01*
X116944346Y-80291223D01*
X116969983Y-80259983D01*
X117001223Y-80234346D01*
X117036862Y-80215296D01*
X117075532Y-80203565D01*
X117121888Y-80199000D01*
X117773112Y-80199000D01*
X117819468Y-80203565D01*
G37*
G36*
X143176000Y-80991000D02*
G01*
X141774000Y-80991000D01*
X141774000Y-79239000D01*
X143176000Y-79239000D01*
X143176000Y-80991000D01*
G37*
G36*
X127418512Y-76878927D02*
G01*
X127567812Y-76908624D01*
X127731784Y-76976544D01*
X127879354Y-77075147D01*
X128004853Y-77200646D01*
X128103456Y-77348216D01*
X128171376Y-77512188D01*
X128206000Y-77686259D01*
X128206000Y-77863741D01*
X128171376Y-78037812D01*
X128103456Y-78201784D01*
X128004853Y-78349354D01*
X127879354Y-78474853D01*
X127731784Y-78573456D01*
X127567812Y-78641376D01*
X127418512Y-78671073D01*
X127393742Y-78676000D01*
X127216258Y-78676000D01*
X127191488Y-78671073D01*
X127042188Y-78641376D01*
X126878216Y-78573456D01*
X126730646Y-78474853D01*
X126605147Y-78349354D01*
X126506544Y-78201784D01*
X126438624Y-78037812D01*
X126404000Y-77863741D01*
X126404000Y-77686259D01*
X126438624Y-77512188D01*
X126506544Y-77348216D01*
X126605147Y-77200646D01*
X126730646Y-77075147D01*
X126878216Y-76976544D01*
X127042188Y-76908624D01*
X127191488Y-76878927D01*
X127216258Y-76874000D01*
X127393742Y-76874000D01*
X127418512Y-76878927D01*
G37*
G36*
X125666000Y-78676000D02*
G01*
X123864000Y-78676000D01*
X123864000Y-76874000D01*
X125666000Y-76874000D01*
X125666000Y-78676000D01*
G37*
G36*
X131953468Y-77289565D02*
G01*
X131992138Y-77301296D01*
X132027777Y-77320346D01*
X132059017Y-77345983D01*
X132084654Y-77377223D01*
X132103704Y-77412862D01*
X132115435Y-77451532D01*
X132120000Y-77497888D01*
X132120000Y-78149112D01*
X132115435Y-78195468D01*
X132103704Y-78234138D01*
X132084654Y-78269777D01*
X132059017Y-78301017D01*
X132027777Y-78326654D01*
X131992138Y-78345704D01*
X131953468Y-78357435D01*
X131907112Y-78362000D01*
X130830888Y-78362000D01*
X130784532Y-78357435D01*
X130745862Y-78345704D01*
X130710223Y-78326654D01*
X130678983Y-78301017D01*
X130653346Y-78269777D01*
X130634296Y-78234138D01*
X130622565Y-78195468D01*
X130618000Y-78149112D01*
X130618000Y-77497888D01*
X130622565Y-77451532D01*
X130634296Y-77412862D01*
X130653346Y-77377223D01*
X130678983Y-77345983D01*
X130710223Y-77320346D01*
X130745862Y-77301296D01*
X130784532Y-77289565D01*
X130830888Y-77285000D01*
X131907112Y-77285000D01*
X131953468Y-77289565D01*
G37*
G36*
X108014072Y-75205918D02*
G01*
X108259939Y-75307759D01*
X108371328Y-75382187D01*
X108481211Y-75455609D01*
X108669391Y-75643789D01*
X108817242Y-75865063D01*
X108919082Y-76110928D01*
X108971000Y-76371937D01*
X108971000Y-76638063D01*
X108919082Y-76899072D01*
X108817242Y-77144937D01*
X108681414Y-77348218D01*
X108669390Y-77366212D01*
X108481212Y-77554390D01*
X108259939Y-77702241D01*
X108259938Y-77702242D01*
X108259937Y-77702242D01*
X108014072Y-77804082D01*
X107753063Y-77856000D01*
X107486937Y-77856000D01*
X107225928Y-77804082D01*
X106980063Y-77702242D01*
X106980062Y-77702242D01*
X106980061Y-77702241D01*
X106758788Y-77554390D01*
X106570610Y-77366212D01*
X106558587Y-77348218D01*
X106422758Y-77144937D01*
X106320918Y-76899072D01*
X106269000Y-76638063D01*
X106269000Y-76371937D01*
X106320918Y-76110928D01*
X106422758Y-75865063D01*
X106570609Y-75643789D01*
X106758789Y-75455609D01*
X106868672Y-75382187D01*
X106980061Y-75307759D01*
X107225928Y-75205918D01*
X107486937Y-75154000D01*
X107753063Y-75154000D01*
X108014072Y-75205918D01*
G37*
G36*
X116880000Y-76590000D02*
G01*
X116140000Y-76590000D01*
X116140000Y-75150000D01*
X116880000Y-75150000D01*
X116880000Y-76590000D01*
G37*
G36*
X131953468Y-75414565D02*
G01*
X131992138Y-75426296D01*
X132027777Y-75445346D01*
X132059017Y-75470983D01*
X132084654Y-75502223D01*
X132103704Y-75537862D01*
X132115435Y-75576532D01*
X132120000Y-75622888D01*
X132120000Y-76274112D01*
X132115435Y-76320468D01*
X132103704Y-76359138D01*
X132084654Y-76394777D01*
X132059017Y-76426017D01*
X132027777Y-76451654D01*
X131992138Y-76470704D01*
X131953468Y-76482435D01*
X131907112Y-76487000D01*
X130830888Y-76487000D01*
X130784532Y-76482435D01*
X130745862Y-76470704D01*
X130710223Y-76451654D01*
X130678983Y-76426017D01*
X130653346Y-76394777D01*
X130634296Y-76359138D01*
X130622565Y-76320468D01*
X130618000Y-76274112D01*
X130618000Y-75622888D01*
X130622565Y-75576532D01*
X130634296Y-75537862D01*
X130653346Y-75502223D01*
X130678983Y-75470983D01*
X130710223Y-75445346D01*
X130745862Y-75426296D01*
X130784532Y-75414565D01*
X130830888Y-75410000D01*
X131907112Y-75410000D01*
X131953468Y-75414565D01*
G37*
G36*
X115930000Y-74490000D02*
G01*
X115190000Y-74490000D01*
X115190000Y-73050000D01*
X115930000Y-73050000D01*
X115930000Y-74490000D01*
G37*
G36*
X117830000Y-74490000D02*
G01*
X117090000Y-74490000D01*
X117090000Y-73050000D01*
X117830000Y-73050000D01*
X117830000Y-74490000D01*
G37*
G36*
X138816000Y-74173000D02*
G01*
X136114000Y-74173000D01*
X136114000Y-71471000D01*
X138816000Y-71471000D01*
X138816000Y-74173000D01*
G37*
G36*
X120269468Y-72463565D02*
G01*
X120308138Y-72475296D01*
X120343777Y-72494346D01*
X120375017Y-72519983D01*
X120400654Y-72551223D01*
X120419704Y-72586862D01*
X120431435Y-72625532D01*
X120436000Y-72671888D01*
X120436000Y-73323112D01*
X120431435Y-73369468D01*
X120419704Y-73408138D01*
X120400654Y-73443777D01*
X120375017Y-73475017D01*
X120343777Y-73500654D01*
X120308138Y-73519704D01*
X120269468Y-73531435D01*
X120223112Y-73536000D01*
X119146888Y-73536000D01*
X119100532Y-73531435D01*
X119061862Y-73519704D01*
X119026223Y-73500654D01*
X118994983Y-73475017D01*
X118969346Y-73443777D01*
X118950296Y-73408138D01*
X118938565Y-73369468D01*
X118934000Y-73323112D01*
X118934000Y-72671888D01*
X118938565Y-72625532D01*
X118950296Y-72586862D01*
X118969346Y-72551223D01*
X118994983Y-72519983D01*
X119026223Y-72494346D01*
X119061862Y-72475296D01*
X119100532Y-72463565D01*
X119146888Y-72459000D01*
X120223112Y-72459000D01*
X120269468Y-72463565D01*
G37*
G36*
X108014072Y-70125918D02*
G01*
X108205506Y-70205212D01*
X108259939Y-70227759D01*
X108296050Y-70251888D01*
X108481211Y-70375609D01*
X108669391Y-70563789D01*
X108817242Y-70785063D01*
X108919082Y-71030928D01*
X108971000Y-71291937D01*
X108971000Y-71558063D01*
X108919082Y-71819072D01*
X108817242Y-72064937D01*
X108669391Y-72286211D01*
X108481211Y-72474391D01*
X108473572Y-72479495D01*
X108259939Y-72622241D01*
X108259938Y-72622242D01*
X108259937Y-72622242D01*
X108014072Y-72724082D01*
X107753063Y-72776000D01*
X107486937Y-72776000D01*
X107225928Y-72724082D01*
X106980063Y-72622242D01*
X106980062Y-72622242D01*
X106980061Y-72622241D01*
X106766428Y-72479495D01*
X106758789Y-72474391D01*
X106570609Y-72286211D01*
X106422758Y-72064937D01*
X106320918Y-71819072D01*
X106269000Y-71558063D01*
X106269000Y-71291937D01*
X106320918Y-71030928D01*
X106422758Y-70785063D01*
X106570609Y-70563789D01*
X106758789Y-70375609D01*
X106943950Y-70251888D01*
X106980061Y-70227759D01*
X107034495Y-70205212D01*
X107225928Y-70125918D01*
X107486937Y-70074000D01*
X107753063Y-70074000D01*
X108014072Y-70125918D01*
G37*
G36*
X120269468Y-70588565D02*
G01*
X120308138Y-70600296D01*
X120343777Y-70619346D01*
X120375017Y-70644983D01*
X120400654Y-70676223D01*
X120419704Y-70711862D01*
X120431435Y-70750532D01*
X120436000Y-70796888D01*
X120436000Y-71448112D01*
X120431435Y-71494468D01*
X120419704Y-71533138D01*
X120400654Y-71568777D01*
X120375017Y-71600017D01*
X120343777Y-71625654D01*
X120308138Y-71644704D01*
X120269468Y-71656435D01*
X120223112Y-71661000D01*
X119146888Y-71661000D01*
X119100532Y-71656435D01*
X119061862Y-71644704D01*
X119026223Y-71625654D01*
X118994983Y-71600017D01*
X118969346Y-71568777D01*
X118950296Y-71533138D01*
X118938565Y-71494468D01*
X118934000Y-71448112D01*
X118934000Y-70796888D01*
X118938565Y-70750532D01*
X118950296Y-70711862D01*
X118969346Y-70676223D01*
X118994983Y-70644983D01*
X119026223Y-70619346D01*
X119061862Y-70600296D01*
X119100532Y-70588565D01*
X119146888Y-70584000D01*
X120223112Y-70584000D01*
X120269468Y-70588565D01*
G37*
G36*
X117819468Y-70043565D02*
G01*
X117858138Y-70055296D01*
X117893777Y-70074346D01*
X117925017Y-70099983D01*
X117950654Y-70131223D01*
X117969704Y-70166862D01*
X117981435Y-70205532D01*
X117986000Y-70251888D01*
X117986000Y-71328112D01*
X117981435Y-71374468D01*
X117969704Y-71413138D01*
X117950654Y-71448777D01*
X117925017Y-71480017D01*
X117893777Y-71505654D01*
X117858138Y-71524704D01*
X117819468Y-71536435D01*
X117773112Y-71541000D01*
X117121888Y-71541000D01*
X117075532Y-71536435D01*
X117036862Y-71524704D01*
X117001223Y-71505654D01*
X116969983Y-71480017D01*
X116944346Y-71448777D01*
X116925296Y-71413138D01*
X116913565Y-71374468D01*
X116909000Y-71328112D01*
X116909000Y-70251888D01*
X116913565Y-70205532D01*
X116925296Y-70166862D01*
X116944346Y-70131223D01*
X116969983Y-70099983D01*
X117001223Y-70074346D01*
X117036862Y-70055296D01*
X117075532Y-70043565D01*
X117121888Y-70039000D01*
X117773112Y-70039000D01*
X117819468Y-70043565D01*
G37*
G36*
X115944468Y-70043565D02*
G01*
X115983138Y-70055296D01*
X116018777Y-70074346D01*
X116050017Y-70099983D01*
X116075654Y-70131223D01*
X116094704Y-70166862D01*
X116106435Y-70205532D01*
X116111000Y-70251888D01*
X116111000Y-71328112D01*
X116106435Y-71374468D01*
X116094704Y-71413138D01*
X116075654Y-71448777D01*
X116050017Y-71480017D01*
X116018777Y-71505654D01*
X115983138Y-71524704D01*
X115944468Y-71536435D01*
X115898112Y-71541000D01*
X115246888Y-71541000D01*
X115200532Y-71536435D01*
X115161862Y-71524704D01*
X115126223Y-71505654D01*
X115094983Y-71480017D01*
X115069346Y-71448777D01*
X115050296Y-71413138D01*
X115038565Y-71374468D01*
X115034000Y-71328112D01*
X115034000Y-70251888D01*
X115038565Y-70205532D01*
X115050296Y-70166862D01*
X115069346Y-70131223D01*
X115094983Y-70099983D01*
X115126223Y-70074346D01*
X115161862Y-70055296D01*
X115200532Y-70043565D01*
X115246888Y-70039000D01*
X115898112Y-70039000D01*
X115944468Y-70043565D01*
G37*
G36*
X137859072Y-66442918D02*
G01*
X137943918Y-66478062D01*
X138104939Y-66544759D01*
X138216328Y-66619187D01*
X138326211Y-66692609D01*
X138514391Y-66880789D01*
X138662242Y-67102063D01*
X138764082Y-67347928D01*
X138802734Y-67542242D01*
X138816000Y-67608938D01*
X138816000Y-67875062D01*
X138764082Y-68136072D01*
X138662241Y-68381939D01*
X138514390Y-68603212D01*
X138326212Y-68791390D01*
X138104939Y-68939241D01*
X138104938Y-68939242D01*
X138104937Y-68939242D01*
X137859072Y-69041082D01*
X137598063Y-69093000D01*
X137331937Y-69093000D01*
X137070928Y-69041082D01*
X136825063Y-68939242D01*
X136825062Y-68939242D01*
X136825061Y-68939241D01*
X136603788Y-68791390D01*
X136415610Y-68603212D01*
X136267759Y-68381939D01*
X136165918Y-68136072D01*
X136114000Y-67875062D01*
X136114000Y-67608938D01*
X136127267Y-67542242D01*
X136165918Y-67347928D01*
X136267758Y-67102063D01*
X136415609Y-66880789D01*
X136603789Y-66692609D01*
X136713672Y-66619187D01*
X136825061Y-66544759D01*
X136986083Y-66478062D01*
X137070928Y-66442918D01*
X137331937Y-66391000D01*
X137598063Y-66391000D01*
X137859072Y-66442918D01*
G37*
G36*
X108014072Y-65045918D02*
G01*
X108259939Y-65147759D01*
X108371328Y-65222187D01*
X108481211Y-65295609D01*
X108669391Y-65483789D01*
X108817242Y-65705063D01*
X108919082Y-65950928D01*
X108971000Y-66211937D01*
X108971000Y-66478063D01*
X108957733Y-66544759D01*
X108919082Y-66739072D01*
X108817241Y-66984939D01*
X108669390Y-67206212D01*
X108481212Y-67394390D01*
X108259939Y-67542241D01*
X108259938Y-67542242D01*
X108259937Y-67542242D01*
X108014072Y-67644082D01*
X107753063Y-67696000D01*
X107486937Y-67696000D01*
X107225928Y-67644082D01*
X106980063Y-67542242D01*
X106980062Y-67542242D01*
X106980061Y-67542241D01*
X106758788Y-67394390D01*
X106570610Y-67206212D01*
X106422759Y-66984939D01*
X106320918Y-66739072D01*
X106282267Y-66544759D01*
X106269000Y-66478063D01*
X106269000Y-66211937D01*
X106320918Y-65950928D01*
X106422758Y-65705063D01*
X106570609Y-65483789D01*
X106758789Y-65295609D01*
X106868672Y-65222187D01*
X106980061Y-65147759D01*
X107225928Y-65045918D01*
X107486937Y-64994000D01*
X107753063Y-64994000D01*
X108014072Y-65045918D01*
G37*
G36*
X116880000Y-66430000D02*
G01*
X116140000Y-66430000D01*
X116140000Y-64990000D01*
X116880000Y-64990000D01*
X116880000Y-66430000D01*
G37*
G36*
X115930000Y-64330000D02*
G01*
X115190000Y-64330000D01*
X115190000Y-62890000D01*
X115930000Y-62890000D01*
X115930000Y-64330000D01*
G37*
G36*
X117830000Y-64330000D02*
G01*
X117090000Y-64330000D01*
X117090000Y-62890000D01*
X117830000Y-62890000D01*
X117830000Y-64330000D01*
G37*
G36*
X120269468Y-62303565D02*
G01*
X120308138Y-62315296D01*
X120343777Y-62334346D01*
X120375017Y-62359983D01*
X120400654Y-62391223D01*
X120419704Y-62426862D01*
X120431435Y-62465532D01*
X120436000Y-62511888D01*
X120436000Y-63163112D01*
X120431435Y-63209468D01*
X120419704Y-63248138D01*
X120400654Y-63283777D01*
X120375017Y-63315017D01*
X120343777Y-63340654D01*
X120308138Y-63359704D01*
X120269468Y-63371435D01*
X120223112Y-63376000D01*
X119146888Y-63376000D01*
X119100532Y-63371435D01*
X119061862Y-63359704D01*
X119026223Y-63340654D01*
X118994983Y-63315017D01*
X118969346Y-63283777D01*
X118950296Y-63248138D01*
X118938565Y-63209468D01*
X118934000Y-63163112D01*
X118934000Y-62511888D01*
X118938565Y-62465532D01*
X118950296Y-62426862D01*
X118969346Y-62391223D01*
X118994983Y-62359983D01*
X119026223Y-62334346D01*
X119061862Y-62315296D01*
X119100532Y-62303565D01*
X119146888Y-62299000D01*
X120223112Y-62299000D01*
X120269468Y-62303565D01*
G37*
G36*
X127465564Y-60811389D02*
G01*
X127656833Y-60890615D01*
X127656835Y-60890616D01*
X127828973Y-61005635D01*
X127975365Y-61152027D01*
X128075667Y-61302139D01*
X128090385Y-61324167D01*
X128169611Y-61515436D01*
X128210000Y-61718484D01*
X128210000Y-61925516D01*
X128169611Y-62128564D01*
X128099014Y-62299000D01*
X128090384Y-62319835D01*
X127975365Y-62491973D01*
X127828973Y-62638365D01*
X127656835Y-62753384D01*
X127656834Y-62753385D01*
X127656833Y-62753385D01*
X127465564Y-62832611D01*
X127262516Y-62873000D01*
X127055484Y-62873000D01*
X126852436Y-62832611D01*
X126661167Y-62753385D01*
X126661166Y-62753385D01*
X126661165Y-62753384D01*
X126489027Y-62638365D01*
X126342635Y-62491973D01*
X126227616Y-62319835D01*
X126218986Y-62299000D01*
X126148389Y-62128564D01*
X126108000Y-61925516D01*
X126108000Y-61718484D01*
X126148389Y-61515436D01*
X126227615Y-61324167D01*
X126242334Y-61302139D01*
X126342635Y-61152027D01*
X126489027Y-61005635D01*
X126661165Y-60890616D01*
X126661167Y-60890615D01*
X126852436Y-60811389D01*
X127055484Y-60771000D01*
X127262516Y-60771000D01*
X127465564Y-60811389D01*
G37*
G36*
X140965564Y-60811389D02*
G01*
X141156833Y-60890615D01*
X141156835Y-60890616D01*
X141328973Y-61005635D01*
X141475365Y-61152027D01*
X141575667Y-61302139D01*
X141590385Y-61324167D01*
X141669611Y-61515436D01*
X141710000Y-61718484D01*
X141710000Y-61925516D01*
X141669611Y-62128564D01*
X141599014Y-62299000D01*
X141590384Y-62319835D01*
X141475365Y-62491973D01*
X141328973Y-62638365D01*
X141156835Y-62753384D01*
X141156834Y-62753385D01*
X141156833Y-62753385D01*
X140965564Y-62832611D01*
X140762516Y-62873000D01*
X140555484Y-62873000D01*
X140352436Y-62832611D01*
X140161167Y-62753385D01*
X140161166Y-62753385D01*
X140161165Y-62753384D01*
X139989027Y-62638365D01*
X139842635Y-62491973D01*
X139727616Y-62319835D01*
X139718986Y-62299000D01*
X139648389Y-62128564D01*
X139608000Y-61925516D01*
X139608000Y-61718484D01*
X139648389Y-61515436D01*
X139727615Y-61324167D01*
X139742334Y-61302139D01*
X139842635Y-61152027D01*
X139989027Y-61005635D01*
X140161165Y-60890616D01*
X140161167Y-60890615D01*
X140352436Y-60811389D01*
X140555484Y-60771000D01*
X140762516Y-60771000D01*
X140965564Y-60811389D01*
G37*
G36*
X108971000Y-62616000D02*
G01*
X106269000Y-62616000D01*
X106269000Y-59914000D01*
X108971000Y-59914000D01*
X108971000Y-62616000D01*
G37*
G36*
X120269468Y-60428565D02*
G01*
X120308138Y-60440296D01*
X120343777Y-60459346D01*
X120375017Y-60484983D01*
X120400654Y-60516223D01*
X120419704Y-60551862D01*
X120431435Y-60590532D01*
X120436000Y-60636888D01*
X120436000Y-61288112D01*
X120431435Y-61334468D01*
X120419704Y-61373138D01*
X120400654Y-61408777D01*
X120375017Y-61440017D01*
X120343777Y-61465654D01*
X120308138Y-61484704D01*
X120269468Y-61496435D01*
X120223112Y-61501000D01*
X119146888Y-61501000D01*
X119100532Y-61496435D01*
X119061862Y-61484704D01*
X119026223Y-61465654D01*
X118994983Y-61440017D01*
X118969346Y-61408777D01*
X118950296Y-61373138D01*
X118938565Y-61334468D01*
X118934000Y-61288112D01*
X118934000Y-60636888D01*
X118938565Y-60590532D01*
X118950296Y-60551862D01*
X118969346Y-60516223D01*
X118994983Y-60484983D01*
X119026223Y-60459346D01*
X119061862Y-60440296D01*
X119100532Y-60428565D01*
X119146888Y-60424000D01*
X120223112Y-60424000D01*
X120269468Y-60428565D01*
G37*
G36*
X117819468Y-59883565D02*
G01*
X117858138Y-59895296D01*
X117893777Y-59914346D01*
X117925017Y-59939983D01*
X117950654Y-59971223D01*
X117969704Y-60006862D01*
X117981435Y-60045532D01*
X117986000Y-60091888D01*
X117986000Y-61168112D01*
X117981435Y-61214468D01*
X117969704Y-61253138D01*
X117950654Y-61288777D01*
X117925017Y-61320017D01*
X117893777Y-61345654D01*
X117858138Y-61364704D01*
X117819468Y-61376435D01*
X117773112Y-61381000D01*
X117121888Y-61381000D01*
X117075532Y-61376435D01*
X117036862Y-61364704D01*
X117001223Y-61345654D01*
X116969983Y-61320017D01*
X116944346Y-61288777D01*
X116925296Y-61253138D01*
X116913565Y-61214468D01*
X116909000Y-61168112D01*
X116909000Y-60091888D01*
X116913565Y-60045532D01*
X116925296Y-60006862D01*
X116944346Y-59971223D01*
X116969983Y-59939983D01*
X117001223Y-59914346D01*
X117036862Y-59895296D01*
X117075532Y-59883565D01*
X117121888Y-59879000D01*
X117773112Y-59879000D01*
X117819468Y-59883565D01*
G37*
G36*
X115944468Y-59883565D02*
G01*
X115983138Y-59895296D01*
X116018777Y-59914346D01*
X116050017Y-59939983D01*
X116075654Y-59971223D01*
X116094704Y-60006862D01*
X116106435Y-60045532D01*
X116111000Y-60091888D01*
X116111000Y-61168112D01*
X116106435Y-61214468D01*
X116094704Y-61253138D01*
X116075654Y-61288777D01*
X116050017Y-61320017D01*
X116018777Y-61345654D01*
X115983138Y-61364704D01*
X115944468Y-61376435D01*
X115898112Y-61381000D01*
X115246888Y-61381000D01*
X115200532Y-61376435D01*
X115161862Y-61364704D01*
X115126223Y-61345654D01*
X115094983Y-61320017D01*
X115069346Y-61288777D01*
X115050296Y-61253138D01*
X115038565Y-61214468D01*
X115034000Y-61168112D01*
X115034000Y-60091888D01*
X115038565Y-60045532D01*
X115050296Y-60006862D01*
X115069346Y-59971223D01*
X115094983Y-59939983D01*
X115126223Y-59914346D01*
X115161862Y-59895296D01*
X115200532Y-59883565D01*
X115246888Y-59879000D01*
X115898112Y-59879000D01*
X115944468Y-59883565D01*
G37*
G36*
X140965564Y-57411389D02*
G01*
X141156833Y-57490615D01*
X141156835Y-57490616D01*
X141328973Y-57605635D01*
X141475365Y-57752027D01*
X141590385Y-57924167D01*
X141669611Y-58115436D01*
X141710000Y-58318484D01*
X141710000Y-58525516D01*
X141669611Y-58728564D01*
X141590385Y-58919833D01*
X141590384Y-58919835D01*
X141475365Y-59091973D01*
X141328973Y-59238365D01*
X141156835Y-59353384D01*
X141156834Y-59353385D01*
X141156833Y-59353385D01*
X140965564Y-59432611D01*
X140762516Y-59473000D01*
X140555484Y-59473000D01*
X140352436Y-59432611D01*
X140161167Y-59353385D01*
X140161166Y-59353385D01*
X140161165Y-59353384D01*
X139989027Y-59238365D01*
X139842635Y-59091973D01*
X139727616Y-58919835D01*
X139727615Y-58919833D01*
X139648389Y-58728564D01*
X139608000Y-58525516D01*
X139608000Y-58318484D01*
X139648389Y-58115436D01*
X139727615Y-57924167D01*
X139842635Y-57752027D01*
X139989027Y-57605635D01*
X140161165Y-57490616D01*
X140161167Y-57490615D01*
X140352436Y-57411389D01*
X140555484Y-57371000D01*
X140762516Y-57371000D01*
X140965564Y-57411389D01*
G37*
G36*
X127465564Y-57411389D02*
G01*
X127656833Y-57490615D01*
X127656835Y-57490616D01*
X127828973Y-57605635D01*
X127975365Y-57752027D01*
X128090385Y-57924167D01*
X128169611Y-58115436D01*
X128210000Y-58318484D01*
X128210000Y-58525516D01*
X128169611Y-58728564D01*
X128090385Y-58919833D01*
X128090384Y-58919835D01*
X127975365Y-59091973D01*
X127828973Y-59238365D01*
X127656835Y-59353384D01*
X127656834Y-59353385D01*
X127656833Y-59353385D01*
X127465564Y-59432611D01*
X127262516Y-59473000D01*
X127055484Y-59473000D01*
X126852436Y-59432611D01*
X126661167Y-59353385D01*
X126661166Y-59353385D01*
X126661165Y-59353384D01*
X126489027Y-59238365D01*
X126342635Y-59091973D01*
X126227616Y-58919835D01*
X126227615Y-58919833D01*
X126148389Y-58728564D01*
X126108000Y-58525516D01*
X126108000Y-58318484D01*
X126148389Y-58115436D01*
X126227615Y-57924167D01*
X126342635Y-57752027D01*
X126489027Y-57605635D01*
X126661165Y-57490616D01*
X126661167Y-57490615D01*
X126852436Y-57411389D01*
X127055484Y-57371000D01*
X127262516Y-57371000D01*
X127465564Y-57411389D01*
G37*
M02*
