%TF.GenerationSoftware,KiCad,Pcbnew,(5.1.5)-3*%
%TF.CreationDate,2020-01-15T00:30:53-05:00*%
%TF.ProjectId,STM32 Klipper Expander,53544d33-3220-44b6-9c69-707065722045,rev?*%
%TF.SameCoordinates,Original*%
%TF.FileFunction,Plated,1,2,PTH,Drill*%
%TF.FilePolarity,Positive*%
%FSLAX46Y46*%
G04 Gerber Fmt 4.6, Leading zero omitted, Abs format (unit mm)*
G04 Created by KiCad (PCBNEW (5.1.5)-3) date 2020-01-15 00:30:53*
%MOMM*%
%LPD*%
G04 APERTURE LIST*
%TA.AperFunction,ViaDrill*%
%ADD10C,0.400000*%
%TD*%
%TA.AperFunction,ComponentDrill*%
%ADD11C,1.000000*%
%TD*%
%TA.AperFunction,ComponentDrill*%
%ADD12C,1.300000*%
%TD*%
%TA.AperFunction,ComponentDrill*%
%ADD13C,1.600000*%
%TD*%
G04 APERTURE END LIST*
D10*
X111430000Y-59995000D03*
X111430000Y-61265000D03*
X111430000Y-62535000D03*
X111430000Y-63805000D03*
X111430000Y-70155000D03*
X111430000Y-71425000D03*
X111430000Y-72695000D03*
X111430000Y-73965000D03*
X111430000Y-80315000D03*
X111430000Y-81585000D03*
X111430000Y-82855000D03*
X111430000Y-84125000D03*
X111430000Y-90475000D03*
X111430000Y-91745000D03*
X111430000Y-93015000D03*
X111430000Y-94285000D03*
X112700000Y-59995000D03*
X112700000Y-61265000D03*
X112700000Y-62535000D03*
X112700000Y-63805000D03*
X112700000Y-70155000D03*
X112700000Y-71425000D03*
X112700000Y-72695000D03*
X112700000Y-73965000D03*
X112700000Y-80315000D03*
X112700000Y-81585000D03*
X112700000Y-82855000D03*
X112700000Y-84125000D03*
X112700000Y-90475000D03*
X112700000Y-91745000D03*
X112700000Y-93015000D03*
X112700000Y-94285000D03*
X113970000Y-59995000D03*
X113970000Y-61265000D03*
X113970000Y-62535000D03*
X113970000Y-63805000D03*
X113970000Y-70155000D03*
X113970000Y-71425000D03*
X113970000Y-72695000D03*
X113970000Y-73965000D03*
X113970000Y-80315000D03*
X113970000Y-81585000D03*
X113970000Y-82855000D03*
X113970000Y-84125000D03*
X113970000Y-90475000D03*
X113970000Y-91745000D03*
X113970000Y-93015000D03*
X113970000Y-94285000D03*
X124130000Y-81585000D03*
X126035000Y-95555000D03*
X127940000Y-82220000D03*
X127940000Y-84125000D03*
X128575000Y-95555000D03*
X129210000Y-84125000D03*
X136576000Y-86538000D03*
X136817500Y-96177500D03*
X137719000Y-88316000D03*
X143105000Y-78410000D03*
X143105000Y-88570000D03*
D11*
%TO.C,J7*%
X124765000Y-77775000D03*
X127305000Y-77775000D03*
%TO.C,J2*%
X123495000Y-98095000D03*
X126035000Y-98095000D03*
X128575000Y-98095000D03*
X131115000Y-98095000D03*
D12*
%TO.C,J6*%
X107620000Y-61265000D03*
X107620000Y-66345000D03*
X107620000Y-71425000D03*
X107620000Y-76505000D03*
X107620000Y-81585000D03*
X107620000Y-86665000D03*
X107620000Y-91745000D03*
X107620000Y-96825000D03*
%TO.C,J5*%
X137465000Y-67742000D03*
X137465000Y-72822000D03*
D13*
%TO.C,F1*%
X127159000Y-58422000D03*
X127159000Y-61822000D03*
X140659000Y-58422000D03*
X140659000Y-61822000D03*
M02*
