G04 #@! TF.GenerationSoftware,KiCad,Pcbnew,(5.1.5)-3*
G04 #@! TF.CreationDate,2020-01-15T03:57:31-05:00*
G04 #@! TF.ProjectId,STM32 Klipper Expander,53544d33-3220-44b6-9c69-707065722045,rev?*
G04 #@! TF.SameCoordinates,Original*
G04 #@! TF.FileFunction,Soldermask,Top*
G04 #@! TF.FilePolarity,Negative*
%FSLAX46Y46*%
G04 Gerber Fmt 4.6, Leading zero omitted, Abs format (unit mm)*
G04 Created by KiCad (PCBNEW (5.1.5)-3) date 2020-01-15 03:57:31*
%MOMM*%
%LPD*%
G04 APERTURE LIST*
%ADD10C,0.100000*%
G04 APERTURE END LIST*
D10*
G36*
X108014072Y-95525918D02*
G01*
X108246664Y-95622260D01*
X108259939Y-95627759D01*
X108276762Y-95639000D01*
X108449808Y-95754626D01*
X108481212Y-95775610D01*
X108669390Y-95963788D01*
X108814654Y-96181189D01*
X108817242Y-96185063D01*
X108919082Y-96430928D01*
X108971000Y-96691937D01*
X108971000Y-96958063D01*
X108959007Y-97018354D01*
X108919082Y-97219072D01*
X108817241Y-97464939D01*
X108669390Y-97686212D01*
X108481212Y-97874390D01*
X108259939Y-98022241D01*
X108259938Y-98022242D01*
X108259937Y-98022242D01*
X108014072Y-98124082D01*
X107753063Y-98176000D01*
X107486937Y-98176000D01*
X107225928Y-98124082D01*
X106980063Y-98022242D01*
X106980062Y-98022242D01*
X106980061Y-98022241D01*
X106758788Y-97874390D01*
X106570610Y-97686212D01*
X106422759Y-97464939D01*
X106320918Y-97219072D01*
X106280993Y-97018354D01*
X106269000Y-96958063D01*
X106269000Y-96691937D01*
X106320918Y-96430928D01*
X106422758Y-96185063D01*
X106425347Y-96181189D01*
X106570610Y-95963788D01*
X106758788Y-95775610D01*
X106790193Y-95754626D01*
X106963238Y-95639000D01*
X106980061Y-95627759D01*
X106993337Y-95622260D01*
X107225928Y-95525918D01*
X107486937Y-95474000D01*
X107753063Y-95474000D01*
X108014072Y-95525918D01*
G37*
G36*
X146621000Y-97345000D02*
G01*
X144819000Y-97345000D01*
X144819000Y-95543000D01*
X146621000Y-95543000D01*
X146621000Y-97345000D01*
G37*
G36*
X140753512Y-95547927D02*
G01*
X140902812Y-95577624D01*
X141066784Y-95645544D01*
X141214354Y-95744147D01*
X141339853Y-95869646D01*
X141438456Y-96017216D01*
X141506376Y-96181188D01*
X141541000Y-96355259D01*
X141541000Y-96532741D01*
X141506376Y-96706812D01*
X141438456Y-96870784D01*
X141339853Y-97018354D01*
X141214354Y-97143853D01*
X141066784Y-97242456D01*
X140902812Y-97310376D01*
X140753512Y-97340073D01*
X140728742Y-97345000D01*
X140551258Y-97345000D01*
X140526488Y-97340073D01*
X140377188Y-97310376D01*
X140213216Y-97242456D01*
X140065646Y-97143853D01*
X139940147Y-97018354D01*
X139841544Y-96870784D01*
X139773624Y-96706812D01*
X139739000Y-96532741D01*
X139739000Y-96355259D01*
X139773624Y-96181188D01*
X139841544Y-96017216D01*
X139940147Y-95869646D01*
X140065646Y-95744147D01*
X140213216Y-95645544D01*
X140377188Y-95577624D01*
X140526488Y-95547927D01*
X140551258Y-95543000D01*
X140728742Y-95543000D01*
X140753512Y-95547927D01*
G37*
G36*
X143293512Y-95547927D02*
G01*
X143442812Y-95577624D01*
X143606784Y-95645544D01*
X143754354Y-95744147D01*
X143879853Y-95869646D01*
X143978456Y-96017216D01*
X144046376Y-96181188D01*
X144081000Y-96355259D01*
X144081000Y-96532741D01*
X144046376Y-96706812D01*
X143978456Y-96870784D01*
X143879853Y-97018354D01*
X143754354Y-97143853D01*
X143606784Y-97242456D01*
X143442812Y-97310376D01*
X143293512Y-97340073D01*
X143268742Y-97345000D01*
X143091258Y-97345000D01*
X143066488Y-97340073D01*
X142917188Y-97310376D01*
X142753216Y-97242456D01*
X142605646Y-97143853D01*
X142480147Y-97018354D01*
X142381544Y-96870784D01*
X142313624Y-96706812D01*
X142279000Y-96532741D01*
X142279000Y-96355259D01*
X142313624Y-96181188D01*
X142381544Y-96017216D01*
X142480147Y-95869646D01*
X142605646Y-95744147D01*
X142753216Y-95645544D01*
X142917188Y-95577624D01*
X143066488Y-95547927D01*
X143091258Y-95543000D01*
X143268742Y-95543000D01*
X143293512Y-95547927D01*
G37*
G36*
X116961000Y-96641000D02*
G01*
X116059000Y-96641000D01*
X116059000Y-95639000D01*
X116961000Y-95639000D01*
X116961000Y-96641000D01*
G37*
G36*
X133236627Y-94390037D02*
G01*
X133406466Y-94441557D01*
X133562991Y-94525222D01*
X133598729Y-94554552D01*
X133700186Y-94637814D01*
X133783448Y-94739271D01*
X133812778Y-94775009D01*
X133896443Y-94931534D01*
X133947963Y-95101374D01*
X133961000Y-95233743D01*
X133961000Y-95622258D01*
X133947963Y-95754627D01*
X133896443Y-95924466D01*
X133812778Y-96080991D01*
X133783448Y-96116729D01*
X133700186Y-96218186D01*
X133562989Y-96330779D01*
X133406467Y-96414442D01*
X133406465Y-96414443D01*
X133236626Y-96465963D01*
X133060000Y-96483359D01*
X132883373Y-96465963D01*
X132713534Y-96414443D01*
X132557009Y-96330778D01*
X132514750Y-96296097D01*
X132419814Y-96218186D01*
X132307221Y-96080989D01*
X132223558Y-95924467D01*
X132223557Y-95924465D01*
X132172037Y-95754626D01*
X132165518Y-95688441D01*
X132159000Y-95622259D01*
X132159000Y-95233740D01*
X132172037Y-95101375D01*
X132172037Y-95101373D01*
X132223557Y-94931534D01*
X132307222Y-94775009D01*
X132419815Y-94637815D01*
X132557010Y-94525222D01*
X132713535Y-94441557D01*
X132883374Y-94390037D01*
X133060000Y-94372641D01*
X133236627Y-94390037D01*
G37*
G36*
X124600627Y-94390037D02*
G01*
X124770466Y-94441557D01*
X124926991Y-94525222D01*
X124962729Y-94554552D01*
X125064186Y-94637814D01*
X125147448Y-94739271D01*
X125176778Y-94775009D01*
X125260443Y-94931534D01*
X125311963Y-95101374D01*
X125325000Y-95233743D01*
X125325000Y-95622258D01*
X125311963Y-95754627D01*
X125260443Y-95924466D01*
X125176778Y-96080991D01*
X125147448Y-96116729D01*
X125064186Y-96218186D01*
X124926989Y-96330779D01*
X124770467Y-96414442D01*
X124770465Y-96414443D01*
X124600626Y-96465963D01*
X124424000Y-96483359D01*
X124247373Y-96465963D01*
X124077534Y-96414443D01*
X123921009Y-96330778D01*
X123878750Y-96296097D01*
X123783814Y-96218186D01*
X123671221Y-96080989D01*
X123587558Y-95924467D01*
X123587557Y-95924465D01*
X123536037Y-95754626D01*
X123529518Y-95688441D01*
X123523000Y-95622259D01*
X123523000Y-95233740D01*
X123536037Y-95101375D01*
X123536037Y-95101373D01*
X123587557Y-94931534D01*
X123671222Y-94775009D01*
X123783815Y-94637815D01*
X123921010Y-94525222D01*
X124077535Y-94441557D01*
X124247374Y-94390037D01*
X124424000Y-94372641D01*
X124600627Y-94390037D01*
G37*
G36*
X136318600Y-94380989D02*
G01*
X136351652Y-94391015D01*
X136382103Y-94407292D01*
X136408799Y-94429201D01*
X136430708Y-94455897D01*
X136446985Y-94486348D01*
X136457011Y-94519400D01*
X136461000Y-94559903D01*
X136461000Y-96296097D01*
X136457011Y-96336600D01*
X136446985Y-96369652D01*
X136430708Y-96400103D01*
X136408799Y-96426799D01*
X136382103Y-96448708D01*
X136351652Y-96464985D01*
X136318600Y-96475011D01*
X136278097Y-96479000D01*
X134841903Y-96479000D01*
X134801400Y-96475011D01*
X134768348Y-96464985D01*
X134737897Y-96448708D01*
X134711201Y-96426799D01*
X134689292Y-96400103D01*
X134673015Y-96369652D01*
X134662989Y-96336600D01*
X134659000Y-96296097D01*
X134659000Y-94559903D01*
X134662989Y-94519400D01*
X134673015Y-94486348D01*
X134689292Y-94455897D01*
X134711201Y-94429201D01*
X134737897Y-94407292D01*
X134768348Y-94391015D01*
X134801400Y-94380989D01*
X134841903Y-94377000D01*
X136278097Y-94377000D01*
X136318600Y-94380989D01*
G37*
G36*
X127682600Y-94380989D02*
G01*
X127715652Y-94391015D01*
X127746103Y-94407292D01*
X127772799Y-94429201D01*
X127794708Y-94455897D01*
X127810985Y-94486348D01*
X127821011Y-94519400D01*
X127825000Y-94559903D01*
X127825000Y-96296097D01*
X127821011Y-96336600D01*
X127810985Y-96369652D01*
X127794708Y-96400103D01*
X127772799Y-96426799D01*
X127746103Y-96448708D01*
X127715652Y-96464985D01*
X127682600Y-96475011D01*
X127642097Y-96479000D01*
X126205903Y-96479000D01*
X126165400Y-96475011D01*
X126132348Y-96464985D01*
X126101897Y-96448708D01*
X126075201Y-96426799D01*
X126053292Y-96400103D01*
X126037015Y-96369652D01*
X126026989Y-96336600D01*
X126023000Y-96296097D01*
X126023000Y-94559903D01*
X126026989Y-94519400D01*
X126037015Y-94486348D01*
X126053292Y-94455897D01*
X126075201Y-94429201D01*
X126101897Y-94407292D01*
X126132348Y-94391015D01*
X126165400Y-94380989D01*
X126205903Y-94377000D01*
X127642097Y-94377000D01*
X127682600Y-94380989D01*
G37*
G36*
X116011000Y-94641000D02*
G01*
X115109000Y-94641000D01*
X115109000Y-93639000D01*
X116011000Y-93639000D01*
X116011000Y-94641000D01*
G37*
G36*
X117911000Y-94641000D02*
G01*
X117009000Y-94641000D01*
X117009000Y-93639000D01*
X117911000Y-93639000D01*
X117911000Y-94641000D01*
G37*
G36*
X120269468Y-92783565D02*
G01*
X120308138Y-92795296D01*
X120343777Y-92814346D01*
X120375017Y-92839983D01*
X120400654Y-92871223D01*
X120419704Y-92906862D01*
X120431435Y-92945532D01*
X120436000Y-92991888D01*
X120436000Y-93643112D01*
X120431435Y-93689468D01*
X120419704Y-93728138D01*
X120400654Y-93763777D01*
X120375017Y-93795017D01*
X120343777Y-93820654D01*
X120308138Y-93839704D01*
X120269468Y-93851435D01*
X120223112Y-93856000D01*
X119146888Y-93856000D01*
X119100532Y-93851435D01*
X119061862Y-93839704D01*
X119026223Y-93820654D01*
X118994983Y-93795017D01*
X118969346Y-93763777D01*
X118950296Y-93728138D01*
X118938565Y-93689468D01*
X118934000Y-93643112D01*
X118934000Y-92991888D01*
X118938565Y-92945532D01*
X118950296Y-92906862D01*
X118969346Y-92871223D01*
X118994983Y-92839983D01*
X119026223Y-92814346D01*
X119061862Y-92795296D01*
X119100532Y-92783565D01*
X119146888Y-92779000D01*
X120223112Y-92779000D01*
X120269468Y-92783565D01*
G37*
G36*
X146621000Y-93281000D02*
G01*
X144819000Y-93281000D01*
X144819000Y-91479000D01*
X146621000Y-91479000D01*
X146621000Y-93281000D01*
G37*
G36*
X108014072Y-90445918D02*
G01*
X108205506Y-90525212D01*
X108259939Y-90547759D01*
X108296050Y-90571888D01*
X108481211Y-90695609D01*
X108669391Y-90883789D01*
X108718142Y-90956750D01*
X108786777Y-91059468D01*
X108817242Y-91105063D01*
X108919082Y-91350928D01*
X108971000Y-91611937D01*
X108971000Y-91878063D01*
X108919082Y-92139072D01*
X108817242Y-92384937D01*
X108669391Y-92606211D01*
X108481211Y-92794391D01*
X108473572Y-92799495D01*
X108259939Y-92942241D01*
X108259938Y-92942242D01*
X108259937Y-92942242D01*
X108014072Y-93044082D01*
X107753063Y-93096000D01*
X107486937Y-93096000D01*
X107225928Y-93044082D01*
X106980063Y-92942242D01*
X106980062Y-92942242D01*
X106980061Y-92942241D01*
X106766428Y-92799495D01*
X106758789Y-92794391D01*
X106570609Y-92606211D01*
X106422758Y-92384937D01*
X106320918Y-92139072D01*
X106269000Y-91878063D01*
X106269000Y-91611937D01*
X106320918Y-91350928D01*
X106422758Y-91105063D01*
X106453224Y-91059468D01*
X106521858Y-90956750D01*
X106570609Y-90883789D01*
X106758789Y-90695609D01*
X106943950Y-90571888D01*
X106980061Y-90547759D01*
X107034495Y-90525212D01*
X107225928Y-90445918D01*
X107486937Y-90394000D01*
X107753063Y-90394000D01*
X108014072Y-90445918D01*
G37*
G36*
X141590000Y-92773000D02*
G01*
X140838000Y-92773000D01*
X140838000Y-90971000D01*
X141590000Y-90971000D01*
X141590000Y-92773000D01*
G37*
G36*
X143490000Y-92773000D02*
G01*
X142738000Y-92773000D01*
X142738000Y-92271000D01*
X143490000Y-92271000D01*
X143490000Y-92773000D01*
G37*
G36*
X120269468Y-90908565D02*
G01*
X120308138Y-90920296D01*
X120343777Y-90939346D01*
X120375017Y-90964983D01*
X120400654Y-90996223D01*
X120419704Y-91031862D01*
X120431435Y-91070532D01*
X120436000Y-91116888D01*
X120436000Y-91768112D01*
X120431435Y-91814468D01*
X120419704Y-91853138D01*
X120400654Y-91888777D01*
X120375017Y-91920017D01*
X120343777Y-91945654D01*
X120308138Y-91964704D01*
X120269468Y-91976435D01*
X120223112Y-91981000D01*
X119146888Y-91981000D01*
X119100532Y-91976435D01*
X119061862Y-91964704D01*
X119026223Y-91945654D01*
X118994983Y-91920017D01*
X118969346Y-91888777D01*
X118950296Y-91853138D01*
X118938565Y-91814468D01*
X118934000Y-91768112D01*
X118934000Y-91116888D01*
X118938565Y-91070532D01*
X118950296Y-91031862D01*
X118969346Y-90996223D01*
X118994983Y-90964983D01*
X119026223Y-90939346D01*
X119061862Y-90920296D01*
X119100532Y-90908565D01*
X119146888Y-90904000D01*
X120223112Y-90904000D01*
X120269468Y-90908565D01*
G37*
G36*
X117819468Y-90363565D02*
G01*
X117858138Y-90375296D01*
X117893777Y-90394346D01*
X117925017Y-90419983D01*
X117950654Y-90451223D01*
X117969704Y-90486862D01*
X117981435Y-90525532D01*
X117986000Y-90571888D01*
X117986000Y-91648112D01*
X117981435Y-91694468D01*
X117969704Y-91733138D01*
X117950654Y-91768777D01*
X117925017Y-91800017D01*
X117893777Y-91825654D01*
X117858138Y-91844704D01*
X117819468Y-91856435D01*
X117773112Y-91861000D01*
X117121888Y-91861000D01*
X117075532Y-91856435D01*
X117036862Y-91844704D01*
X117001223Y-91825654D01*
X116969983Y-91800017D01*
X116944346Y-91768777D01*
X116925296Y-91733138D01*
X116913565Y-91694468D01*
X116909000Y-91648112D01*
X116909000Y-90571888D01*
X116913565Y-90525532D01*
X116925296Y-90486862D01*
X116944346Y-90451223D01*
X116969983Y-90419983D01*
X117001223Y-90394346D01*
X117036862Y-90375296D01*
X117075532Y-90363565D01*
X117121888Y-90359000D01*
X117773112Y-90359000D01*
X117819468Y-90363565D01*
G37*
G36*
X115944468Y-90363565D02*
G01*
X115983138Y-90375296D01*
X116018777Y-90394346D01*
X116050017Y-90419983D01*
X116075654Y-90451223D01*
X116094704Y-90486862D01*
X116106435Y-90525532D01*
X116111000Y-90571888D01*
X116111000Y-91648112D01*
X116106435Y-91694468D01*
X116094704Y-91733138D01*
X116075654Y-91768777D01*
X116050017Y-91800017D01*
X116018777Y-91825654D01*
X115983138Y-91844704D01*
X115944468Y-91856435D01*
X115898112Y-91861000D01*
X115246888Y-91861000D01*
X115200532Y-91856435D01*
X115161862Y-91844704D01*
X115126223Y-91825654D01*
X115094983Y-91800017D01*
X115069346Y-91768777D01*
X115050296Y-91733138D01*
X115038565Y-91694468D01*
X115034000Y-91648112D01*
X115034000Y-90571888D01*
X115038565Y-90525532D01*
X115050296Y-90486862D01*
X115069346Y-90451223D01*
X115094983Y-90419983D01*
X115126223Y-90394346D01*
X115161862Y-90375296D01*
X115200532Y-90363565D01*
X115246888Y-90359000D01*
X115898112Y-90359000D01*
X115944468Y-90363565D01*
G37*
G36*
X143490000Y-91473000D02*
G01*
X142738000Y-91473000D01*
X142738000Y-90971000D01*
X143490000Y-90971000D01*
X143490000Y-91473000D01*
G37*
G36*
X131819468Y-89728565D02*
G01*
X131858138Y-89740296D01*
X131893777Y-89759346D01*
X131925017Y-89784983D01*
X131950654Y-89816223D01*
X131969704Y-89851862D01*
X131981435Y-89890532D01*
X131986000Y-89936888D01*
X131986000Y-91013112D01*
X131981435Y-91059468D01*
X131969704Y-91098138D01*
X131950654Y-91133777D01*
X131925017Y-91165017D01*
X131893777Y-91190654D01*
X131858138Y-91209704D01*
X131819468Y-91221435D01*
X131773112Y-91226000D01*
X131121888Y-91226000D01*
X131075532Y-91221435D01*
X131036862Y-91209704D01*
X131001223Y-91190654D01*
X130969983Y-91165017D01*
X130944346Y-91133777D01*
X130925296Y-91098138D01*
X130913565Y-91059468D01*
X130909000Y-91013112D01*
X130909000Y-89936888D01*
X130913565Y-89890532D01*
X130925296Y-89851862D01*
X130944346Y-89816223D01*
X130969983Y-89784983D01*
X131001223Y-89759346D01*
X131036862Y-89740296D01*
X131075532Y-89728565D01*
X131121888Y-89724000D01*
X131773112Y-89724000D01*
X131819468Y-89728565D01*
G37*
G36*
X136010468Y-89728565D02*
G01*
X136049138Y-89740296D01*
X136084777Y-89759346D01*
X136116017Y-89784983D01*
X136141654Y-89816223D01*
X136160704Y-89851862D01*
X136172435Y-89890532D01*
X136177000Y-89936888D01*
X136177000Y-91013112D01*
X136172435Y-91059468D01*
X136160704Y-91098138D01*
X136141654Y-91133777D01*
X136116017Y-91165017D01*
X136084777Y-91190654D01*
X136049138Y-91209704D01*
X136010468Y-91221435D01*
X135964112Y-91226000D01*
X135312888Y-91226000D01*
X135266532Y-91221435D01*
X135227862Y-91209704D01*
X135192223Y-91190654D01*
X135160983Y-91165017D01*
X135135346Y-91133777D01*
X135116296Y-91098138D01*
X135104565Y-91059468D01*
X135100000Y-91013112D01*
X135100000Y-89936888D01*
X135104565Y-89890532D01*
X135116296Y-89851862D01*
X135135346Y-89816223D01*
X135160983Y-89784983D01*
X135192223Y-89759346D01*
X135227862Y-89740296D01*
X135266532Y-89728565D01*
X135312888Y-89724000D01*
X135964112Y-89724000D01*
X136010468Y-89728565D01*
G37*
G36*
X137885468Y-89728565D02*
G01*
X137924138Y-89740296D01*
X137959777Y-89759346D01*
X137991017Y-89784983D01*
X138016654Y-89816223D01*
X138035704Y-89851862D01*
X138047435Y-89890532D01*
X138052000Y-89936888D01*
X138052000Y-91013112D01*
X138047435Y-91059468D01*
X138035704Y-91098138D01*
X138016654Y-91133777D01*
X137991017Y-91165017D01*
X137959777Y-91190654D01*
X137924138Y-91209704D01*
X137885468Y-91221435D01*
X137839112Y-91226000D01*
X137187888Y-91226000D01*
X137141532Y-91221435D01*
X137102862Y-91209704D01*
X137067223Y-91190654D01*
X137035983Y-91165017D01*
X137010346Y-91133777D01*
X136991296Y-91098138D01*
X136979565Y-91059468D01*
X136975000Y-91013112D01*
X136975000Y-89936888D01*
X136979565Y-89890532D01*
X136991296Y-89851862D01*
X137010346Y-89816223D01*
X137035983Y-89784983D01*
X137067223Y-89759346D01*
X137102862Y-89740296D01*
X137141532Y-89728565D01*
X137187888Y-89724000D01*
X137839112Y-89724000D01*
X137885468Y-89728565D01*
G37*
G36*
X133694468Y-89728565D02*
G01*
X133733138Y-89740296D01*
X133768777Y-89759346D01*
X133800017Y-89784983D01*
X133825654Y-89816223D01*
X133844704Y-89851862D01*
X133856435Y-89890532D01*
X133861000Y-89936888D01*
X133861000Y-91013112D01*
X133856435Y-91059468D01*
X133844704Y-91098138D01*
X133825654Y-91133777D01*
X133800017Y-91165017D01*
X133768777Y-91190654D01*
X133733138Y-91209704D01*
X133694468Y-91221435D01*
X133648112Y-91226000D01*
X132996888Y-91226000D01*
X132950532Y-91221435D01*
X132911862Y-91209704D01*
X132876223Y-91190654D01*
X132844983Y-91165017D01*
X132819346Y-91133777D01*
X132800296Y-91098138D01*
X132788565Y-91059468D01*
X132784000Y-91013112D01*
X132784000Y-89936888D01*
X132788565Y-89890532D01*
X132800296Y-89851862D01*
X132819346Y-89816223D01*
X132844983Y-89784983D01*
X132876223Y-89759346D01*
X132911862Y-89740296D01*
X132950532Y-89728565D01*
X132996888Y-89724000D01*
X133648112Y-89724000D01*
X133694468Y-89728565D01*
G37*
G36*
X124804468Y-89728565D02*
G01*
X124843138Y-89740296D01*
X124878777Y-89759346D01*
X124910017Y-89784983D01*
X124935654Y-89816223D01*
X124954704Y-89851862D01*
X124966435Y-89890532D01*
X124971000Y-89936888D01*
X124971000Y-91013112D01*
X124966435Y-91059468D01*
X124954704Y-91098138D01*
X124935654Y-91133777D01*
X124910017Y-91165017D01*
X124878777Y-91190654D01*
X124843138Y-91209704D01*
X124804468Y-91221435D01*
X124758112Y-91226000D01*
X124106888Y-91226000D01*
X124060532Y-91221435D01*
X124021862Y-91209704D01*
X123986223Y-91190654D01*
X123954983Y-91165017D01*
X123929346Y-91133777D01*
X123910296Y-91098138D01*
X123898565Y-91059468D01*
X123894000Y-91013112D01*
X123894000Y-89936888D01*
X123898565Y-89890532D01*
X123910296Y-89851862D01*
X123929346Y-89816223D01*
X123954983Y-89784983D01*
X123986223Y-89759346D01*
X124021862Y-89740296D01*
X124060532Y-89728565D01*
X124106888Y-89724000D01*
X124758112Y-89724000D01*
X124804468Y-89728565D01*
G37*
G36*
X122929468Y-89728565D02*
G01*
X122968138Y-89740296D01*
X123003777Y-89759346D01*
X123035017Y-89784983D01*
X123060654Y-89816223D01*
X123079704Y-89851862D01*
X123091435Y-89890532D01*
X123096000Y-89936888D01*
X123096000Y-91013112D01*
X123091435Y-91059468D01*
X123079704Y-91098138D01*
X123060654Y-91133777D01*
X123035017Y-91165017D01*
X123003777Y-91190654D01*
X122968138Y-91209704D01*
X122929468Y-91221435D01*
X122883112Y-91226000D01*
X122231888Y-91226000D01*
X122185532Y-91221435D01*
X122146862Y-91209704D01*
X122111223Y-91190654D01*
X122079983Y-91165017D01*
X122054346Y-91133777D01*
X122035296Y-91098138D01*
X122023565Y-91059468D01*
X122019000Y-91013112D01*
X122019000Y-89936888D01*
X122023565Y-89890532D01*
X122035296Y-89851862D01*
X122054346Y-89816223D01*
X122079983Y-89784983D01*
X122111223Y-89759346D01*
X122146862Y-89740296D01*
X122185532Y-89728565D01*
X122231888Y-89724000D01*
X122883112Y-89724000D01*
X122929468Y-89728565D01*
G37*
G36*
X127374468Y-89728565D02*
G01*
X127413138Y-89740296D01*
X127448777Y-89759346D01*
X127480017Y-89784983D01*
X127505654Y-89816223D01*
X127524704Y-89851862D01*
X127536435Y-89890532D01*
X127541000Y-89936888D01*
X127541000Y-91013112D01*
X127536435Y-91059468D01*
X127524704Y-91098138D01*
X127505654Y-91133777D01*
X127480017Y-91165017D01*
X127448777Y-91190654D01*
X127413138Y-91209704D01*
X127374468Y-91221435D01*
X127328112Y-91226000D01*
X126676888Y-91226000D01*
X126630532Y-91221435D01*
X126591862Y-91209704D01*
X126556223Y-91190654D01*
X126524983Y-91165017D01*
X126499346Y-91133777D01*
X126480296Y-91098138D01*
X126468565Y-91059468D01*
X126464000Y-91013112D01*
X126464000Y-89936888D01*
X126468565Y-89890532D01*
X126480296Y-89851862D01*
X126499346Y-89816223D01*
X126524983Y-89784983D01*
X126556223Y-89759346D01*
X126591862Y-89740296D01*
X126630532Y-89728565D01*
X126676888Y-89724000D01*
X127328112Y-89724000D01*
X127374468Y-89728565D01*
G37*
G36*
X129249468Y-89728565D02*
G01*
X129288138Y-89740296D01*
X129323777Y-89759346D01*
X129355017Y-89784983D01*
X129380654Y-89816223D01*
X129399704Y-89851862D01*
X129411435Y-89890532D01*
X129416000Y-89936888D01*
X129416000Y-91013112D01*
X129411435Y-91059468D01*
X129399704Y-91098138D01*
X129380654Y-91133777D01*
X129355017Y-91165017D01*
X129323777Y-91190654D01*
X129288138Y-91209704D01*
X129249468Y-91221435D01*
X129203112Y-91226000D01*
X128551888Y-91226000D01*
X128505532Y-91221435D01*
X128466862Y-91209704D01*
X128431223Y-91190654D01*
X128399983Y-91165017D01*
X128374346Y-91133777D01*
X128355296Y-91098138D01*
X128343565Y-91059468D01*
X128339000Y-91013112D01*
X128339000Y-89936888D01*
X128343565Y-89890532D01*
X128355296Y-89851862D01*
X128374346Y-89816223D01*
X128399983Y-89784983D01*
X128431223Y-89759346D01*
X128466862Y-89740296D01*
X128505532Y-89728565D01*
X128551888Y-89724000D01*
X129203112Y-89724000D01*
X129249468Y-89728565D01*
G37*
G36*
X108014072Y-85365918D02*
G01*
X108259939Y-85467759D01*
X108276762Y-85479000D01*
X108481211Y-85615609D01*
X108669391Y-85803789D01*
X108735775Y-85903139D01*
X108814654Y-86021189D01*
X108817242Y-86025063D01*
X108919082Y-86270928D01*
X108971000Y-86531937D01*
X108971000Y-86798063D01*
X108959007Y-86858354D01*
X108919082Y-87059072D01*
X108817241Y-87304939D01*
X108669390Y-87526212D01*
X108481212Y-87714390D01*
X108259939Y-87862241D01*
X108259938Y-87862242D01*
X108259937Y-87862242D01*
X108014072Y-87964082D01*
X107753063Y-88016000D01*
X107486937Y-88016000D01*
X107225928Y-87964082D01*
X106980063Y-87862242D01*
X106980062Y-87862242D01*
X106980061Y-87862241D01*
X106758788Y-87714390D01*
X106570610Y-87526212D01*
X106422759Y-87304939D01*
X106320918Y-87059072D01*
X106280993Y-86858354D01*
X106269000Y-86798063D01*
X106269000Y-86531937D01*
X106320918Y-86270928D01*
X106422758Y-86025063D01*
X106425347Y-86021189D01*
X106504225Y-85903139D01*
X106570609Y-85803789D01*
X106758789Y-85615609D01*
X106963238Y-85479000D01*
X106980061Y-85467759D01*
X107225928Y-85365918D01*
X107486937Y-85314000D01*
X107753063Y-85314000D01*
X108014072Y-85365918D01*
G37*
G36*
X131381000Y-87185000D02*
G01*
X129579000Y-87185000D01*
X129579000Y-85383000D01*
X131381000Y-85383000D01*
X131381000Y-87185000D01*
G37*
G36*
X128053512Y-85387927D02*
G01*
X128202812Y-85417624D01*
X128366784Y-85485544D01*
X128514354Y-85584147D01*
X128639853Y-85709646D01*
X128738456Y-85857216D01*
X128806376Y-86021188D01*
X128841000Y-86195259D01*
X128841000Y-86372741D01*
X128806376Y-86546812D01*
X128738456Y-86710784D01*
X128639853Y-86858354D01*
X128514354Y-86983853D01*
X128366784Y-87082456D01*
X128202812Y-87150376D01*
X128053512Y-87180073D01*
X128028742Y-87185000D01*
X127851258Y-87185000D01*
X127826488Y-87180073D01*
X127677188Y-87150376D01*
X127513216Y-87082456D01*
X127365646Y-86983853D01*
X127240147Y-86858354D01*
X127141544Y-86710784D01*
X127073624Y-86546812D01*
X127039000Y-86372741D01*
X127039000Y-86195259D01*
X127073624Y-86021188D01*
X127141544Y-85857216D01*
X127240147Y-85709646D01*
X127365646Y-85584147D01*
X127513216Y-85485544D01*
X127677188Y-85417624D01*
X127826488Y-85387927D01*
X127851258Y-85383000D01*
X128028742Y-85383000D01*
X128053512Y-85387927D01*
G37*
G36*
X116961000Y-86481000D02*
G01*
X116059000Y-86481000D01*
X116059000Y-85479000D01*
X116961000Y-85479000D01*
X116961000Y-86481000D01*
G37*
G36*
X139319468Y-84909565D02*
G01*
X139358138Y-84921296D01*
X139393777Y-84940346D01*
X139425017Y-84965983D01*
X139450654Y-84997223D01*
X139469704Y-85032862D01*
X139481435Y-85071532D01*
X139486000Y-85117888D01*
X139486000Y-85769112D01*
X139481435Y-85815468D01*
X139469704Y-85854138D01*
X139450654Y-85889777D01*
X139425017Y-85921017D01*
X139393777Y-85946654D01*
X139358138Y-85965704D01*
X139319468Y-85977435D01*
X139273112Y-85982000D01*
X138196888Y-85982000D01*
X138150532Y-85977435D01*
X138111862Y-85965704D01*
X138076223Y-85946654D01*
X138044983Y-85921017D01*
X138019346Y-85889777D01*
X138000296Y-85854138D01*
X137988565Y-85815468D01*
X137984000Y-85769112D01*
X137984000Y-85117888D01*
X137988565Y-85071532D01*
X138000296Y-85032862D01*
X138019346Y-84997223D01*
X138044983Y-84965983D01*
X138076223Y-84940346D01*
X138111862Y-84921296D01*
X138150532Y-84909565D01*
X138196888Y-84905000D01*
X139273112Y-84905000D01*
X139319468Y-84909565D01*
G37*
G36*
X146304468Y-84909565D02*
G01*
X146343138Y-84921296D01*
X146378777Y-84940346D01*
X146410017Y-84965983D01*
X146435654Y-84997223D01*
X146454704Y-85032862D01*
X146466435Y-85071532D01*
X146471000Y-85117888D01*
X146471000Y-85769112D01*
X146466435Y-85815468D01*
X146454704Y-85854138D01*
X146435654Y-85889777D01*
X146410017Y-85921017D01*
X146378777Y-85946654D01*
X146343138Y-85965704D01*
X146304468Y-85977435D01*
X146258112Y-85982000D01*
X145181888Y-85982000D01*
X145135532Y-85977435D01*
X145096862Y-85965704D01*
X145061223Y-85946654D01*
X145029983Y-85921017D01*
X145004346Y-85889777D01*
X144985296Y-85854138D01*
X144973565Y-85815468D01*
X144969000Y-85769112D01*
X144969000Y-85117888D01*
X144973565Y-85071532D01*
X144985296Y-85032862D01*
X145004346Y-84997223D01*
X145029983Y-84965983D01*
X145061223Y-84940346D01*
X145096862Y-84921296D01*
X145135532Y-84909565D01*
X145181888Y-84905000D01*
X146258112Y-84905000D01*
X146304468Y-84909565D01*
G37*
G36*
X141391000Y-85832000D02*
G01*
X140229000Y-85832000D01*
X140229000Y-85080000D01*
X141391000Y-85080000D01*
X141391000Y-85832000D01*
G37*
G36*
X143591000Y-85832000D02*
G01*
X142429000Y-85832000D01*
X142429000Y-83180000D01*
X143591000Y-83180000D01*
X143591000Y-85832000D01*
G37*
G36*
X116011000Y-84481000D02*
G01*
X115109000Y-84481000D01*
X115109000Y-83479000D01*
X116011000Y-83479000D01*
X116011000Y-84481000D01*
G37*
G36*
X117911000Y-84481000D02*
G01*
X117009000Y-84481000D01*
X117009000Y-83479000D01*
X117911000Y-83479000D01*
X117911000Y-84481000D01*
G37*
G36*
X139319468Y-83034565D02*
G01*
X139358138Y-83046296D01*
X139393777Y-83065346D01*
X139425017Y-83090983D01*
X139450654Y-83122223D01*
X139469704Y-83157862D01*
X139481435Y-83196532D01*
X139486000Y-83242888D01*
X139486000Y-83894112D01*
X139481435Y-83940468D01*
X139469704Y-83979138D01*
X139450654Y-84014777D01*
X139425017Y-84046017D01*
X139393777Y-84071654D01*
X139358138Y-84090704D01*
X139319468Y-84102435D01*
X139273112Y-84107000D01*
X138196888Y-84107000D01*
X138150532Y-84102435D01*
X138111862Y-84090704D01*
X138076223Y-84071654D01*
X138044983Y-84046017D01*
X138019346Y-84014777D01*
X138000296Y-83979138D01*
X137988565Y-83940468D01*
X137984000Y-83894112D01*
X137984000Y-83242888D01*
X137988565Y-83196532D01*
X138000296Y-83157862D01*
X138019346Y-83122223D01*
X138044983Y-83090983D01*
X138076223Y-83065346D01*
X138111862Y-83046296D01*
X138150532Y-83034565D01*
X138196888Y-83030000D01*
X139273112Y-83030000D01*
X139319468Y-83034565D01*
G37*
G36*
X146304468Y-83034565D02*
G01*
X146343138Y-83046296D01*
X146378777Y-83065346D01*
X146410017Y-83090983D01*
X146435654Y-83122223D01*
X146454704Y-83157862D01*
X146466435Y-83196532D01*
X146471000Y-83242888D01*
X146471000Y-83894112D01*
X146466435Y-83940468D01*
X146454704Y-83979138D01*
X146435654Y-84014777D01*
X146410017Y-84046017D01*
X146378777Y-84071654D01*
X146343138Y-84090704D01*
X146304468Y-84102435D01*
X146258112Y-84107000D01*
X145181888Y-84107000D01*
X145135532Y-84102435D01*
X145096862Y-84090704D01*
X145061223Y-84071654D01*
X145029983Y-84046017D01*
X145004346Y-84014777D01*
X144985296Y-83979138D01*
X144973565Y-83940468D01*
X144969000Y-83894112D01*
X144969000Y-83242888D01*
X144973565Y-83196532D01*
X144985296Y-83157862D01*
X145004346Y-83122223D01*
X145029983Y-83090983D01*
X145061223Y-83065346D01*
X145096862Y-83046296D01*
X145135532Y-83034565D01*
X145181888Y-83030000D01*
X146258112Y-83030000D01*
X146304468Y-83034565D01*
G37*
G36*
X141391000Y-83932000D02*
G01*
X140229000Y-83932000D01*
X140229000Y-83180000D01*
X141391000Y-83180000D01*
X141391000Y-83932000D01*
G37*
G36*
X120269468Y-82623565D02*
G01*
X120308138Y-82635296D01*
X120343777Y-82654346D01*
X120375017Y-82679983D01*
X120400654Y-82711223D01*
X120419704Y-82746862D01*
X120431435Y-82785532D01*
X120436000Y-82831888D01*
X120436000Y-83483112D01*
X120431435Y-83529468D01*
X120419704Y-83568138D01*
X120400654Y-83603777D01*
X120375017Y-83635017D01*
X120343777Y-83660654D01*
X120308138Y-83679704D01*
X120269468Y-83691435D01*
X120223112Y-83696000D01*
X119146888Y-83696000D01*
X119100532Y-83691435D01*
X119061862Y-83679704D01*
X119026223Y-83660654D01*
X118994983Y-83635017D01*
X118969346Y-83603777D01*
X118950296Y-83568138D01*
X118938565Y-83529468D01*
X118934000Y-83483112D01*
X118934000Y-82831888D01*
X118938565Y-82785532D01*
X118950296Y-82746862D01*
X118969346Y-82711223D01*
X118994983Y-82679983D01*
X119026223Y-82654346D01*
X119061862Y-82635296D01*
X119100532Y-82623565D01*
X119146888Y-82619000D01*
X120223112Y-82619000D01*
X120269468Y-82623565D01*
G37*
G36*
X108014072Y-80285918D02*
G01*
X108205506Y-80365212D01*
X108259939Y-80387759D01*
X108296050Y-80411888D01*
X108481211Y-80535609D01*
X108669391Y-80723789D01*
X108723643Y-80804983D01*
X108815939Y-80943112D01*
X108817242Y-80945063D01*
X108919082Y-81190928D01*
X108971000Y-81451937D01*
X108971000Y-81718063D01*
X108919082Y-81979072D01*
X108817242Y-82224937D01*
X108669391Y-82446211D01*
X108481211Y-82634391D01*
X108473572Y-82639495D01*
X108259939Y-82782241D01*
X108259938Y-82782242D01*
X108259937Y-82782242D01*
X108014072Y-82884082D01*
X107753063Y-82936000D01*
X107486937Y-82936000D01*
X107225928Y-82884082D01*
X106980063Y-82782242D01*
X106980062Y-82782242D01*
X106980061Y-82782241D01*
X106766428Y-82639495D01*
X106758789Y-82634391D01*
X106570609Y-82446211D01*
X106422758Y-82224937D01*
X106320918Y-81979072D01*
X106269000Y-81718063D01*
X106269000Y-81451937D01*
X106320918Y-81190928D01*
X106422758Y-80945063D01*
X106424062Y-80943112D01*
X106516357Y-80804983D01*
X106570609Y-80723789D01*
X106758789Y-80535609D01*
X106943950Y-80411888D01*
X106980061Y-80387759D01*
X107034495Y-80365212D01*
X107225928Y-80285918D01*
X107486937Y-80234000D01*
X107753063Y-80234000D01*
X108014072Y-80285918D01*
G37*
G36*
X120269468Y-80748565D02*
G01*
X120308138Y-80760296D01*
X120343777Y-80779346D01*
X120375017Y-80804983D01*
X120400654Y-80836223D01*
X120419704Y-80871862D01*
X120431435Y-80910532D01*
X120436000Y-80956888D01*
X120436000Y-81608112D01*
X120431435Y-81654468D01*
X120419704Y-81693138D01*
X120400654Y-81728777D01*
X120375017Y-81760017D01*
X120343777Y-81785654D01*
X120308138Y-81804704D01*
X120269468Y-81816435D01*
X120223112Y-81821000D01*
X119146888Y-81821000D01*
X119100532Y-81816435D01*
X119061862Y-81804704D01*
X119026223Y-81785654D01*
X118994983Y-81760017D01*
X118969346Y-81728777D01*
X118950296Y-81693138D01*
X118938565Y-81654468D01*
X118934000Y-81608112D01*
X118934000Y-80956888D01*
X118938565Y-80910532D01*
X118950296Y-80871862D01*
X118969346Y-80836223D01*
X118994983Y-80804983D01*
X119026223Y-80779346D01*
X119061862Y-80760296D01*
X119100532Y-80748565D01*
X119146888Y-80744000D01*
X120223112Y-80744000D01*
X120269468Y-80748565D01*
G37*
G36*
X136492000Y-81738000D02*
G01*
X134940000Y-81738000D01*
X134940000Y-75336000D01*
X136492000Y-75336000D01*
X136492000Y-81738000D01*
G37*
G36*
X130592000Y-81738000D02*
G01*
X129040000Y-81738000D01*
X129040000Y-75336000D01*
X130592000Y-75336000D01*
X130592000Y-81738000D01*
G37*
G36*
X115944468Y-80203565D02*
G01*
X115983138Y-80215296D01*
X116018777Y-80234346D01*
X116050017Y-80259983D01*
X116075654Y-80291223D01*
X116094704Y-80326862D01*
X116106435Y-80365532D01*
X116111000Y-80411888D01*
X116111000Y-81488112D01*
X116106435Y-81534468D01*
X116094704Y-81573138D01*
X116075654Y-81608777D01*
X116050017Y-81640017D01*
X116018777Y-81665654D01*
X115983138Y-81684704D01*
X115944468Y-81696435D01*
X115898112Y-81701000D01*
X115246888Y-81701000D01*
X115200532Y-81696435D01*
X115161862Y-81684704D01*
X115126223Y-81665654D01*
X115094983Y-81640017D01*
X115069346Y-81608777D01*
X115050296Y-81573138D01*
X115038565Y-81534468D01*
X115034000Y-81488112D01*
X115034000Y-80411888D01*
X115038565Y-80365532D01*
X115050296Y-80326862D01*
X115069346Y-80291223D01*
X115094983Y-80259983D01*
X115126223Y-80234346D01*
X115161862Y-80215296D01*
X115200532Y-80203565D01*
X115246888Y-80199000D01*
X115898112Y-80199000D01*
X115944468Y-80203565D01*
G37*
G36*
X117819468Y-80203565D02*
G01*
X117858138Y-80215296D01*
X117893777Y-80234346D01*
X117925017Y-80259983D01*
X117950654Y-80291223D01*
X117969704Y-80326862D01*
X117981435Y-80365532D01*
X117986000Y-80411888D01*
X117986000Y-81488112D01*
X117981435Y-81534468D01*
X117969704Y-81573138D01*
X117950654Y-81608777D01*
X117925017Y-81640017D01*
X117893777Y-81665654D01*
X117858138Y-81684704D01*
X117819468Y-81696435D01*
X117773112Y-81701000D01*
X117121888Y-81701000D01*
X117075532Y-81696435D01*
X117036862Y-81684704D01*
X117001223Y-81665654D01*
X116969983Y-81640017D01*
X116944346Y-81608777D01*
X116925296Y-81573138D01*
X116913565Y-81534468D01*
X116909000Y-81488112D01*
X116909000Y-80411888D01*
X116913565Y-80365532D01*
X116925296Y-80326862D01*
X116944346Y-80291223D01*
X116969983Y-80259983D01*
X117001223Y-80234346D01*
X117036862Y-80215296D01*
X117075532Y-80203565D01*
X117121888Y-80199000D01*
X117773112Y-80199000D01*
X117819468Y-80203565D01*
G37*
G36*
X139192468Y-80083565D02*
G01*
X139231138Y-80095296D01*
X139266777Y-80114346D01*
X139298017Y-80139983D01*
X139323654Y-80171223D01*
X139342704Y-80206862D01*
X139354435Y-80245532D01*
X139359000Y-80291888D01*
X139359000Y-80943112D01*
X139354435Y-80989468D01*
X139342704Y-81028138D01*
X139323654Y-81063777D01*
X139298017Y-81095017D01*
X139266777Y-81120654D01*
X139231138Y-81139704D01*
X139192468Y-81151435D01*
X139146112Y-81156000D01*
X138069888Y-81156000D01*
X138023532Y-81151435D01*
X137984862Y-81139704D01*
X137949223Y-81120654D01*
X137917983Y-81095017D01*
X137892346Y-81063777D01*
X137873296Y-81028138D01*
X137861565Y-80989468D01*
X137857000Y-80943112D01*
X137857000Y-80291888D01*
X137861565Y-80245532D01*
X137873296Y-80206862D01*
X137892346Y-80171223D01*
X137917983Y-80139983D01*
X137949223Y-80114346D01*
X137984862Y-80095296D01*
X138023532Y-80083565D01*
X138069888Y-80079000D01*
X139146112Y-80079000D01*
X139192468Y-80083565D01*
G37*
G36*
X146732000Y-80883000D02*
G01*
X145330000Y-80883000D01*
X145330000Y-79131000D01*
X146732000Y-79131000D01*
X146732000Y-80883000D01*
G37*
G36*
X144282000Y-74908000D02*
G01*
X144236999Y-74908000D01*
X144212613Y-74910402D01*
X144189164Y-74917515D01*
X144167553Y-74929066D01*
X144148611Y-74944611D01*
X144133066Y-74963553D01*
X144121515Y-74985164D01*
X144114402Y-75008613D01*
X144112000Y-75032999D01*
X144112000Y-78231001D01*
X144114402Y-78255387D01*
X144121515Y-78278836D01*
X144133066Y-78300447D01*
X144148611Y-78319389D01*
X144167553Y-78334934D01*
X144189164Y-78346485D01*
X144212613Y-78353598D01*
X144236999Y-78356000D01*
X144282000Y-78356000D01*
X144282000Y-79883000D01*
X142630000Y-79883000D01*
X142630000Y-73381000D01*
X144282000Y-73381000D01*
X144282000Y-74908000D01*
G37*
G36*
X139192468Y-78208565D02*
G01*
X139231138Y-78220296D01*
X139266777Y-78239346D01*
X139298017Y-78264983D01*
X139323654Y-78296223D01*
X139342704Y-78331862D01*
X139354435Y-78370532D01*
X139359000Y-78416888D01*
X139359000Y-79068112D01*
X139354435Y-79114468D01*
X139342704Y-79153138D01*
X139323654Y-79188777D01*
X139298017Y-79220017D01*
X139266777Y-79245654D01*
X139231138Y-79264704D01*
X139192468Y-79276435D01*
X139146112Y-79281000D01*
X138069888Y-79281000D01*
X138023532Y-79276435D01*
X137984862Y-79264704D01*
X137949223Y-79245654D01*
X137917983Y-79220017D01*
X137892346Y-79188777D01*
X137873296Y-79153138D01*
X137861565Y-79114468D01*
X137857000Y-79068112D01*
X137857000Y-78416888D01*
X137861565Y-78370532D01*
X137873296Y-78331862D01*
X137892346Y-78296223D01*
X137917983Y-78264983D01*
X137949223Y-78239346D01*
X137984862Y-78220296D01*
X138023532Y-78208565D01*
X138069888Y-78204000D01*
X139146112Y-78204000D01*
X139192468Y-78208565D01*
G37*
G36*
X147032000Y-78733000D02*
G01*
X145030000Y-78733000D01*
X145030000Y-76831000D01*
X147032000Y-76831000D01*
X147032000Y-78733000D01*
G37*
G36*
X127889468Y-77035565D02*
G01*
X127928138Y-77047296D01*
X127963777Y-77066346D01*
X127995017Y-77091983D01*
X128020654Y-77123223D01*
X128039704Y-77158862D01*
X128051435Y-77197532D01*
X128056000Y-77243888D01*
X128056000Y-77895112D01*
X128051435Y-77941468D01*
X128039704Y-77980138D01*
X128020654Y-78015777D01*
X127995017Y-78047017D01*
X127963777Y-78072654D01*
X127928138Y-78091704D01*
X127889468Y-78103435D01*
X127843112Y-78108000D01*
X126766888Y-78108000D01*
X126720532Y-78103435D01*
X126681862Y-78091704D01*
X126646223Y-78072654D01*
X126614983Y-78047017D01*
X126589346Y-78015777D01*
X126570296Y-77980138D01*
X126558565Y-77941468D01*
X126554000Y-77895112D01*
X126554000Y-77243888D01*
X126558565Y-77197532D01*
X126570296Y-77158862D01*
X126589346Y-77123223D01*
X126614983Y-77091983D01*
X126646223Y-77066346D01*
X126681862Y-77047296D01*
X126720532Y-77035565D01*
X126766888Y-77031000D01*
X127843112Y-77031000D01*
X127889468Y-77035565D01*
G37*
G36*
X108014072Y-75205918D02*
G01*
X108238190Y-75298750D01*
X108259939Y-75307759D01*
X108276762Y-75319000D01*
X108481211Y-75455609D01*
X108669391Y-75643789D01*
X108817242Y-75865063D01*
X108919082Y-76110928D01*
X108971000Y-76371937D01*
X108971000Y-76638063D01*
X108919082Y-76899072D01*
X108817242Y-77144937D01*
X108669391Y-77366211D01*
X108481211Y-77554391D01*
X108371328Y-77627813D01*
X108259939Y-77702241D01*
X108259938Y-77702242D01*
X108259937Y-77702242D01*
X108014072Y-77804082D01*
X107753063Y-77856000D01*
X107486937Y-77856000D01*
X107225928Y-77804082D01*
X106980063Y-77702242D01*
X106980062Y-77702242D01*
X106980061Y-77702241D01*
X106868672Y-77627813D01*
X106758789Y-77554391D01*
X106570609Y-77366211D01*
X106422758Y-77144937D01*
X106320918Y-76899072D01*
X106269000Y-76638063D01*
X106269000Y-76371937D01*
X106320918Y-76110928D01*
X106422758Y-75865063D01*
X106570609Y-75643789D01*
X106758789Y-75455609D01*
X106963238Y-75319000D01*
X106980061Y-75307759D01*
X107001811Y-75298750D01*
X107225928Y-75205918D01*
X107486937Y-75154000D01*
X107753063Y-75154000D01*
X108014072Y-75205918D01*
G37*
G36*
X116961000Y-76321000D02*
G01*
X116059000Y-76321000D01*
X116059000Y-75319000D01*
X116961000Y-75319000D01*
X116961000Y-76321000D01*
G37*
G36*
X127889468Y-75160565D02*
G01*
X127928138Y-75172296D01*
X127963777Y-75191346D01*
X127995017Y-75216983D01*
X128020654Y-75248223D01*
X128039704Y-75283862D01*
X128051435Y-75322532D01*
X128056000Y-75368888D01*
X128056000Y-76020112D01*
X128051435Y-76066468D01*
X128039704Y-76105138D01*
X128020654Y-76140777D01*
X127995017Y-76172017D01*
X127963777Y-76197654D01*
X127928138Y-76216704D01*
X127889468Y-76228435D01*
X127843112Y-76233000D01*
X126766888Y-76233000D01*
X126720532Y-76228435D01*
X126681862Y-76216704D01*
X126646223Y-76197654D01*
X126614983Y-76172017D01*
X126589346Y-76140777D01*
X126570296Y-76105138D01*
X126558565Y-76066468D01*
X126554000Y-76020112D01*
X126554000Y-75368888D01*
X126558565Y-75322532D01*
X126570296Y-75283862D01*
X126589346Y-75248223D01*
X126614983Y-75216983D01*
X126646223Y-75191346D01*
X126681862Y-75172296D01*
X126720532Y-75160565D01*
X126766888Y-75156000D01*
X127843112Y-75156000D01*
X127889468Y-75160565D01*
G37*
G36*
X147032000Y-75633000D02*
G01*
X145030000Y-75633000D01*
X145030000Y-74531000D01*
X147032000Y-74531000D01*
X147032000Y-75633000D01*
G37*
G36*
X123444468Y-74495565D02*
G01*
X123483138Y-74507296D01*
X123518777Y-74526346D01*
X123550017Y-74551983D01*
X123575654Y-74583223D01*
X123594704Y-74618862D01*
X123606435Y-74657532D01*
X123611000Y-74703888D01*
X123611000Y-75355112D01*
X123606435Y-75401468D01*
X123594704Y-75440138D01*
X123575654Y-75475777D01*
X123550017Y-75507017D01*
X123518777Y-75532654D01*
X123483138Y-75551704D01*
X123444468Y-75563435D01*
X123398112Y-75568000D01*
X122321888Y-75568000D01*
X122275532Y-75563435D01*
X122236862Y-75551704D01*
X122201223Y-75532654D01*
X122169983Y-75507017D01*
X122144346Y-75475777D01*
X122125296Y-75440138D01*
X122113565Y-75401468D01*
X122109000Y-75355112D01*
X122109000Y-74703888D01*
X122113565Y-74657532D01*
X122125296Y-74618862D01*
X122144346Y-74583223D01*
X122169983Y-74551983D01*
X122201223Y-74526346D01*
X122236862Y-74507296D01*
X122275532Y-74495565D01*
X122321888Y-74491000D01*
X123398112Y-74491000D01*
X123444468Y-74495565D01*
G37*
G36*
X117911000Y-74321000D02*
G01*
X117009000Y-74321000D01*
X117009000Y-73319000D01*
X117911000Y-73319000D01*
X117911000Y-74321000D01*
G37*
G36*
X116011000Y-74321000D02*
G01*
X115109000Y-74321000D01*
X115109000Y-73319000D01*
X116011000Y-73319000D01*
X116011000Y-74321000D01*
G37*
G36*
X146732000Y-74133000D02*
G01*
X145330000Y-74133000D01*
X145330000Y-72381000D01*
X146732000Y-72381000D01*
X146732000Y-74133000D01*
G37*
G36*
X123444468Y-72620565D02*
G01*
X123483138Y-72632296D01*
X123518777Y-72651346D01*
X123550017Y-72676983D01*
X123575654Y-72708223D01*
X123594704Y-72743862D01*
X123606435Y-72782532D01*
X123611000Y-72828888D01*
X123611000Y-73480112D01*
X123606435Y-73526468D01*
X123594704Y-73565138D01*
X123575654Y-73600777D01*
X123550017Y-73632017D01*
X123518777Y-73657654D01*
X123483138Y-73676704D01*
X123444468Y-73688435D01*
X123398112Y-73693000D01*
X122321888Y-73693000D01*
X122275532Y-73688435D01*
X122236862Y-73676704D01*
X122201223Y-73657654D01*
X122169983Y-73632017D01*
X122144346Y-73600777D01*
X122125296Y-73565138D01*
X122113565Y-73526468D01*
X122109000Y-73480112D01*
X122109000Y-72828888D01*
X122113565Y-72782532D01*
X122125296Y-72743862D01*
X122144346Y-72708223D01*
X122169983Y-72676983D01*
X122201223Y-72651346D01*
X122236862Y-72632296D01*
X122275532Y-72620565D01*
X122321888Y-72616000D01*
X123398112Y-72616000D01*
X123444468Y-72620565D01*
G37*
G36*
X120269468Y-72463565D02*
G01*
X120308138Y-72475296D01*
X120343777Y-72494346D01*
X120375017Y-72519983D01*
X120400654Y-72551223D01*
X120419704Y-72586862D01*
X120431435Y-72625532D01*
X120436000Y-72671888D01*
X120436000Y-73323112D01*
X120431435Y-73369468D01*
X120419704Y-73408138D01*
X120400654Y-73443777D01*
X120375017Y-73475017D01*
X120343777Y-73500654D01*
X120308138Y-73519704D01*
X120269468Y-73531435D01*
X120223112Y-73536000D01*
X119146888Y-73536000D01*
X119100532Y-73531435D01*
X119061862Y-73519704D01*
X119026223Y-73500654D01*
X118994983Y-73475017D01*
X118969346Y-73443777D01*
X118950296Y-73408138D01*
X118938565Y-73369468D01*
X118934000Y-73323112D01*
X118934000Y-72671888D01*
X118938565Y-72625532D01*
X118950296Y-72586862D01*
X118969346Y-72551223D01*
X118994983Y-72519983D01*
X119026223Y-72494346D01*
X119061862Y-72475296D01*
X119100532Y-72463565D01*
X119146888Y-72459000D01*
X120223112Y-72459000D01*
X120269468Y-72463565D01*
G37*
G36*
X134329468Y-71821565D02*
G01*
X134368138Y-71833296D01*
X134403777Y-71852346D01*
X134435017Y-71877983D01*
X134460654Y-71909223D01*
X134479704Y-71944862D01*
X134491435Y-71983532D01*
X134496000Y-72029888D01*
X134496000Y-73106112D01*
X134491435Y-73152468D01*
X134479704Y-73191138D01*
X134460654Y-73226777D01*
X134435017Y-73258017D01*
X134403777Y-73283654D01*
X134368138Y-73302704D01*
X134329468Y-73314435D01*
X134283112Y-73319000D01*
X133631888Y-73319000D01*
X133585532Y-73314435D01*
X133546862Y-73302704D01*
X133511223Y-73283654D01*
X133479983Y-73258017D01*
X133454346Y-73226777D01*
X133435296Y-73191138D01*
X133423565Y-73152468D01*
X133419000Y-73106112D01*
X133419000Y-72029888D01*
X133423565Y-71983532D01*
X133435296Y-71944862D01*
X133454346Y-71909223D01*
X133479983Y-71877983D01*
X133511223Y-71852346D01*
X133546862Y-71833296D01*
X133585532Y-71821565D01*
X133631888Y-71817000D01*
X134283112Y-71817000D01*
X134329468Y-71821565D01*
G37*
G36*
X132454468Y-71821565D02*
G01*
X132493138Y-71833296D01*
X132528777Y-71852346D01*
X132560017Y-71877983D01*
X132585654Y-71909223D01*
X132604704Y-71944862D01*
X132616435Y-71983532D01*
X132621000Y-72029888D01*
X132621000Y-73106112D01*
X132616435Y-73152468D01*
X132604704Y-73191138D01*
X132585654Y-73226777D01*
X132560017Y-73258017D01*
X132528777Y-73283654D01*
X132493138Y-73302704D01*
X132454468Y-73314435D01*
X132408112Y-73319000D01*
X131756888Y-73319000D01*
X131710532Y-73314435D01*
X131671862Y-73302704D01*
X131636223Y-73283654D01*
X131604983Y-73258017D01*
X131579346Y-73226777D01*
X131560296Y-73191138D01*
X131548565Y-73152468D01*
X131544000Y-73106112D01*
X131544000Y-72029888D01*
X131548565Y-71983532D01*
X131560296Y-71944862D01*
X131579346Y-71909223D01*
X131604983Y-71877983D01*
X131636223Y-71852346D01*
X131671862Y-71833296D01*
X131710532Y-71821565D01*
X131756888Y-71817000D01*
X132408112Y-71817000D01*
X132454468Y-71821565D01*
G37*
G36*
X136010468Y-71821565D02*
G01*
X136049138Y-71833296D01*
X136084777Y-71852346D01*
X136116017Y-71877983D01*
X136141654Y-71909223D01*
X136160704Y-71944862D01*
X136172435Y-71983532D01*
X136177000Y-72029888D01*
X136177000Y-73106112D01*
X136172435Y-73152468D01*
X136160704Y-73191138D01*
X136141654Y-73226777D01*
X136116017Y-73258017D01*
X136084777Y-73283654D01*
X136049138Y-73302704D01*
X136010468Y-73314435D01*
X135964112Y-73319000D01*
X135312888Y-73319000D01*
X135266532Y-73314435D01*
X135227862Y-73302704D01*
X135192223Y-73283654D01*
X135160983Y-73258017D01*
X135135346Y-73226777D01*
X135116296Y-73191138D01*
X135104565Y-73152468D01*
X135100000Y-73106112D01*
X135100000Y-72029888D01*
X135104565Y-71983532D01*
X135116296Y-71944862D01*
X135135346Y-71909223D01*
X135160983Y-71877983D01*
X135192223Y-71852346D01*
X135227862Y-71833296D01*
X135266532Y-71821565D01*
X135312888Y-71817000D01*
X135964112Y-71817000D01*
X136010468Y-71821565D01*
G37*
G36*
X137885468Y-71821565D02*
G01*
X137924138Y-71833296D01*
X137959777Y-71852346D01*
X137991017Y-71877983D01*
X138016654Y-71909223D01*
X138035704Y-71944862D01*
X138047435Y-71983532D01*
X138052000Y-72029888D01*
X138052000Y-73106112D01*
X138047435Y-73152468D01*
X138035704Y-73191138D01*
X138016654Y-73226777D01*
X137991017Y-73258017D01*
X137959777Y-73283654D01*
X137924138Y-73302704D01*
X137885468Y-73314435D01*
X137839112Y-73319000D01*
X137187888Y-73319000D01*
X137141532Y-73314435D01*
X137102862Y-73302704D01*
X137067223Y-73283654D01*
X137035983Y-73258017D01*
X137010346Y-73226777D01*
X136991296Y-73191138D01*
X136979565Y-73152468D01*
X136975000Y-73106112D01*
X136975000Y-72029888D01*
X136979565Y-71983532D01*
X136991296Y-71944862D01*
X137010346Y-71909223D01*
X137035983Y-71877983D01*
X137067223Y-71852346D01*
X137102862Y-71833296D01*
X137141532Y-71821565D01*
X137187888Y-71817000D01*
X137839112Y-71817000D01*
X137885468Y-71821565D01*
G37*
G36*
X108014072Y-70125918D02*
G01*
X108205506Y-70205212D01*
X108259939Y-70227759D01*
X108296050Y-70251888D01*
X108481211Y-70375609D01*
X108669391Y-70563789D01*
X108723643Y-70644983D01*
X108761404Y-70701495D01*
X108817242Y-70785063D01*
X108919082Y-71030928D01*
X108971000Y-71291937D01*
X108971000Y-71558063D01*
X108919082Y-71819072D01*
X108817242Y-72064937D01*
X108669391Y-72286211D01*
X108481211Y-72474391D01*
X108473572Y-72479495D01*
X108259939Y-72622241D01*
X108259938Y-72622242D01*
X108259937Y-72622242D01*
X108014072Y-72724082D01*
X107753063Y-72776000D01*
X107486937Y-72776000D01*
X107225928Y-72724082D01*
X106980063Y-72622242D01*
X106980062Y-72622242D01*
X106980061Y-72622241D01*
X106766428Y-72479495D01*
X106758789Y-72474391D01*
X106570609Y-72286211D01*
X106422758Y-72064937D01*
X106320918Y-71819072D01*
X106269000Y-71558063D01*
X106269000Y-71291937D01*
X106320918Y-71030928D01*
X106422758Y-70785063D01*
X106478597Y-70701495D01*
X106516357Y-70644983D01*
X106570609Y-70563789D01*
X106758789Y-70375609D01*
X106943950Y-70251888D01*
X106980061Y-70227759D01*
X107034495Y-70205212D01*
X107225928Y-70125918D01*
X107486937Y-70074000D01*
X107753063Y-70074000D01*
X108014072Y-70125918D01*
G37*
G36*
X123444468Y-70685565D02*
G01*
X123483138Y-70697296D01*
X123518777Y-70716346D01*
X123550017Y-70741983D01*
X123575654Y-70773223D01*
X123594704Y-70808862D01*
X123606435Y-70847532D01*
X123611000Y-70893888D01*
X123611000Y-71545112D01*
X123606435Y-71591468D01*
X123594704Y-71630138D01*
X123575654Y-71665777D01*
X123550017Y-71697017D01*
X123518777Y-71722654D01*
X123483138Y-71741704D01*
X123444468Y-71753435D01*
X123398112Y-71758000D01*
X122321888Y-71758000D01*
X122275532Y-71753435D01*
X122236862Y-71741704D01*
X122201223Y-71722654D01*
X122169983Y-71697017D01*
X122144346Y-71665777D01*
X122125296Y-71630138D01*
X122113565Y-71591468D01*
X122109000Y-71545112D01*
X122109000Y-70893888D01*
X122113565Y-70847532D01*
X122125296Y-70808862D01*
X122144346Y-70773223D01*
X122169983Y-70741983D01*
X122201223Y-70716346D01*
X122236862Y-70697296D01*
X122275532Y-70685565D01*
X122321888Y-70681000D01*
X123398112Y-70681000D01*
X123444468Y-70685565D01*
G37*
G36*
X120269468Y-70588565D02*
G01*
X120308138Y-70600296D01*
X120343777Y-70619346D01*
X120375017Y-70644983D01*
X120400654Y-70676223D01*
X120419704Y-70711862D01*
X120431435Y-70750532D01*
X120436000Y-70796888D01*
X120436000Y-71448112D01*
X120431435Y-71494468D01*
X120419704Y-71533138D01*
X120400654Y-71568777D01*
X120375017Y-71600017D01*
X120343777Y-71625654D01*
X120308138Y-71644704D01*
X120269468Y-71656435D01*
X120223112Y-71661000D01*
X119146888Y-71661000D01*
X119100532Y-71656435D01*
X119061862Y-71644704D01*
X119026223Y-71625654D01*
X118994983Y-71600017D01*
X118969346Y-71568777D01*
X118950296Y-71533138D01*
X118938565Y-71494468D01*
X118934000Y-71448112D01*
X118934000Y-70796888D01*
X118938565Y-70750532D01*
X118950296Y-70711862D01*
X118969346Y-70676223D01*
X118994983Y-70644983D01*
X119026223Y-70619346D01*
X119061862Y-70600296D01*
X119100532Y-70588565D01*
X119146888Y-70584000D01*
X120223112Y-70584000D01*
X120269468Y-70588565D01*
G37*
G36*
X115944468Y-70043565D02*
G01*
X115983138Y-70055296D01*
X116018777Y-70074346D01*
X116050017Y-70099983D01*
X116075654Y-70131223D01*
X116094704Y-70166862D01*
X116106435Y-70205532D01*
X116111000Y-70251888D01*
X116111000Y-71328112D01*
X116106435Y-71374468D01*
X116094704Y-71413138D01*
X116075654Y-71448777D01*
X116050017Y-71480017D01*
X116018777Y-71505654D01*
X115983138Y-71524704D01*
X115944468Y-71536435D01*
X115898112Y-71541000D01*
X115246888Y-71541000D01*
X115200532Y-71536435D01*
X115161862Y-71524704D01*
X115126223Y-71505654D01*
X115094983Y-71480017D01*
X115069346Y-71448777D01*
X115050296Y-71413138D01*
X115038565Y-71374468D01*
X115034000Y-71328112D01*
X115034000Y-70251888D01*
X115038565Y-70205532D01*
X115050296Y-70166862D01*
X115069346Y-70131223D01*
X115094983Y-70099983D01*
X115126223Y-70074346D01*
X115161862Y-70055296D01*
X115200532Y-70043565D01*
X115246888Y-70039000D01*
X115898112Y-70039000D01*
X115944468Y-70043565D01*
G37*
G36*
X117819468Y-70043565D02*
G01*
X117858138Y-70055296D01*
X117893777Y-70074346D01*
X117925017Y-70099983D01*
X117950654Y-70131223D01*
X117969704Y-70166862D01*
X117981435Y-70205532D01*
X117986000Y-70251888D01*
X117986000Y-71328112D01*
X117981435Y-71374468D01*
X117969704Y-71413138D01*
X117950654Y-71448777D01*
X117925017Y-71480017D01*
X117893777Y-71505654D01*
X117858138Y-71524704D01*
X117819468Y-71536435D01*
X117773112Y-71541000D01*
X117121888Y-71541000D01*
X117075532Y-71536435D01*
X117036862Y-71524704D01*
X117001223Y-71505654D01*
X116969983Y-71480017D01*
X116944346Y-71448777D01*
X116925296Y-71413138D01*
X116913565Y-71374468D01*
X116909000Y-71328112D01*
X116909000Y-70251888D01*
X116913565Y-70205532D01*
X116925296Y-70166862D01*
X116944346Y-70131223D01*
X116969983Y-70099983D01*
X117001223Y-70074346D01*
X117036862Y-70055296D01*
X117075532Y-70043565D01*
X117121888Y-70039000D01*
X117773112Y-70039000D01*
X117819468Y-70043565D01*
G37*
G36*
X136846104Y-68831585D02*
G01*
X137014626Y-68901389D01*
X137166291Y-69002728D01*
X137295272Y-69131709D01*
X137396611Y-69283374D01*
X137466415Y-69451896D01*
X137502000Y-69630797D01*
X137502000Y-69813203D01*
X137466415Y-69992104D01*
X137396611Y-70160626D01*
X137295272Y-70312291D01*
X137166291Y-70441272D01*
X137014626Y-70542611D01*
X136846104Y-70612415D01*
X136667203Y-70648000D01*
X136484797Y-70648000D01*
X136305896Y-70612415D01*
X136137374Y-70542611D01*
X135985709Y-70441272D01*
X135856728Y-70312291D01*
X135755389Y-70160626D01*
X135685585Y-69992104D01*
X135650000Y-69813203D01*
X135650000Y-69630797D01*
X135685585Y-69451896D01*
X135755389Y-69283374D01*
X135856728Y-69131709D01*
X135985709Y-69002728D01*
X136137374Y-68901389D01*
X136305896Y-68831585D01*
X136484797Y-68796000D01*
X136667203Y-68796000D01*
X136846104Y-68831585D01*
G37*
G36*
X146621000Y-69913000D02*
G01*
X144819000Y-69913000D01*
X144819000Y-68111000D01*
X146621000Y-68111000D01*
X146621000Y-69913000D01*
G37*
G36*
X143293512Y-68115927D02*
G01*
X143442812Y-68145624D01*
X143606784Y-68213544D01*
X143754354Y-68312147D01*
X143879853Y-68437646D01*
X143978456Y-68585216D01*
X144046376Y-68749188D01*
X144081000Y-68923259D01*
X144081000Y-69100741D01*
X144046376Y-69274812D01*
X143978456Y-69438784D01*
X143879853Y-69586354D01*
X143754354Y-69711853D01*
X143606784Y-69810456D01*
X143442812Y-69878376D01*
X143293512Y-69908073D01*
X143268742Y-69913000D01*
X143091258Y-69913000D01*
X143066488Y-69908073D01*
X142917188Y-69878376D01*
X142753216Y-69810456D01*
X142605646Y-69711853D01*
X142480147Y-69586354D01*
X142381544Y-69438784D01*
X142313624Y-69274812D01*
X142279000Y-69100741D01*
X142279000Y-68923259D01*
X142313624Y-68749188D01*
X142381544Y-68585216D01*
X142480147Y-68437646D01*
X142605646Y-68312147D01*
X142753216Y-68213544D01*
X142917188Y-68145624D01*
X143066488Y-68115927D01*
X143091258Y-68111000D01*
X143268742Y-68111000D01*
X143293512Y-68115927D01*
G37*
G36*
X140753512Y-68115927D02*
G01*
X140902812Y-68145624D01*
X141066784Y-68213544D01*
X141214354Y-68312147D01*
X141339853Y-68437646D01*
X141438456Y-68585216D01*
X141506376Y-68749188D01*
X141541000Y-68923259D01*
X141541000Y-69100741D01*
X141506376Y-69274812D01*
X141438456Y-69438784D01*
X141339853Y-69586354D01*
X141214354Y-69711853D01*
X141066784Y-69810456D01*
X140902812Y-69878376D01*
X140753512Y-69908073D01*
X140728742Y-69913000D01*
X140551258Y-69913000D01*
X140526488Y-69908073D01*
X140377188Y-69878376D01*
X140213216Y-69810456D01*
X140065646Y-69711853D01*
X139940147Y-69586354D01*
X139841544Y-69438784D01*
X139773624Y-69274812D01*
X139739000Y-69100741D01*
X139739000Y-68923259D01*
X139773624Y-68749188D01*
X139841544Y-68585216D01*
X139940147Y-68437646D01*
X140065646Y-68312147D01*
X140213216Y-68213544D01*
X140377188Y-68145624D01*
X140526488Y-68115927D01*
X140551258Y-68111000D01*
X140728742Y-68111000D01*
X140753512Y-68115927D01*
G37*
G36*
X123444468Y-68810565D02*
G01*
X123483138Y-68822296D01*
X123518777Y-68841346D01*
X123550017Y-68866983D01*
X123575654Y-68898223D01*
X123594704Y-68933862D01*
X123606435Y-68972532D01*
X123611000Y-69018888D01*
X123611000Y-69670112D01*
X123606435Y-69716468D01*
X123594704Y-69755138D01*
X123575654Y-69790777D01*
X123550017Y-69822017D01*
X123518777Y-69847654D01*
X123483138Y-69866704D01*
X123444468Y-69878435D01*
X123398112Y-69883000D01*
X122321888Y-69883000D01*
X122275532Y-69878435D01*
X122236862Y-69866704D01*
X122201223Y-69847654D01*
X122169983Y-69822017D01*
X122144346Y-69790777D01*
X122125296Y-69755138D01*
X122113565Y-69716468D01*
X122109000Y-69670112D01*
X122109000Y-69018888D01*
X122113565Y-68972532D01*
X122125296Y-68933862D01*
X122144346Y-68898223D01*
X122169983Y-68866983D01*
X122201223Y-68841346D01*
X122236862Y-68822296D01*
X122275532Y-68810565D01*
X122321888Y-68806000D01*
X123398112Y-68806000D01*
X123444468Y-68810565D01*
G37*
G36*
X128841000Y-69659000D02*
G01*
X127039000Y-69659000D01*
X127039000Y-67857000D01*
X128841000Y-67857000D01*
X128841000Y-69659000D01*
G37*
G36*
X130593512Y-67861927D02*
G01*
X130742812Y-67891624D01*
X130906784Y-67959544D01*
X131054354Y-68058147D01*
X131179853Y-68183646D01*
X131278456Y-68331216D01*
X131346376Y-68495188D01*
X131381000Y-68669259D01*
X131381000Y-68846741D01*
X131346376Y-69020812D01*
X131278456Y-69184784D01*
X131179853Y-69332354D01*
X131054354Y-69457853D01*
X130906784Y-69556456D01*
X130742812Y-69624376D01*
X130593512Y-69654073D01*
X130568742Y-69659000D01*
X130391258Y-69659000D01*
X130366488Y-69654073D01*
X130217188Y-69624376D01*
X130053216Y-69556456D01*
X129905646Y-69457853D01*
X129780147Y-69332354D01*
X129681544Y-69184784D01*
X129613624Y-69020812D01*
X129579000Y-68846741D01*
X129579000Y-68669259D01*
X129613624Y-68495188D01*
X129681544Y-68331216D01*
X129780147Y-68183646D01*
X129905646Y-68058147D01*
X130053216Y-67959544D01*
X130217188Y-67891624D01*
X130366488Y-67861927D01*
X130391258Y-67857000D01*
X130568742Y-67857000D01*
X130593512Y-67861927D01*
G37*
G36*
X108014072Y-65045918D02*
G01*
X108205506Y-65125212D01*
X108259939Y-65147759D01*
X108276762Y-65159000D01*
X108481211Y-65295609D01*
X108669391Y-65483789D01*
X108817242Y-65705063D01*
X108919082Y-65950928D01*
X108966985Y-66191750D01*
X108971000Y-66211938D01*
X108971000Y-66478062D01*
X108919082Y-66739072D01*
X108817241Y-66984939D01*
X108669390Y-67206212D01*
X108481212Y-67394390D01*
X108259939Y-67542241D01*
X108259938Y-67542242D01*
X108259937Y-67542242D01*
X108014072Y-67644082D01*
X107753063Y-67696000D01*
X107486937Y-67696000D01*
X107225928Y-67644082D01*
X106980063Y-67542242D01*
X106980062Y-67542242D01*
X106980061Y-67542241D01*
X106758788Y-67394390D01*
X106570610Y-67206212D01*
X106422759Y-66984939D01*
X106320918Y-66739072D01*
X106269000Y-66478062D01*
X106269000Y-66211938D01*
X106273016Y-66191750D01*
X106320918Y-65950928D01*
X106422758Y-65705063D01*
X106570609Y-65483789D01*
X106758789Y-65295609D01*
X106963238Y-65159000D01*
X106980061Y-65147759D01*
X107034495Y-65125212D01*
X107225928Y-65045918D01*
X107486937Y-64994000D01*
X107753063Y-64994000D01*
X108014072Y-65045918D01*
G37*
G36*
X130519468Y-64963565D02*
G01*
X130558138Y-64975296D01*
X130593777Y-64994346D01*
X130625017Y-65019983D01*
X130650654Y-65051223D01*
X130669704Y-65086862D01*
X130681435Y-65125532D01*
X130686000Y-65171888D01*
X130686000Y-66248112D01*
X130681435Y-66294468D01*
X130669704Y-66333138D01*
X130650654Y-66368777D01*
X130625017Y-66400017D01*
X130593777Y-66425654D01*
X130558138Y-66444704D01*
X130519468Y-66456435D01*
X130473112Y-66461000D01*
X129821888Y-66461000D01*
X129775532Y-66456435D01*
X129736862Y-66444704D01*
X129701223Y-66425654D01*
X129669983Y-66400017D01*
X129644346Y-66368777D01*
X129625296Y-66333138D01*
X129613565Y-66294468D01*
X129609000Y-66248112D01*
X129609000Y-65171888D01*
X129613565Y-65125532D01*
X129625296Y-65086862D01*
X129644346Y-65051223D01*
X129669983Y-65019983D01*
X129701223Y-64994346D01*
X129736862Y-64975296D01*
X129775532Y-64963565D01*
X129821888Y-64959000D01*
X130473112Y-64959000D01*
X130519468Y-64963565D01*
G37*
G36*
X128644468Y-64963565D02*
G01*
X128683138Y-64975296D01*
X128718777Y-64994346D01*
X128750017Y-65019983D01*
X128775654Y-65051223D01*
X128794704Y-65086862D01*
X128806435Y-65125532D01*
X128811000Y-65171888D01*
X128811000Y-66248112D01*
X128806435Y-66294468D01*
X128794704Y-66333138D01*
X128775654Y-66368777D01*
X128750017Y-66400017D01*
X128718777Y-66425654D01*
X128683138Y-66444704D01*
X128644468Y-66456435D01*
X128598112Y-66461000D01*
X127946888Y-66461000D01*
X127900532Y-66456435D01*
X127861862Y-66444704D01*
X127826223Y-66425654D01*
X127794983Y-66400017D01*
X127769346Y-66368777D01*
X127750296Y-66333138D01*
X127738565Y-66294468D01*
X127734000Y-66248112D01*
X127734000Y-65171888D01*
X127738565Y-65125532D01*
X127750296Y-65086862D01*
X127769346Y-65051223D01*
X127794983Y-65019983D01*
X127826223Y-64994346D01*
X127861862Y-64975296D01*
X127900532Y-64963565D01*
X127946888Y-64959000D01*
X128598112Y-64959000D01*
X128644468Y-64963565D01*
G37*
G36*
X116961000Y-66161000D02*
G01*
X116059000Y-66161000D01*
X116059000Y-65159000D01*
X116961000Y-65159000D01*
X116961000Y-66161000D01*
G37*
G36*
X140800721Y-62894174D02*
G01*
X140900995Y-62935709D01*
X140900996Y-62935710D01*
X140991242Y-62996010D01*
X141067990Y-63072758D01*
X141098345Y-63118188D01*
X141128291Y-63163005D01*
X141159516Y-63238389D01*
X141171067Y-63260000D01*
X141186612Y-63278941D01*
X141205554Y-63294487D01*
X141227165Y-63306038D01*
X141250614Y-63313151D01*
X141275000Y-63315553D01*
X141299386Y-63313151D01*
X141322835Y-63306038D01*
X141344446Y-63294487D01*
X141363387Y-63278942D01*
X141378933Y-63260000D01*
X141390484Y-63238389D01*
X141421709Y-63163005D01*
X141451655Y-63118188D01*
X141482010Y-63072758D01*
X141558758Y-62996010D01*
X141649004Y-62935710D01*
X141649005Y-62935709D01*
X141749279Y-62894174D01*
X141855730Y-62873000D01*
X141964270Y-62873000D01*
X142070721Y-62894174D01*
X142170995Y-62935709D01*
X142170996Y-62935710D01*
X142261242Y-62996010D01*
X142337990Y-63072758D01*
X142368345Y-63118188D01*
X142398291Y-63163005D01*
X142429516Y-63238389D01*
X142441067Y-63260000D01*
X142456612Y-63278941D01*
X142475554Y-63294487D01*
X142497165Y-63306038D01*
X142520614Y-63313151D01*
X142545000Y-63315553D01*
X142569386Y-63313151D01*
X142592835Y-63306038D01*
X142614446Y-63294487D01*
X142633387Y-63278942D01*
X142648933Y-63260000D01*
X142660484Y-63238389D01*
X142691709Y-63163005D01*
X142721655Y-63118188D01*
X142752010Y-63072758D01*
X142828758Y-62996010D01*
X142919004Y-62935710D01*
X142919005Y-62935709D01*
X143019279Y-62894174D01*
X143125730Y-62873000D01*
X143234270Y-62873000D01*
X143340721Y-62894174D01*
X143440995Y-62935709D01*
X143440996Y-62935710D01*
X143531242Y-62996010D01*
X143607990Y-63072758D01*
X143638345Y-63118188D01*
X143668291Y-63163005D01*
X143699516Y-63238389D01*
X143711067Y-63260000D01*
X143726612Y-63278941D01*
X143745554Y-63294487D01*
X143767165Y-63306038D01*
X143790614Y-63313151D01*
X143815000Y-63315553D01*
X143839386Y-63313151D01*
X143862835Y-63306038D01*
X143884446Y-63294487D01*
X143903387Y-63278942D01*
X143918933Y-63260000D01*
X143930484Y-63238389D01*
X143961709Y-63163005D01*
X143991655Y-63118188D01*
X144022010Y-63072758D01*
X144098758Y-62996010D01*
X144189004Y-62935710D01*
X144189005Y-62935709D01*
X144289279Y-62894174D01*
X144395730Y-62873000D01*
X144504270Y-62873000D01*
X144610721Y-62894174D01*
X144710995Y-62935709D01*
X144710996Y-62935710D01*
X144801242Y-62996010D01*
X144877990Y-63072758D01*
X144877991Y-63072760D01*
X144940068Y-63165664D01*
X144955614Y-63184606D01*
X144974556Y-63200151D01*
X144996167Y-63211702D01*
X145019615Y-63218815D01*
X145044002Y-63221217D01*
X145068388Y-63218815D01*
X145091837Y-63211702D01*
X145113447Y-63200151D01*
X145132389Y-63184605D01*
X145147934Y-63165663D01*
X145159485Y-63144052D01*
X145166598Y-63120604D01*
X145169000Y-63096218D01*
X145169000Y-62873000D01*
X146271000Y-62873000D01*
X146271000Y-63975000D01*
X146047782Y-63975000D01*
X146023396Y-63977402D01*
X145999947Y-63984515D01*
X145978336Y-63996066D01*
X145959394Y-64011611D01*
X145943849Y-64030553D01*
X145932298Y-64052164D01*
X145925185Y-64075613D01*
X145922783Y-64099999D01*
X145925185Y-64124385D01*
X145932298Y-64147834D01*
X145943849Y-64169445D01*
X145959394Y-64188387D01*
X145978336Y-64203932D01*
X146039816Y-64245012D01*
X146071242Y-64266010D01*
X146147990Y-64342758D01*
X146147991Y-64342760D01*
X146208291Y-64433005D01*
X146249826Y-64533279D01*
X146271000Y-64639730D01*
X146271000Y-64748270D01*
X146249826Y-64854721D01*
X146208291Y-64954995D01*
X146182229Y-64994000D01*
X146147990Y-65045242D01*
X146071242Y-65121990D01*
X146065941Y-65125532D01*
X145980995Y-65182291D01*
X145880721Y-65223826D01*
X145774270Y-65245000D01*
X145665730Y-65245000D01*
X145559279Y-65223826D01*
X145459005Y-65182291D01*
X145374059Y-65125532D01*
X145368758Y-65121990D01*
X145292010Y-65045242D01*
X145257771Y-64994000D01*
X145231709Y-64954995D01*
X145200484Y-64879611D01*
X145188933Y-64858000D01*
X145173388Y-64839059D01*
X145154446Y-64823513D01*
X145132835Y-64811962D01*
X145109386Y-64804849D01*
X145085000Y-64802447D01*
X145060614Y-64804849D01*
X145037165Y-64811962D01*
X145015554Y-64823513D01*
X144996613Y-64839058D01*
X144981067Y-64858000D01*
X144969516Y-64879611D01*
X144938291Y-64954995D01*
X144912229Y-64994000D01*
X144877990Y-65045242D01*
X144801242Y-65121990D01*
X144795941Y-65125532D01*
X144710995Y-65182291D01*
X144610721Y-65223826D01*
X144504270Y-65245000D01*
X144395730Y-65245000D01*
X144289279Y-65223826D01*
X144189005Y-65182291D01*
X144104059Y-65125532D01*
X144098758Y-65121990D01*
X144022010Y-65045242D01*
X143987771Y-64994000D01*
X143961709Y-64954995D01*
X143930484Y-64879611D01*
X143918933Y-64858000D01*
X143903388Y-64839059D01*
X143884446Y-64823513D01*
X143862835Y-64811962D01*
X143839386Y-64804849D01*
X143815000Y-64802447D01*
X143790614Y-64804849D01*
X143767165Y-64811962D01*
X143745554Y-64823513D01*
X143726613Y-64839058D01*
X143711067Y-64858000D01*
X143699516Y-64879611D01*
X143668291Y-64954995D01*
X143642229Y-64994000D01*
X143607990Y-65045242D01*
X143531242Y-65121990D01*
X143525941Y-65125532D01*
X143440995Y-65182291D01*
X143340721Y-65223826D01*
X143234270Y-65245000D01*
X143125730Y-65245000D01*
X143019279Y-65223826D01*
X142919005Y-65182291D01*
X142834059Y-65125532D01*
X142828758Y-65121990D01*
X142752010Y-65045242D01*
X142717771Y-64994000D01*
X142691709Y-64954995D01*
X142660484Y-64879611D01*
X142648933Y-64858000D01*
X142633388Y-64839059D01*
X142614446Y-64823513D01*
X142592835Y-64811962D01*
X142569386Y-64804849D01*
X142545000Y-64802447D01*
X142520614Y-64804849D01*
X142497165Y-64811962D01*
X142475554Y-64823513D01*
X142456613Y-64839058D01*
X142441067Y-64858000D01*
X142429516Y-64879611D01*
X142398291Y-64954995D01*
X142372229Y-64994000D01*
X142337990Y-65045242D01*
X142261242Y-65121990D01*
X142255941Y-65125532D01*
X142170995Y-65182291D01*
X142070721Y-65223826D01*
X141964270Y-65245000D01*
X141855730Y-65245000D01*
X141749279Y-65223826D01*
X141649005Y-65182291D01*
X141564059Y-65125532D01*
X141558758Y-65121990D01*
X141482010Y-65045242D01*
X141447771Y-64994000D01*
X141421709Y-64954995D01*
X141390484Y-64879611D01*
X141378933Y-64858000D01*
X141363388Y-64839059D01*
X141344446Y-64823513D01*
X141322835Y-64811962D01*
X141299386Y-64804849D01*
X141275000Y-64802447D01*
X141250614Y-64804849D01*
X141227165Y-64811962D01*
X141205554Y-64823513D01*
X141186613Y-64839058D01*
X141171067Y-64858000D01*
X141159516Y-64879611D01*
X141128291Y-64954995D01*
X141102229Y-64994000D01*
X141067990Y-65045242D01*
X140991242Y-65121990D01*
X140985941Y-65125532D01*
X140900995Y-65182291D01*
X140800721Y-65223826D01*
X140694270Y-65245000D01*
X140585730Y-65245000D01*
X140479279Y-65223826D01*
X140379005Y-65182291D01*
X140294059Y-65125532D01*
X140288758Y-65121990D01*
X140212010Y-65045242D01*
X140177771Y-64994000D01*
X140151709Y-64954995D01*
X140110174Y-64854721D01*
X140089000Y-64748270D01*
X140089000Y-64639730D01*
X140110174Y-64533279D01*
X140151709Y-64433005D01*
X140212009Y-64342760D01*
X140212010Y-64342758D01*
X140288758Y-64266010D01*
X140379004Y-64205710D01*
X140379005Y-64205709D01*
X140454389Y-64174484D01*
X140476000Y-64162933D01*
X140494941Y-64147388D01*
X140510487Y-64128446D01*
X140522038Y-64106835D01*
X140529151Y-64083386D01*
X140531553Y-64059000D01*
X140748447Y-64059000D01*
X140750849Y-64083386D01*
X140757962Y-64106835D01*
X140769513Y-64128446D01*
X140785058Y-64147387D01*
X140804000Y-64162933D01*
X140825611Y-64174484D01*
X140900995Y-64205709D01*
X140900996Y-64205710D01*
X140991242Y-64266010D01*
X141067990Y-64342758D01*
X141067991Y-64342760D01*
X141128291Y-64433005D01*
X141159516Y-64508389D01*
X141171067Y-64530000D01*
X141186612Y-64548941D01*
X141205554Y-64564487D01*
X141227165Y-64576038D01*
X141250614Y-64583151D01*
X141275000Y-64585553D01*
X141299386Y-64583151D01*
X141322835Y-64576038D01*
X141344446Y-64564487D01*
X141363387Y-64548942D01*
X141378933Y-64530000D01*
X141390484Y-64508389D01*
X141421709Y-64433005D01*
X141482009Y-64342760D01*
X141482010Y-64342758D01*
X141558758Y-64266010D01*
X141649004Y-64205710D01*
X141649005Y-64205709D01*
X141724389Y-64174484D01*
X141746000Y-64162933D01*
X141764941Y-64147388D01*
X141780487Y-64128446D01*
X141792038Y-64106835D01*
X141799151Y-64083386D01*
X141801553Y-64059000D01*
X142018447Y-64059000D01*
X142020849Y-64083386D01*
X142027962Y-64106835D01*
X142039513Y-64128446D01*
X142055058Y-64147387D01*
X142074000Y-64162933D01*
X142095611Y-64174484D01*
X142170995Y-64205709D01*
X142170996Y-64205710D01*
X142261242Y-64266010D01*
X142337990Y-64342758D01*
X142337991Y-64342760D01*
X142398291Y-64433005D01*
X142429516Y-64508389D01*
X142441067Y-64530000D01*
X142456612Y-64548941D01*
X142475554Y-64564487D01*
X142497165Y-64576038D01*
X142520614Y-64583151D01*
X142545000Y-64585553D01*
X142569386Y-64583151D01*
X142592835Y-64576038D01*
X142614446Y-64564487D01*
X142633387Y-64548942D01*
X142648933Y-64530000D01*
X142660484Y-64508389D01*
X142691709Y-64433005D01*
X142752009Y-64342760D01*
X142752010Y-64342758D01*
X142828758Y-64266010D01*
X142919004Y-64205710D01*
X142919005Y-64205709D01*
X142994389Y-64174484D01*
X143016000Y-64162933D01*
X143034941Y-64147388D01*
X143050487Y-64128446D01*
X143062038Y-64106835D01*
X143069151Y-64083386D01*
X143071553Y-64059000D01*
X143288447Y-64059000D01*
X143290849Y-64083386D01*
X143297962Y-64106835D01*
X143309513Y-64128446D01*
X143325058Y-64147387D01*
X143344000Y-64162933D01*
X143365611Y-64174484D01*
X143440995Y-64205709D01*
X143440996Y-64205710D01*
X143531242Y-64266010D01*
X143607990Y-64342758D01*
X143607991Y-64342760D01*
X143668291Y-64433005D01*
X143699516Y-64508389D01*
X143711067Y-64530000D01*
X143726612Y-64548941D01*
X143745554Y-64564487D01*
X143767165Y-64576038D01*
X143790614Y-64583151D01*
X143815000Y-64585553D01*
X143839386Y-64583151D01*
X143862835Y-64576038D01*
X143884446Y-64564487D01*
X143903387Y-64548942D01*
X143918933Y-64530000D01*
X143930484Y-64508389D01*
X143961709Y-64433005D01*
X144022009Y-64342760D01*
X144022010Y-64342758D01*
X144098758Y-64266010D01*
X144189004Y-64205710D01*
X144189005Y-64205709D01*
X144264389Y-64174484D01*
X144286000Y-64162933D01*
X144304941Y-64147388D01*
X144320487Y-64128446D01*
X144332038Y-64106835D01*
X144339151Y-64083386D01*
X144341553Y-64059000D01*
X144558447Y-64059000D01*
X144560849Y-64083386D01*
X144567962Y-64106835D01*
X144579513Y-64128446D01*
X144595058Y-64147387D01*
X144614000Y-64162933D01*
X144635611Y-64174484D01*
X144710995Y-64205709D01*
X144710996Y-64205710D01*
X144801242Y-64266010D01*
X144877990Y-64342758D01*
X144877991Y-64342760D01*
X144938291Y-64433005D01*
X144969516Y-64508389D01*
X144981067Y-64530000D01*
X144996612Y-64548941D01*
X145015554Y-64564487D01*
X145037165Y-64576038D01*
X145060614Y-64583151D01*
X145085000Y-64585553D01*
X145109386Y-64583151D01*
X145132835Y-64576038D01*
X145154446Y-64564487D01*
X145173387Y-64548942D01*
X145188933Y-64530000D01*
X145200484Y-64508389D01*
X145231709Y-64433005D01*
X145292009Y-64342760D01*
X145292010Y-64342758D01*
X145368758Y-64266010D01*
X145400184Y-64245012D01*
X145461664Y-64203932D01*
X145480606Y-64188386D01*
X145496151Y-64169444D01*
X145507702Y-64147833D01*
X145514815Y-64124385D01*
X145517217Y-64099998D01*
X145514815Y-64075612D01*
X145507702Y-64052163D01*
X145496151Y-64030553D01*
X145480605Y-64011611D01*
X145461663Y-63996066D01*
X145440052Y-63984515D01*
X145416604Y-63977402D01*
X145392218Y-63975000D01*
X145169000Y-63975000D01*
X145169000Y-63751782D01*
X145166598Y-63727396D01*
X145159485Y-63703947D01*
X145147934Y-63682336D01*
X145132389Y-63663394D01*
X145113447Y-63647849D01*
X145091836Y-63636298D01*
X145068387Y-63629185D01*
X145044001Y-63626783D01*
X145019615Y-63629185D01*
X144996166Y-63636298D01*
X144974555Y-63647849D01*
X144955613Y-63663394D01*
X144940068Y-63682336D01*
X144898988Y-63743816D01*
X144877990Y-63775242D01*
X144801242Y-63851990D01*
X144755812Y-63882345D01*
X144710995Y-63912291D01*
X144635611Y-63943516D01*
X144614000Y-63955067D01*
X144595059Y-63970612D01*
X144579513Y-63989554D01*
X144567962Y-64011165D01*
X144560849Y-64034614D01*
X144558447Y-64059000D01*
X144341553Y-64059000D01*
X144339151Y-64034614D01*
X144332038Y-64011165D01*
X144320487Y-63989554D01*
X144304942Y-63970613D01*
X144286000Y-63955067D01*
X144264389Y-63943516D01*
X144189005Y-63912291D01*
X144144188Y-63882345D01*
X144098758Y-63851990D01*
X144022010Y-63775242D01*
X143990041Y-63727396D01*
X143961709Y-63684995D01*
X143930484Y-63609611D01*
X143918933Y-63588000D01*
X143903388Y-63569059D01*
X143884446Y-63553513D01*
X143862835Y-63541962D01*
X143839386Y-63534849D01*
X143815000Y-63532447D01*
X143790614Y-63534849D01*
X143767165Y-63541962D01*
X143745554Y-63553513D01*
X143726613Y-63569058D01*
X143711067Y-63588000D01*
X143699516Y-63609611D01*
X143668291Y-63684995D01*
X143639959Y-63727396D01*
X143607990Y-63775242D01*
X143531242Y-63851990D01*
X143485812Y-63882345D01*
X143440995Y-63912291D01*
X143365611Y-63943516D01*
X143344000Y-63955067D01*
X143325059Y-63970612D01*
X143309513Y-63989554D01*
X143297962Y-64011165D01*
X143290849Y-64034614D01*
X143288447Y-64059000D01*
X143071553Y-64059000D01*
X143069151Y-64034614D01*
X143062038Y-64011165D01*
X143050487Y-63989554D01*
X143034942Y-63970613D01*
X143016000Y-63955067D01*
X142994389Y-63943516D01*
X142919005Y-63912291D01*
X142874188Y-63882345D01*
X142828758Y-63851990D01*
X142752010Y-63775242D01*
X142720041Y-63727396D01*
X142691709Y-63684995D01*
X142660484Y-63609611D01*
X142648933Y-63588000D01*
X142633388Y-63569059D01*
X142614446Y-63553513D01*
X142592835Y-63541962D01*
X142569386Y-63534849D01*
X142545000Y-63532447D01*
X142520614Y-63534849D01*
X142497165Y-63541962D01*
X142475554Y-63553513D01*
X142456613Y-63569058D01*
X142441067Y-63588000D01*
X142429516Y-63609611D01*
X142398291Y-63684995D01*
X142369959Y-63727396D01*
X142337990Y-63775242D01*
X142261242Y-63851990D01*
X142215812Y-63882345D01*
X142170995Y-63912291D01*
X142095611Y-63943516D01*
X142074000Y-63955067D01*
X142055059Y-63970612D01*
X142039513Y-63989554D01*
X142027962Y-64011165D01*
X142020849Y-64034614D01*
X142018447Y-64059000D01*
X141801553Y-64059000D01*
X141799151Y-64034614D01*
X141792038Y-64011165D01*
X141780487Y-63989554D01*
X141764942Y-63970613D01*
X141746000Y-63955067D01*
X141724389Y-63943516D01*
X141649005Y-63912291D01*
X141604188Y-63882345D01*
X141558758Y-63851990D01*
X141482010Y-63775242D01*
X141450041Y-63727396D01*
X141421709Y-63684995D01*
X141390484Y-63609611D01*
X141378933Y-63588000D01*
X141363388Y-63569059D01*
X141344446Y-63553513D01*
X141322835Y-63541962D01*
X141299386Y-63534849D01*
X141275000Y-63532447D01*
X141250614Y-63534849D01*
X141227165Y-63541962D01*
X141205554Y-63553513D01*
X141186613Y-63569058D01*
X141171067Y-63588000D01*
X141159516Y-63609611D01*
X141128291Y-63684995D01*
X141099959Y-63727396D01*
X141067990Y-63775242D01*
X140991242Y-63851990D01*
X140945812Y-63882345D01*
X140900995Y-63912291D01*
X140825611Y-63943516D01*
X140804000Y-63955067D01*
X140785059Y-63970612D01*
X140769513Y-63989554D01*
X140757962Y-64011165D01*
X140750849Y-64034614D01*
X140748447Y-64059000D01*
X140531553Y-64059000D01*
X140529151Y-64034614D01*
X140522038Y-64011165D01*
X140510487Y-63989554D01*
X140494942Y-63970613D01*
X140476000Y-63955067D01*
X140454389Y-63943516D01*
X140379005Y-63912291D01*
X140334188Y-63882345D01*
X140288758Y-63851990D01*
X140212010Y-63775242D01*
X140180041Y-63727396D01*
X140151709Y-63684995D01*
X140110174Y-63584721D01*
X140089000Y-63478270D01*
X140089000Y-63369730D01*
X140110174Y-63263279D01*
X140151709Y-63163005D01*
X140181655Y-63118188D01*
X140212010Y-63072758D01*
X140288758Y-62996010D01*
X140379004Y-62935710D01*
X140379005Y-62935709D01*
X140479279Y-62894174D01*
X140585730Y-62873000D01*
X140694270Y-62873000D01*
X140800721Y-62894174D01*
G37*
G36*
X116011000Y-64161000D02*
G01*
X115109000Y-64161000D01*
X115109000Y-63159000D01*
X116011000Y-63159000D01*
X116011000Y-64161000D01*
G37*
G36*
X117911000Y-64161000D02*
G01*
X117009000Y-64161000D01*
X117009000Y-63159000D01*
X117911000Y-63159000D01*
X117911000Y-64161000D01*
G37*
G36*
X136846104Y-62331585D02*
G01*
X137014626Y-62401389D01*
X137166291Y-62502728D01*
X137295272Y-62631709D01*
X137396611Y-62783374D01*
X137466415Y-62951896D01*
X137502000Y-63130797D01*
X137502000Y-63313203D01*
X137466415Y-63492104D01*
X137396611Y-63660626D01*
X137295272Y-63812291D01*
X137166291Y-63941272D01*
X137014626Y-64042611D01*
X136846104Y-64112415D01*
X136667203Y-64148000D01*
X136484797Y-64148000D01*
X136305896Y-64112415D01*
X136137374Y-64042611D01*
X135985709Y-63941272D01*
X135856728Y-63812291D01*
X135755389Y-63660626D01*
X135685585Y-63492104D01*
X135650000Y-63313203D01*
X135650000Y-63130797D01*
X135685585Y-62951896D01*
X135755389Y-62783374D01*
X135856728Y-62631709D01*
X135985709Y-62502728D01*
X136137374Y-62401389D01*
X136305896Y-62331585D01*
X136484797Y-62296000D01*
X136667203Y-62296000D01*
X136846104Y-62331585D01*
G37*
G36*
X120269468Y-62303565D02*
G01*
X120308138Y-62315296D01*
X120343777Y-62334346D01*
X120375017Y-62359983D01*
X120400654Y-62391223D01*
X120419704Y-62426862D01*
X120431435Y-62465532D01*
X120436000Y-62511888D01*
X120436000Y-63163112D01*
X120431435Y-63209468D01*
X120419704Y-63248138D01*
X120400654Y-63283777D01*
X120375017Y-63315017D01*
X120343777Y-63340654D01*
X120308138Y-63359704D01*
X120269468Y-63371435D01*
X120223112Y-63376000D01*
X119146888Y-63376000D01*
X119100532Y-63371435D01*
X119061862Y-63359704D01*
X119026223Y-63340654D01*
X118994983Y-63315017D01*
X118969346Y-63283777D01*
X118950296Y-63248138D01*
X118938565Y-63209468D01*
X118934000Y-63163112D01*
X118934000Y-62511888D01*
X118938565Y-62465532D01*
X118950296Y-62426862D01*
X118969346Y-62391223D01*
X118994983Y-62359983D01*
X119026223Y-62334346D01*
X119061862Y-62315296D01*
X119100532Y-62303565D01*
X119146888Y-62299000D01*
X120223112Y-62299000D01*
X120269468Y-62303565D01*
G37*
G36*
X108971000Y-62616000D02*
G01*
X106269000Y-62616000D01*
X106269000Y-59914000D01*
X108971000Y-59914000D01*
X108971000Y-62616000D01*
G37*
G36*
X120269468Y-60428565D02*
G01*
X120308138Y-60440296D01*
X120343777Y-60459346D01*
X120375017Y-60484983D01*
X120400654Y-60516223D01*
X120419704Y-60551862D01*
X120431435Y-60590532D01*
X120436000Y-60636888D01*
X120436000Y-61288112D01*
X120431435Y-61334468D01*
X120419704Y-61373138D01*
X120400654Y-61408777D01*
X120375017Y-61440017D01*
X120343777Y-61465654D01*
X120308138Y-61484704D01*
X120269468Y-61496435D01*
X120223112Y-61501000D01*
X119146888Y-61501000D01*
X119100532Y-61496435D01*
X119061862Y-61484704D01*
X119026223Y-61465654D01*
X118994983Y-61440017D01*
X118969346Y-61408777D01*
X118950296Y-61373138D01*
X118938565Y-61334468D01*
X118934000Y-61288112D01*
X118934000Y-60636888D01*
X118938565Y-60590532D01*
X118950296Y-60551862D01*
X118969346Y-60516223D01*
X118994983Y-60484983D01*
X119026223Y-60459346D01*
X119061862Y-60440296D01*
X119100532Y-60428565D01*
X119146888Y-60424000D01*
X120223112Y-60424000D01*
X120269468Y-60428565D01*
G37*
G36*
X115944468Y-59883565D02*
G01*
X115983138Y-59895296D01*
X116018777Y-59914346D01*
X116050017Y-59939983D01*
X116075654Y-59971223D01*
X116094704Y-60006862D01*
X116106435Y-60045532D01*
X116111000Y-60091888D01*
X116111000Y-61168112D01*
X116106435Y-61214468D01*
X116094704Y-61253138D01*
X116075654Y-61288777D01*
X116050017Y-61320017D01*
X116018777Y-61345654D01*
X115983138Y-61364704D01*
X115944468Y-61376435D01*
X115898112Y-61381000D01*
X115246888Y-61381000D01*
X115200532Y-61376435D01*
X115161862Y-61364704D01*
X115126223Y-61345654D01*
X115094983Y-61320017D01*
X115069346Y-61288777D01*
X115050296Y-61253138D01*
X115038565Y-61214468D01*
X115034000Y-61168112D01*
X115034000Y-60091888D01*
X115038565Y-60045532D01*
X115050296Y-60006862D01*
X115069346Y-59971223D01*
X115094983Y-59939983D01*
X115126223Y-59914346D01*
X115161862Y-59895296D01*
X115200532Y-59883565D01*
X115246888Y-59879000D01*
X115898112Y-59879000D01*
X115944468Y-59883565D01*
G37*
G36*
X117819468Y-59883565D02*
G01*
X117858138Y-59895296D01*
X117893777Y-59914346D01*
X117925017Y-59939983D01*
X117950654Y-59971223D01*
X117969704Y-60006862D01*
X117981435Y-60045532D01*
X117986000Y-60091888D01*
X117986000Y-61168112D01*
X117981435Y-61214468D01*
X117969704Y-61253138D01*
X117950654Y-61288777D01*
X117925017Y-61320017D01*
X117893777Y-61345654D01*
X117858138Y-61364704D01*
X117819468Y-61376435D01*
X117773112Y-61381000D01*
X117121888Y-61381000D01*
X117075532Y-61376435D01*
X117036862Y-61364704D01*
X117001223Y-61345654D01*
X116969983Y-61320017D01*
X116944346Y-61288777D01*
X116925296Y-61253138D01*
X116913565Y-61214468D01*
X116909000Y-61168112D01*
X116909000Y-60091888D01*
X116913565Y-60045532D01*
X116925296Y-60006862D01*
X116944346Y-59971223D01*
X116969983Y-59939983D01*
X117001223Y-59914346D01*
X117036862Y-59895296D01*
X117075532Y-59883565D01*
X117121888Y-59879000D01*
X117773112Y-59879000D01*
X117819468Y-59883565D01*
G37*
G36*
X131069000Y-60330000D02*
G01*
X128367000Y-60330000D01*
X128367000Y-57628000D01*
X131069000Y-57628000D01*
X131069000Y-60330000D01*
G37*
G36*
X125032072Y-57679918D02*
G01*
X125277939Y-57781759D01*
X125389328Y-57856187D01*
X125499211Y-57929609D01*
X125687391Y-58117789D01*
X125835242Y-58339063D01*
X125937082Y-58584928D01*
X125989000Y-58845937D01*
X125989000Y-59112063D01*
X125937082Y-59373072D01*
X125835242Y-59618937D01*
X125687391Y-59840211D01*
X125499211Y-60028391D01*
X125404181Y-60091888D01*
X125277939Y-60176241D01*
X125277938Y-60176242D01*
X125277937Y-60176242D01*
X125032072Y-60278082D01*
X124771063Y-60330000D01*
X124504937Y-60330000D01*
X124243928Y-60278082D01*
X123998063Y-60176242D01*
X123998062Y-60176242D01*
X123998061Y-60176241D01*
X123871819Y-60091888D01*
X123776789Y-60028391D01*
X123588609Y-59840211D01*
X123440758Y-59618937D01*
X123338918Y-59373072D01*
X123287000Y-59112063D01*
X123287000Y-58845937D01*
X123338918Y-58584928D01*
X123440758Y-58339063D01*
X123588609Y-58117789D01*
X123776789Y-57929609D01*
X123886672Y-57856187D01*
X123998061Y-57781759D01*
X124243928Y-57679918D01*
X124504937Y-57628000D01*
X124771063Y-57628000D01*
X125032072Y-57679918D01*
G37*
G36*
X140757968Y-57343565D02*
G01*
X140796638Y-57355296D01*
X140832277Y-57374346D01*
X140863517Y-57399983D01*
X140889154Y-57431223D01*
X140908204Y-57466862D01*
X140919935Y-57505532D01*
X140924500Y-57551888D01*
X140924500Y-58628112D01*
X140919935Y-58674468D01*
X140908204Y-58713138D01*
X140889154Y-58748777D01*
X140863517Y-58780017D01*
X140832277Y-58805654D01*
X140796638Y-58824704D01*
X140757968Y-58836435D01*
X140711612Y-58841000D01*
X140060388Y-58841000D01*
X140014032Y-58836435D01*
X139975362Y-58824704D01*
X139939723Y-58805654D01*
X139908483Y-58780017D01*
X139882846Y-58748777D01*
X139863796Y-58713138D01*
X139852065Y-58674468D01*
X139847500Y-58628112D01*
X139847500Y-57551888D01*
X139852065Y-57505532D01*
X139863796Y-57466862D01*
X139882846Y-57431223D01*
X139908483Y-57399983D01*
X139939723Y-57374346D01*
X139975362Y-57355296D01*
X140014032Y-57343565D01*
X140060388Y-57339000D01*
X140711612Y-57339000D01*
X140757968Y-57343565D01*
G37*
G36*
X138217968Y-57343565D02*
G01*
X138256638Y-57355296D01*
X138292277Y-57374346D01*
X138323517Y-57399983D01*
X138349154Y-57431223D01*
X138368204Y-57466862D01*
X138379935Y-57505532D01*
X138384500Y-57551888D01*
X138384500Y-58628112D01*
X138379935Y-58674468D01*
X138368204Y-58713138D01*
X138349154Y-58748777D01*
X138323517Y-58780017D01*
X138292277Y-58805654D01*
X138256638Y-58824704D01*
X138217968Y-58836435D01*
X138171612Y-58841000D01*
X137520388Y-58841000D01*
X137474032Y-58836435D01*
X137435362Y-58824704D01*
X137399723Y-58805654D01*
X137368483Y-58780017D01*
X137342846Y-58748777D01*
X137323796Y-58713138D01*
X137312065Y-58674468D01*
X137307500Y-58628112D01*
X137307500Y-57551888D01*
X137312065Y-57505532D01*
X137323796Y-57466862D01*
X137342846Y-57431223D01*
X137368483Y-57399983D01*
X137399723Y-57374346D01*
X137435362Y-57355296D01*
X137474032Y-57343565D01*
X137520388Y-57339000D01*
X138171612Y-57339000D01*
X138217968Y-57343565D01*
G37*
G36*
X136342968Y-57343565D02*
G01*
X136381638Y-57355296D01*
X136417277Y-57374346D01*
X136448517Y-57399983D01*
X136474154Y-57431223D01*
X136493204Y-57466862D01*
X136504935Y-57505532D01*
X136509500Y-57551888D01*
X136509500Y-58628112D01*
X136504935Y-58674468D01*
X136493204Y-58713138D01*
X136474154Y-58748777D01*
X136448517Y-58780017D01*
X136417277Y-58805654D01*
X136381638Y-58824704D01*
X136342968Y-58836435D01*
X136296612Y-58841000D01*
X135645388Y-58841000D01*
X135599032Y-58836435D01*
X135560362Y-58824704D01*
X135524723Y-58805654D01*
X135493483Y-58780017D01*
X135467846Y-58748777D01*
X135448796Y-58713138D01*
X135437065Y-58674468D01*
X135432500Y-58628112D01*
X135432500Y-57551888D01*
X135437065Y-57505532D01*
X135448796Y-57466862D01*
X135467846Y-57431223D01*
X135493483Y-57399983D01*
X135524723Y-57374346D01*
X135560362Y-57355296D01*
X135599032Y-57343565D01*
X135645388Y-57339000D01*
X136296612Y-57339000D01*
X136342968Y-57343565D01*
G37*
G36*
X142632968Y-57343565D02*
G01*
X142671638Y-57355296D01*
X142707277Y-57374346D01*
X142738517Y-57399983D01*
X142764154Y-57431223D01*
X142783204Y-57466862D01*
X142794935Y-57505532D01*
X142799500Y-57551888D01*
X142799500Y-58628112D01*
X142794935Y-58674468D01*
X142783204Y-58713138D01*
X142764154Y-58748777D01*
X142738517Y-58780017D01*
X142707277Y-58805654D01*
X142671638Y-58824704D01*
X142632968Y-58836435D01*
X142586612Y-58841000D01*
X141935388Y-58841000D01*
X141889032Y-58836435D01*
X141850362Y-58824704D01*
X141814723Y-58805654D01*
X141783483Y-58780017D01*
X141757846Y-58748777D01*
X141738796Y-58713138D01*
X141727065Y-58674468D01*
X141722500Y-58628112D01*
X141722500Y-57551888D01*
X141727065Y-57505532D01*
X141738796Y-57466862D01*
X141757846Y-57431223D01*
X141783483Y-57399983D01*
X141814723Y-57374346D01*
X141850362Y-57355296D01*
X141889032Y-57343565D01*
X141935388Y-57339000D01*
X142586612Y-57339000D01*
X142632968Y-57343565D01*
G37*
G36*
X106676487Y-54044996D02*
G01*
X106908260Y-54141000D01*
X106913255Y-54143069D01*
X107063627Y-54243544D01*
X107126339Y-54285447D01*
X107307553Y-54466661D01*
X107449932Y-54679747D01*
X107548004Y-54916513D01*
X107598000Y-55167861D01*
X107598000Y-55424139D01*
X107548004Y-55675487D01*
X107520514Y-55741853D01*
X107449931Y-55912255D01*
X107307553Y-56125339D01*
X107126339Y-56306553D01*
X106913255Y-56448931D01*
X106913254Y-56448932D01*
X106913253Y-56448932D01*
X106676487Y-56547004D01*
X106425139Y-56597000D01*
X106168861Y-56597000D01*
X105917513Y-56547004D01*
X105680747Y-56448932D01*
X105680746Y-56448932D01*
X105680745Y-56448931D01*
X105467661Y-56306553D01*
X105286447Y-56125339D01*
X105144069Y-55912255D01*
X105073486Y-55741853D01*
X105045996Y-55675487D01*
X104996000Y-55424139D01*
X104996000Y-55167861D01*
X105045996Y-54916513D01*
X105144068Y-54679747D01*
X105286447Y-54466661D01*
X105467661Y-54285447D01*
X105530373Y-54243544D01*
X105680745Y-54143069D01*
X105685740Y-54141000D01*
X105917513Y-54044996D01*
X106168861Y-53995000D01*
X106425139Y-53995000D01*
X106676487Y-54044996D01*
G37*
G36*
X110336487Y-54044996D02*
G01*
X110568260Y-54141000D01*
X110573255Y-54143069D01*
X110723627Y-54243544D01*
X110786339Y-54285447D01*
X110967553Y-54466661D01*
X111109932Y-54679747D01*
X111208004Y-54916513D01*
X111258000Y-55167861D01*
X111258000Y-55424139D01*
X111208004Y-55675487D01*
X111180514Y-55741853D01*
X111109931Y-55912255D01*
X110967553Y-56125339D01*
X110786339Y-56306553D01*
X110573255Y-56448931D01*
X110573254Y-56448932D01*
X110573253Y-56448932D01*
X110336487Y-56547004D01*
X110085139Y-56597000D01*
X109828861Y-56597000D01*
X109577513Y-56547004D01*
X109340747Y-56448932D01*
X109340746Y-56448932D01*
X109340745Y-56448931D01*
X109127661Y-56306553D01*
X108946447Y-56125339D01*
X108804069Y-55912255D01*
X108733486Y-55741853D01*
X108705996Y-55675487D01*
X108656000Y-55424139D01*
X108656000Y-55167861D01*
X108705996Y-54916513D01*
X108804068Y-54679747D01*
X108946447Y-54466661D01*
X109127661Y-54285447D01*
X109190373Y-54243544D01*
X109340745Y-54143069D01*
X109345740Y-54141000D01*
X109577513Y-54044996D01*
X109828861Y-53995000D01*
X110085139Y-53995000D01*
X110336487Y-54044996D01*
G37*
G36*
X114806487Y-54044996D02*
G01*
X115038260Y-54141000D01*
X115043255Y-54143069D01*
X115193627Y-54243544D01*
X115256339Y-54285447D01*
X115437553Y-54466661D01*
X115579932Y-54679747D01*
X115678004Y-54916513D01*
X115728000Y-55167861D01*
X115728000Y-55424139D01*
X115678004Y-55675487D01*
X115650514Y-55741853D01*
X115579931Y-55912255D01*
X115437553Y-56125339D01*
X115256339Y-56306553D01*
X115043255Y-56448931D01*
X115043254Y-56448932D01*
X115043253Y-56448932D01*
X114806487Y-56547004D01*
X114555139Y-56597000D01*
X114298861Y-56597000D01*
X114047513Y-56547004D01*
X113810747Y-56448932D01*
X113810746Y-56448932D01*
X113810745Y-56448931D01*
X113597661Y-56306553D01*
X113416447Y-56125339D01*
X113274069Y-55912255D01*
X113203486Y-55741853D01*
X113175996Y-55675487D01*
X113126000Y-55424139D01*
X113126000Y-55167861D01*
X113175996Y-54916513D01*
X113274068Y-54679747D01*
X113416447Y-54466661D01*
X113597661Y-54285447D01*
X113660373Y-54243544D01*
X113810745Y-54143069D01*
X113815740Y-54141000D01*
X114047513Y-54044996D01*
X114298861Y-53995000D01*
X114555139Y-53995000D01*
X114806487Y-54044996D01*
G37*
G36*
X118466487Y-54044996D02*
G01*
X118698260Y-54141000D01*
X118703255Y-54143069D01*
X118853627Y-54243544D01*
X118916339Y-54285447D01*
X119097553Y-54466661D01*
X119239932Y-54679747D01*
X119338004Y-54916513D01*
X119388000Y-55167861D01*
X119388000Y-55424139D01*
X119338004Y-55675487D01*
X119310514Y-55741853D01*
X119239931Y-55912255D01*
X119097553Y-56125339D01*
X118916339Y-56306553D01*
X118703255Y-56448931D01*
X118703254Y-56448932D01*
X118703253Y-56448932D01*
X118466487Y-56547004D01*
X118215139Y-56597000D01*
X117958861Y-56597000D01*
X117707513Y-56547004D01*
X117470747Y-56448932D01*
X117470746Y-56448932D01*
X117470745Y-56448931D01*
X117257661Y-56306553D01*
X117076447Y-56125339D01*
X116934069Y-55912255D01*
X116863486Y-55741853D01*
X116835996Y-55675487D01*
X116786000Y-55424139D01*
X116786000Y-55167861D01*
X116835996Y-54916513D01*
X116934068Y-54679747D01*
X117076447Y-54466661D01*
X117257661Y-54285447D01*
X117320373Y-54243544D01*
X117470745Y-54143069D01*
X117475740Y-54141000D01*
X117707513Y-54044996D01*
X117958861Y-53995000D01*
X118215139Y-53995000D01*
X118466487Y-54044996D01*
G37*
G36*
X143025138Y-54143068D02*
G01*
X143188812Y-54175624D01*
X143352784Y-54243544D01*
X143500354Y-54342147D01*
X143625853Y-54467646D01*
X143724456Y-54615216D01*
X143792376Y-54779188D01*
X143827000Y-54953259D01*
X143827000Y-55130741D01*
X143792376Y-55304812D01*
X143724456Y-55468784D01*
X143625853Y-55616354D01*
X143500354Y-55741853D01*
X143352784Y-55840456D01*
X143188812Y-55908376D01*
X143039512Y-55938073D01*
X143014742Y-55943000D01*
X142837258Y-55943000D01*
X142812488Y-55938073D01*
X142663188Y-55908376D01*
X142499216Y-55840456D01*
X142351646Y-55741853D01*
X142226147Y-55616354D01*
X142127544Y-55468784D01*
X142059624Y-55304812D01*
X142025000Y-55130741D01*
X142025000Y-54953259D01*
X142059624Y-54779188D01*
X142127544Y-54615216D01*
X142226147Y-54467646D01*
X142351646Y-54342147D01*
X142499216Y-54243544D01*
X142663188Y-54175624D01*
X142826862Y-54143068D01*
X142837258Y-54141000D01*
X143014742Y-54141000D01*
X143025138Y-54143068D01*
G37*
G36*
X140485138Y-54143068D02*
G01*
X140648812Y-54175624D01*
X140812784Y-54243544D01*
X140960354Y-54342147D01*
X141085853Y-54467646D01*
X141184456Y-54615216D01*
X141252376Y-54779188D01*
X141287000Y-54953259D01*
X141287000Y-55130741D01*
X141252376Y-55304812D01*
X141184456Y-55468784D01*
X141085853Y-55616354D01*
X140960354Y-55741853D01*
X140812784Y-55840456D01*
X140648812Y-55908376D01*
X140499512Y-55938073D01*
X140474742Y-55943000D01*
X140297258Y-55943000D01*
X140272488Y-55938073D01*
X140123188Y-55908376D01*
X139959216Y-55840456D01*
X139811646Y-55741853D01*
X139686147Y-55616354D01*
X139587544Y-55468784D01*
X139519624Y-55304812D01*
X139485000Y-55130741D01*
X139485000Y-54953259D01*
X139519624Y-54779188D01*
X139587544Y-54615216D01*
X139686147Y-54467646D01*
X139811646Y-54342147D01*
X139959216Y-54243544D01*
X140123188Y-54175624D01*
X140286862Y-54143068D01*
X140297258Y-54141000D01*
X140474742Y-54141000D01*
X140485138Y-54143068D01*
G37*
G36*
X137945138Y-54143068D02*
G01*
X138108812Y-54175624D01*
X138272784Y-54243544D01*
X138420354Y-54342147D01*
X138545853Y-54467646D01*
X138644456Y-54615216D01*
X138712376Y-54779188D01*
X138747000Y-54953259D01*
X138747000Y-55130741D01*
X138712376Y-55304812D01*
X138644456Y-55468784D01*
X138545853Y-55616354D01*
X138420354Y-55741853D01*
X138272784Y-55840456D01*
X138108812Y-55908376D01*
X137959512Y-55938073D01*
X137934742Y-55943000D01*
X137757258Y-55943000D01*
X137732488Y-55938073D01*
X137583188Y-55908376D01*
X137419216Y-55840456D01*
X137271646Y-55741853D01*
X137146147Y-55616354D01*
X137047544Y-55468784D01*
X136979624Y-55304812D01*
X136945000Y-55130741D01*
X136945000Y-54953259D01*
X136979624Y-54779188D01*
X137047544Y-54615216D01*
X137146147Y-54467646D01*
X137271646Y-54342147D01*
X137419216Y-54243544D01*
X137583188Y-54175624D01*
X137746862Y-54143068D01*
X137757258Y-54141000D01*
X137934742Y-54141000D01*
X137945138Y-54143068D01*
G37*
G36*
X136207000Y-55943000D02*
G01*
X134405000Y-55943000D01*
X134405000Y-54141000D01*
X136207000Y-54141000D01*
X136207000Y-55943000D01*
G37*
M02*
